<?xml version="1.0" encoding="utf-8"?>
<!-- Generator: Adobe Illustrator 24.2.1, SVG Export Plug-In . SVG Version: 6.00 Build 0)  -->
<svg version="1.1" id="Layer_1" xmlns="http://www.w3.org/2000/svg" xmlns:xlink="http://www.w3.org/1999/xlink" x="0px" y="0px"
	 viewBox="0 0 512 512" style="enable-background:new 0 0 512 512;" xml:space="preserve">
<style type="text/css">
	.st0{fill:#E74C3C;}
</style>
<g>
	<path class="st0" d="M185.6,397.7c-9.5,9.5-22.2,14.8-35.6,14.8c-27.8,0-50.4-22.6-50.4-50.4c0-13.5,5.2-26.1,14.8-35.6l80-80
		l-69.8-69.8l-80.8,80.8C15.5,285.6,0,323.1,0,362.9C0,445.1,66.9,512,149.1,512c39.8,0,77.3-15.5,105.4-43.7l80.8-80.8l-69.8-69.8
		L185.6,397.7z M311.9,387.6l-25.6,25.5l-6.6-6.6L268,418.2l6.6,6.6l-31.7,31.7c-25,25-58.3,38.8-93.7,38.8
		c-73.1,0-132.5-59.4-132.5-132.5c0-35.4,13.8-68.7,38.8-93.7l31.7-31.7l31.5,31.5l11.7-11.7l-31.5-31.5l25.6-25.6l46.3,46.3
		L145.2,272l-6.6-6.6l-11.7,11.7l6.6,6.6l-30.9,30.9C89.9,327.3,83,344.2,83,362.1c0,36.9,30,67,67,67c17.9,0,34.7-7,47.4-19.6
		l30.9-30.9l31.5,31.5l11.7-11.7L240,366.9l25.6-25.6L311.9,387.6z"/>
	<path class="st0" d="M207.4,155.2c27.5,0,49.8-22.3,49.8-49.8s-22.3-49.8-49.8-49.8s-49.8,22.3-49.8,49.8S180,155.2,207.4,155.2z
		 M207.4,72.2c18.3,0,33.2,14.9,33.2,33.2c0,18.3-14.9,33.2-33.2,33.2c-18.3,0-33.2-14.9-33.2-33.2
		C174.2,87.1,189.1,72.2,207.4,72.2z"/>
	<path class="st0" d="M423.2,155.2c0-27.5-22.3-49.8-49.8-49.8s-49.8,22.3-49.8,49.8s22.3,49.8,49.8,49.8
		C400.8,205,423.2,182.7,423.2,155.2z M340.2,155.2c0-18.3,14.9-33.2,33.2-33.2c18.3,0,33.2,14.9,33.2,33.2
		c0,18.3-14.9,33.2-33.2,33.2C355.1,188.4,340.2,173.5,340.2,155.2z"/>
	<path class="st0" d="M414.9,238.2c-27.5,0-49.8,22.3-49.8,49.8s22.3,49.8,49.8,49.8s49.8-22.3,49.8-49.8
		C464.6,260.5,442.3,238.2,414.9,238.2z M414.9,321.2c-18.3,0-33.2-14.9-33.2-33.2c0-18.3,14.9-33.2,33.2-33.2
		c18.3,0,33.1,14.9,33.1,33.2S433.2,321.2,414.9,321.2z"/>
	
		<rect x="200.6" y="14.2" transform="matrix(0.7071 -0.7071 0.7071 0.7071 49.7055 164.9902)" class="st0" width="46.9" height="16.6"/>
	
		<rect x="236.9" y="26.6" transform="matrix(0.7071 -0.7071 0.7071 0.7071 56.7123 206.7467)" class="st0" width="82.1" height="16.6"/>
	
		<rect x="265.1" y="84.7" transform="matrix(0.7071 -0.7071 0.7071 0.7071 20.4842 235.4606)" class="st0" width="58.7" height="16.6"/>
	<rect x="352.2" y="49.4" transform="matrix(0.7071 -0.7071 0.7071 0.7071 75.2486 297.07)" class="st0" width="88" height="16.6"/>
	
		<rect x="407.1" y="78.4" transform="matrix(0.7071 -0.7071 0.7071 0.7071 65.6384 331.9393)" class="st0" width="52.8" height="16.6"/>
	
		<rect x="456" y="26.6" transform="matrix(0.7071 -0.7071 0.7071 0.7071 117.5059 353.4271)" class="st0" width="58.7" height="16.6"/>
	
		<rect x="451.2" y="109.6" transform="matrix(0.7071 -0.7071 0.7071 0.7071 53.9767 366.0192)" class="st0" width="35.2" height="16.6"/>
	
		<rect x="408" y="196.6" transform="matrix(0.7071 -0.7071 0.7071 0.7071 -18.5428 365.0919)" class="st0" width="46.9" height="16.6"/>
	
		<rect x="446.1" y="205" transform="matrix(0.7071 -0.7071 0.7071 0.7071 -9.8669 402.7836)" class="st0" width="70.4" height="16.6"/>
	
		<rect x="476.1" y="258.9" transform="matrix(0.7071 -0.7071 0.7071 0.7071 -44.3754 427.3669)" class="st0" width="35.2" height="16.6"/>
</g>
</svg>
