<?xml version="1.0" encoding="utf-8"?>
<!-- Generator: Adobe Illustrator 24.2.1, SVG Export Plug-In . SVG Version: 6.00 Build 0)  -->
<svg version="1.1" id="Capa_1" xmlns="http://www.w3.org/2000/svg" xmlns:xlink="http://www.w3.org/1999/xlink" x="0px" y="0px"
	 viewBox="0 0 800 800" style="enable-background:new 0 0 800 800;" xml:space="preserve">
<style type="text/css">
	.st0{fill:#ECC132;}
</style>
<g>
	<path class="st0" d="M482.5,87.8H342.3c-4.8,0-8.8,3.9-8.8,8.8c0,4.8,3.9,8.8,8.8,8.8h140.2c4.8,0,8.8-3.9,8.8-8.8
		C491.3,91.8,487.4,87.8,482.5,87.8z"/>
	<path class="st0" d="M459.2,122.9h-93.5c-4.8,0-8.8,3.9-8.8,8.8c0,4.9,3.9,8.8,8.8,8.8h93.5c4.8,0,8.8-3.9,8.8-8.8
		C468,126.8,464,122.9,459.2,122.9z"/>
	<path class="st0" d="M447.5,286.6h-26.3h-17.5h-26.3c-4.8,0-8.8,3.9-8.8,8.8c0,4.8,3.9,8.8,8.8,8.8h26.3h17.5h26.3
		c4.8,0,8.8-3.9,8.8-8.8C456.3,290.5,452.3,286.6,447.5,286.6z"/>
	<path class="st0" d="M450.1,407.8c0.1-0.5,0.1-0.9,0.1-1.4c0.2-4.8-3.7-8.8-8.6-8.8h-58.4c-4.8,0-8.8,3.9-8.8,8.8
		c0,0.5,0.1,1,0.1,1.4c0.7,4.2,4.3,7.3,8.6,7.3h20.4H421h20.5C445.8,415.1,449.4,411.9,450.1,407.8z"/>
	<path class="st0" d="M470.9,251.5H354c-4.8,0-8.8,3.9-8.8,8.8c0,4.8,3.9,8.8,8.8,8.8h13.1h36.6h17.5h36.6h13.1
		c4.8,0,8.8-3.9,8.8-8.8C479.6,255.4,475.7,251.5,470.9,251.5z"/>
	<path class="st0" d="M628.2,705.5l-9.1-3.7c45.9-51,71.1-116.6,71.1-185.5c-0.1-56.4-17.1-110.7-48.2-156.3c-0.4-0.7-0.8-1.4-1.4-2
		c-13.6-19.6-29.8-37.6-48.4-53.4c-1.1-0.9-2.3-1.5-3.6-1.8L582,319c14.5,12.4,27.4,26.3,38.6,41.2c-17.9,7-39.2,12.9-62.9,17.7
		l-12.3,29.8c8.1,31,12.6,64.8,13.3,99.7H504l-7.3,17.5h61.8c-0.1,5.9-0.3,11.9-0.7,17.7c-29.8,3-53.2,28.2-53.2,58.8V617
		c-5.6,4.5-9.2,11.5-9.2,19.3c0,13.1,10.2,23.8,23.1,24.7c3.5,10.7,10.8,19.7,20.4,25.3v4.9L511.5,702c-7.3-7.8-15.5-12.5-21.4-14.5
		l-45.4-18.2v-9c12.4-6.9,21.9-18.5,26-32.4c15.5-0.4,28-13.2,28-28.8c0-9.4-4.5-17.7-11.4-23v-20.5c0-10.2-2.3-19.9-6.1-28.7
		l0.8-1.9l7.3-17.5l44.5-107.6l15.3-37L676,56.3c4.1-10,3-21.2-3-30.2c-6-8.9-16-14.3-26.7-14.3H178.6c-10.8,0-20.7,5.3-26.7,14.3
		c-6,8.9-7.1,20.2-3,30.2l98,237l7,16.9l21.8,52.7l15.3,37l44.5,107.6l7.3,17.5l1.2,3.1l0,0c-3.5,8.4-5.4,17.8-5.4,27.5V576
		c-7,5.3-11.5,13.6-11.5,23c0,15.7,12.7,28.6,28.4,28.8c4.1,13.9,13.6,25.5,26,32.4v8.9L335,687.4c-5.9,2-14.1,6.7-21.4,14.5
		l-26.5-10.6v-5c9.6-5.6,16.9-14.6,20.4-25.3c12.8-1,22.8-11.7,22.8-24.7c0-7.7-3.6-14.7-9.1-19.2v-15.6c0-30.9-23.9-56.4-54.2-58.9
		c-0.3-5.9-0.6-11.8-0.7-17.7h61.8l-7.3-17.5h-54.5c0.7-35,5.2-68.7,13.3-99.7l-12.3-29.8c-23.7-4.8-45-10.7-62.8-17.6
		c11.3-15.1,24.3-28.8,38.5-41.1l-7.1-17.2c-6.8,5.6-13.4,11.6-19.7,17.9c-52.4,52.4-81.3,122.2-81.3,196.3
		c0,69,25.2,134.6,71.2,185.6l-9,3.5c-3.3,1.2-31.5,12.5-31.5,48.3V785c0,4.8,3.9,8.8,8.8,8.8h129.1c0.4,0,0.8,0,1.2-0.1
		c0.4,0.1,0.8,0.1,1.2,0.1H351c4.8,0,8.8-3.9,8.8-8.8s-3.9-8.8-8.8-8.8h-36.5v-30.5c0-32.2,25.3-41.5,26.3-41.8
		c0.1,0,0.3-0.1,0.4-0.1l42.7-16.7c0.1,0.1,0.2,0.2,0.3,0.3l22.7,22.1c1.6,1.6,3.8,2.5,6.1,2.5h0.1c2.3,0,4.6-1,6.2-2.7l21.8-22.6
		l42.6,17.1c0.2,0.1,0.3,0.1,0.4,0.2c1.1,0.4,26.4,9.7,26.4,41.9v30.5H397.6c-4.8,0-8.8,3.9-8.8,8.8c0,4.8,3.9,8.8,8.8,8.8h253.3
		c4.8,0,8.8-4,8.8-8.8v-31.4C659.7,718.1,631.7,706.8,628.2,705.5z M516.3,642.4c-2-1.3-3.3-3.5-3.3-6.1s1.3-4.8,3.3-6.1V642.4z
		 M309.7,630.4c1.8,1.3,3.1,3.5,3.1,5.9s-1.2,4.6-3.1,5.9V630.4z M292.2,646.9c0,15.5-12.6,28.1-28.1,28.1h-8
		c-15.5,0-28.1-12.6-28.1-28.1v-23.2c11.4-1.2,31.6-5.2,47.2-18.3c3.5,6,8.9,12.5,17,16.2V646.9z M269.5,692.2v4.9l-9.8,10.1
		l-9.2-8.9v-6.1c1.8,0.2,3.6,0.3,5.5,0.3h8C265.9,692.5,267.7,692.4,269.5,692.2z M303.6,601.5v5.6c-0.2-0.1-0.3-0.1-0.5-0.1
		c-0.1,0-0.2,0-0.2-0.1c-12.2-2.8-16.2-19.1-16.2-19.2c-0.8-3.4-3.4-6-6.8-6.7c-3.4-0.7-6.8,0.7-8.9,3.4
		c-15.9,22-51.3,22.2-51.7,22.2c-0.3,0-0.6,0-0.9,0c-0.1,0-0.2,0-0.3,0c-0.2,0-0.4,0.1-0.6,0.1c-0.1,0-0.2,0.1-0.4,0.1
		c-0.2,0-0.3,0.1-0.5,0.1c-0.1,0-0.2,0.1-0.3,0.1v-5.7c0-22.9,18.6-41.6,41.6-41.6h4.2C285,560,303.6,578.6,303.6,601.5z M194.1,375
		c19.8,8.1,43.8,14.9,70.7,20.2c-9.8,34.7-15.4,72.7-16.1,112.2h-96.3C154.1,458.8,169.2,413.4,194.1,375z M152.5,525h96.3
		c0.1,6,0.3,12.1,0.7,18.1c-28.6,4.1-50.6,28.8-50.6,58.5V617c-5.6,4.5-9.2,11.5-9.2,19.3c0,13.1,10.2,23.8,23.1,24.7
		c3.5,10.7,10.8,19.7,20.4,25.3v4.9l-9.6,3.7C179.6,648.6,154.6,588.6,152.5,525z M210.4,630.2v12.2c-2-1.3-3.3-3.5-3.3-6.1
		C207.1,633.8,208.4,631.5,210.4,630.2z M296.9,745.8v30.5h-114v-22.7c0-24.4,19.1-31.5,19.8-31.8c0.1,0,0.3-0.1,0.4-0.1l33.1-13
		l17.6,17.1c1.6,1.6,3.8,2.5,6.1,2.5h0.1c2.3,0,4.6-1,6.2-2.7l16.6-17.2l20.5,8.2C299.5,724.7,296.9,734.3,296.9,745.8z M473,609.8
		v-21.6c4.7,1.3,8.2,5.7,8.2,10.8C481.2,604.2,477.7,608.5,473,609.8z M340.5,473.9h63.2h17.5h10.1c4.8,0,8.8-3.9,8.8-8.8
		c0-4.8-3.9-8.8-8.8-8.8h-10.1h-17.5h-70.4l-22.1-53.5l-7.7-18.7l-8.8-21.2l-2.5-6h5h106.5h17.5h56.7c4.8,0,8.8-3.9,8.8-8.8
		c0-4.8-3.9-8.8-8.8-8.8h-56.7h-17.5h-98H286h-1.1l-16.4-39.6l-6.9-16.6l-27.5-66.6h300.6c4.8,0,8.8-3.9,8.8-8.8
		c0-4.8-3.9-8.8-8.8-8.8H226.9L165.1,49.6c-1.9-4.6-1.4-9.6,1.4-13.7c2.8-4.1,7.2-6.5,12.1-6.5h467.7c5,0,9.4,2.4,12.1,6.5
		c2.8,4.1,3.3,9.1,1.4,13.7L598,198.9h-28c-4.8,0-8.8,3.9-8.8,8.8c0,4.8,3.9,8.8,8.8,8.8h20.8L563.2,283l-6.8,16.5L540,339.2h-1.1
		h-19.6H512c-4.8,0-8.8,3.9-8.8,8.8c0,4.8,3.9,8.8,8.8,8.8h15.7h5l-2.5,6l-8.8,21.3l-7.7,18.7l-22.1,53.5h-28
		c-4.8,0-8.8,3.9-8.8,8.8c0,4.8,3.9,8.8,8.8,8.8h20.8l-14,33.8h-1.6c-12-13.2-28.8-22-47.6-23.4l-17.5,0.1
		c-18.4,1.7-34.8,10.4-46.5,23.4c-0.3,0-0.6-0.1-1-0.1h-1.7L340.5,473.9z M353.3,610c-4.9-1.2-8.6-5.7-8.6-10.9
		c0-5.3,3.7-9.7,8.6-10.9V610z M361.3,564.3c-0.1,0-0.2,0-0.3,0c-0.2,0-0.4,0-0.6,0.1c-0.1,0-0.2,0.1-0.4,0.1
		c-0.2,0-0.3,0.1-0.5,0.1c-0.1,0-0.3,0.1-0.4,0.1c-0.1,0-0.3,0.1-0.4,0.1c-0.2,0.1-0.3,0.1-0.5,0.2c-0.1,0-0.2,0.1-0.3,0.1
		c-0.2,0.1-0.3,0.2-0.5,0.3c-0.1,0.1-0.2,0.1-0.3,0.2c-0.1,0.1-0.3,0.2-0.4,0.3c-0.1,0.1-0.2,0.1-0.3,0.2c-0.1,0.1-0.2,0.1-0.2,0.2
		c0,0,0.1-11.4,0.1-11.6c0.1-9.4,2.7-18.2,7-25.9c9.3-16.4,26.9-27.5,47.1-27.5h5.2c19.7,0,36.9,10.5,46.4,26.3
		c4.5,7.5,7.3,16.2,7.7,25.5c0,0.8,0.2,1.7,0.2,2.5v10.7c-0.1,0-0.1-0.1-0.2-0.1c-0.1-0.1-0.3-0.2-0.4-0.3c-0.1-0.1-0.2-0.1-0.3-0.2
		c-0.1-0.1-0.3-0.2-0.4-0.2c-0.1-0.1-0.3-0.1-0.4-0.2c-0.1-0.1-0.2-0.1-0.4-0.2c-0.2-0.1-0.3-0.1-0.5-0.2c-0.1,0-0.2-0.1-0.3-0.1
		c-0.2-0.1-0.4-0.1-0.5-0.1c-0.1,0-0.2-0.1-0.2-0.1c-2.1-0.5-4.3-1.4-6-2.4c-5.7-3.2-9.6-8.6-12.2-13.4c-2.8-5.3-3.9-9.9-3.9-10
		c-0.8-3.4-3.4-6-6.8-6.7c-3.4-0.7-6.8,0.7-8.9,3.5c-4.2,5.8-9.4,10.4-15.1,14.1c-16.3,10.6-36.3,13.5-45.9,14.3c0,0,0,0,0,0
		c-3.2,0.3-5.2,0.3-5.3,0.3C361.9,564.3,361.6,564.3,361.3,564.3z M382,567.2l-0.1,0c0,0,0,0,0,0H382z M427.2,675.3v0.6l-14.4,14.9
		l-13.7-13.4v-11c2.9,0.5,6,0.8,9.1,0.8h10c3.1,0,6.1-0.3,9-0.8V675.3z M418.3,649.6h-10c-20.6,0-37.3-16.7-37.3-37.3v-31
		c10.9-1,29.9-4.2,47.5-14.1h0c4.9-2.8,9.7-6.2,14.1-10.2c1.7,3.3,4,6.8,6.8,10.2c4,4.8,9.5,9.4,16.2,12.2v32.9
		C455.6,632.9,438.9,649.6,418.3,649.6z M601.6,694.8l-8.6-3.5v-5c9.5-5.6,16.9-14.6,20.4-25.3c12.8-1,22.8-11.7,22.8-24.7
		c0-7.7-3.6-14.7-9.1-19.2v-15.6c0-30-22.5-54.9-51.6-58.6c0.3-5.9,0.6-11.9,0.7-17.9h96.3C670.3,588.5,645.4,648.4,601.6,694.8z
		 M615.6,642.2v-11.8c1.8,1.3,3.1,3.5,3.1,5.9S617.4,640.9,615.6,642.2z M630.9,375c25.4,39.2,39.9,84.9,41.5,132.5h-96.3
		c-0.7-39.5-6.2-77.5-16.1-112.2C587,389.9,611,383.1,630.9,375z M525.1,606.7c-0.3,0-0.6,0-0.9,0c-0.1,0-0.2,0-0.3,0
		c-0.2,0-0.4,0.1-0.6,0.1c-0.1,0-0.3,0.1-0.4,0.1c-0.1,0-0.3,0.1-0.4,0.1c-0.1,0-0.2,0.1-0.3,0.1v-5.7c0-22.9,18.6-41.6,41.6-41.6
		h4.2c22.9,0,41.6,18.6,41.6,41.6v5.6c-0.2-0.1-0.3-0.1-0.5-0.1c-0.1,0-0.2,0-0.2-0.1c-12.2-2.8-16.2-19.1-16.3-19.2
		c-0.8-3.4-3.4-6-6.8-6.7c-3.4-0.7-6.8,0.7-8.9,3.5C561,606.5,525.6,606.7,525.1,606.7z M533.9,646.9v-23.2
		c11.4-1.2,31.7-5.2,47.2-18.3c3.5,6,8.9,12.5,17,16.2v25.2c0,15.5-12.6,28.1-28.1,28.1h-8C546.5,675,533.9,662.4,533.9,646.9z
		 M575.4,692.2v4.9l-9.8,10.1l-9.2-8.9v-6.1c1.8,0.2,3.6,0.3,5.5,0.3h8C571.8,692.5,573.6,692.4,575.4,692.2z M642.1,776.4h-114
		v-30.5c0-11.4-2.5-21.1-6.4-29l20.5-8l17.6,17.1c1.6,1.6,3.8,2.5,6.1,2.5h0.1c2.3,0,4.6-1,6.2-2.7l16.6-17.2l33,13.1
		c0.2,0.1,0.2,0.1,0.4,0.2c0.8,0.3,19.9,7.4,19.9,31.8V776.4z"/>
</g>
</svg>
