<?xml version="1.0" encoding="utf-8"?>
<!-- Generator: Adobe Illustrator 24.2.1, SVG Export Plug-In . SVG Version: 6.00 Build 0)  -->
<svg version="1.1" id="Capa_1" xmlns="http://www.w3.org/2000/svg" xmlns:xlink="http://www.w3.org/1999/xlink" x="0px" y="0px"
	 viewBox="0 0 512 512" style="enable-background:new 0 0 512 512;" xml:space="preserve">
<style type="text/css">
	.st0{fill:#ECC132;}
</style>
<g>
	<g>
		<path class="st0" d="M154.2,115.2c-2.5,0-4.6,2.1-4.6,4.6c0,2.5,2,4.5,4.6,4.5c2.5,0,4.6,2.1,4.6,4.6s2.1,4.6,4.6,4.6
			s4.6-2.1,4.6-4.6C168,121.3,161.8,115.2,154.2,115.2z"/>
		<path class="st0" d="M162.9,137.5c-2.5,0-4.6,2.1-4.6,4.6s-2.1,4.6-4.6,4.6c-2.5,0-4.6,2.1-4.6,4.6c0,2.5,2.1,4.6,4.6,4.6
			c7.6,0,13.8-6.1,13.8-13.7C167.4,139.5,165.4,137.5,162.9,137.5z"/>
		<path class="st0" d="M119.3,133.5c2.5,0,4.6-2,4.6-4.5c0-2.5,2.1-4.6,4.6-4.6s4.6-2.1,4.6-4.6c0-2.5-2.1-4.6-4.6-4.6
			c-7.6,0-13.8,6.1-13.8,13.7C114.7,131.4,116.8,133.5,119.3,133.5z"/>
		<path class="st0" d="M129,146.6c-2.5,0-4.6-2.1-4.6-4.6s-2.1-4.6-4.6-4.6c-2.5,0-4.6,2.1-4.6,4.6c0,7.6,6.2,13.7,13.8,13.7
			c2.5,0,4.6-2.1,4.6-4.6C133.6,148.6,131.6,146.6,129,146.6z"/>
		<path class="st0" d="M197.5,161.8l-0.9-2.5c-0.3-0.8-1-1.3-1.9-1.3h-8.3c0.3-1.4,0.5-2.8,0.5-4.2c0-2.1-0.3-4-0.9-6
			c2.7-3.5,4-7.7,4-12.2c0-5.5-2.2-10.8-6.2-14.8v-0.5c0-11.5-9.4-20.8-20.9-20.8h-6.8c-3.9-3.9-9.2-6.1-14.7-6.1
			c-5.5,0-10.8,2.2-14.7,6.1h-6.8c-11.5,0-20.9,9.3-20.9,20.8v0.5c-4,3.9-6.2,9.2-6.2,14.8c0,4.5,1.4,8.7,4,12.2c-0.6,2-0.9,4-0.9,6
			c0,1.4,0.2,2.8,0.5,4.2h-8.3c-0.9,0-1.6,0.6-1.9,1.4l-0.8,2.5c-1.5,5-2.3,9.9-2.4,14.5c-0.6,18.9,8.2,37.1,23.5,48.5
			c8.1,6,11.8,12.3,11.8,20.3v13.1h-5.5c-1.1,0-2,0.9-2,2v7.2c0,1.1,0.9,2,2,2h6.1c2.4,10.3,11.8,17.9,22.5,17.9
			c10.8,0,20.1-7.4,22.6-17.9h6.1c1.1,0,2-0.9,2-2v-7.2c0-1.1-0.9-2-2-2h-5.4v-13.2c0-8,3.6-14.1,11.9-20.4
			c14.8-11.1,23.3-28,23.3-46.4c0-5.4-0.8-10.9-2.4-16.4C197.5,161.9,197.5,161.9,197.5,161.8z M172.9,126.3l1.9,1.4
			c2.6,1.8,4.1,4.7,4.1,7.8c0,2.6-1.1,5.2-3.1,7l-2.1,1.9c-0.7,0.6-0.9,1.6-0.4,2.4l1.3,2.5c0.7,1.3,1.1,2.8,1.1,4.4
			c0,1.4-0.3,2.9-1,4.2H147v-51.5c0.8,0.6,1.5,1.2,2.1,2l1.1,1.4c0.4,0.5,1,0.8,1.6,0.8h11.1c5.4,0,9.8,4.3,9.8,9.6
			c0,0.5-0.1,1-0.2,1.7l-0.4,2.5C172,125.1,172.3,125.9,172.9,126.3z M129.3,258.3v-6.8h24.1v6.8H129.3z M146.9,240.3V205H159
			c1.1,0,2-0.9,2-2v-7.2c0-1.1-0.9-2-2-2h-35.6c-1.1,0-2,0.9-2,2v7.2c0,1.1,0.9,2,2,2h12.3v35.4H129c-1.3-9.5-6.5-17.5-15.9-24.4
			c-12.4-9.2-19.5-23.8-19-39.1c0.1-2.4,0.4-5,1-7.7h92.7c0.7,3.1,1,6.2,1,9.2c-0.2,15-7.2,28.6-19.1,37.4c0,0,0,0,0,0
			c-9.5,7.2-14.8,15.2-16.1,24.5H146.9z M152.2,269.4c-2,4.1-6.2,6.8-10.9,6.8c-4.7,0-8.8-2.7-10.8-6.8H152.2z M110.7,124.5
			l-0.4-2.3c0,0,0-0.1,0-0.1c-0.1-0.6-0.1-1.1-0.1-1.7c0-5.3,4.4-9.6,9.8-9.6H131c0.6,0,1.2-0.3,1.6-0.8l1.1-1.4
			c0.6-0.8,1.4-1.5,2.2-2.1V158h-27.7c-0.7-1.3-1-2.7-1-4.3c0-1.5,0.4-3,1.2-4.4l1.3-2.4c0.4-0.8,0.3-1.8-0.4-2.4l-2.1-1.9
			c-2-1.9-3.2-4.4-3.2-7.1c-0.1-3,1.4-5.9,3.9-7.7l1.9-1.3C110.5,126,110.8,125.2,110.7,124.5z"/>
		<path class="st0" d="M137.7,79.5h7.2c1.1,0,2-0.9,2-2V63.2c0-1.1-0.9-2-2-2h-7.2c-1.1,0-2,0.9-2,2v14.3
			C135.7,78.6,136.6,79.5,137.7,79.5z"/>
		<path class="st0" d="M91,91.6c0.5,0,1-0.2,1.4-0.6l5.1-5.1c0.8-0.8,0.8-2,0-2.8L87.4,73c-0.8-0.8-2-0.8-2.8,0l-5.1,5.1
			c-0.8,0.8-0.8,2,0,2.8L89.6,91C90,91.4,90.5,91.6,91,91.6z"/>
		<path class="st0" d="M73.2,129.3H58.9c-1.1,0-2,0.9-2,2v7.2c0,1.1,0.9,2,2,2h14.3c1.1,0,2-0.9,2-2v-7.2
			C75.2,130.2,74.3,129.3,73.2,129.3z"/>
		<path class="st0" d="M223.7,129.3h-14.3c-1.1,0-2,0.9-2,2v7.2c0,1.1,0.9,2,2,2h14.3c1.1,0,2-0.9,2-2v-7.2
			C225.7,130.2,224.8,129.3,223.7,129.3z"/>
		<path class="st0" d="M198,73.1c-0.8-0.8-2-0.8-2.8,0l-10.1,10.1c-0.8,0.8-0.8,2,0,2.8l5.1,5.1c0.4,0.4,0.9,0.6,1.4,0.6
			s1-0.2,1.4-0.6L203.1,81c0.8-0.8,0.8-2,0-2.8L198,73.1z"/>
	</g>
	<path class="st0" d="M459.6,25.5H52.7C30.3,25.5,12,43.8,12,66.2V351c0,22.4,18.2,40.7,40.7,40.7h153.6l-4.9,47.9h-61.5
		c-9.3,0-17.7,5.2-21.8,13.5c-3.8,7.6-3.4,16.5,1.1,23.8c4.5,7.2,12.2,11.6,20.8,11.6h224c8.5,0,16.3-4.3,20.8-11.6
		c4.5-7.3,4.9-16.1,1.1-23.8c-4.1-8.3-12.5-13.5-21.8-13.5h-40.4l-4.9-47.9h140.9c22.4,0,40.7-18.3,40.7-40.7V66.2
		C500.3,43.8,482,25.5,459.6,25.5L459.6,25.5z M325.2,455.8H364c3.1,0,5.9,1.7,7.3,4.5c1.8,3.7,0.4,6.8-0.3,7.9
		c-0.7,1.2-2.8,3.9-6.9,3.9h-224c-4.1,0-6.2-2.7-6.9-3.9c-0.7-1.2-2.2-4.2-0.3-7.9c1.4-2.8,4.2-4.5,7.3-4.5h103.9
		c4.5,0,8.1-3.6,8.1-8.1s-3.6-8.1-8.1-8.1H218l4.9-47.9h79.2l4.9,47.9h-18.6c-0.3,0-3.9,3.6-3.9,8.1s3.6,8.1,8.1,8.1H325.2z
		 M484,351c0,13.5-11,24.4-24.4,24.4H52.7c-13.5,0-24.4-11-24.4-24.4v-24.4H484V351z M484,310.3H28.3V66.2c0-13.5,11-24.4,24.4-24.4
		h406.9c13.5,0,24.4,11,24.4,24.4L484,310.3L484,310.3z"/>
	<path class="st0" d="M272.4,342.8h-32.5c-4.5,0-8.1,3.6-8.1,8.1s3.6,8.1,8.1,8.1h32.5c4.5,0,8.1-3.6,8.1-8.1
		C280.6,346.5,276.9,342.8,272.4,342.8L272.4,342.8z"/>
	<g>
		<path class="st0" d="M366.4,92.8h-48.8c-4.5,0-8.1,3.6-8.1,8.1s3.6,8.1,8.1,8.1h48.8c4.5,0,8.1-3.6,8.1-8.1
			C374.5,96.5,370.9,92.8,366.4,92.8L366.4,92.8z"/>
		<path class="st0" d="M386.7,179.9h-69.1c-4.5,0-8.1,3.6-8.1,8.1s3.6,8.1,8.1,8.1h69.1c4.5,0,8.1-3.6,8.1-8.1
			C394.8,183.5,391.2,179.9,386.7,179.9L386.7,179.9z"/>
		<path class="st0" d="M415.2,121.8h-97.6c-4.5,0-8.1,3.6-8.1,8.1c0,4.5,3.6,8.1,8.1,8.1h97.6c4.5,0,8.1-3.6,8.1-8.1
			C423.4,125.5,419.7,121.8,415.2,121.8L415.2,121.8z"/>
		<path class="st0" d="M406.8,150.9h-89.2c-4.5,0-8.1,3.6-8.1,8.1s3.6,8.1,8.1,8.1h89.2c4.5,0,8.1-3.6,8.1-8.1
			S411.3,150.9,406.8,150.9L406.8,150.9z"/>
		<path class="st0" d="M417,236.3c-1.2-2.3-3.6-3.7-6.2-3.7h-15v-16.7c0-3.8-3.1-7-7-7H351c-3.8,0-7,3.1-7,7v16.7h-15
			c-2.6,0-4.9,1.4-6.2,3.7c-1.2,2.3-1.1,5,0.4,7.2l40.9,60.5c1.3,1.9,3.5,3.1,5.8,3.1s4.5-1.2,5.8-3.1l40.9-60.5
			C418,241.3,418.2,238.5,417,236.3L417,236.3z M369.9,287.6l-27.8-41.1h8.8c3.8,0,7-3.1,7-7v-16.7h23.9v16.7c0,3.8,3.1,7,7,7h8.8
			L369.9,287.6z"/>
		<path class="st0" d="M447.8,58.1H285c-4.5,0-8.1,3.6-8.1,8.1v219.7c0,4.5,3.6,8.1,8.1,8.1h44.6v-16.3h-36.4V74.3h146.5v203.4
			h-29.1V294h37.2c4.5,0,8.1-3.6,8.1-8.1V66.2C455.9,61.7,452.3,58.1,447.8,58.1z"/>
	</g>
</g>
</svg>
