<?xml version="1.0" encoding="utf-8"?>
<!-- Generator: Adobe Illustrator 24.2.1, SVG Export Plug-In . SVG Version: 6.00 Build 0)  -->
<svg version="1.1" id="Capa_1" xmlns="http://www.w3.org/2000/svg" xmlns:xlink="http://www.w3.org/1999/xlink" x="0px" y="0px"
	 viewBox="0 0 512 512" style="enable-background:new 0 0 512 512;" xml:space="preserve">
<style type="text/css">
	.st0{fill:#E74C3C;}
</style>
<g>
	<path class="st0" d="M508.8,379.8L432.1,303c3.3-9.3,2.3-19.6,1.3-28.8c-0.7-7.1-1.4-13.8-0.1-18.6c1.2-4.5,5-9.8,9.1-15.3
		c6.6-9.1,14.1-19.4,14.1-32.2c0-12.8-7.5-23.1-14.1-32.2c-4.1-5.6-7.9-10.8-9.1-15.3c-1.3-4.9-0.6-11.6,0.1-18.6
		c1.1-11,2.4-23.5-3.7-34.1c-6.3-10.8-17.8-15.9-28-20.5c-6.4-2.9-12.5-5.6-15.9-9c-3.4-3.4-6.1-9.5-9-15.9
		c-4.5-10.2-9.7-21.7-20.5-28c-5.5-3.2-11.9-4.7-20.2-4.7c-4.7,0-9.4,0.5-14,1c-4.2,0.4-8.2,0.8-11.9,0.8c-2.7,0-5-0.2-6.8-0.7
		c-4.5-1.2-9.8-5-15.3-9.1c-9.1-6.6-19.4-14.1-32.2-14.1s-23.1,7.5-32.2,14.1c-5.6,4.1-10.8,7.9-15.3,9.1c-1.8,0.5-4,0.7-6.8,0.7
		c-3.6,0-7.6-0.4-11.9-0.8c-4.6-0.5-9.3-1-14-1c-8.2,0-14.6,1.5-20.1,4.7c-10.8,6.3-15.9,17.8-20.5,28c-2.9,6.4-5.6,12.5-9,15.9
		c-3.4,3.4-9.5,6.1-15.9,9c-10.2,4.5-21.7,9.7-28,20.5C76,118.6,77.3,131,78.5,142c0.7,7.1,1.4,13.8,0.1,18.6
		c-1.2,4.5-5,9.8-9.1,15.3c-6.6,9.1-14.1,19.4-14.1,32.2c0,12.8,7.5,23.1,14.1,32.2c4.1,5.6,7.9,10.8,9.1,15.3
		c1.3,4.9,0.6,11.6-0.1,18.6c-1,9.2-2,19.5,1.3,28.8L3.2,379.8c-3,3-4,7.3-2.6,11.3c1.3,4,4.8,6.8,9,7.3l85.3,11.1l11.1,85.3
		c0.5,4.1,3.4,7.6,7.3,9c1.2,0.4,2.3,0.6,3.5,0.6c2.9,0,5.7-1.1,7.8-3.2l103.6-103.6c8,5.6,17,11,27.8,11s19.8-5.3,27.8-11
		l103.6,103.6c2.1,2.1,4.9,3.2,7.8,3.2c1.2,0,2.4-0.2,3.5-0.6c4-1.3,6.8-4.8,7.3-9l11.1-85.3l85.3-11.1c4.1-0.5,7.6-3.4,9-7.3
		C512.8,387.1,511.7,382.7,508.8,379.8z M124.9,469.8l-9.3-71.5c-0.6-4.9-4.5-8.8-9.5-9.5l-71.6-9.3l59.3-59.3
		c5.2,3.6,11.1,6.2,16.5,8.6c6.4,2.9,12.5,5.6,15.9,9c3.4,3.4,6.1,9.5,9,15.9c4.5,10.2,9.7,21.7,20.5,28c5.5,3.2,11.9,4.7,20.1,4.7
		c4.7,0,9.4-0.5,14-1c4.2-0.4,8.2-0.8,11.9-0.8c2.7,0,5,0.2,6.8,0.7c0.2,0.1,0.5,0.1,0.7,0.2L124.9,469.8z M275.3,376.7
		c-7,5.1-13.6,9.9-19.3,9.9c-5.6,0-12.2-4.8-19.3-9.9c-6.9-5.1-14.1-10.3-22.6-12.5c-3.7-1-7.8-1.5-12.5-1.5c-4.8,0-9.5,0.5-14.1,1
		c-4.2,0.4-8.1,0.8-11.7,0.8c-4.1,0-7.1-0.6-9.2-1.7c-4.6-2.7-8.1-10.4-11.4-17.9c-3.5-8-7.2-16.2-13.5-22.5s-14.6-10-22.5-13.5
		c-7.5-3.3-15.2-6.8-17.9-11.4c-2.6-4.5-1.7-12.8-0.9-20.9c0.9-8.7,1.8-17.8-0.5-26.6c-2.3-8.4-7.5-15.6-12.5-22.6
		c-5.1-7-9.9-13.6-9.9-19.3c0-5.6,4.8-12.2,9.9-19.3c5.1-6.9,10.3-14.1,12.5-22.6c2.3-8.8,1.4-17.8,0.5-26.6
		c-0.8-8.1-1.7-16.4,0.9-20.9c2.7-4.6,10.4-8.1,17.9-11.4c8-3.5,16.2-7.2,22.5-13.5c6.3-6.3,10-14.6,13.5-22.5
		c3.3-7.5,6.8-15.2,11.4-17.9c2-1.2,5-1.7,9.2-1.7c3.6,0,7.5,0.4,11.7,0.8c4.6,0.5,9.3,1,14.1,1c4.7,0,8.8-0.5,12.5-1.5
		c8.4-2.3,15.6-7.5,22.6-12.5c7-5.1,13.6-9.9,19.3-9.9c5.6,0,12.2,4.8,19.3,9.9c6.9,5.1,14.1,10.3,22.6,12.5c3.7,1,7.8,1.5,12.5,1.5
		c4.8,0,9.5-0.5,14.1-1c4.2-0.4,8.1-0.8,11.7-0.8c4.1,0,7.1,0.6,9.2,1.7c4.6,2.7,8.1,10.4,11.4,17.9c3.5,8,7.2,16.2,13.5,22.5
		c6.3,6.3,14.6,10,22.5,13.5c7.5,3.3,15.2,6.8,17.9,11.4c2.6,4.5,1.7,12.8,0.9,20.9c-0.9,8.7-1.8,17.8,0.5,26.6
		c2.3,8.4,7.5,15.6,12.5,22.6c5.1,7,9.9,13.6,9.9,19.3s-4.8,12.2-9.9,19.3c-5.1,6.9-10.3,14.1-12.5,22.6c-2.3,8.8-1.4,17.8-0.5,26.6
		c0.8,8.1,1.7,16.4-0.9,20.9c-2.7,4.6-10.4,8.1-17.9,11.4c-8,3.5-16.2,7.2-22.5,13.5s-10,14.6-13.5,22.5
		c-3.3,7.5-6.8,15.2-11.4,17.9c-2,1.2-5,1.7-9.2,1.7c-3.6,0-7.5-0.4-11.7-0.8c-4.6-0.5-9.3-1-14.1-1c-4.7,0-8.8,0.5-12.5,1.5
		C289.5,366.5,282.3,371.7,275.3,376.7z M405.9,388.8c-4.9,0.6-8.8,4.5-9.5,9.5l-9.3,71.6l-84.3-84.3c0.2-0.1,0.5-0.1,0.7-0.2
		c1.8-0.5,4-0.7,6.8-0.7c3.6,0,7.6,0.4,11.8,0.8c4.6,0.5,9.3,1,14,1c8.2,0,14.6-1.5,20.1-4.7c10.8-6.3,15.9-17.8,20.5-28
		c2.9-6.4,5.6-12.5,9-15.9c3.4-3.4,9.5-6.1,15.9-9c5.5-2.4,11.3-5,16.5-8.6l59.3,59.3L405.9,388.8z"/>
	<path class="st0" d="M327,316.2c3.4-2.5,5.1-6.7,4.3-10.9l-12.6-66.4l49.2-46.3c3.1-2.9,4.2-7.3,2.9-11.4c-1.3-4-4.8-7-9-7.5
		l-67-8.6L266,104c-1.8-3.8-5.7-6.3-9.9-6.3c-4.2,0-8.1,2.5-9.9,6.3l-28.8,61.1l-67,8.6c-4.2,0.5-7.7,3.5-9,7.5s-0.2,8.5,2.9,11.4
		l49.2,46.3l-12.6,66.4c-0.8,4.2,0.9,8.4,4.3,10.9c1.9,1.4,4.2,2.1,6.5,2.1c1.8,0,3.6-0.4,5.3-1.4l59.2-32.5l59.2,32.5
		C319,319,323.5,318.7,327,316.2z M261.3,262.4c-1.6-0.9-3.5-1.4-5.3-1.4s-3.6,0.5-5.3,1.4l-44.1,24.2l9.4-49.4
		c0.7-3.7-0.5-7.5-3.3-10l-36.6-34.5l49.9-6.4c3.7-0.5,6.9-2.8,8.5-6.2l21.5-45.5l21.5,45.5c1.6,3.4,4.8,5.7,8.5,6.2l49.9,6.4
		l-36.6,34.5c-2.7,2.6-4,6.4-3.3,10l9.4,49.4L261.3,262.4z"/>
</g>
</svg>
