<?xml version="1.0" encoding="utf-8"?>
<!-- Generator: Adobe Illustrator 24.2.1, SVG Export Plug-In . SVG Version: 6.00 Build 0)  -->
<svg version="1.1" id="Layer_1" xmlns="http://www.w3.org/2000/svg" xmlns:xlink="http://www.w3.org/1999/xlink" x="0px" y="0px"
	 viewBox="0 0 512 512" style="enable-background:new 0 0 512 512;" xml:space="preserve">
<style type="text/css">
	.st0{fill:#ECC132;}
</style>
<g>
	<path class="st0" d="M98.6,288.8H250v14.4H57.4c-3.2,0-5.8,2.6-5.8,5.8v15.5c0,3.2,2.6,5.8,5.8,5.8c3.2,0,5.8-2.6,5.8-5.8v-9.7H154
		v9.7c0,3.2,2.6,5.8,5.8,5.8c3.2,0,5.8-2.6,5.8-5.8v-9.7h84.5v9.7c0,3.2,2.6,5.8,5.8,5.8s5.8-2.6,5.8-5.8v-9.7h90.7v9.7
		c0,3.2,2.6,5.8,5.8,5.8c3.2,0,5.8-2.6,5.8-5.8v-9.7h84.6v9.7c0,3.2,2.6,5.8,5.8,5.8s5.8-2.6,5.8-5.8V309c0.3-3.1-2.3-5.8-5.6-5.8
		h-193v-14.4h151.8c3,0,5.4-2.4,5.4-5.4v-167c0-1.9-1-3.6-2.4-4.6l-41.6-27.6v-47c0-3-2.4-5.4-5.4-5.4H142.6c-3,0-5.4,2.4-5.4,5.4
		v47.1l-41.6,27.6c-1.5,1-2.4,2.6-2.4,4.5v167C93.2,286.4,95.6,288.8,98.6,288.8z M116.5,277.9L256,185.4l139.5,92.5H116.5z
		 M374.8,97.2l20.7,13.7h-20.7V97.2z M374.8,121.7h16.9l-16.9,9V121.7z M408,125.3v148l-124-82.2L408,125.3z M148,42.6h216v93.8
		l-90.2,47.9l-14.8-9.8c-1.8-1.2-4.1-1.2-6,0l-14.8,9.8L148,136.4V42.6z M137.2,97.2v13.7h-20.7L137.2,97.2z M137.2,121.7v9l-16.9-9
		H137.2z M104,125.3l124,65.8l-124,82.2V125.3z"/>
	<path class="st0" d="M299,162.4c3,0,5.4-2.4,5.4-5.4s-2.4-5.4-5.4-5.4h-43c-20.7,0-37.6-16.9-37.6-37.6v-1.6
		c0-20.7,16.9-37.6,37.6-37.6s37.6,16.9,37.6,37.6v4c0,4.5-3.6,8.1-8.1,8.1s-8.1-3.6-8.1-8.1v-7.6c0-12.8-10.5-23.3-23.3-23.3
		c-12.8,0-23.3,10.4-23.3,23.3c0,12.8,10.4,23.3,23.3,23.3c5.9,0,11.2-2.2,15.3-5.8c3.3,5.4,9.3,9,16.1,9c10.4,0,18.9-8.5,18.9-18.9
		v-4c0-26.7-21.7-48.4-48.4-48.4s-48.4,21.7-48.4,48.4v1.6c0.1,26.7,21.8,48.4,48.4,48.4H299z M254,121.3c-6.9,0-12.5-5.6-12.5-12.5
		c0-6.9,5.6-12.5,12.5-12.5c6.9,0,12.5,5.6,12.5,12.5C266.5,115.7,260.9,121.3,254,121.3z"/>
	<path class="st0" d="M54.5,411.1c19.5,0,35.3-15.8,35.3-35.3c0.1-19.5-15.8-35.3-35.3-35.3s-35.3,15.8-35.3,35.3
		S35,411.1,54.5,411.1z M54.5,352.1c13.1,0,23.7,10.6,23.7,23.7c0,13-10.6,23.7-23.7,23.7c-13,0-23.7-10.6-23.7-23.7
		C30.8,362.8,41.4,352.1,54.5,352.1z"/>
	<path class="st0" d="M52,412.5C28,412.5,8.5,432,8.5,456v20.6c0,3.2,2.6,5.8,5.8,5.8h74.9c3.2,0,5.8-2.5,5.8-5.7l0.4-20.6V456
		C95.5,432.1,75.9,412.5,52,412.5z M83.5,470.8H20.1V456c0-17.6,14.3-31.9,31.9-31.9s31.8,14.3,31.9,31.8L83.5,470.8z"/>
	<path class="st0" d="M220.7,375.8c0,19.5,15.8,35.3,35.3,35.3s35.3-15.8,35.3-35.3s-15.8-35.3-35.3-35.3S220.7,356.3,220.7,375.8z
		 M279.7,375.8c0,13-10.6,23.7-23.7,23.7c-13,0-23.7-10.6-23.7-23.7c0-13,10.6-23.7,23.7-23.7C269,352.1,279.7,362.7,279.7,375.8z"
		/>
	<path class="st0" d="M256,412.5c-24,0-43.5,19.5-43.5,43.5v0.1l0.4,20.6c0.1,3.2,2.7,5.7,5.8,5.7h74.9c3.2,0,5.8-2.6,5.8-5.8V456
		C299.5,432.1,280,412.5,256,412.5z M288,470.8h-63.5l-0.3-14.9c0-17.5,14.3-31.8,31.9-31.8c17.6,0,31.9,14.3,31.9,31.9V470.8z"/>
	<path class="st0" d="M120,375.8c0,19.5,15.8,35.3,35.3,35.3s35.3-15.8,35.3-35.3s-15.9-35.3-35.3-35.3
		C135.8,340.5,120,356.3,120,375.8z M179,375.8c-0.1,13-10.7,23.7-23.7,23.7s-23.7-10.6-23.7-23.7c0-13,10.6-23.7,23.7-23.7
		C168.4,352.1,179,362.7,179,375.8z"/>
	<path class="st0" d="M154,412.5c-24,0-43.5,19.5-43.5,43.5v20.6c0,3.2,2.6,5.8,5.8,5.8h74.9c3.2,0,5.8-2.5,5.8-5.7l0.4-20.6V456
		C197.5,432.1,178,412.5,154,412.5z M185.5,470.8h-63.4V456c0-17.6,14.3-31.9,31.9-31.9c17.6,0,31.8,14.3,31.9,31.8L185.5,470.8z"/>
	<path class="st0" d="M457.5,340.5c-19.5,0-35.3,15.8-35.3,35.3s15.8,35.3,35.3,35.3s35.3-15.8,35.3-35.3S477,340.5,457.5,340.5z
		 M457.5,399.5c-13,0-23.7-10.6-23.7-23.7c0-13,10.6-23.7,23.7-23.7c13,0,23.7,10.6,23.7,23.7C481.2,388.8,470.6,399.5,457.5,399.5z
		"/>
	<path class="st0" d="M460.1,412.5c-24,0-43.5,19.5-43.5,43.5v0.1l0.4,20.6c0.1,3.2,2.7,5.7,5.8,5.7h74.9c3.2,0,5.8-2.6,5.8-5.8V456
		C503.6,432.1,484.1,412.5,460.1,412.5z M492,470.8h-63.5l-0.3-14.9c0-17.5,14.3-31.8,31.9-31.8c17.6,0,31.9,14.3,31.9,31.9V470.8z"
		/>
	<path class="st0" d="M321.5,375.8c0,19.5,15.8,35.3,35.3,35.3s35.3-15.8,35.3-35.3c0-19.5-15.9-35.3-35.3-35.3
		C337.3,340.5,321.5,356.3,321.5,375.8z M380.5,375.8c-0.1,13-10.7,23.7-23.7,23.7c-13.1,0-23.7-10.6-23.7-23.7
		c0-13,10.6-23.7,23.7-23.7C369.8,352.1,380.5,362.7,380.5,375.8z"/>
	<path class="st0" d="M358.1,412.5c-24,0-43.5,19.5-43.5,43.5v20.6c0,3.2,2.6,5.8,5.8,5.8h74.9c3.2,0,5.8-2.5,5.8-5.7l0.4-20.6V456
		C401.6,432.1,382,412.5,358.1,412.5z M389.6,470.8h-63.4V456c0-17.6,14.3-31.9,31.9-31.9c17.6,0,31.8,14.3,31.9,31.8L389.6,470.8z"
		/>
	<path class="st0" d="M27.2,123.9h24.1c3.2,0,5.8-2.6,5.8-5.8c0.1-3.2-2.5-5.8-5.7-5.8H27.2c-3.2,0-5.8,2.6-5.8,5.8
		C21.4,121.3,24,123.9,27.2,123.9z"/>
	<path class="st0" d="M54,133.8l-15.4,15.4c-2.3,2.3-2.3,6,0,8.2c1.1,1.1,2.6,1.7,4.1,1.7s3-0.6,4.1-1.7L62.2,142
		c2.3-2.3,2.3-6,0-8.2C59.9,131.5,56.2,131.5,54,133.8z"/>
	<path class="st0" d="M53.9,102.5c1.1,1.1,2.6,1.7,4.1,1.7s3-0.6,4.1-1.7c2.2-2.3,2.2-6,0-8.2L46.7,78.9c-2.3-2.3-6-2.3-8.2,0
		c-2.3,2.3-2.3,6,0,8.2L53.9,102.5z"/>
	<path class="st0" d="M454.9,118.1c0,3.2,2.6,5.8,5.8,5.8h24.1c3.2,0,5.8-2.6,5.8-5.8c0-3.2-2.6-5.8-5.8-5.8h-24.1
		C457.5,112.3,454.9,114.9,454.9,118.1z"/>
	<path class="st0" d="M465.2,157.3c1.1,1.1,2.6,1.7,4.1,1.7s3-0.6,4.1-1.7c2.3-2.2,2.3-5.9,0-8.2L458,133.7c-2.3-2.3-6-2.3-8.2,0
		c-2.3,2.3-2.3,6,0,8.2L465.2,157.3z"/>
	<path class="st0" d="M454.1,104.2c1.5,0,3-0.6,4.1-1.7l15.4-15.4c2.2-2.2,2.2-5.9,0-8.2c-2.3-2.3-6-2.3-8.2,0L450,94.3
		c-2.3,2.3-2.3,6,0,8.2C451.1,103.6,452.6,104.2,454.1,104.2z"/>
</g>
</svg>
