<?xml version="1.0" encoding="utf-8"?>
<!-- Generator: Adobe Illustrator 24.2.1, SVG Export Plug-In . SVG Version: 6.00 Build 0)  -->
<svg version="1.1" id="Capa_1" xmlns="http://www.w3.org/2000/svg" xmlns:xlink="http://www.w3.org/1999/xlink" x="0px" y="0px"
	 viewBox="0 0 512 512" style="enable-background:new 0 0 512 512;" xml:space="preserve">
<style type="text/css">
	.st0{fill:#E74C3C;}
</style>
<g>
	<path class="st0" d="M512,277.3v-96c0-29.4-23.9-53.3-53.3-53.3H352c-29.4,0-53.3,23.9-53.3,53.3v96c0,25.3,17.8,47.2,42.7,52.3
		v43.7c0,4.3,2.6,8.2,6.6,9.9c1.3,0.5,2.7,0.8,4.1,0.8c2.8,0,5.5-1.1,7.5-3.1l50.2-50.2h48.9V448H53.3v-21.3h341.3v-21.3H53.3V202.7
		c0-5.9,4.8-10.7,10.7-10.7h21.3v53.3c0,17.7,14.3,32,32,32h160V256h-160c-5.9,0-10.7-4.8-10.7-10.7V106.7H352h10.7h10.7V32
		c0-17.7-14.3-32-32-32h-224c-17.7,0-32,14.3-32,32v138.7H64c-17.7,0-32,14.3-32,32V448H10.7C4.8,448,0,452.8,0,458.7
		C0,488.1,23.9,512,53.3,512h405.3c29.4,0,53.3-23.9,53.3-53.3c0-5.9-4.8-10.7-10.7-10.7H480V326.2C498.8,318,512,299.2,512,277.3z
		 M106.7,32c0-5.9,4.8-10.7,10.7-10.7h224c5.9,0,10.7,4.8,10.7,10.7v53.3H106.7V32z M488.8,469.3c-4.5,12.8-16.6,21.3-30.2,21.3
		H53.3c-13.6,0-25.6-8.6-30.2-21.3h190.2V480h85.3v-10.7H488.8z M458.7,309.3h-53.3c-2.8,0-5.5,1.1-7.5,3.1l-35.1,35.1V320
		c0-5.9-4.8-10.7-10.7-10.7c-17.7,0-32-14.3-32-32v-96c0-17.7,14.3-32,32-32h106.7c17.7,0,32,14.3,32,32v96
		C490.7,295,476.3,309.3,458.7,309.3z"/>
	<rect x="128" y="42.7" class="st0" width="21.3" height="21.3"/>
	<rect x="170.7" y="42.7" class="st0" width="21.3" height="21.3"/>
	<rect x="213.3" y="42.7" class="st0" width="21.3" height="21.3"/>
	<rect x="128" y="128" class="st0" width="149.3" height="21.3"/>
	<rect x="128" y="170.7" class="st0" width="149.3" height="21.3"/>
	<rect x="128" y="213.3" class="st0" width="149.3" height="21.3"/>
	<rect x="416" y="405.3" class="st0" width="21.3" height="21.3"/>
	<path class="st0" d="M96,330.7H74.7v42.7c0,5.9,4.8,10.7,10.7,10.7H128v-21.3H96v-0.1V330.7z"/>
	<rect x="149.3" y="362.7" class="st0" width="21.3" height="21.3"/>
	<circle class="st0" cx="352" cy="234.7" r="21.3"/>
	<circle class="st0" cx="405.3" cy="234.7" r="21.3"/>
	<circle class="st0" cx="458.7" cy="234.7" r="21.3"/>
</g>
</svg>
