<?xml version="1.0" encoding="utf-8"?>
<!-- Generator: Adobe Illustrator 24.2.1, SVG Export Plug-In . SVG Version: 6.00 Build 0)  -->
<svg version="1.1" id="Layer_1" xmlns="http://www.w3.org/2000/svg" xmlns:xlink="http://www.w3.org/1999/xlink" x="0px" y="0px"
	 viewBox="0 0 512 512" style="enable-background:new 0 0 512 512;" xml:space="preserve">
<style type="text/css">
	.st0{fill:#E74C3C;}
	.st1{fill:#FFFFFF;}
</style>
<path class="st0" d="M414.3,374.5c-3.1-8-9.4-14.4-17.3-17.7c-2.7-1.1-5.6-1.8-8.5-2.1c-20.4-48.8-66.7-81.9-119.5-85.3v-43.7h43.4
	c43.1,0,78.1-35,78.1-78.1c0-4.8-3.9-8.7-8.7-8.7h-52.1c-23.6,0-46,10.7-60.8,29.1v-55.2h43.4c33.5,0,60.7-27.2,60.8-60.8
	c0-4.8-3.9-8.7-8.7-8.7h-52.1c-16.3,0-32,6.6-43.4,18.3v-27h-17.4V79c-11.4-11.7-27.1-18.3-43.4-18.3H156c-4.8,0-8.7,3.9-8.7,8.7
	c0,33.5,27.2,60.7,60.8,60.8h43.4v55.2c-14.8-18.4-37.1-29.1-60.8-29.1h-52.1c-4.8,0-8.7,3.9-8.7,8.7c0,43.1,35,78.1,78.1,78.1h43.4
	v26.3c-40.8,2.6-78.5,23-102.8,55.9c-13.2-2.7-26.6-4.1-40.1-4.1h-22c0-4.8-3.9-8.7-8.7-8.7H0v17.4h69.4V434H0v17.4h78.1
	c4.8,0,8.7-3.9,8.7-8.7v-3.3l64.8,26.9c35.3,14.4,74.8,14.8,110.4,1.2l134.1-51.1c8-3.1,14.3-9.2,17.7-17
	C417.3,391.5,417.5,382.5,414.3,374.5z M329.8,156.2h42.8c-4.4,29.9-29.9,52-60.1,52.1h-42.8C274,178.4,299.6,156.3,329.8,156.2z
	 M312.4,60.8H355c-4.1,20.2-21.9,34.7-42.5,34.7H270C274.1,75.3,291.8,60.8,312.4,60.8z M208.3,112.8c-20.6,0-38.4-14.5-42.5-34.7
	h42.5c20.6,0,38.4,14.5,42.5,34.7H208.3z M208.3,225.7c-30.2,0-55.8-22.2-60.1-52.1H191c30.2,0,55.8,22.2,60.1,52.1H208.3z
	 M260.4,286.4c47.6,0.1,90.8,27.9,110.6,71.2l-54.5,23.2c0.2-1.1,0.3-2.1,0.3-3.2c0-16.8-13.6-30.4-30.4-30.4h-67.3
	c-6.8,0-13.5-1.6-19.6-4.6c-10.3-5.2-21-9.4-32.1-12.7C190.5,302.3,224.5,286.4,260.4,286.4z M397.9,392.5c-1.5,3.5-4.4,6.2-8,7.6
	l-134.1,51.1c-31.5,12.1-66.4,11.7-97.7-1.1l-71.4-29.6v-82h22c28.8,0,57.2,6.7,82.9,19.6c8.5,4.2,17.9,6.4,27.4,6.5h67.3
	c7.2,0,13,5.9,12.9,13.1c0,6-4.2,11.2-10.1,12.6c-1.1,0.1-2.3,0.3-3.4,0.3H182.3V408h103.6h0.5c0.2,0,0.3-0.1,0.5-0.1
	c6.9-0.1,13.7-1.6,20-4.2l72.6-30.8c3.5-1.5,7.4-1.5,10.8,0c3.6,1.5,6.4,4.4,7.8,8.1C399.6,384.7,399.5,388.9,397.9,392.5z"/>
<path class="st1" d="M262,502.2l114.3-43.6l-6.2-16.2L255.9,486c-28.3,10.8-59.4,11.6-88.3,2.4l-5.3,16.5
	C194.9,515.2,230,514.3,262,502.2L262,502.2z"/>
<path class="st1" d="M126.9,490.7l6.7-16l17.4,7.2l-6.7,16L126.9,490.7z"/>
<path class="st1" d="M251.7,0h17.4v17.4h-17.4L251.7,0L251.7,0z"/>
<path class="st1" d="M234.3,303.8h17.4v17.4h-17.4V303.8z"/>
<path class="st1" d="M303.8,321.1h17.4v17.4h-17.4V321.1z"/>
<path class="st1" d="M306.1,240.4l-4.6,16.8c41.3,11.4,76.2,39.1,96.5,76.8l15.3-8.2C390.7,283.8,351.9,253,306.1,240.4z"/>
</svg>
