<?xml version="1.0" encoding="utf-8"?>
<!-- Generator: Adobe Illustrator 24.2.1, SVG Export Plug-In . SVG Version: 6.00 Build 0)  -->
<svg version="1.1" id="Layer_1" xmlns="http://www.w3.org/2000/svg" xmlns:xlink="http://www.w3.org/1999/xlink" x="0px" y="0px"
	 viewBox="0 0 512 512" style="enable-background:new 0 0 512 512;" xml:space="preserve">
<style type="text/css">
	.st0{fill:#ECC132;}
</style>
<g>
	<path class="st0" d="M481.6,409V118.5h-6.9h-9.2H431v16.1h34.5v274.3H304.3V425h-96.8v-16.1H46.2V134.7h44.7v-16.1H30V409H5.8v43.7
		l37,37h426l37-37V409H481.6z M489.8,445.9l-27.7,27.6H49.5L22,445.9V425h169.4v16.1h129V425h169.4V445.9z"/>
	<rect x="247.8" y="449.2" class="st0" width="16.1" height="16.1"/>
	<rect x="280" y="449.2" class="st0" width="16.1" height="16.1"/>
	<rect x="215.5" y="449.2" class="st0" width="16.1" height="16.1"/>
	<path class="st0" d="M72.6,228.8c0,4,3.2,7.2,7.2,7.2h13.7c3.8,83,70.5,149.8,153.4,153.4v13.7c0,4,3.2,7.2,7.2,7.2
		s7.2-3.2,7.2-7.2v-13.7c82.9-3.7,149.7-70.5,153.4-153.4h13.7c4,0,7.2-3.2,7.2-7.2s-3.2-7.2-7.2-7.2h-13.7
		c-1.7-38.9-17.3-74.2-42-101.2l7.3-7.3l31.1,3.5c0.3,0,0.5,0,0.8,0c1.9,0,3.7-0.8,5.1-2.1l39-39c2-2,2.6-4.9,1.7-7.6
		c-1-2.6-3.3-4.5-6.1-4.7l-29.1-2.6l-2.7-29.1c-0.3-2.8-2.1-5.2-4.7-6.1c-2.6-1-5.6-0.3-7.6,1.7l-39,39c-1.6,1.6-2.3,3.7-2.1,5.9
		l3.4,31l-7.3,7.3c-26.9-24.6-62.3-40.2-101.2-42V54.5c0-4-3.2-7.2-7.2-7.2s-7.2,3.2-7.2,7.2v13.7C164,72,97.3,138.7,93.6,221.6
		H79.8C75.8,221.6,72.6,224.8,72.6,228.8z M406.7,48.2l1.8,19.8c0.3,3.5,3.1,6.2,6.5,6.5l19.8,1.8l-25.6,25.6L384,99.1l-2.8-25.3
		L406.7,48.2z M118.2,221.7H108c3.7-74.9,64-135.2,138.9-138.9V93c0,4,3.2,7.2,7.2,7.2s7.2-3.2,7.2-7.2V82.7
		c34.9,1.7,66.6,15.7,90.9,37.7l-21.7,21.7c-20.4-18-47.2-29-76.4-29c-63.7,0-115.6,51.9-115.6,115.6s51.9,115.6,115.6,115.6
		s115.6-51.9,115.6-115.6c0-29.3-10.9-56-29-76.4l21.7-21.7c22.2,24.4,36.2,56.1,37.9,91h-10.2c-4,0-7.2,3.2-7.2,7.2
		s3.2,7.2,7.2,7.2h10.2c-3.7,74.9-64,135.2-138.9,138.9v-10.2c0-4-3.2-7.2-7.2-7.2s-7.2,3.2-7.2,7.2V375c-75-3.7-135.3-64-139-138.9
		h10.2c4,0,7.2-3.2,7.2-7.2S122.2,221.7,118.2,221.7z M249.1,234c1.4,1.4,3.3,2.1,5.1,2.1s3.7-0.7,5.1-2.1l39.2-39.2
		c7.3,9.5,11.6,21.3,11.6,34.1c0,30.9-25.1,56-56,56c-30.9,0-56-25.1-56-56c0-30.9,25.1-56,56-56c12.8,0,24.7,4.4,34.1,11.6
		L249,223.7C246.2,226.6,246.2,231.1,249.1,234z M254.2,158.4c-38.8,0-70.4,31.6-70.4,70.4s31.6,70.4,70.4,70.4s70.4-31.6,70.4-70.4
		c0-16.8-5.9-32.3-15.8-44.4l21.8-21.8c15.4,17.8,24.7,40.9,24.7,66.2c0,55.8-45.4,101.2-101.2,101.2C198.4,330,153,284.6,153,228.9
		c0-55.8,45.4-101.2,101.2-101.2c25.3,0,48.4,9.3,66.2,24.7l-21.8,21.8C286.4,164.3,271,158.4,254.2,158.4z"/>
</g>
</svg>
