<?xml version="1.0" encoding="utf-8"?>
<!-- Generator: Adobe Illustrator 24.2.1, SVG Export Plug-In . SVG Version: 6.00 Build 0)  -->
<svg version="1.1" id="Layer_1" xmlns="http://www.w3.org/2000/svg" xmlns:xlink="http://www.w3.org/1999/xlink" x="0px" y="0px"
	 viewBox="0 0 512 512" style="enable-background:new 0 0 512 512;" xml:space="preserve">
<style type="text/css">
	.st0{fill:#ECC132;}
</style>
<g>
	<path class="st0" d="M232.4,372.5c-3.1,0-5.5,2.5-5.5,5.5c0,3.1,2.5,5.5,5.5,5.5h47.9c3.1,0,5.5-2.5,5.5-5.5s-2.5-5.5-5.5-5.5
		H232.4z"/>
	<path class="st0" d="M255.5,112.7c-20.6,0-40,8-54.5,22.6c-30.1,30.1-30.1,79,0,109.1c14.6,14.6,33.9,22.6,54.5,22.6
		c20.6,0,40-8,54.5-22.6c14.6-14.6,22.6-33.9,22.6-54.5c0-20.6-8.1-40-22.6-54.6C295.4,120.7,276.1,112.7,255.5,112.7z M303.8,238.1
		c-12.9,12.9-30.1,20-48.3,20c-18.3,0-35.4-7.1-48.3-20c-2.6-2.6-4.9-5.3-6.9-8.1l20-20.7c2.2,1.1,4.6,1.8,7.3,1.8
		c5.4,0,10.2-2.8,13-7l35.2,11c0,0.1,0,0.2,0,0.3c0,8.6,7,15.7,15.6,15.7c8.6,0,15.7-7,15.7-15.7c0-2.7-0.7-5.2-1.8-7.4l18.7-18.3
		C323.8,208.1,316.7,225.2,303.8,238.1z M220.5,195.5c0-3.8,3.1-6.9,6.9-6.9s6.9,3.1,6.9,6.9s-3.1,6.9-6.9,6.9
		S220.5,199.3,220.5,195.5z M284.3,215.5c0-3.8,3.1-6.9,6.9-6.9s6.9,3.1,6.9,6.9s-3.1,6.9-6.9,6.9S284.3,219.3,284.3,215.5z
		 M298.9,201.8c-2.3-1.3-4.9-2-7.7-2c-5.4,0-10.2,2.8-13,7l-35.2-11c0-0.1,0-0.2,0-0.3c0-8.6-7-15.6-15.6-15.6
		c-8.6,0-15.6,7-15.6,15.6c0,2.8,0.8,5.5,2.1,7.8l-18.5,19.1c-14-25.9-10.1-59,11.7-80.9c12.9-12.9,30.1-20,48.3-20
		c18.3,0,35.4,7.1,48.3,20c10.2,10.2,16.8,23,19.1,36.9L298.9,201.8z"/>
	<path class="st0" d="M216.6,145l5.8,6.6c13.6-11.8,32.7-15.5,49.8-9.5l2.9-8.3C255,126.8,232.6,131.1,216.6,145z"/>
	<path class="st0" d="M281.7,146.7c2.3,1.4,4.6,3,6.6,4.8l5.7-6.7c-2.3-2.1-5-4-7.7-5.6L281.7,146.7z"/>
	<path class="st0" d="M236.6,236.7l-3.3,8.2c7.1,2.8,14.6,4.3,22.1,4.3c4.1,0,8.3-0.4,12.4-1.3l-1.8-8.7
		C256.1,241.3,246,240.4,236.6,236.7z"/>
	<path class="st0" d="M406.1,96.6c-2.3-1.4-5-2.2-7.9-2.2c-8.6,0-15.6,7-15.6,15.6c0,2.8,0.7,5.4,2,7.6l-31.1,30.9
		c-5.2-12.3-12.8-23.9-22.8-33.9c-41.5-41.5-108.9-41.5-150.4,0c-36.9,36.9-41,94.5-12.1,136l-25.3,25.6c-2.2-1.1-4.6-1.8-7.3-1.8
		c-8.6,0-15.6,7-15.6,15.6c0,8.6,7,15.7,15.7,15.7c8.6,0,15.6-7,15.6-15.7c0-2.8-0.8-5.5-2.1-7.8l24.4-24.6c2.1,2.5,4.3,5,6.7,7.4
		c20.7,20.7,48,31.1,75.2,31.1c20.9,0,41.8-6.1,59.8-18.3l15.9,16.9l-6.6,6.6l76.8,76.5l41-41l-76.9-76.4l-6.4,6.4l-15.8-16.9
		c18.7-27.4,23.2-61.6,13.5-92.3l34-33.7c2.2,1.2,4.7,1.9,7.4,1.9c8.6,0,15.7-7,15.7-15.6c0-2.6-0.6-5-1.7-7.1l39.3-38.7V78h8.8
		V49.4h-28.4v8.8H445L406.1,96.6z M135.6,296.9c-3.8,0-6.9-3.1-6.9-6.9s3.1-6.9,6.9-6.9s6.9,3.1,6.9,6.9
		C142.4,293.8,139.3,296.9,135.6,296.9z M365.4,272.8l64.4,64.1l-28.5,28.5l-64.4-64.1L365.4,272.8z M352.8,273l-15.6,15.6
		l-14.9-16.1c2.9-2.3,5.7-4.8,8.3-7.5c2.6-2.6,5-5.3,7.3-8L352.8,273z M324.5,258.8c-38.1,38.1-100,38.1-138,0c-38-38-38-99.9,0-138
		c19-19,44-28.5,69-28.5s50,9.5,69,28.5C362.5,158.8,362.5,220.7,324.5,258.8z M398.2,117c-3.8,0-6.9-3.1-6.9-6.9
		c0-3.8,3.1-6.9,6.9-6.9s6.9,3.1,6.9,6.9C405.1,113.9,402,117,398.2,117z"/>
	<polygon class="st0" points="359.1,304.3 365.5,297.9 389.7,322.1 395.9,315.9 365.5,285.5 352.9,298.1 	"/>
	
		<rect x="399.2" y="325.3" transform="matrix(0.7071 -0.7071 0.7071 0.7071 -115.0421 381.9638)" class="st0" width="8.8" height="9.2"/>
	<path class="st0" d="M504,408.8v-0.1c-0.1-0.2-0.1-0.4-0.2-0.6V408c-0.1-0.2-0.2-0.4-0.3-0.6l-0.1-0.2
		c-1.8-3.3-28.3-53.2-44.3-83.4l-0.3-0.5V105.1c0-3.1-2.5-5.5-5.5-5.5c-3.1,0-5.5,2.5-5.5,5.5v214.1l2.2,11.1l39.4,74.1H23.1
		l39.4-74.1h255.1v-11.1H64.7V91.9c0-14.6,11.9-26.4,26.4-26.4h317c3.1,0,5.5-2.5,5.5-5.5c0-3.1-2.5-5.5-5.5-5.5h-317
		c-20.7,0-37.5,16.8-37.5,37.5v231.5l-44.7,84c-0.1,0.2-0.2,0.3-0.2,0.5l-0.1,0.1c-0.1,0.2-0.1,0.4-0.2,0.5l-0.1,0.2
		c0,0.2-0.1,0.4-0.1,0.6s0,0.4,0,0.6v16c0,20.7,16.8,37.5,37.5,37.5h420.8c20.7,0,37.5-16.8,37.5-37.5v-16c0.1-0.2,0.1-0.4,0.1-0.6
		S504,409,504,408.8z M493,426c0,14.6-11.8,26.4-26.4,26.4H45.8c-14.6,0-26.4-11.9-26.4-26.4v-10.4H493V426z"/>
</g>
</svg>
