<?xml version="1.0" encoding="utf-8"?>
<!-- Generator: Adobe Illustrator 24.2.1, SVG Export Plug-In . SVG Version: 6.00 Build 0)  -->
<svg version="1.1" id="Capa_1" xmlns="http://www.w3.org/2000/svg" xmlns:xlink="http://www.w3.org/1999/xlink" x="0px" y="0px"
	 viewBox="0 0 512 512" style="enable-background:new 0 0 512 512;" xml:space="preserve">
<style type="text/css">
	.st0{fill:#ECC132;}
</style>
<g>
	<rect x="243.9" y="352.3" class="st0" width="53.6" height="10.7"/>
	<polygon class="st0" points="447.6,137.8 458.3,137.8 458.3,111 474.4,111 474.4,100.3 458.3,100.3 458.3,84.2 474.4,84.2 
		474.4,73.5 447.6,73.5 447.6,100.3 431.5,100.3 431.5,111 447.6,111 	"/>
	<polygon class="st0" points="447.6,363 447.6,363 474.4,363 474.4,352.3 458.3,352.3 458.3,320.1 469,320.1 469,309.4 458.3,309.4 
		458.3,298.7 447.6,298.7 447.6,309.4 436.9,309.4 436.9,320.1 447.6,320.1 	"/>
	<rect x="426.2" y="207.5" class="st0" width="10.7" height="37.5"/>
	<rect x="426.2" y="186.1" class="st0" width="10.7" height="10.7"/>
	<path class="st0" d="M458.2,226.3L458.2,226.3c0.1-4.4,3.7-8,8.1-8c4.4,0,8,3.6,8,8v18.8H485v-18.8c0-10.3-8.4-18.8-18.8-18.8
		c-2.9,0-5.6,0.6-8,1.8v-1.8h-10.7V245h10.7V226.3z"/>
	<path class="st0" d="M399.6,223.6c2.7,27.1,25.6,48.3,53.3,48.3c29.6,0,53.6-24.1,53.6-53.6c0-29.6-24.1-53.6-53.6-53.6
		c-27.8,0-50.6,21.2-53.3,48.3h-11V111h11c2.7,27.1,25.6,48.3,53.3,48.3c29.6,0,53.6-24.1,53.6-53.6c0-29.6-24.1-53.6-53.6-53.6
		c-27.8,0-50.6,21.2-53.3,48.2h-21.7v112.6h-10.7v-134c0-14.8-12-26.8-26.8-26.8H201c-14.8,0-26.8,12-26.8,26.8v116.3l-22.4-5
		c-3.3-0.7-6.4,1.8-6.4,5.1c0,2.5,1.7,4.6,4.1,5.1l24.7,5.5v151.8c0,5.4,1.6,10.5,4.4,14.7l-9.3,13.1c-5.8-3.3-12.5-5.1-19.6-5.1
		c-6.7,0-13.1,1.7-18.6,4.6L59.5,222.3c0.6-0.1,1.2-0.2,1.7-0.3c12.4-2.5,23.3-9.9,30.3-20.8c0-0.1,0.1-0.1,0.1-0.2
		c2.4-3.7,4.2-7.8,5.5-12.1l26.7,5.9c3.3,0.7,6.4-1.8,6.4-5.1c0-2.5-1.7-4.6-4.1-5.1l-27.2-6c0.1-0.9,0.1-1.8,0.1-2.8
		c0-25.5-20.3-46.3-45.6-47.2c-0.5,0-1.1,0-1.6,0s-1.1-0.1-1.6-0.1c-25.3,0.9-45.6,21.7-45.6,47.2c0,9.3,2.7,17.9,7.3,25.2
		c0,0.1,0.1,0.1,0.1,0.2c7,10.9,17.9,18.3,30.3,20.8c0.8,0.2,1.5,0.3,2.3,0.4c0.1,0,0.1,0,0.2,0c0.5,0.2,1.1,0.3,1.6,0.2
		c0.2,0,0.5,0,0.7,0c0.4,0,0.8,0.1,1.3,0.1L122.5,391c-7.9,7.4-12.9,17.8-12.9,29.5c0,7.9,2.3,15.3,6.3,21.5c0,0.1,0.1,0.1,0.1,0.2
		c6,9.3,15.3,15.6,25.8,17.7c0.6,0.1,1.3,0.3,2,0.4c0,0,0,0,0.1,0c0.6,0.1,1.2,0.2,1.8,0.2c0.1,0,0.1,0,0.2,0
		c0.6,0.1,1.2,0.1,1.8,0.1c0.1,0,0.2,0,0.4,0c0.6,0,1.2,0,1.9,0c0.6,0,1.2,0,1.9,0c0.1,0,0.2,0,0.4,0c0.6,0,1.2-0.1,1.8-0.1
		c0.1,0,0.1,0,0.2,0c0.6-0.1,1.2-0.1,1.8-0.2c0,0,0,0,0.1,0c0.7-0.1,1.3-0.2,1.9-0.4c10.5-2.2,19.8-8.4,25.8-17.7
		c0,0,0.1-0.1,0.1-0.2c4-6.2,6.3-13.6,6.3-21.5c0-11.3-4.7-21.5-12.2-28.8l8.2-11.6c4.2,2.8,9.3,4.4,14.7,4.4h139.4
		c14.8,0,26.8-12,26.8-26.8v-134h10.7v112.6h21.7c2.7,27.1,25.6,48.3,53.3,48.3c29.6,0,53.6-24.1,53.6-53.6
		c0-29.6-24.1-53.6-53.6-53.6c-27.8,0-50.6,21.2-53.3,48.3h-11V223.6H399.6z M453,175.4c23.6,0,42.9,19.2,42.9,42.9
		c0,23.6-19.2,42.9-42.9,42.9c-23.6,0-42.9-19.2-42.9-42.9S429.3,175.4,453,175.4z M453,62.8c23.6,0,42.9,19.2,42.9,42.9
		c0,23.6-19.2,42.9-42.9,42.9c-23.6,0-42.9-19.2-42.9-42.9S429.3,62.8,453,62.8z M83.1,156.5c3.4,5.6,5.4,12.1,5.4,19.2
		c0,5.2-1.1,10.1-3,14.6c-3.9-2.6-8.4-4.7-13.4-6.3c6.8-5.8,11.2-14.4,11.2-24C83.3,158.8,83.2,157.7,83.1,156.5z M51.8,138.9
		c11.6,0,21,9.4,21,21c0,11.6-9.4,21-21,21c-11.6,0-21-9.4-21-21C30.8,148.4,40.2,138.9,51.8,138.9z M15.1,175.7
		c0-7,2-13.6,5.4-19.2c-0.1,1.1-0.2,2.3-0.2,3.5c0,9.6,4.3,18.2,11.2,24c-5,1.5-9.6,3.6-13.4,6.3C16.2,185.8,15.1,180.9,15.1,175.7z
		 M57.8,212.1c-0.3,0.1-0.7,0.1-1,0.1s-0.6,0.1-0.9,0.1c-0.4,0-0.8,0.1-1.2,0.1c-0.2,0-0.5,0-0.7,0.1c-0.7,0-1.3,0.1-2,0.1
		s-1.3,0-2-0.1c-0.2,0-0.5,0-0.7-0.1c-0.4,0-0.8-0.1-1.2-0.1c-0.3,0-0.6-0.1-0.9-0.1s-0.7-0.1-1-0.1c-0.3-0.1-0.7-0.1-1-0.2
		c-0.3,0-0.6-0.1-0.8-0.2c-0.4-0.1-0.8-0.2-1.1-0.3c-0.2-0.1-0.4-0.1-0.6-0.2c-0.4-0.1-0.9-0.2-1.3-0.4c-0.1,0-0.3-0.1-0.4-0.1
		c-0.5-0.2-1-0.3-1.4-0.5c-0.4,0-0.5,0-0.5,0c-6.1-2.3-11.4-6.1-15.5-11c7-4.9,17.4-7.8,28.2-7.8s21.2,2.9,28.2,7.8
		c-4.1,4.9-9.4,8.7-15.5,11h-0.1c-0.5,0.2-1,0.3-1.4,0.5c-0.1,0-0.3,0.1-0.4,0.1c-0.4,0.1-0.9,0.3-1.3,0.4c-0.2,0.1-0.4,0.1-0.6,0.2
		c-0.4,0.1-0.8,0.2-1.1,0.3c-0.3,0.1-0.6,0.1-0.8,0.2C58.5,212,58.1,212,57.8,212.1z M149,390.9c0.3,0,0.6,0,0.9,0
		c0.1,0,0.4,0,0.7,0c8.8,0.4,15.8,7.7,15.8,16.6c0,9.2-7.5,16.6-16.6,16.6c-9.2,0-16.6-7.5-16.6-16.6
		C133.2,398.6,140.2,391.4,149,390.9z M120,420.6c0-4.4,1-8.5,2.6-12.2c0.2,7.4,3.4,14,8.4,18.8c-3.3,1.1-6.3,2.6-9,4.3
		C120.8,428.1,120,424.4,120,420.6z M159.9,448.5c-0.4,0.2-0.9,0.3-1.3,0.4c-0.1,0-0.1,0-0.2,0.1c-0.4,0.1-0.8,0.2-1.2,0.3
		c-0.1,0-0.2,0.1-0.4,0.1c-0.4,0.1-0.7,0.2-1.1,0.2c-0.2,0-0.4,0.1-0.5,0.1c-0.3,0.1-0.6,0.1-0.9,0.2c-0.2,0-0.5,0.1-0.7,0.1
		c-0.3,0-0.5,0.1-0.8,0.1c-0.3,0-0.6,0.1-0.9,0.1c-0.2,0-0.4,0-0.6,0c-0.5,0-1,0-1.6,0c-0.5,0-1,0-1.6,0c-0.2,0-0.4,0-0.6,0
		c-0.3,0-0.6,0-0.9-0.1c-0.3,0-0.5-0.1-0.8-0.1c-0.2,0-0.5-0.1-0.7-0.1c-0.3,0-0.6-0.1-0.9-0.2c-0.2,0-0.4-0.1-0.5-0.1
		c-0.4-0.1-0.7-0.2-1.1-0.2c-0.1,0-0.2-0.1-0.4-0.1c-0.4-0.1-0.8-0.2-1.2-0.3c-0.1,0-0.1,0-0.2-0.1c-0.4,0-0.8-0.2-1.3-0.4
		c-4.6-1.7-8.7-4.5-12-8.2c5.7-3.6,13.7-5.8,22.2-5.8s16.5,2.2,22.2,5.8C168.7,443.9,164.6,446.8,159.9,448.5z M179.5,420.6
		c0,3.8-0.7,7.5-2.1,10.8c-2.7-1.7-5.7-3.2-9-4.3c5-4.8,8.2-11.4,8.4-18.8C178.5,412.1,179.5,416.2,179.5,420.6z M224.1,250.6v0.1
		c6.2,9.7,14.8,17.3,24.8,22.1l-41,58h-23V208.3l29.7,6.6c0,0.9-0.1,1.8-0.1,2.8C214.5,229.8,218,241.1,224.1,250.6z M252.4,229.4
		c-8.5,2.3-16.1,5.8-22.3,10.3c-3.3-6.6-5.1-14.1-5.1-22c0-12.7,4.7-24.3,12.4-33.2c-1.2,3.8-1.9,7.9-1.9,12.2
		C235.5,210.2,242.2,222.1,252.4,229.4z M314.1,184.5c7.7,8.9,12.4,20.5,12.4,33.2c0,7.9-1.9,15.4-5.1,22c-6.2-4.5-13.8-8-22.3-10.3
		c10.2-7.3,16.9-19.3,16.9-32.7C316,192.5,315.3,188.4,314.1,184.5z M315.8,248.7c-7.8,10.1-19.2,17.1-32.3,19.1h-0.1
		c-0.8,0.1-1.5,0.2-2.3,0.3c-0.1,0-0.2,0-0.3,0c-0.8,0.1-1.5,0.1-2.3,0.2c-0.1,0-0.2,0-0.3,0c-0.8,0-1.6,0.1-2.4,0.1s-1.6,0-2.4-0.1
		c-0.1,0-0.2,0-0.3,0c-0.8,0-1.5-0.1-2.3-0.2c-0.1,0-0.2,0-0.3,0c-0.8-0.1-1.6-0.2-2.3-0.3c-0.2,0-0.2,0-0.3,0
		c-13.1-2-24.6-9.1-32.3-19.1c9.7-7.4,24.3-11.7,40.1-11.7S306.2,241.3,315.8,248.7z M275.7,226.4c-16.4,0-29.7-13.3-29.7-29.7
		c0-15.9,12.5-28.9,28.2-29.7c0.5,0,1,0,1.5,0c0.5-0.1,1,0,1.5,0c15.7,0.8,28.2,13.8,28.2,29.7C305.4,213.1,292.1,226.4,275.7,226.4
		z M184.9,357.6v-16.1h15.5l-14.8,20.9C185.2,360.9,184.9,359.3,184.9,357.6z M356.5,357.6c0,8.9-7.2,16.1-16.1,16.1H201
		c-3.1,0-6-0.9-8.5-2.4l20.9-29.8h143.1V357.6z M356.5,330.8H220.9l38.1-54.1c0,0,0-0.1,0.1-0.1c1.4,0.4,2.8,0.8,4.3,1.1h0.1
		c0.4,0.1,0.9,0.2,1.3,0.3c0.1,0,0.3,0,0.4,0.1c0.4,0.1,0.8,0.1,1.2,0.2c0.2,0,0.4,0.1,0.6,0.1c0.5,0.1,1.1,0.1,1.6,0.2
		c0.4,0,0.7,0.1,1.1,0.1c0.2,0,0.5,0,0.7,0.1c0.4,0,0.7,0.1,1.1,0.1c0.2,0,0.5,0,0.7,0c0.4,0,0.8,0,1.2,0.1c0.2,0,0.4,0,0.6,0
		c0.6,0,1.2,0,1.8,0c0.6,0,1.2,0,1.8,0c0.2,0,0.4,0,0.6,0c0.4,0,0.8,0,1.2-0.1c0.2,0,0.5,0,0.7,0c0.4,0,0.7-0.1,1.1-0.1
		c0.2,0,0.5,0,0.7-0.1c0.4,0,0.7-0.1,1.1-0.1c0.5-0.1,1.1-0.1,1.6-0.2c0.2,0,0.4-0.1,0.6-0.1c0.4-0.1,0.8-0.1,1.2-0.2
		c0.1,0,0.3,0,0.4-0.1c0.4-0.1,0.9-0.2,1.3-0.3h0.1c16-3.3,30.2-12.9,39.2-27v-0.1c5.1-8,8.4-17.2,9.3-27h19.8V330.8z M356.5,212.9
		h-19.7c-2.4-30.7-27.8-55.3-58.9-56.4c-30.2-1-55.7,19.9-61.9,48l-31.1-6.9V94.9h171.6V212.9z M356.5,84.2H184.9v-5.4
		c0-8.9,7.2-16.1,16.1-16.1h139.4c8.9,0,16.1,7.2,16.1,16.1V84.2z M453,287.9c23.6,0,42.9,19.2,42.9,42.9
		c0,23.6-19.2,42.9-42.9,42.9c-23.6,0-42.9-19.2-42.9-42.9C410.1,307.2,429.3,287.9,453,287.9z"/>
</g>
</svg>
