<?xml version="1.0" encoding="utf-8"?>
<!-- Generator: Adobe Illustrator 24.2.1, SVG Export Plug-In . SVG Version: 6.00 Build 0)  -->
<svg version="1.1" id="Capa_1" xmlns="http://www.w3.org/2000/svg" xmlns:xlink="http://www.w3.org/1999/xlink" x="0px" y="0px"
	 viewBox="0 0 512 512" style="enable-background:new 0 0 512 512;" xml:space="preserve">
<style type="text/css">
	.st0{fill:#E74C3C;}
</style>
<g>
	<path class="st0" d="M511.9,469c0-1-0.2-2-0.6-2.9c-0.1-0.1-0.2-0.3-0.2-0.4c-0.2-0.6-0.6-1.1-0.9-1.6l-57.9-74.5V145.1
		c0-14.1-11.5-25.6-25.6-25.6H307.2V85.3c0-41.9-43.7-81.5-45.5-83.2c-3.2-2.9-8.1-2.9-11.4,0c-1.9,1.7-45.5,41.3-45.5,83.2v34.1
		H85.3c-14.1,0-25.6,11.5-25.6,25.6v244.5L1.8,464.1c-0.4,0.5-0.7,1-0.9,1.6c-0.1,0.1-0.2,0.2-0.2,0.4C0.3,467,0.1,468,0.1,469
		c0,0.1-0.1,0.2-0.1,0.3v17.1C0,500.5,11.5,512,25.6,512h460.8c14.1,0,25.6-11.5,25.6-25.6v-17.1C512,469.2,511.9,469.1,511.9,469z
		 M307.1,136.5h0.1h119.5c4.7,0,8.5,3.8,8.5,8.5v145.3c-7.3-5.6-16.3-8.7-25.6-8.8c0.1-15.1-6.5-29.4-18.1-39.2
		c-11.5-9.7-26.8-13.9-41.7-11.2v-9.3c0-2-0.7-3.9-2-5.5l-40.7-48.8V136.5z M332.8,224.9v17.5v52.7l-25.6-25.6v-75.3L332.8,224.9z
		 M256,20.5c9.8,10.2,29.2,32.9,33.3,56.3h-66.6C226.8,53.4,246.2,30.7,256,20.5z M221.9,93.9h68.3v128h-68.3V93.9z M221.9,238.9
		h68.3v25.6h-68.3V238.9z M235.7,298.7l-8.5-17.1h57.7l-8.5,17.1H235.7z M268.6,315.7c-3,9.4-7.2,18.4-12.6,26.7
		c-5.4-8.3-9.7-17.3-12.6-26.7H268.6z M210.9,287.7l11.8,23.5c0.8,1.5,1.9,2.7,3.4,3.5c0,13.7,17.4,40.7,22.8,48.6
		c1.6,2.4,4.2,3.8,7.1,3.8c2.9,0,5.5-1.4,7.1-3.8c5.3-7.9,22.7-34.9,22.8-48.6c1.4-0.8,2.6-2.1,3.4-3.5l11.8-23.5l34.3,34.3
		c2.4,2.4,6.1,3.2,9.3,1.9c3.2-1.3,5.3-4.4,5.3-7.9v-67.1c2.8-0.8,5.6-1.2,8.5-1.2c18.8,0,34.1,15.3,34.1,34.1
		c0,1.3-0.1,2.5-0.2,3.7c-13.9,6.1-23.5,19.2-25.2,34.3c-0.5,4.7,2.9,8.9,7.5,9.4c2.3,0.3,4.5-0.4,6.3-1.8c1.8-1.4,2.9-3.5,3.1-5.8
		c1.1-10.3,8.3-18.9,18.3-21.8c2.3-0.7,4.8-1.1,7.2-1.1c14.1,0,25.6,11.5,25.6,25.6V384H76.8v-59.7c0-14.1,11.5-25.6,25.6-25.6
		c2.5,0,4.9,0.4,7.3,1.1c9.9,2.9,17.1,11.5,18.2,21.8c0.5,4.7,4.7,8.1,9.4,7.5c4.7-0.6,8.1-4.7,7.5-9.4
		c-1.7-15.1-11.3-28.2-25.2-34.3c-0.1-1.2-0.2-2.5-0.2-3.7c0-18.8,15.3-34.1,34.1-34.1c2.9,0,5.8,0.4,8.5,1.2v67.1
		c0,3.5,2.1,6.6,5.3,7.9c3.2,1.3,6.9,0.6,9.3-1.8L210.9,287.7z M179.2,295.1V225l25.6-30.8v75.3L179.2,295.1z M76.8,145.1
		c0-4.7,3.8-8.5,8.5-8.5h119.5v31l-40.7,48.8c-1.3,1.5-2,3.5-2,5.5v9.3c-14.9-2.6-30.1,1.5-41.7,11.2c-11.5,9.7-18.2,24.1-18.1,39.2
		c-9.3,0-18.3,3.1-25.6,8.8L76.8,145.1z M72.4,401.1h367.1l46.5,59.7H26L72.4,401.1z M494.9,486.4c0,4.7-3.8,8.5-8.5,8.5H25.6
		c-4.7,0-8.5-3.8-8.5-8.5v-8.5H495L494.9,486.4z"/>
	<path class="st0" d="M392.5,426.7h-273c-4.7,0-8.5,3.8-8.5,8.5s3.8,8.5,8.5,8.5h273.1c4.7,0,8.5-3.8,8.5-8.5
		S397.2,426.7,392.5,426.7z"/>
	<path class="st0" d="M85.3,426.7h-8.5c-4.7,0-8.5,3.8-8.5,8.5s3.8,8.5,8.5,8.5h8.5c4.7,0,8.5-3.8,8.5-8.5S90,426.7,85.3,426.7z"/>
	<path class="st0" d="M435.2,426.7h-8.5c-4.7,0-8.5,3.8-8.5,8.5s3.8,8.5,8.5,8.5h8.5c4.7,0,8.5-3.8,8.5-8.5S439.9,426.7,435.2,426.7
		z"/>
	<path class="st0" d="M264.5,110.9h-17.1c-4.7,0-8.5,3.8-8.5,8.5c0,4.7,3.8,8.5,8.5,8.5h17.1c4.7,0,8.5-3.8,8.5-8.5
		C273.1,114.8,269.2,110.9,264.5,110.9z"/>
	<path class="st0" d="M264.5,145.1h-17.1c-4.7,0-8.5,3.8-8.5,8.5c0,4.7,3.8,8.5,8.5,8.5h17.1c4.7,0,8.5-3.8,8.5-8.5
		C273.1,148.9,269.2,145.1,264.5,145.1z"/>
</g>
</svg>
