<?xml version="1.0" encoding="utf-8"?>
<!-- Generator: Adobe Illustrator 24.2.1, SVG Export Plug-In . SVG Version: 6.00 Build 0)  -->
<svg version="1.1" id="Layer_1" xmlns="http://www.w3.org/2000/svg" xmlns:xlink="http://www.w3.org/1999/xlink" x="0px" y="0px"
	 viewBox="0 0 600 80" style="enable-background:new 0 0 600 80;" xml:space="preserve">
<style type="text/css">
	.st0{fill:#31415C;}
</style>
<path class="st0" d="M0,0l16.7,6.7c16.7,6.7,50,20,83.3,22.2c33.3,2.4,66.7-6.8,100-2.2s66.7,22.1,100,17.8
	c33.3-4.5,66.7-31.1,100-35.6c33.3-4.3,66.7,13.2,100,22.2c33.3,8.9,66.7,8.9,83.3,8.9H600v40h-16.7c-16.7,0-50,0-83.3,0
	s-66.7,0-100,0s-66.7,0-100,0s-66.7,0-100,0s-66.7,0-100,0s-66.7,0-83.3,0H0V0z"/>
</svg>
