<?xml version="1.0" encoding="UTF-8"?>
<!-- Generator: Adobe Illustrator 24.1.0, SVG Export Plug-In . SVG Version: 6.00 Build 0) -->
<svg xmlns="http://www.w3.org/2000/svg" xmlns:xlink="http://www.w3.org/1999/xlink" version="1.1" id="BACKGROUND_1" x="0px" y="0px" viewBox="0 0 750 650" style="enable-background:new 0 0 750 650;" xml:space="preserve"> <style type="text/css"> .st0{fill:#F1FAFE;} .st1{fill:#EBF3F8;} </style> <g> <path class="st0" d="M493.3,297.2c-89.7,121.4,92.6,241.8,200,192.9c24.2-11,42-26.7,56.7-45.1V224.2 C654.7,224.8,559.5,225,493.3,297.2z"/> </g> <g> <path class="st1" d="M115.8,460.5c54.3-95.6,126.2-129.6,207.1-112c106.8,23.2,207-136.8,109.5-246.9c-58.3-65.9-170.3-69.4-225-1 C164.6,154,86.3,148,7.9,115.4c-2.7-1.1-5.3-2.1-7.9-3.1v441.6C49.1,535.5,96,495.5,115.8,460.5z"/> </g> </svg>