<?xml version="1.0" encoding="UTF-8"?> <!-- Generator: Adobe Illustrator 16.0.0, SVG Export Plug-In . SVG Version: 6.00 Build 0) --> <svg xmlns="http://www.w3.org/2000/svg" xmlns:xlink="http://www.w3.org/1999/xlink" id="Layer_1" x="0px" y="0px" width="800px" height="565.5px" viewBox="0 0 800 565.5" style="enable-background:new 0 0 800 565.5;" xml:space="preserve"> <style type="text/css"> <![CDATA[ .st0{fill:#112D48;} .st1{fill:#EB5D46;} .st2{fill:#EFE8C7;} .st3{fill:#563620;} .st4{fill:#295066;} .st5{fill-rule:evenodd;clip-rule:evenodd;fill:#EFE8C7;} .st6{fill:url(#SVGID_4_);} .st7{fill:url(#SVGID_5_);} .st8{fill:url(#SVGID_6_);} .st9{fill:url(#SVGID_7_);} .st10{fill:url(#SVGID_8_);} .st11{fill:#2D2D2D;} .st12{fill:#FFFFFF;} .st13{fill-rule:evenodd;clip-rule:evenodd;fill:#295066;} .st14{fill:#CECECE;} .st15{fill:#353D4C;} .st16{fill-rule:evenodd;clip-rule:evenodd;fill:#FFFFFF;} .st17{fill:#3A3A3A;} .st18{fill:url(#SVGID_12_);} .st19{fill:url(#SVGID_13_);} .st20{fill:url(#SVGID_14_);} .st21{fill-rule:evenodd;clip-rule:evenodd;fill:#CECECE;} .st22{fill-rule:evenodd;clip-rule:evenodd;fill:url(#SVGID_10_);} .st23{fill-rule:evenodd;clip-rule:evenodd;fill:url(#SVGID_11_);} .st24{fill-rule:evenodd;clip-rule:evenodd;fill:url(#SVGID_1_);} .st25{fill-rule:evenodd;clip-rule:evenodd;fill:url(#SVGID_2_);} .st26{fill-rule:evenodd;clip-rule:evenodd;fill:url(#SVGID_3_);} .st27{fill-rule:evenodd;clip-rule:evenodd;fill:url(#SVGID_9_);} .st28{opacity:0.2;fill-rule:evenodd;clip-rule:evenodd;fill:#FFA669;} .st29{fill:#DDDDDD;} .st30{fill:#444444;} ]]> </style> <g> <g> <g> <line class="st12" x1="105.2" y1="241" x2="114.6" y2="241"></line> <rect x="105.2" y="240.1" width="9.4" height="1.7"></rect> </g> <g> <line class="st12" x1="122.1" y1="241" x2="131.5" y2="241"></line> <rect x="122.1" y="240.1" width="9.4" height="1.7"></rect> </g> <g> <line class="st12" x1="139" y1="241" x2="148.4" y2="241"></line> <rect x="139" y="240.1" width="9.4" height="1.7"></rect> </g> <g> <line class="st12" x1="155.9" y1="241" x2="165.3" y2="241"></line> <rect x="155.9" y="240.1" width="9.4" height="1.7"></rect> </g> <g> <line class="st12" x1="172.8" y1="241" x2="182.2" y2="241"></line> <rect x="172.8" y="240.1" width="9.4" height="1.7"></rect> </g> <g> <line class="st12" x1="189.7" y1="241" x2="199.1" y2="241"></line> <rect x="189.7" y="240.1" width="9.4" height="1.7"></rect> </g> <g> <line class="st12" x1="206.6" y1="241" x2="216" y2="241"></line> <rect x="206.6" y="240.1" width="9.4" height="1.7"></rect> </g> <g> <line class="st12" x1="223.4" y1="241" x2="232.9" y2="241"></line> <rect x="223.4" y="240.1" width="9.4" height="1.7"></rect> </g> <g> <line class="st12" x1="240.3" y1="241" x2="249.7" y2="241"></line> <rect x="240.3" y="240.1" width="9.4" height="1.7"></rect> </g> <g> <line class="st12" x1="257.2" y1="241" x2="266.6" y2="241"></line> <rect x="257.2" y="240.1" width="9.4" height="1.7"></rect> </g> <g> <line class="st12" x1="274.1" y1="241" x2="283.5" y2="241"></line> <rect x="274.1" y="240.1" width="9.4" height="1.7"></rect> </g> <g> <line class="st12" x1="291" y1="241" x2="300.4" y2="241"></line> <rect x="291" y="240.1" width="9.4" height="1.7"></rect> </g> <g> <line class="st12" x1="307.9" y1="241" x2="317.3" y2="241"></line> <rect x="307.9" y="240.1" width="9.4" height="1.7"></rect> </g> <g> <line class="st12" x1="324.8" y1="241" x2="334.2" y2="241"></line> <rect x="324.8" y="240.1" width="9.4" height="1.7"></rect> </g> <g> <line class="st12" x1="341.6" y1="241" x2="351.1" y2="241"></line> <rect x="341.6" y="240.1" width="9.4" height="1.7"></rect> </g> </g> <g> <line class="st12" x1="219.4" y1="474.2" x2="228.8" y2="474.2"></line> <rect x="219.4" y="473.3" width="9.4" height="1.7"></rect> </g> <g> <line class="st12" x1="236.3" y1="474.2" x2="245.7" y2="474.2"></line> <rect x="236.3" y="473.3" width="9.4" height="1.7"></rect> </g> <g> <line class="st12" x1="253.2" y1="474.2" x2="262.6" y2="474.2"></line> <rect x="253.2" y="473.3" width="9.4" height="1.7"></rect> </g> <g> <line class="st12" x1="270.1" y1="474.2" x2="279.5" y2="474.2"></line> <rect x="270.1" y="473.3" width="9.4" height="1.7"></rect> </g> <g> <line class="st12" x1="458.6" y1="346.6" x2="468" y2="346.6"></line> <rect x="458.6" y="345.8" width="9.4" height="1.7"></rect> </g> <g> <line class="st12" x1="459.5" y1="346.5" x2="459.5" y2="337.1"></line> <rect x="458.6" y="337.1" width="1.7" height="9.4"></rect> </g> <g> <line class="st12" x1="459.5" y1="330.8" x2="459.5" y2="321.4"></line> <rect x="458.6" y="321.4" width="1.7" height="9.4"></rect> </g> <g> <line class="st12" x1="475.5" y1="346.6" x2="484.9" y2="346.6"></line> <rect x="475.5" y="345.8" width="9.4" height="1.7"></rect> </g> <g> <line class="st12" x1="492.4" y1="346.6" x2="501.8" y2="346.6"></line> <rect x="492.4" y="345.8" width="9.4" height="1.7"></rect> </g> <g> <line class="st12" x1="509.3" y1="346.6" x2="518.7" y2="346.6"></line> <rect x="509.3" y="345.8" width="9.4" height="1.7"></rect> </g> <g> <line class="st12" x1="526.1" y1="346.6" x2="535.6" y2="346.6"></line> <rect x="526.1" y="345.8" width="9.4" height="1.7"></rect> </g> <g> <line class="st12" x1="543" y1="346.6" x2="552.4" y2="346.6"></line> <rect x="543" y="345.8" width="9.4" height="1.7"></rect> </g> <g> <line class="st12" x1="559.9" y1="346.6" x2="569.3" y2="346.6"></line> <rect x="559.9" y="345.8" width="9.4" height="1.7"></rect> </g> <g> <line class="st12" x1="576.8" y1="346.6" x2="586.2" y2="346.6"></line> <rect x="576.8" y="345.8" width="9.4" height="1.7"></rect> </g> <g> <line class="st12" x1="593.7" y1="346.6" x2="603.1" y2="346.6"></line> <rect x="593.7" y="345.8" width="9.4" height="1.7"></rect> </g> <g> <line class="st12" x1="610.6" y1="346.6" x2="620" y2="346.6"></line> <rect x="610.6" y="345.8" width="9.4" height="1.7"></rect> </g> <g> <line class="st12" x1="627.5" y1="346.6" x2="636.9" y2="346.6"></line> <rect x="627.5" y="345.8" width="9.4" height="1.7"></rect> </g> <g> <line class="st12" x1="644.4" y1="346.6" x2="653.8" y2="346.6"></line> <rect x="644.4" y="345.8" width="9.4" height="1.7"></rect> </g> <g> <g> <line class="st12" x1="359.1" y1="264.1" x2="368.5" y2="264.1"></line> <rect x="359.1" y="263.2" width="9.4" height="1.7"></rect> </g> <g> <line class="st12" x1="376" y1="264.1" x2="385.4" y2="264.1"></line> <rect x="376" y="263.2" width="9.4" height="1.7"></rect> </g> <g> <line class="st12" x1="392.9" y1="264.1" x2="402.3" y2="264.1"></line> <rect x="392.9" y="263.2" width="9.4" height="1.7"></rect> </g> <g> <line class="st12" x1="409.8" y1="264.1" x2="419.2" y2="264.1"></line> <rect x="409.8" y="263.2" width="9.4" height="1.7"></rect> </g> <g> <line class="st12" x1="426.6" y1="264.1" x2="436" y2="264.1"></line> <rect x="426.6" y="263.2" width="9.4" height="1.7"></rect> </g> <g> <line class="st12" x1="443.5" y1="264.1" x2="452.9" y2="264.1"></line> <rect x="443.5" y="263.2" width="9.4" height="1.7"></rect> </g> <g> <line class="st12" x1="460.4" y1="264.1" x2="469.8" y2="264.1"></line> <rect x="460.4" y="263.2" width="9.4" height="1.7"></rect> </g> <g> <line class="st12" x1="477.3" y1="264.1" x2="486.7" y2="264.1"></line> <rect x="477.3" y="263.2" width="9.4" height="1.7"></rect> </g> <g> <line class="st12" x1="494.2" y1="264.1" x2="503.6" y2="264.1"></line> <rect x="494.2" y="263.2" width="9.4" height="1.7"></rect> </g> <g> <line class="st12" x1="511.1" y1="264.1" x2="520.5" y2="264.1"></line> <rect x="511.1" y="263.2" width="9.4" height="1.7"></rect> </g> <g> <line class="st12" x1="528" y1="264.1" x2="537.4" y2="264.1"></line> <rect x="528" y="263.2" width="9.4" height="1.7"></rect> </g> <g> <line class="st12" x1="544.8" y1="264.1" x2="554.2" y2="264.1"></line> <rect x="544.8" y="263.2" width="9.4" height="1.7"></rect> </g> <g> <line class="st12" x1="561.7" y1="264.1" x2="571.1" y2="264.1"></line> <rect x="561.7" y="263.2" width="9.4" height="1.7"></rect> </g> <g> <line class="st12" x1="578.6" y1="264.1" x2="588" y2="264.1"></line> <rect x="578.6" y="263.2" width="9.4" height="1.7"></rect> </g> <g> <line class="st12" x1="595.5" y1="264.1" x2="604.9" y2="264.1"></line> <rect x="595.5" y="263.2" width="9.4" height="1.7"></rect> </g> </g> <g> <line class="st12" x1="418.3" y1="78.9" x2="427.7" y2="78.9"></line> <rect x="418.3" y="78.1" width="9.4" height="1.7"></rect> </g> <g> <line class="st12" x1="435.1" y1="78.9" x2="444.6" y2="78.9"></line> <rect x="435.1" y="78.1" width="9.4" height="1.7"></rect> </g> <g> <line class="st12" x1="452" y1="78.9" x2="461.4" y2="78.9"></line> <rect x="452" y="78.1" width="9.4" height="1.7"></rect> </g> <g> <line class="st12" x1="468.9" y1="78.9" x2="478.3" y2="78.9"></line> <rect x="468.9" y="78.1" width="9.4" height="1.7"></rect> </g> <g> <line class="st12" x1="485.8" y1="78.9" x2="495.2" y2="78.9"></line> <rect x="485.8" y="78.1" width="9.4" height="1.7"></rect> </g> <g> <line class="st12" x1="502.7" y1="78.9" x2="512.1" y2="78.9"></line> <rect x="502.7" y="78.1" width="9.4" height="1.7"></rect> </g> <g> <line class="st12" x1="519.6" y1="78.9" x2="529" y2="78.9"></line> <rect x="519.6" y="78.1" width="9.4" height="1.7"></rect> </g> <g> <line class="st12" x1="536.5" y1="78.9" x2="545.9" y2="78.9"></line> <rect x="536.5" y="78.1" width="9.4" height="1.7"></rect> </g> <g> <line class="st12" x1="419" y1="310.9" x2="419" y2="301.5"></line> <rect x="418.2" y="301.5" width="1.7" height="9.4"></rect> </g> <g> <line class="st12" x1="419" y1="294" x2="419" y2="284.6"></line> <rect x="418.2" y="284.6" width="1.7" height="9.4"></rect> </g> <g> <line class="st12" x1="419" y1="277.1" x2="419" y2="267.7"></line> <rect x="418.2" y="267.7" width="1.7" height="9.4"></rect> </g> <g> <line class="st12" x1="419" y1="260.2" x2="419" y2="250.8"></line> <rect x="418.2" y="250.8" width="1.7" height="9.4"></rect> </g> <g> <line class="st12" x1="419" y1="243.3" x2="419" y2="233.9"></line> <rect x="418.2" y="233.9" width="1.7" height="9.4"></rect> </g> <g> <line class="st12" x1="419" y1="226.4" x2="419" y2="217"></line> <rect x="418.2" y="217" width="1.7" height="9.4"></rect> </g> <g> <line class="st12" x1="419" y1="209.5" x2="419" y2="200.1"></line> <rect x="418.2" y="200.1" width="1.7" height="9.4"></rect> </g> <g> <line class="st12" x1="419" y1="192.7" x2="419" y2="183.3"></line> <rect x="418.2" y="183.3" width="1.7" height="9.4"></rect> </g> <g> <line class="st12" x1="419" y1="175.8" x2="419" y2="166.4"></line> <rect x="418.2" y="166.4" width="1.7" height="9.4"></rect> </g> <g> <line class="st12" x1="419" y1="158.9" x2="419" y2="149.5"></line> <rect x="418.2" y="149.5" width="1.7" height="9.4"></rect> </g> <g> <line class="st12" x1="419" y1="142" x2="419" y2="132.6"></line> <rect x="418.2" y="132.6" width="1.7" height="9.4"></rect> </g> <g> <line class="st12" x1="419" y1="125.1" x2="419" y2="115.7"></line> <rect x="418.2" y="115.7" width="1.7" height="9.4"></rect> </g> <g> <line class="st12" x1="419" y1="108.2" x2="419" y2="98.8"></line> <rect x="418.2" y="98.8" width="1.7" height="9.4"></rect> </g> <g> <line class="st12" x1="279.5" y1="475" x2="279.5" y2="465.6"></line> <rect x="278.6" y="465.6" width="1.7" height="9.4"></rect> </g> <g> <line class="st12" x1="279.5" y1="458.1" x2="279.5" y2="448.7"></line> <rect x="278.6" y="448.7" width="1.7" height="9.4"></rect> </g> <g> <line class="st12" x1="279.5" y1="441.2" x2="279.5" y2="431.8"></line> <rect x="278.6" y="431.8" width="1.7" height="9.4"></rect> </g> <g> <line class="st12" x1="279.5" y1="424.3" x2="279.5" y2="414.9"></line> <rect x="278.6" y="414.9" width="1.7" height="9.4"></rect> </g> <g> <line class="st12" x1="279.5" y1="407.5" x2="279.5" y2="398"></line> <rect x="278.6" y="398" width="1.7" height="9.4"></rect> </g> <g> <line class="st12" x1="279.5" y1="390.6" x2="279.5" y2="381.2"></line> <rect x="278.6" y="381.2" width="1.7" height="9.4"></rect> </g> <g> <line class="st12" x1="419" y1="91.3" x2="419" y2="81.9"></line> <rect x="418.2" y="81.9" width="1.7" height="9.4"></rect> </g> <g> <rect x="247.7" y="196.6" class="st12" width="7" height="7"></rect> <path d="M255.6,204.5h-8.7v-8.7h8.7V204.5z M248.6,202.8h5.3v-5.3h-5.3V202.8z"></path> </g> <g> <rect x="495.2" y="182.9" class="st12" width="5.1" height="5.1"></rect> <path d="M501.2,188.8h-6.8V182h6.8V188.8z M496.1,187.1h3.4v-3.4h-3.4V187.1z"></path> </g> <g> <rect x="248.5" y="301.7" class="st12" width="7.6" height="7.6"></rect> <path d="M257,310.2h-9.3v-9.3h9.3V310.2z M249.4,308.5h5.9v-5.9h-5.9V308.5z"></path> </g> <g> <rect x="584.1" y="371.3" transform="matrix(-0.7071 -0.7071 0.7071 -0.7071 738.4073 1055.9706)" class="st12" width="7.6" height="7.6"></rect> <path d="M587.9,381.7l-6.6-6.6l6.6-6.6l6.6,6.6L587.9,381.7z M583.7,375.1l4.2,4.2l4.2-4.2l-4.2-4.2L583.7,375.1z"></path> </g> <g> <rect x="713.7" y="306.7" transform="matrix(-0.707 -0.7072 0.7072 -0.707 1006.4905 1040.519)" class="st12" width="10.2" height="10.2"></rect> <path d="M718.8,320.2l-8.4-8.4l8.4-8.4l8.4,8.4L718.8,320.2z M712.8,311.8l6,6l6-6l-6-6L712.8,311.8z"></path> </g> <g> <rect x="304.1" y="491.9" transform="matrix(-0.7071 -0.7071 0.7071 -0.7071 175.0333 1063.916)" class="st12" width="7.6" height="7.6"></rect> <path d="M307.9,502.3l-6.6-6.6l6.6-6.6l6.6,6.6L307.9,502.3z M303.7,495.7l4.2,4.2l4.2-4.2l-4.2-4.2L303.7,495.7z"></path> </g> <g> <rect x="515.8" y="123.3" transform="matrix(-0.707 -0.7072 0.7072 -0.707 797.033 584.4811)" class="st12" width="7.6" height="7.6"></rect> <path d="M519.6,133.7l-6.6-6.6l6.6-6.6l6.6,6.6L519.6,133.7z M515.4,127.1l4.2,4.2l4.2-4.2l-4.2-4.2L515.4,127.1z"></path> </g> <g> <rect x="117.2" y="202.9" transform="matrix(-0.7071 -0.7071 0.7071 -0.7071 60.4063 438.3401)" class="st12" width="7.6" height="7.6"></rect> <path d="M121,213.3l-6.6-6.6l6.6-6.6l6.6,6.6L121,213.3z M116.8,206.7l4.2,4.2l4.2-4.2l-4.2-4.2L116.8,206.7z"></path> </g> <g> <circle class="st12" cx="590.4" cy="312.1" r="3.3"></circle> <path d="M590.4,316.2c-2.3,0-4.1-1.9-4.1-4.1c0-2.3,1.9-4.1,4.1-4.1c2.3,0,4.1,1.9,4.1,4.1C594.5,314.3,592.7,316.2,590.4,316.2z M590.4,309.6c-1.3,0-2.4,1.1-2.4,2.4c0,1.3,1.1,2.4,2.4,2.4c1.3,0,2.4-1.1,2.4-2.4C592.8,310.7,591.7,309.6,590.4,309.6z"></path> </g> <g> <circle class="st12" cx="326.6" cy="335.1" r="3.6"></circle> <path d="M326.6,339.6c-2.4,0-4.4-2-4.4-4.4s2-4.4,4.4-4.4c2.4,0,4.4,2,4.4,4.4S329.1,339.6,326.6,339.6z M326.6,332.4 c-1.5,0-2.7,1.2-2.7,2.7s1.2,2.7,2.7,2.7c1.5,0,2.7-1.2,2.7-2.7S328.1,332.4,326.6,332.4z"></path> </g> <g> <line class="st12" x1="279.6" y1="373.1" x2="279.6" y2="363.7"></line> <rect x="278.7" y="363.7" width="1.7" height="9.4"></rect> </g> <g> <line class="st12" x1="279.6" y1="356.2" x2="279.6" y2="346.8"></line> <rect x="278.7" y="346.8" width="1.7" height="9.4"></rect> </g> <g> <line class="st12" x1="279.6" y1="339.3" x2="279.6" y2="329.9"></line> <rect x="278.7" y="329.9" width="1.7" height="9.4"></rect> </g> <g> <line class="st12" x1="279.6" y1="322.4" x2="279.6" y2="313"></line> <rect x="278.7" y="313" width="1.7" height="9.4"></rect> </g> <g> <line class="st12" x1="279.6" y1="305.5" x2="279.6" y2="296.1"></line> <rect x="278.7" y="296.1" width="1.7" height="9.4"></rect> </g> <g> <line class="st12" x1="288.2" y1="296.8" x2="278.8" y2="296.8"></line> <rect x="278.8" y="295.9" width="9.4" height="1.7"></rect> </g> <g> <line class="st12" x1="304.2" y1="296.8" x2="294.8" y2="296.8"></line> <rect x="294.8" y="295.9" width="9.4" height="1.7"></rect> </g> <g> <circle class="st12" cx="238.5" cy="436.5" r="2.6"></circle> <path d="M238.5,440c-1.9,0-3.5-1.5-3.5-3.4c0-1.9,1.5-3.5,3.5-3.5s3.5,1.5,3.5,3.5C242,438.4,240.5,440,238.5,440z M238.5,434.8 c-1,0-1.7,0.8-1.7,1.7c0,1,0.8,1.7,1.7,1.7s1.7-0.8,1.7-1.7C240.3,435.6,239.5,434.8,238.5,434.8z"></path> </g> <g> <circle class="st12" cx="158.8" cy="275.8" r="3.9"></circle> <path d="M158.8,280.6c-2.6,0-4.8-2.1-4.8-4.8c0-2.6,2.1-4.8,4.8-4.8c2.6,0,4.8,2.1,4.8,4.8C163.6,278.5,161.4,280.6,158.8,280.6z M158.8,272.8c-1.7,0-3.1,1.4-3.1,3.1c0,1.7,1.4,3.1,3.1,3.1c1.7,0,3.1-1.4,3.1-3.1C161.9,274.1,160.5,272.8,158.8,272.8z"></path> </g> <g> <circle class="st12" cx="334.2" cy="99" r="3.6"></circle> <path d="M334.2,103.4c-2.4,0-4.4-2-4.4-4.4c0-2.4,2-4.4,4.4-4.4c2.4,0,4.4,2,4.4,4.4C338.6,101.4,336.6,103.4,334.2,103.4z M334.2,96.3c-1.5,0-2.7,1.2-2.7,2.7c0,1.5,1.2,2.7,2.7,2.7c1.5,0,2.7-1.2,2.7-2.7C336.9,97.5,335.7,96.3,334.2,96.3z"></path> </g> <g> <circle class="st12" cx="477.9" cy="53.9" r="3.4"></circle> <path d="M477.9,58.1c-2.3,0-4.2-1.9-4.2-4.2c0-2.3,1.9-4.2,4.2-4.2c2.3,0,4.2,1.9,4.2,4.2C482.1,56.2,480.2,58.1,477.9,58.1z M477.9,51.3c-1.4,0-2.5,1.1-2.5,2.5c0,1.4,1.1,2.5,2.5,2.5c1.4,0,2.5-1.1,2.5-2.5C480.4,52.5,479.3,51.3,477.9,51.3z"></path> </g> <g> <circle class="st12" cx="419" cy="78.9" r="5.8"></circle> <path d="M419,85.6c-3.7,0-6.7-3-6.7-6.7s3-6.7,6.7-6.7s6.7,3,6.7,6.7S422.7,85.6,419,85.6z M419,73.9c-2.7,0-5,2.2-5,5s2.2,5,5,5 c2.7,0,5-2.2,5-5S421.8,73.9,419,73.9z"></path> </g> <g> <circle class="st12" cx="85.5" cy="240.8" r="21.7"></circle> <path d="M85.5,263.4c-12.5,0-22.6-10.1-22.6-22.6c0-12.5,10.1-22.6,22.6-22.6c12.5,0,22.6,10.1,22.6,22.6 C108.1,253.3,98,263.4,85.5,263.4z M85.5,219.9c-11.5,0-20.9,9.4-20.9,20.9c0,11.5,9.4,20.9,20.9,20.9s20.9-9.4,20.9-20.9 C106.4,229.3,97,219.9,85.5,219.9z"></path> </g> <g> <g> <line class="st13" x1="50.3" y1="295" x2="63.4" y2="295"></line> <rect x="50.3" y="294.2" width="13.1" height="1.7"></rect> </g> <g> <line class="st13" x1="56.9" y1="301.6" x2="56.9" y2="288.5"></line> <rect x="56" y="288.5" width="1.7" height="13.1"></rect> </g> </g> <g> <g> <line class="st13" x1="185.1" y1="98.1" x2="194.3" y2="98.1"></line> <rect x="185.1" y="97.2" width="9.2" height="1.7"></rect> </g> <g> <line class="st13" x1="189.7" y1="102.7" x2="189.7" y2="93.5"></line> <rect x="188.8" y="93.5" width="1.7" height="9.2"></rect> </g> </g> <g> <g> <line class="st13" x1="545" y1="325.6" x2="554.1" y2="325.6"></line> <rect x="545" y="324.7" width="9.2" height="1.7"></rect> </g> <g> <line class="st13" x1="549.5" y1="330.2" x2="549.5" y2="321"></line> <rect x="548.7" y="321" width="1.7" height="9.2"></rect> </g> </g> <g> <g> <line class="st13" x1="636.9" y1="190" x2="649.5" y2="190"></line> <rect x="636.9" y="189.2" width="12.6" height="1.7"></rect> </g> <g> <line class="st13" x1="643.2" y1="196.3" x2="643.2" y2="183.7"></line> <rect x="642.3" y="183.7" width="1.7" height="12.6"></rect> </g> </g> <g> <polygon class="st2" points="555.4,372.4 549,386.2 549,435.3 561.9,435.3 561.9,386.2 "></polygon> <path d="M562.7,436.2h-14.6V386l7.2-15.6l7.3,15.6V436.2z M549.9,434.5H561v-48.1l-5.6-11.9l-5.5,11.9V434.5z"></path> </g> <path d="M505.2,298.4v135.6c0,2.4-2,4.4-4.4,4.4h-14.5v1.4h14.5c3.2,0,5.8-2.6,5.8-5.8V298.4H505.2z"></path> <path d="M505.2,423V287.5c0-2.4-2-4.4-4.4-4.4h-21.4v-1.4h21.4c3.2,0,5.8,2.6,5.8,5.8V423H505.2z"></path> <g> <path class="st16" d="M181.1,147.7c-6.8,0-12.3,5.5-12.3,12.3h24.6C193.4,153.2,187.9,147.7,181.1,147.7z"></path> <path d="M194.2,160.8h-26.3V160c0-7.3,5.9-13.2,13.2-13.2s13.2,5.9,13.2,13.2V160.8z M169.7,159.1h22.8 c-0.4-5.9-5.4-10.6-11.4-10.6C175.1,148.5,170.1,153.2,169.7,159.1z"></path> </g> <g> <circle class="st16" cx="181.1" cy="143.4" r="6.9"></circle> <path d="M181.1,151.2c-4.3,0-7.8-3.5-7.8-7.8s3.5-7.8,7.8-7.8s7.8,3.5,7.8,7.8S185.4,151.2,181.1,151.2z M181.1,137.3 c-3.3,0-6.1,2.7-6.1,6.1s2.7,6.1,6.1,6.1s6.1-2.7,6.1-6.1S184.4,137.3,181.1,137.3z"></path> </g> <g> <path class="st16" d="M126.1,147.7c-6.8,0-12.3,5.5-12.3,12.3h24.6C138.4,153.2,132.9,147.7,126.1,147.7z"></path> <path d="M139.3,160.8h-26.3V160c0-7.3,5.9-13.2,13.2-13.2s13.2,5.9,13.2,13.2V160.8z M114.7,159.1h22.8 c-0.4-5.9-5.4-10.6-11.4-10.6S115.1,153.2,114.7,159.1z"></path> </g> <g> <circle class="st16" cx="126.1" cy="143.4" r="6.9"></circle> <path d="M126.1,151.2c-4.3,0-7.8-3.5-7.8-7.8s3.5-7.8,7.8-7.8s7.8,3.5,7.8,7.8S130.4,151.2,126.1,151.2z M126.1,137.3 c-3.3,0-6.1,2.7-6.1,6.1s2.7,6.1,6.1,6.1s6.1-2.7,6.1-6.1S129.5,137.3,126.1,137.3z"></path> </g> <g> <path class="st5" d="M248.5,24.4V43c-0.3,0.2-0.6,0.6-0.8,0.9l-10.3,19.6c-0.8,1.5-0.2,3.3,1.3,4.1c1.5,0.8,3.3,0.2,4.1-1.3 l5.7-10.8v30.5c0,1.7,1.4,3.1,3.1,3.1c1.7,0,3-1.4,3-3.1V64.9h3.8V90c0,1.7,1.4,3,3.1,3c1.7,0,3-1.4,3-3V64.9h3.8v21.9 c0,1.7,1.4,3.1,3,3.1c1.7,0,3-1.4,3-3.1V64.9h3.8v16.7c0,1.7,1.4,3,3,3c1.7,0,3.1-1.4,3.1-3V63.3V49V24.4H248.5z"></path> <path d="M261.4,93.9c-2.2,0-3.9-1.8-3.9-3.9V65.7h-2.1v20.4c0,2.2-1.8,3.9-3.9,3.9c-2.2,0-3.9-1.8-3.9-3.9V59.1l-4,7.7 c-0.7,1.3-2,2.1-3.5,2.1c-0.6,0-1.3-0.2-1.8-0.5c-1.9-1-2.6-3.4-1.6-5.3L247,43.5c0.2-0.3,0.4-0.7,0.7-0.9v-19h37.4v58 c0,2.2-1.8,3.9-3.9,3.9c-2.2,0-3.9-1.8-3.9-3.9V65.7h-2.1v21.1c0,2.2-1.8,3.9-3.9,3.9c-2.2,0-3.9-1.8-3.9-3.9V65.7h-2V90 C265.3,92.2,263.6,93.9,261.4,93.9z M253.7,64h5.5v26c0,1.2,1,2.2,2.2,2.2c1.2,0,2.2-1,2.2-2.2V64h5.5v22.8c0,1.2,1,2.2,2.2,2.2 c1.2,0,2.2-1,2.2-2.2V64h5.5v17.6c0,1.2,1,2.2,2.2,2.2s2.2-1,2.2-2.2V25.3h-34v18.1l-0.3,0.3c-0.2,0.2-0.4,0.4-0.5,0.7l-10.3,19.6 c-0.6,1.1-0.2,2.4,0.9,3c0.3,0.2,0.7,0.3,1,0.3c0.8,0,1.6-0.4,1.9-1.2l7.3-13.8v34c0,1.2,1,2.2,2.2,2.2c1.2,0,2.2-1,2.2-2.2V64z"></path> </g> <g> <linearGradient id="SVGID_1_" gradientUnits="userSpaceOnUse" x1="-126.6377" y1="290.5635" x2="519.9516" y2="-152.1212"> <stop offset="0" style="stop-color:#E65A49"></stop> <stop offset="1" style="stop-color:#F89C2B"></stop> </linearGradient> <rect x="243.2" y="11.7" class="st24" width="45" height="20.4"></rect> <path d="M289.1,33h-46.8V10.9h46.8V33z M244,31.3h43.3V12.6H244V31.3z"></path> </g> <g> <rect x="217.4" y="80.6" class="st16" width="89" height="61.3"></rect> <path d="M307.3,142.7h-90.7v-63h90.7V142.7z M218.3,141h87.3V81.4h-87.3V141z"></path> </g> <g> <linearGradient id="SVGID_2_" gradientUnits="userSpaceOnUse" x1="-20.4111" y1="445.7363" x2="626.1924" y2="3.0418"> <stop offset="0" style="stop-color:#E65A49"></stop> <stop offset="1" style="stop-color:#F89C2B"></stop> </linearGradient> <path class="st25" d="M238.4,257.1l-3.9-1.7l-3.5,7.8c-2-0.5-4-0.6-5.9-0.2l-3.1-8l-4,1.5l3.1,8c-1.7,1-3.2,2.4-4.3,4.1l-7.8-3.5 l-1.7,3.9l7.8,3.5c-0.5,2-0.6,4-0.2,5.9l-8,3.1l1.5,4l8-3.1c1,1.7,2.4,3.2,4.1,4.3l-3.5,7.8l3.9,1.7l3.5-7.8c2,0.5,4,0.6,5.9,0.2 l3.1,8l4-1.5l-3.1-8c1.7-1,3.2-2.4,4.3-4.1l7.8,3.5l1.7-3.9l-7.8-3.5c0.5-2,0.6-4,0.2-5.9l8-3.1l-1.5-4l-8,3.1 c-1-1.7-2.4-3.2-4.1-4.3L238.4,257.1z M231.5,277.5c-0.9,2-3.2,2.9-5.2,2c-2-0.9-2.9-3.2-2-5.2c0.9-2,3.2-2.9,5.2-2 C231.5,273.2,232.4,275.5,231.5,277.5z"></path> <path d="M232.9,297.7l-3.1-8.1c-1.6,0.2-3.3,0.2-4.9-0.1l-3.6,8L216,295l3.6-8c-1.3-1-2.4-2.2-3.4-3.5l-8.2,3.1l-2.1-5.6l8.2-3.1 c-0.2-1.6-0.2-3.3,0.1-4.9l-8-3.6l2.4-5.4l8,3.6c1-1.3,2.2-2.4,3.5-3.3l-3.1-8.2l5.6-2.1l3.1,8.2c1.6-0.2,3.3-0.2,4.9,0.1l3.6-8 l5.4,2.4l-3.6,8c1.3,1,2.5,2.2,3.4,3.5l8.1-3.1l2.1,5.6l-8.2,3.1c0.2,1.6,0.2,3.3-0.1,4.9l8,3.6l-2.4,5.4l-8-3.6 c-1,1.3-2.2,2.5-3.5,3.4l3.1,8.2L232.9,297.7z M230.9,287.6l3,7.9l2.4-0.9l-3-7.9l0.6-0.4c1.6-1,3-2.2,4-3.8l0.4-0.6l7.7,3.4 l1-2.3l-7.7-3.4l0.2-0.7c0.5-1.8,0.5-3.7,0.2-5.5l-0.1-0.7l7.9-3l-0.9-2.4l-7.9,3l-0.4-0.6c-0.9-1.6-2.3-3-3.8-4l-0.6-0.4l3.4-7.7 l-2.3-1l-3.4,7.7l-0.7-0.2c-1.8-0.5-3.7-0.5-5.5-0.1l-0.7,0.1l-3-7.9l-2.4,0.9l3,7.9l-0.6,0.4c-1.6,0.9-3,2.2-4,3.8l-0.4,0.6 l-7.7-3.5l-1,2.3l7.7,3.4l-0.2,0.7c-0.5,1.8-0.5,3.7-0.1,5.5l0.1,0.7l-7.9,3l0.9,2.4l7.9-3l0.4,0.6c1,1.6,2.2,3,3.8,4l0.6,0.4 l-3.4,7.7l2.3,1l3.4-7.7l0.7,0.2c1.8,0.5,3.7,0.5,5.5,0.1L230.9,287.6z M227.9,280.7c-0.7,0-1.3-0.1-1.9-0.4 c-1.2-0.5-2.1-1.5-2.5-2.7c-0.5-1.2-0.4-2.5,0.1-3.7c0.8-1.7,2.5-2.8,4.4-2.8c0.7,0,1.3,0.1,1.9,0.4c2.4,1.1,3.5,3.9,2.4,6.3 C231.5,279.6,229.8,280.7,227.9,280.7z M227.9,272.8c-1.2,0-2.3,0.7-2.8,1.8c-0.3,0.8-0.4,1.6-0.1,2.4c0.3,0.8,0.9,1.4,1.6,1.7 c0.4,0.2,0.8,0.3,1.2,0.3c1.2,0,2.3-0.7,2.8-1.8c0.7-1.5,0-3.4-1.6-4.1C228.8,272.9,228.3,272.8,227.9,272.8z"></path> </g> <g> <linearGradient id="SVGID_3_" gradientUnits="userSpaceOnUse" x1="-7.7544" y1="464.2412" x2="638.8716" y2="21.5313"> <stop offset="0" style="stop-color:#E65A49"></stop> <stop offset="1" style="stop-color:#F89C2B"></stop> </linearGradient> <path class="st26" d="M276.5,268.5l-2-2.1l-4.3,4.1c-1.1-0.9-2.4-1.4-3.8-1.7l0.1-6l-2.9-0.1l-0.1,6c-1.3,0.2-2.7,0.7-3.8,1.5 l-4.1-4.3l-2.1,2l4.1,4.3c-0.9,1.1-1.4,2.4-1.7,3.8l-6-0.1l-0.1,3l6,0.1c0.2,1.4,0.7,2.7,1.5,3.8l-4.3,4.1l2,2.1l4.3-4.1 c1.1,0.9,2.4,1.4,3.8,1.7l-0.1,6l3,0.1l0.1-6c1.4-0.2,2.7-0.7,3.8-1.5l4.1,4.3l2.1-2l-4.1-4.3c0.9-1.1,1.4-2.4,1.7-3.8l6,0.1 l0.1-3l-6-0.1c-0.2-1.3-0.7-2.7-1.5-3.8L276.5,268.5z M266.7,279.8c-1.1,1-2.8,1-3.9-0.1c-1-1.1-1-2.8,0.1-3.9 c1.1-1,2.8-1,3.9,0.1C267.8,277,267.8,278.7,266.7,279.8z"></path> <path d="M266.7,293.5l-4.7-0.1l0.1-6.1c-1-0.3-1.9-0.7-2.8-1.2l-4.4,4.2l-3.2-3.4l4.4-4.2c-0.5-0.9-0.9-1.8-1.1-2.9l-6.1-0.1 l0.1-4.7l6.1,0.1c0.3-1,0.7-1.9,1.2-2.8l-4.2-4.4l3.4-3.2l4.2,4.4c0.9-0.5,1.8-0.9,2.9-1.1l0.1-6.1l4.7,0.1l-0.1,6.1 c1,0.3,1.9,0.7,2.8,1.2l4.4-4.2l3.2,3.4l-4.4,4.2c0.5,0.9,0.9,1.9,1.1,2.9l6.1,0.1l-0.1,4.7l-6.1-0.1c-0.3,1-0.7,1.9-1.2,2.8 l4.2,4.4l-3.4,3.2l-4.2-4.4c-0.9,0.5-1.9,0.9-2.9,1.1L266.7,293.5z M263.8,291.7l1.2,0l0.1-5.8l0.7-0.1c1.3-0.2,2.4-0.6,3.5-1.4 l0.6-0.4l4,4.2l0.9-0.8l-4-4.2l0.4-0.6c0.8-1,1.3-2.2,1.5-3.4l0.1-0.7l5.8,0.1l0-1.2l-5.8-0.1l-0.1-0.7c-0.2-1.2-0.6-2.4-1.4-3.5 l-0.4-0.6l4.2-4l-0.8-0.9l-4.2,4l-0.6-0.4c-1-0.8-2.2-1.3-3.4-1.5l-0.7-0.1l0.1-5.8l-1.2,0l-0.1,5.8l-0.7,0.1 c-1.2,0.2-2.4,0.6-3.5,1.3l-0.6,0.4l-4-4.2l-0.9,0.9l4,4.2l-0.4,0.6c-0.7,1-1.3,2.2-1.5,3.4l-0.1,0.7l-5.8-0.1l0,1.2l5.8,0.1 l0.1,0.7c0.2,1.3,0.6,2.4,1.3,3.5l0.4,0.6l-4.2,4l0.8,0.9l4.2-4l0.6,0.4c1,0.8,2.2,1.3,3.4,1.5l0.7,0.1L263.8,291.7z M264.8,281.4 c-1,0-1.9-0.4-2.6-1.1c-1.4-1.4-1.3-3.7,0.1-5.1c0.7-0.6,1.6-1,2.5-1c1,0,1.9,0.4,2.6,1.1c0.7,0.7,1,1.6,1,2.6 c0,1-0.4,1.9-1.1,2.5C266.6,281,265.7,281.4,264.8,281.4z M264.8,275.9c-0.5,0-0.9,0.2-1.3,0.5c-0.7,0.7-0.8,1.9-0.1,2.6 c0.4,0.4,0.8,0.6,1.4,0.6c0.5,0,0.9-0.2,1.3-0.5c0.4-0.3,0.6-0.8,0.6-1.3c0-0.5-0.2-1-0.5-1.3 C265.8,276.1,265.3,275.9,264.8,275.9z"></path> </g> <g> <path class="st29" d="M506.3,181c0-2.9,2.2-5.4,5-5.8v-0.1h0.1c-0.4-1-0.6-2-0.6-3.1c0-4.4,3.6-8,8-8c0.9,0,1.8,0.2,2.6,0.4 c0.7-3.9,4.1-6.8,8.2-6.8c3.7,0,6.9,2.4,7.9,5.8c3.4,0.5,6.3,2.5,8,5.4c0.7-0.3,1.5-0.4,2.3-0.4c3.7,0,6.7,3,6.7,6.7v0 c3.2,0,5.8,2.6,5.8,5.8c0,3.2-2.6,5.8-5.8,5.8c-0.2,0-0.3,0-0.5,0h-41.3c-0.2,0-0.3,0-0.5,0s-0.3,0-0.5,0h-0.3v0 C508.5,186.4,506.3,183.9,506.3,181z"></path> <path d="M554.4,187.7c-0.2,0-0.3,0-0.5,0h-41.3c-0.3,0-0.7,0-1,0h-1.2v-0.2c-2.9-0.8-5-3.4-5-6.5c0-3,2-5.6,4.8-6.4 c-0.2-0.8-0.4-1.7-0.4-2.6c0-4.9,4-8.9,8.9-8.9c0.7,0,1.3,0.1,2,0.2c1.1-3.9,4.7-6.6,8.8-6.6c3.8,0,7.2,2.3,8.5,5.9 c3.1,0.6,6,2.5,7.7,5.1c0.6-0.2,1.2-0.2,1.9-0.2c3.9,0,7.2,3,7.6,6.8c3.3,0.4,5.8,3.3,5.8,6.6 C561.1,184.7,558.1,187.7,554.4,187.7z M512.6,185.9l41.4,0c0.1,0,0.3,0,0.4,0c2.7,0,5-2.2,5-5c0-2.7-2.2-4.9-4.9-5l-0.8,0v-0.8 c0-3.2-2.6-5.9-5.9-5.9c-0.7,0-1.3,0.1-2,0.3l-0.7,0.2l-0.4-0.6c-1.5-2.7-4.3-4.5-7.3-5l-0.5-0.1l-0.2-0.5c-1-3.1-3.8-5.2-7.1-5.2 c-3.6,0-6.7,2.6-7.3,6.1l-0.2,1l-1-0.3c-0.8-0.3-1.5-0.4-2.4-0.4c-3.9,0-7.2,3.2-7.2,7.2c0,1,0.2,1.9,0.6,2.8l0.5,1.2h-0.9l-0.4,0 c-2.4,0.3-4.3,2.5-4.3,4.9c0,2.5,1.8,4.6,4.3,4.9l0.3,0C512,186,512.3,186,512.6,185.9L512.6,185.9z"></path> </g> <g> <path class="st12" d="M590.4,175.2c0-3.8-2.8-7-6.5-7.5v-0.1h-0.1c0.5-1.3,0.8-2.6,0.8-4.1c0-5.7-4.7-10.4-10.4-10.4 c-1.2,0-2.3,0.2-3.4,0.6c-0.9-5-5.3-8.8-10.6-8.8c-4.8,0-8.9,3.2-10.2,7.5c-4.4,0.6-8.2,3.3-10.3,7c-0.9-0.3-1.9-0.5-2.9-0.5 c-4.8,0-8.7,3.9-8.7,8.7v0c-4.1,0.1-7.4,3.4-7.4,7.6c0,4.2,3.4,7.6,7.6,7.6c0.2,0,0.4,0,0.6,0h53.5c0.2,0,0.4,0,0.6,0 c0.2,0,0.4,0,0.6,0h0.4v0C587.5,182.1,590.4,179,590.4,175.2z"></path> <path d="M582.8,183.6c-0.2,0-0.4,0-0.6,0h-53.5c-0.2,0-0.4,0-0.6,0c-4.6,0-8.4-3.8-8.4-8.4c0-4.3,3.3-7.9,7.5-8.4 c0.4-4.9,4.5-8.8,9.6-8.8c0.9,0,1.7,0.1,2.6,0.3c2.3-3.5,5.9-6,10.1-6.7c1.7-4.6,6-7.6,10.9-7.6c5.3,0,9.9,3.6,11.2,8.6 c0.9-0.2,1.8-0.3,2.8-0.3c6.2,0,11.3,5.1,11.3,11.3c0,1.2-0.2,2.4-0.5,3.5c3.7,0.9,6.3,4.3,6.3,8.1c0,3.9-2.7,7.3-6.5,8.2v0.2 h-1.3C583.2,183.6,583,183.6,582.8,183.6z M528.6,181.8l53.6,0c0.4,0,0.7,0,1.1,0l0.4,0c3.3-0.5,5.8-3.3,5.8-6.6 c0-3.3-2.5-6.2-5.8-6.6l-0.5-0.1h-0.8l0.5-1.2c0.5-1.2,0.8-2.4,0.8-3.7c0-5.3-4.3-9.5-9.5-9.5c-1.1,0-2.1,0.2-3.1,0.5l-1,0.3 l-0.2-1c-0.8-4.7-4.9-8.1-9.7-8.1c-4.3,0-8.1,2.8-9.4,6.9l-0.2,0.5l-0.5,0.1c-4,0.5-7.7,3-9.7,6.6l-0.4,0.6l-0.7-0.2 c-0.9-0.3-1.7-0.5-2.7-0.5c-4.3,0-7.9,3.5-7.9,7.9v0.8l-0.8,0c-3.6,0-6.6,3.1-6.6,6.7c0,3.7,3,6.7,6.7,6.7 C528.2,181.8,528.4,181.8,528.6,181.8L528.6,181.8z"></path> </g> <g> <polygon class="st29" points="409.8,340.9 377.9,340.9 380.3,317.7 407.3,317.7 "></polygon> <path d="M410.7,341.7h-33.8l2.6-24.8h28.6L410.7,341.7z M378.8,340h30l-2.3-21.4h-25.5L378.8,340z"></path> </g> <g> <path class="st4" d="M482.9,316.4c0,2.3-1.9,4.2-4.2,4.2H308.9c-2.3,0-4.2-1.9-4.2-4.2V199.1c0-2.3,1.9-4.2,4.2-4.2h169.8 c2.3,0,4.2,1.9,4.2,4.2V316.4z"></path> <path d="M478.7,321.4H308.9c-2.8,0-5-2.3-5-5V199.1c0-2.8,2.3-5,5-5h169.8c2.8,0,5,2.3,5,5v117.3 C483.8,319.2,481.5,321.4,478.7,321.4z M308.9,195.8c-1.8,0-3.3,1.5-3.3,3.3v117.3c0,1.8,1.5,3.3,3.3,3.3h169.8 c1.8,0,3.3-1.5,3.3-3.3V199.1c0-1.8-1.5-3.3-3.3-3.3H308.9z"></path> </g> <g> <rect x="309.6" y="199.9" class="st14" width="168.5" height="114.9"></rect> <path d="M478.9,315.6H308.7V199h170.2V315.6z M310.5,313.9h166.8V200.7H310.5V313.9z"></path> </g> <g> <rect x="314.8" y="204.2" class="st12" width="155.1" height="106.7"></rect> <path d="M470.7,311.7H313.9V203.3h156.8V311.7z M315.6,310H469V205H315.6V310z"></path> </g> <g> <rect x="314.8" y="204.2" class="st4" width="155.1" height="5"></rect> <path d="M470.7,210H313.9v-6.7h156.8V210z M315.6,208.3H469V205H315.6V208.3z"></path> </g> <g> <rect x="359.8" y="340.9" class="st13" width="69.1" height="4.7"></rect> <path d="M429.7,346.4h-70.8V340h70.8V346.4z M360.6,344.7H428v-3h-67.4V344.7z"></path> </g> <g> <path class="st29" d="M625,290.7c0,1.2-1,2.2-2.2,2.2h-95.2c-1.2,0-2.3-1-2.3-2.2v-65.2c0-1.2,1-2.3,2.3-2.3h95.2 c1.2,0,2.2,1,2.2,2.3V290.7z"></path> <path d="M622.8,293.8h-95.2c-1.7,0-3.1-1.4-3.1-3.1v-65.2c0-1.7,1.4-3.1,3.1-3.1h95.2c1.7,0,3.1,1.4,3.1,3.1v65.2 C625.9,292.4,624.5,293.8,622.8,293.8z M527.5,224.1c-0.8,0-1.4,0.6-1.4,1.4v65.2c0,0.8,0.6,1.4,1.4,1.4h95.2 c0.8,0,1.4-0.6,1.4-1.4v-65.2c0-0.8-0.6-1.4-1.4-1.4H527.5z"></path> </g> <g> <rect x="529.8" y="226.5" class="st12" width="45.3" height="62.7"></rect> <path d="M576,290.1h-47.1v-64.4H576V290.1z M530.6,288.4h43.6v-61h-43.6V288.4z"></path> </g> <g> <polygon class="st12" points="620.4,289.2 575.1,289.2 575.1,226.5 620.4,226.5 "></polygon> <path d="M621.3,290.1h-47v-64.4h47L621.3,290.1z M575.9,288.4h43.6l0-61h-43.6V288.4z"></path> </g> <g> <circle class="st12" cx="369.6" cy="53.9" r="20.2"></circle> <path d="M369.6,74.9c-11.6,0-21.1-9.5-21.1-21.1s9.5-21.1,21.1-21.1s21.1,9.5,21.1,21.1S381.2,74.9,369.6,74.9z M369.6,34.5 c-10.7,0-19.3,8.7-19.3,19.3s8.7,19.3,19.3,19.3c10.7,0,19.3-8.7,19.3-19.3S380.3,34.5,369.6,34.5z"></path> </g> <g> <polygon class="st12" points="362.6,64.1 379.9,54.1 362.6,44.2 "></polygon> <path d="M361.8,65.6V42.7l19.8,11.4L361.8,65.6z M363.5,45.7v16.9l14.7-8.5L363.5,45.7z"></path> </g> <g> <rect x="137.9" y="299.7" class="st12" width="65.9" height="49.6"></rect> <path d="M204.6,350.1h-67.6v-51.3h67.6V350.1z M138.8,348.4h64.1v-47.9h-64.1V348.4z"></path> </g> <polygon points="170.8,325.5 137.4,300.3 138.4,299 170.8,323.4 203.3,299 204.3,300.3 "></polygon> <polygon points="203.2,349.6 175,322.4 170.8,325.5 166.7,322.4 138.5,349.6 137.3,348.4 166.6,320.2 170.8,323.4 175.1,320.2 204.4,348.4 "></polygon> <g> <path d="M84.1,243.3v-0.1v0c0-0.5,0.5-1,1-1c4,0,7.1-3.2,7.1-7.1c0-4-3.2-7.1-7.1-7.2c-2.7,0-4.9,1.4-6.2,3.6 c-0.3,0.4-0.9,0.6-1.3,0.3c-0.5-0.3-0.6-0.9-0.3-1.3c1.6-2.7,4.5-4.6,7.8-4.6c5,0,9.1,4.1,9.1,9.1c0,4.6-3.5,8.5-8.1,9v4.5 c0,0.5-0.5,1-1,1c-0.5,0-1-0.4-1-1V243.3z M84.1,253.5c0-0.5,0.5-1,1-1c0.5,0,1,0.5,1,1v0.9c0,0.5-0.5,1-1,1c-0.5,0-1-0.4-1-1 V253.5z"></path> </g> <g> <path class="st17" d="M230.3,101.4c0-0.4,0.4-0.8,0.8-0.8c0.5,0,0.8,0.4,0.8,0.8v0.7c0,0.5-0.4,0.8-0.8,0.8 c-0.4,0-0.8-0.4-0.8-0.8V101.4z M230.3,106.6c0-0.5,0.4-0.8,0.8-0.8c0.5,0,0.8,0.3,0.8,0.8v14.2c0,0.4-0.4,0.8-0.8,0.8 c-0.4,0-0.8-0.4-0.8-0.8V106.6z"></path> </g> <g> <path class="st17" d="M251.9,118.5c-1.4,1.9-3.6,3.1-6.1,3.1c-4.3,0-7.6-3.5-7.6-7.9c0-4.4,3.4-7.9,7.6-7.9c2.5,0,4.7,1.2,6.1,3.1 v-9.1c0-0.4,0.4-0.8,0.8-0.8c0.4,0,0.8,0.4,0.8,0.8v13.6v0.3v7.1c0,0.4-0.4,0.8-0.8,0.8c-0.5,0-0.8-0.4-0.8-0.8V118.5z M251.9,114 v-0.5c-0.1-3.4-2.8-6.1-6.1-6.1c-3.3,0-6.1,2.8-6.1,6.3c0,3.5,2.7,6.3,6.1,6.3C249.1,120,251.8,117.3,251.9,114z"></path> </g> <g> <path class="st17" d="M258.9,113.7c0-4.4,3.4-7.9,7.7-7.9c4.1,0,7.3,3.2,7.6,7.3v0v0.1c0,0.4-0.4,0.7-0.8,0.7h-13 c0.2,3.4,2.9,6.1,6.1,6.1c2.1,0,4-1.1,5.1-2.9c0.2-0.4,0.7-0.5,1-0.3c0.4,0.3,0.5,0.7,0.3,1.1c-1.4,2.2-3.7,3.6-6.4,3.6 C262.3,121.6,258.9,118.1,258.9,113.7z M260.6,112.5h12c-0.5-3-3-5.1-5.9-5.1C263.6,107.4,261.1,109.5,260.6,112.5z"></path> <path class="st17" d="M292.9,106.6v14.2c0,0.4-0.4,0.8-0.8,0.8c-0.4,0-0.8-0.4-0.8-0.8v-2.4c-1.4,1.9-3.5,3.1-5.9,3.1 c-4.2,0-7.5-3.6-7.5-7.9c0-4.3,3.3-7.9,7.5-7.9c2.4,0,4.6,1.2,5.9,3.1v-2.3c0-0.5,0.4-0.8,0.8-0.8 C292.6,105.8,292.9,106.1,292.9,106.6z M291.4,113.7c0-3.5-2.7-6.4-5.9-6.4c-3.2,0-5.9,2.8-5.9,6.4c0,3.5,2.7,6.3,5.9,6.3 C288.7,120,291.4,117.2,291.4,113.7z"></path> </g> <g> <path d="M531.3,490.7c0-3,2.5-5.4,5.6-5.4c1.3,0,2.5,0.4,3.5,1.2c0.2,0.2,0.3,0.5,0.1,0.7c-0.2,0.2-0.5,0.3-0.7,0.1 c-0.8-0.6-1.8-1-2.8-1c-2.5,0-4.5,2-4.5,4.4c0,2.4,2,4.4,4.5,4.4c1,0,2-0.4,2.8-1c0.2-0.2,0.6-0.1,0.7,0.1 c0.2,0.2,0.2,0.6-0.1,0.8c-0.9,0.7-2.1,1.2-3.4,1.2C533.8,496.2,531.3,493.8,531.3,490.7z"></path> </g> <g> <path d="M549.1,485.3c2.9,0,5.2,2.5,5.2,5.5c0,3-2.3,5.5-5.2,5.5c-2.8,0-5.2-2.5-5.2-5.5C543.9,487.8,546.2,485.3,549.1,485.3z M549.1,495.1c2.2,0,4.1-2,4.1-4.4c0-2.4-1.9-4.4-4.1-4.4s-4.1,2-4.1,4.4C545,493.2,546.8,495.1,549.1,495.1z"></path> <path d="M566.1,489.8c0-1.8-1.5-3.4-3.4-3.4c-1.8,0-3.3,1.5-3.4,3.4v5.9v0.1c0,0.1,0,0.2-0.1,0.2c-0.1,0.1-0.2,0.2-0.4,0.2h-0.1 c-0.2,0-0.3-0.2-0.4-0.3c0,0,0,0,0-0.1s0,0,0,0v-0.1v-5.9v-0.2v-3.7c0-0.3,0.2-0.5,0.5-0.5c0.3,0,0.5,0.2,0.5,0.5v1 c0.8-1,2-1.6,3.4-1.6c2.4,0,4.4,2,4.4,4.4v5.9c0,0.3-0.2,0.5-0.5,0.5c-0.3,0-0.5-0.2-0.5-0.5V489.8z"></path> </g> <g> <path d="M571.2,490.7c0-3,2.5-5.4,5.6-5.4c1.3,0,2.5,0.4,3.5,1.2c0.2,0.2,0.3,0.5,0.1,0.7c-0.2,0.2-0.5,0.3-0.7,0.1 c-0.8-0.6-1.8-1-2.8-1c-2.5,0-4.5,2-4.5,4.4c0,2.4,2,4.4,4.5,4.4c1,0,2-0.4,2.8-1c0.2-0.2,0.6-0.1,0.7,0.1 c0.2,0.2,0.2,0.6-0.1,0.8c-0.9,0.7-2.1,1.2-3.4,1.2C573.7,496.2,571.2,493.8,571.2,490.7z"></path> </g> <g> <path d="M583.6,490.8c0-3,2.4-5.5,5.3-5.5c2.8,0,5,2.2,5.3,5.1v0v0.1c0,0.3-0.2,0.5-0.5,0.5h-8.9c0.1,2.4,2,4.2,4.2,4.2 c1.4,0,2.8-0.8,3.5-2c0.2-0.3,0.5-0.3,0.7-0.2c0.2,0.2,0.3,0.5,0.2,0.8c-0.9,1.5-2.6,2.5-4.4,2.5 C585.9,496.2,583.6,493.8,583.6,490.8z M584.7,489.9h8.3c-0.4-2-2.1-3.5-4.1-3.5C586.8,486.4,585.1,487.8,584.7,489.9z"></path> <path d="M597.9,490.9v-0.2v-0.2v-4.7c0-0.3,0.2-0.5,0.5-0.5c0.3,0,0.6,0.2,0.6,0.5v1.6c0.9-1.3,2.4-2.1,4.1-2.1 c2.9,0,5.3,2.4,5.3,5.4c0,3-2.3,5.4-5.3,5.4c-1.7,0-3.2-0.8-4.1-2.1v6.2c0,0.3-0.2,0.5-0.6,0.5c-0.3,0-0.5-0.2-0.5-0.5V490.9z M599,490.7c0,2.4,1.9,4.3,4.1,4.4c2.3,0,4.2-2,4.2-4.4c0-2.4-1.9-4.3-4.2-4.3c-2.2,0-4.1,1.8-4.1,4.1V490.7z"></path> <path d="M616.4,485.8c0,0.3-0.3,0.5-0.5,0.5h-1.4v7.9c0,0.5,0.5,0.8,0.8,0.8c0.3,0,0.6,0.3,0.6,0.6c0,0.3-0.3,0.5-0.6,0.5 c-1.1,0-1.9-0.8-1.9-1.9v-7.9H612c-0.5,0-0.5-0.3-0.5-0.5c0-0.3,0-0.5,0.5-0.5h1.4v-4c0-0.3,0.3-0.5,0.5-0.5 c0.3,0,0.6,0.3,0.6,0.5v4h1.4C616.1,485.3,616.4,485.6,616.4,485.8z"></path> </g> <g> <path d="M587.1,128.8v-0.3v-0.3v-5.6c0-0.3,0.3-0.6,0.6-0.6c0.4,0,0.7,0.3,0.7,0.6v1.9c1.1-1.5,2.9-2.5,5-2.5 c3.5,0,6.3,2.9,6.3,6.5c0,3.6-2.8,6.5-6.3,6.5c-2,0-3.9-1-5-2.6v7.5c0,0.3-0.3,0.6-0.7,0.6c-0.3,0-0.6-0.3-0.6-0.6V128.8z M588.4,128.5c0,2.9,2.3,5.2,5,5.2c2.8,0,5-2.4,5-5.2c0-2.9-2.2-5.2-5-5.2c-2.6,0-4.9,2.2-5,5V128.5z"></path> </g> <g> <path d="M604.8,122.7c0-0.4,0.3-0.6,0.7-0.6c0.3,0,0.6,0.3,0.6,0.6v2.9c0.1-0.1,0.1-0.2,0.2-0.3c1-1.6,2.7-3.2,5.2-3.2 c0.3,0,0.6,0.3,0.6,0.6c0,0.3-0.3,0.6-0.6,0.6c-1.7,0-2.9,1-3.8,2.1c-0.9,1.2-1.4,2.5-1.6,3.1c-0.1,0.1-0.1,0.2-0.1,0.2v5.8 c0,0.4-0.3,0.6-0.6,0.6c-0.4,0-0.7-0.3-0.7-0.6V122.7z"></path> </g> <g> <path d="M621.4,122c3.4,0,6.2,3,6.2,6.6c0,3.6-2.8,6.6-6.2,6.6c-3.4,0-6.2-3-6.2-6.6C615.2,125,618,122,621.4,122z M621.4,133.8 c2.7,0,4.9-2.4,4.9-5.3c0-2.9-2.2-5.3-4.9-5.3c-2.7,0-4.9,2.4-4.9,5.3C616.5,131.5,618.8,133.8,621.4,133.8z"></path> </g> <g> <path d="M631.6,128.5c0-3.6,3-6.5,6.7-6.5c1.6,0,3,0.5,4.2,1.4c0.3,0.2,0.3,0.6,0.1,0.9c-0.2,0.2-0.6,0.3-0.9,0.1 c-0.9-0.8-2.1-1.2-3.4-1.2c-3.1,0-5.5,2.4-5.5,5.3c0,2.9,2.4,5.3,5.5,5.3c1.3,0,2.4-0.4,3.4-1.2c0.3-0.2,0.7-0.1,0.9,0.1 c0.2,0.3,0.2,0.7-0.1,0.9c-1.1,0.9-2.6,1.4-4.1,1.4C634.6,135.1,631.6,132.2,631.6,128.5z"></path> </g> <g> <path d="M646.5,128.6c0-3.6,2.8-6.6,6.4-6.6c3.4,0,6,2.7,6.3,6.1v0v0.1c0,0.3-0.3,0.6-0.6,0.6h-10.8c0.1,2.9,2.4,5,5.1,5 c1.7,0,3.3-0.9,4.2-2.4c0.2-0.3,0.6-0.4,0.9-0.2c0.3,0.2,0.4,0.6,0.2,0.9c-1.1,1.8-3.1,3-5.3,3 C649.3,135.1,646.5,132.2,646.5,128.6z M647.9,127.5h9.9c-0.4-2.5-2.5-4.3-4.9-4.3C650.4,123.3,648.4,125.1,647.9,127.5z"></path> </g> <g> <path d="M662.8,132.4c0.2-0.3,0.6-0.3,0.9-0.1c0.9,0.7,2.4,1.5,4,1.5c1,0,1.9-0.3,2.5-0.8c0.6-0.4,1-1,1-1.6c0-0.6-0.3-1-0.9-1.6 c-0.6-0.4-1.5-0.7-2.8-1l-0.1,0c-1.2-0.2-2.2-0.5-3-1c-0.8-0.5-1.4-1.3-1.4-2.4c0-1,0.6-2,1.4-2.6c0.8-0.5,1.9-0.9,3.2-0.9 c1.7,0,2.9,0.8,3.9,1.4c0.3,0.2,0.4,0.6,0.2,0.9c-0.2,0.3-0.6,0.4-0.9,0.2c-1-0.6-1.9-1.3-3.2-1.3c-1.1,0-1.9,0.3-2.5,0.7 c-0.5,0.4-0.8,1-0.8,1.5s0.2,0.9,0.7,1.3c0.6,0.4,1.5,0.7,2.7,0.9h0.1c1.3,0.2,2.3,0.6,3.2,1.1c0.9,0.6,1.5,1.6,1.5,2.7 c0,1.1-0.6,2-1.5,2.6c-0.9,0.7-2,1-3.3,1c-2.1,0-3.8-1-4.8-1.9C662.6,133,662.6,132.7,662.8,132.4z"></path> </g> <g> <path d="M675.7,132.4c0.2-0.3,0.6-0.3,0.9-0.1c0.9,0.7,2.4,1.5,4,1.5c1,0,1.9-0.3,2.5-0.8c0.6-0.4,1-1,1-1.6c0-0.6-0.3-1-0.9-1.6 c-0.6-0.4-1.5-0.7-2.8-1l-0.1,0c-1.2-0.2-2.2-0.5-3-1c-0.8-0.5-1.4-1.3-1.4-2.4c0-1,0.6-2,1.4-2.6c0.8-0.5,1.9-0.9,3.2-0.9 c1.7,0,2.9,0.8,3.9,1.4c0.3,0.2,0.4,0.6,0.2,0.9c-0.2,0.3-0.6,0.4-0.9,0.2c-1-0.6-1.9-1.3-3.2-1.3c-1.1,0-1.9,0.3-2.5,0.7 c-0.5,0.4-0.8,1-0.8,1.5s0.2,0.9,0.7,1.3c0.6,0.4,1.5,0.7,2.7,0.9h0.1c1.3,0.2,2.3,0.6,3.2,1.1c0.9,0.6,1.5,1.6,1.5,2.7 c0,1.1-0.6,2-1.5,2.6c-0.9,0.7-2,1-3.3,1c-2.1,0-3.8-1-4.8-1.9C675.5,133,675.5,132.7,675.7,132.4z"></path> </g> <g> <path d="M333.3,155.4c0-0.3,0.3-0.6,0.6-0.6c0.4,0,0.7,0.3,0.7,0.6v17.4c0,0.3-0.3,0.6-0.7,0.6c-0.3,0-0.6-0.3-0.6-0.6V155.4z"></path> <path d="M345.4,160.3c3.5,0,6.2,3,6.2,6.6c0,3.6-2.8,6.6-6.2,6.6c-3.4,0-6.2-3-6.2-6.6C339.2,163.3,341.9,160.3,345.4,160.3z M345.4,172.2c2.7,0,4.9-2.4,4.9-5.3c0-2.9-2.2-5.3-4.9-5.3s-4.9,2.4-4.9,5.3C340.4,169.8,342.7,172.2,345.4,172.2z"></path> <path d="M367.9,172.4c0,3.4-2.8,6.2-6.2,6.2c-1,0-1.9-0.2-2.7-0.6c-0.3-0.2-0.4-0.6-0.3-0.9c0.2-0.3,0.5-0.5,0.9-0.3 c0.7,0.3,1.3,0.5,2.1,0.5c2.7,0,4.9-2.2,4.9-4.9v-1.6c-1.1,1.6-2.9,2.6-4.9,2.6c-3.4,0-6.2-2.9-6.2-6.5c0-3.5,2.7-6.5,6.2-6.5 c2,0,3.8,1,4.9,2.6V161c0-0.3,0.3-0.6,0.7-0.6c0.3,0,0.6,0.3,0.6,0.6V172.4z M366.7,166.8c0-2.9-2.2-5.2-4.9-5.2 c-2.7,0-4.9,2.3-4.9,5.2c0,2.9,2.2,5.3,4.9,5.3C364.5,172.1,366.7,169.8,366.7,166.8z"></path> <path d="M379.7,160.3c3.5,0,6.2,3,6.2,6.6c0,3.6-2.8,6.6-6.2,6.6c-3.4,0-6.2-3-6.2-6.6C373.5,163.3,376.3,160.3,379.7,160.3z M379.7,172.2c2.7,0,4.9-2.4,4.9-5.3c0-2.9-2.2-5.3-4.9-5.3c-2.7,0-4.9,2.4-4.9,5.3C374.8,169.8,377.1,172.2,379.7,172.2z"></path> </g> <g> <linearGradient id="SVGID_4_" gradientUnits="userSpaceOnUse" x1="-2.1768" y1="472.3955" x2="644.442" y2="29.6906"> <stop offset="0" style="stop-color:#E65A49"></stop> <stop offset="1" style="stop-color:#F89C2B"></stop> </linearGradient> <polygon class="st6" points="470.4,151 472.9,162 452.1,146.6 "></polygon> <path d="M474.2,164l-26.1-19.3l23,5.6L474.2,164z M456,148.4l15.5,11.5l-1.8-8.2L456,148.4z"></path> </g> <g> <linearGradient id="SVGID_5_" gradientUnits="userSpaceOnUse" x1="-7.3779" y1="464.7607" x2="639.2168" y2="22.0723"> <stop offset="0" style="stop-color:#E65A49"></stop> <stop offset="1" style="stop-color:#F89C2B"></stop> </linearGradient> <polygon class="st7" points="465,164.5 436.9,137.5 475.9,137.6 "></polygon> <path d="M465.3,166l-30.5-29.4l42.4,0.1L465.3,166z M439.1,138.3l25.6,24.6l9.9-24.5L439.1,138.3z"></path> </g> <g> <line class="st12" x1="436.9" y1="137.5" x2="470.4" y2="151"></line> <rect x="435.6" y="143.4" transform="matrix(0.9271 0.3747 -0.3747 0.9271 87.1046 -159.4936)" width="36.2" height="1.7"></rect> </g> <g> <path class="st12" d="M394,125.1c0,0-9.3,8.1-20.8,8.1c-11.5,0-20.8-8.1-20.8-8.1s9.3-8.1,20.8-8.1 C384.7,117.1,394,125.1,394,125.1z"></path> <path d="M373.2,134c-11.7,0-21-7.9-21.4-8.3l-0.8-0.6l0.8-0.7c0.4-0.3,9.7-8.3,21.4-8.3c11.7,0,21,7.9,21.4,8.3l0.7,0.7l-0.7,0.6 C394.2,126.1,384.9,134,373.2,134z M353.8,125.1c2.5,1.9,10.3,7.2,19.4,7.2c9.1,0,16.9-5.3,19.4-7.2c-2.5-1.9-10.3-7.2-19.4-7.2 C364.1,117.9,356.3,123.2,353.8,125.1z"></path> </g> <g> <circle class="st12" cx="373.2" cy="125.1" r="5.8"></circle> <path d="M373.2,131.8c-3.7,0-6.7-3-6.7-6.7c0-3.7,3-6.7,6.7-6.7c3.7,0,6.7,3,6.7,6.7C379.9,128.8,376.9,131.8,373.2,131.8z M373.2,120.2c-2.7,0-4.9,2.2-4.9,4.9c0,2.7,2.2,4.9,4.9,4.9c2.7,0,4.9-2.2,4.9-4.9C378.2,122.4,375.9,120.2,373.2,120.2z"></path> </g> <g> <circle class="st12" cx="373.2" cy="125.1" r="2"></circle> <path d="M373.2,128c-1.6,0-2.9-1.3-2.9-2.9s1.3-2.9,2.9-2.9c1.6,0,2.9,1.3,2.9,2.9S374.8,128,373.2,128z M373.2,123.9 c-0.6,0-1.2,0.5-1.2,1.2c0,0.6,0.5,1.2,1.2,1.2c0.6,0,1.2-0.5,1.2-1.2C374.4,124.5,373.9,123.9,373.2,123.9z"></path> </g> <g> <rect x="447.5" y="446.8" class="st29" width="61" height="61"></rect> <path d="M509.4,508.7h-62.7V446h62.7V508.7z M448.4,507h59.3v-59.3h-59.3V507z"></path> </g> <g> <rect x="301.2" y="359.7" class="st29" width="185.8" height="64"></rect> <path d="M487.8,424.6H300.3v-65.7h187.5V424.6z M302,422.9h184v-62.3H302V422.9z"></path> </g> <g> <g> <path class="st16" d="M318.7,415c0,1.6-1.3,2.9-2.9,2.9h-4c-1.6,0-2.9-1.3-2.9-2.9v-4c0-1.6,1.3-2.9,2.9-2.9h4 c1.6,0,2.9,1.3,2.9,2.9V415z"></path> <path d="M315.8,418.8h-4c-2.1,0-3.8-1.7-3.8-3.8v-4c0-2.1,1.7-3.8,3.8-3.8h4c2.1,0,3.8,1.7,3.8,3.8v4 C319.5,417.1,317.9,418.8,315.8,418.8z M311.8,408.9c-1.1,0-2.1,0.9-2.1,2v4c0,1.1,0.9,2,2.1,2h4c1.1,0,2-0.9,2-2v-4 c0-1.1-0.9-2-2-2H311.8z"></path> </g> <g> <path class="st16" d="M318.7,400.5c0,1.6-1.3,2.9-2.9,2.9h-4c-1.6,0-2.9-1.3-2.9-2.9v-4c0-1.6,1.3-2.9,2.9-2.9h4 c1.6,0,2.9,1.3,2.9,2.9V400.5z"></path> <path d="M315.8,404.3h-4c-2.1,0-3.8-1.7-3.8-3.8v-4c0-2.1,1.7-3.8,3.8-3.8h4c2.1,0,3.8,1.7,3.8,3.8v4 C319.5,402.6,317.9,404.3,315.8,404.3z M311.8,394.5c-1.1,0-2.1,0.9-2.1,2v4c0,1.1,0.9,2.1,2.1,2.1h4c1.1,0,2-0.9,2-2.1v-4 c0-1.1-0.9-2-2-2H311.8z"></path> </g> <g> <path class="st16" d="M318.7,386.1c0,1.6-1.3,2.9-2.9,2.9h-4c-1.6,0-2.9-1.3-2.9-2.9v-4c0-1.6,1.3-2.9,2.9-2.9h4 c1.6,0,2.9,1.3,2.9,2.9V386.1z"></path> <path d="M315.8,389.8h-4c-2.1,0-3.8-1.7-3.8-3.8v-4c0-2.1,1.7-3.8,3.8-3.8h4c2.1,0,3.8,1.7,3.8,3.8v4 C319.5,388.1,317.9,389.8,315.8,389.8z M311.8,380c-1.1,0-2.1,0.9-2.1,2v4c0,1.1,0.9,2,2.1,2h4c1.1,0,2-0.9,2-2v-4 c0-1.1-0.9-2-2-2H311.8z"></path> </g> <g> <path class="st16" d="M318.7,371.6c0,1.6-1.3,2.9-2.9,2.9h-4c-1.6,0-2.9-1.3-2.9-2.9v-4c0-1.6,1.3-2.9,2.9-2.9h4 c1.6,0,2.9,1.3,2.9,2.9V371.6z"></path> <path d="M315.8,375.4h-4c-2.1,0-3.8-1.7-3.8-3.8v-4c0-2.1,1.7-3.8,3.8-3.8h4c2.1,0,3.8,1.7,3.8,3.8v4 C319.5,373.7,317.9,375.4,315.8,375.4z M311.8,365.5c-1.1,0-2.1,0.9-2.1,2v4c0,1.1,0.9,2,2.1,2h4c1.1,0,2-0.9,2-2v-4 c0-1.1-0.9-2-2-2H311.8z"></path> </g> </g> <g> <g> <path class="st16" d="M334.8,415c0,1.6-1.3,2.9-2.9,2.9h-4c-1.6,0-2.9-1.3-2.9-2.9v-4c0-1.6,1.3-2.9,2.9-2.9h4 c1.6,0,2.9,1.3,2.9,2.9V415z"></path> <path d="M331.9,418.8h-4c-2.1,0-3.8-1.7-3.8-3.8v-4c0-2.1,1.7-3.8,3.8-3.8h4c2.1,0,3.8,1.7,3.8,3.8v4 C335.6,417.1,333.9,418.8,331.9,418.8z M327.9,408.9c-1.2,0-2.1,0.9-2.1,2v4c0,1.1,0.9,2,2.1,2h4c1.1,0,2-0.9,2-2v-4 c0-1.1-0.9-2-2-2H327.9z"></path> </g> <g> <path class="st16" d="M334.8,400.5c0,1.6-1.3,2.9-2.9,2.9h-4c-1.6,0-2.9-1.3-2.9-2.9v-4c0-1.6,1.3-2.9,2.9-2.9h4 c1.6,0,2.9,1.3,2.9,2.9V400.5z"></path> <path d="M331.9,404.3h-4c-2.1,0-3.8-1.7-3.8-3.8v-4c0-2.1,1.7-3.8,3.8-3.8h4c2.1,0,3.8,1.7,3.8,3.8v4 C335.6,402.6,333.9,404.3,331.9,404.3z M327.9,394.5c-1.1,0-2.1,0.9-2.1,2v4c0,1.1,0.9,2.1,2.1,2.1h4c1.1,0,2-0.9,2-2.1v-4 c0-1.1-0.9-2-2-2H327.9z"></path> </g> <g> <path class="st16" d="M334.8,386.1c0,1.6-1.3,2.9-2.9,2.9h-4c-1.6,0-2.9-1.3-2.9-2.9v-4c0-1.6,1.3-2.9,2.9-2.9h4 c1.6,0,2.9,1.3,2.9,2.9V386.1z"></path> <path d="M331.9,389.8h-4c-2.1,0-3.8-1.7-3.8-3.8v-4c0-2.1,1.7-3.8,3.8-3.8h4c2.1,0,3.8,1.7,3.8,3.8v4 C335.6,388.1,333.9,389.8,331.9,389.8z M327.9,380c-1.1,0-2.1,0.9-2.1,2v4c0,1.1,0.9,2,2.1,2h4c1.1,0,2-0.9,2-2v-4 c0-1.1-0.9-2-2-2H327.9z"></path> </g> <g> <path class="st16" d="M334.8,371.6c0,1.6-1.3,2.9-2.9,2.9h-4c-1.6,0-2.9-1.3-2.9-2.9v-4c0-1.6,1.3-2.9,2.9-2.9h4 c1.6,0,2.9,1.3,2.9,2.9V371.6z"></path> <path d="M331.9,375.4h-4c-2.1,0-3.8-1.7-3.8-3.8v-4c0-2.1,1.7-3.8,3.8-3.8h4c2.1,0,3.8,1.7,3.8,3.8v4 C335.6,373.7,333.9,375.4,331.9,375.4z M327.9,365.5c-1.2,0-2.1,0.9-2.1,2v4c0,1.1,0.9,2,2.1,2h4c1.1,0,2-0.9,2-2v-4 c0-1.1-0.9-2-2-2H327.9z"></path> </g> </g> <g> <g> <path class="st16" d="M350.9,415c0,1.6-1.3,2.9-2.9,2.9h-4c-1.6,0-2.9-1.3-2.9-2.9v-4c0-1.6,1.3-2.9,2.9-2.9h4 c1.6,0,2.9,1.3,2.9,2.9V415z"></path> <path d="M347.9,418.8h-4c-2.1,0-3.8-1.7-3.8-3.8v-4c0-2.1,1.7-3.8,3.8-3.8h4c2.1,0,3.8,1.7,3.8,3.8v4 C351.7,417.1,350,418.8,347.9,418.8z M343.9,408.9c-1.2,0-2.1,0.9-2.1,2v4c0,1.1,0.9,2,2.1,2h4c1.1,0,2-0.9,2-2v-4 c0-1.1-0.9-2-2-2H343.9z"></path> </g> <g> <path class="st16" d="M350.9,400.5c0,1.6-1.3,2.9-2.9,2.9h-4c-1.6,0-2.9-1.3-2.9-2.9v-4c0-1.6,1.3-2.9,2.9-2.9h4 c1.6,0,2.9,1.3,2.9,2.9V400.5z"></path> <path d="M347.9,404.3h-4c-2.1,0-3.8-1.7-3.8-3.8v-4c0-2.1,1.7-3.8,3.8-3.8h4c2.1,0,3.8,1.7,3.8,3.8v4 C351.7,402.6,350,404.3,347.9,404.3z M343.9,394.5c-1.1,0-2.1,0.9-2.1,2v4c0,1.1,0.9,2.1,2.1,2.1h4c1.1,0,2-0.9,2-2.1v-4 c0-1.1-0.9-2-2-2H343.9z"></path> </g> <g> <path class="st16" d="M350.9,386.1c0,1.6-1.3,2.9-2.9,2.9h-4c-1.6,0-2.9-1.3-2.9-2.9v-4c0-1.6,1.3-2.9,2.9-2.9h4 c1.6,0,2.9,1.3,2.9,2.9V386.1z"></path> <path d="M347.9,389.8h-4c-2.1,0-3.8-1.7-3.8-3.8v-4c0-2.1,1.7-3.8,3.8-3.8h4c2.1,0,3.8,1.7,3.8,3.8v4 C351.7,388.1,350,389.8,347.9,389.8z M343.9,380c-1.1,0-2.1,0.9-2.1,2v4c0,1.1,0.9,2,2.1,2h4c1.1,0,2-0.9,2-2v-4c0-1.1-0.9-2-2-2 H343.9z"></path> </g> <g> <path class="st16" d="M350.9,371.6c0,1.6-1.3,2.9-2.9,2.9h-4c-1.6,0-2.9-1.3-2.9-2.9v-4c0-1.6,1.3-2.9,2.9-2.9h4 c1.6,0,2.9,1.3,2.9,2.9V371.6z"></path> <path d="M347.9,375.4h-4c-2.1,0-3.8-1.7-3.8-3.8v-4c0-2.1,1.7-3.8,3.8-3.8h4c2.1,0,3.8,1.7,3.8,3.8v4 C351.7,373.7,350,375.4,347.9,375.4z M343.9,365.5c-1.2,0-2.1,0.9-2.1,2v4c0,1.1,0.9,2,2.1,2h4c1.1,0,2-0.9,2-2v-4 c0-1.1-0.9-2-2-2H343.9z"></path> </g> </g> <g> <g> <path class="st16" d="M366.9,415c0,1.6-1.3,2.9-2.9,2.9h-4c-1.6,0-2.9-1.3-2.9-2.9v-4c0-1.6,1.3-2.9,2.9-2.9h4 c1.6,0,2.9,1.3,2.9,2.9V415z"></path> <path d="M364,418.8h-4c-2.1,0-3.8-1.7-3.8-3.8v-4c0-2.1,1.7-3.8,3.8-3.8h4c2.1,0,3.8,1.7,3.8,3.8v4 C367.8,417.1,366.1,418.8,364,418.8z M360,408.9c-1.1,0-2,0.9-2,2v4c0,1.1,0.9,2,2,2h4c1.1,0,2-0.9,2-2v-4c0-1.1-0.9-2-2-2H360z"></path> </g> <g> <path class="st16" d="M366.9,400.5c0,1.6-1.3,2.9-2.9,2.9h-4c-1.6,0-2.9-1.3-2.9-2.9v-4c0-1.6,1.3-2.9,2.9-2.9h4 c1.6,0,2.9,1.3,2.9,2.9V400.5z"></path> <path d="M364,404.3h-4c-2.1,0-3.8-1.7-3.8-3.8v-4c0-2.1,1.7-3.8,3.8-3.8h4c2.1,0,3.8,1.7,3.8,3.8v4 C367.8,402.6,366.1,404.3,364,404.3z M360,394.5c-1.1,0-2,0.9-2,2v4c0,1.1,0.9,2.1,2,2.1h4c1.1,0,2-0.9,2-2.1v-4c0-1.1-0.9-2-2-2 H360z"></path> </g> <g> <path class="st16" d="M366.9,386.1c0,1.6-1.3,2.9-2.9,2.9h-4c-1.6,0-2.9-1.3-2.9-2.9v-4c0-1.6,1.3-2.9,2.9-2.9h4 c1.6,0,2.9,1.3,2.9,2.9V386.1z"></path> <path d="M364,389.8h-4c-2.1,0-3.8-1.7-3.8-3.8v-4c0-2.1,1.7-3.8,3.8-3.8h4c2.1,0,3.8,1.7,3.8,3.8v4 C367.8,388.1,366.1,389.8,364,389.8z M360,380c-1.1,0-2,0.9-2,2v4c0,1.1,0.9,2,2,2h4c1.1,0,2-0.9,2-2v-4c0-1.1-0.9-2-2-2H360z"></path> </g> <g> <path class="st16" d="M366.9,371.6c0,1.6-1.3,2.9-2.9,2.9h-4c-1.6,0-2.9-1.3-2.9-2.9v-4c0-1.6,1.3-2.9,2.9-2.9h4 c1.6,0,2.9,1.3,2.9,2.9V371.6z"></path> <path d="M364,375.4h-4c-2.1,0-3.8-1.7-3.8-3.8v-4c0-2.1,1.7-3.8,3.8-3.8h4c2.1,0,3.8,1.7,3.8,3.8v4 C367.8,373.7,366.1,375.4,364,375.4z M360,365.5c-1.1,0-2,0.9-2,2v4c0,1.1,0.9,2,2,2h4c1.1,0,2-0.9,2-2v-4c0-1.1-0.9-2-2-2H360z"></path> </g> </g> <g> <g> <path class="st16" d="M383,415c0,1.6-1.3,2.9-2.9,2.9h-4c-1.6,0-2.9-1.3-2.9-2.9v-4c0-1.6,1.3-2.9,2.9-2.9h4 c1.6,0,2.9,1.3,2.9,2.9V415z"></path> <path d="M380.1,418.8h-4c-2.1,0-3.8-1.7-3.8-3.8v-4c0-2.1,1.7-3.8,3.8-3.8h4c2.1,0,3.8,1.7,3.8,3.8v4 C383.9,417.1,382.2,418.8,380.1,418.8z M376.1,408.9c-1.2,0-2.1,0.9-2.1,2v4c0,1.1,0.9,2,2.1,2h4c1.1,0,2-0.9,2-2v-4 c0-1.1-0.9-2-2-2H376.1z"></path> </g> <g> <path class="st16" d="M383,400.5c0,1.6-1.3,2.9-2.9,2.9h-4c-1.6,0-2.9-1.3-2.9-2.9v-4c0-1.6,1.3-2.9,2.9-2.9h4 c1.6,0,2.9,1.3,2.9,2.9V400.5z"></path> <path d="M380.1,404.3h-4c-2.1,0-3.8-1.7-3.8-3.8v-4c0-2.1,1.7-3.8,3.8-3.8h4c2.1,0,3.8,1.7,3.8,3.8v4 C383.9,402.6,382.2,404.3,380.1,404.3z M376.1,394.5c-1.1,0-2.1,0.9-2.1,2v4c0,1.1,0.9,2.1,2.1,2.1h4c1.1,0,2-0.9,2-2.1v-4 c0-1.1-0.9-2-2-2H376.1z"></path> </g> <g> <path class="st16" d="M383,386.1c0,1.6-1.3,2.9-2.9,2.9h-4c-1.6,0-2.9-1.3-2.9-2.9v-4c0-1.6,1.3-2.9,2.9-2.9h4 c1.6,0,2.9,1.3,2.9,2.9V386.1z"></path> <path d="M380.1,389.8h-4c-2.1,0-3.8-1.7-3.8-3.8v-4c0-2.1,1.7-3.8,3.8-3.8h4c2.1,0,3.8,1.7,3.8,3.8v4 C383.9,388.1,382.2,389.8,380.1,389.8z M376.1,380c-1.1,0-2.1,0.9-2.1,2v4c0,1.1,0.9,2,2.1,2h4c1.1,0,2-0.9,2-2v-4 c0-1.1-0.9-2-2-2H376.1z"></path> </g> <g> <path class="st16" d="M383,371.6c0,1.6-1.3,2.9-2.9,2.9h-4c-1.6,0-2.9-1.3-2.9-2.9v-4c0-1.6,1.3-2.9,2.9-2.9h4 c1.6,0,2.9,1.3,2.9,2.9V371.6z"></path> <path d="M380.1,375.4h-4c-2.1,0-3.8-1.7-3.8-3.8v-4c0-2.1,1.7-3.8,3.8-3.8h4c2.1,0,3.8,1.7,3.8,3.8v4 C383.9,373.7,382.2,375.4,380.1,375.4z M376.1,365.5c-1.2,0-2.1,0.9-2.1,2v4c0,1.1,0.9,2,2.1,2h4c1.1,0,2-0.9,2-2v-4 c0-1.1-0.9-2-2-2H376.1z"></path> </g> </g> <g> <g> <path class="st16" d="M399.1,415c0,1.6-1.3,2.9-2.9,2.9h-4c-1.6,0-2.9-1.3-2.9-2.9v-4c0-1.6,1.3-2.9,2.9-2.9h4 c1.6,0,2.9,1.3,2.9,2.9V415z"></path> <path d="M396.2,418.8h-4c-2.1,0-3.8-1.7-3.8-3.8v-4c0-2.1,1.7-3.8,3.8-3.8h4c2.1,0,3.8,1.7,3.8,3.8v4 C400,417.1,398.3,418.8,396.2,418.8z M392.2,408.9c-1.1,0-2.1,0.9-2.1,2v4c0,1.1,0.9,2,2.1,2h4c1.1,0,2-0.9,2-2v-4 c0-1.1-0.9-2-2-2H392.2z"></path> </g> <g> <path class="st16" d="M399.1,400.5c0,1.6-1.3,2.9-2.9,2.9h-4c-1.6,0-2.9-1.3-2.9-2.9v-4c0-1.6,1.3-2.9,2.9-2.9h4 c1.6,0,2.9,1.3,2.9,2.9V400.5z"></path> <path d="M396.2,404.3h-4c-2.1,0-3.8-1.7-3.8-3.8v-4c0-2.1,1.7-3.8,3.8-3.8h4c2.1,0,3.8,1.7,3.8,3.8v4 C400,402.6,398.3,404.3,396.2,404.3z M392.2,394.5c-1.1,0-2.1,0.9-2.1,2v4c0,1.1,0.9,2.1,2.1,2.1h4c1.1,0,2-0.9,2-2.1v-4 c0-1.1-0.9-2-2-2H392.2z"></path> </g> <g> <path class="st16" d="M399.1,386.1c0,1.6-1.3,2.9-2.9,2.9h-4c-1.6,0-2.9-1.3-2.9-2.9v-4c0-1.6,1.3-2.9,2.9-2.9h4 c1.6,0,2.9,1.3,2.9,2.9V386.1z"></path> <path d="M396.2,389.8h-4c-2.1,0-3.8-1.7-3.8-3.8v-4c0-2.1,1.7-3.8,3.8-3.8h4c2.1,0,3.8,1.7,3.8,3.8v4 C400,388.1,398.3,389.8,396.2,389.8z M392.2,380c-1.1,0-2.1,0.9-2.1,2v4c0,1.1,0.9,2,2.1,2h4c1.1,0,2-0.9,2-2v-4c0-1.1-0.9-2-2-2 H392.2z"></path> </g> <g> <path class="st16" d="M399.1,371.6c0,1.6-1.3,2.9-2.9,2.9h-4c-1.6,0-2.9-1.3-2.9-2.9v-4c0-1.6,1.3-2.9,2.9-2.9h4 c1.6,0,2.9,1.3,2.9,2.9V371.6z"></path> <path d="M396.2,375.4h-4c-2.1,0-3.8-1.7-3.8-3.8v-4c0-2.1,1.7-3.8,3.8-3.8h4c2.1,0,3.8,1.7,3.8,3.8v4 C400,373.7,398.3,375.4,396.2,375.4z M392.2,365.5c-1.1,0-2.1,0.9-2.1,2v4c0,1.1,0.9,2,2.1,2h4c1.1,0,2-0.9,2-2v-4 c0-1.1-0.9-2-2-2H392.2z"></path> </g> </g> <g> <g> <path class="st16" d="M415.2,415c0,1.6-1.3,2.9-2.9,2.9h-4c-1.6,0-2.9-1.3-2.9-2.9v-4c0-1.6,1.3-2.9,2.9-2.9h4 c1.6,0,2.9,1.3,2.9,2.9V415z"></path> <path d="M412.3,418.8h-4c-2.1,0-3.8-1.7-3.8-3.8v-4c0-2.1,1.7-3.8,3.8-3.8h4c2.1,0,3.8,1.7,3.8,3.8v4 C416.1,417.1,414.4,418.8,412.3,418.8z M408.3,408.9c-1.1,0-2.1,0.9-2.1,2v4c0,1.1,0.9,2,2.1,2h4c1.1,0,2-0.9,2-2v-4 c0-1.1-0.9-2-2-2H408.3z"></path> </g> <g> <path class="st16" d="M415.2,400.5c0,1.6-1.3,2.9-2.9,2.9h-4c-1.6,0-2.9-1.3-2.9-2.9v-4c0-1.6,1.3-2.9,2.9-2.9h4 c1.6,0,2.9,1.3,2.9,2.9V400.5z"></path> <path d="M412.3,404.3h-4c-2.1,0-3.8-1.7-3.8-3.8v-4c0-2.1,1.7-3.8,3.8-3.8h4c2.1,0,3.8,1.7,3.8,3.8v4 C416.1,402.6,414.4,404.3,412.3,404.3z M408.3,394.5c-1.1,0-2.1,0.9-2.1,2v4c0,1.1,0.9,2.1,2.1,2.1h4c1.1,0,2-0.9,2-2.1v-4 c0-1.1-0.9-2-2-2H408.3z"></path> </g> <g> <path class="st16" d="M415.2,386.1c0,1.6-1.3,2.9-2.9,2.9h-4c-1.6,0-2.9-1.3-2.9-2.9v-4c0-1.6,1.3-2.9,2.9-2.9h4 c1.6,0,2.9,1.3,2.9,2.9V386.1z"></path> <path d="M412.3,389.8h-4c-2.1,0-3.8-1.7-3.8-3.8v-4c0-2.1,1.7-3.8,3.8-3.8h4c2.1,0,3.8,1.7,3.8,3.8v4 C416.1,388.1,414.4,389.8,412.3,389.8z M408.3,380c-1.1,0-2.1,0.9-2.1,2v4c0,1.1,0.9,2,2.1,2h4c1.1,0,2-0.9,2-2v-4 c0-1.1-0.9-2-2-2H408.3z"></path> </g> <g> <path class="st16" d="M415.2,371.6c0,1.6-1.3,2.9-2.9,2.9h-4c-1.6,0-2.9-1.3-2.9-2.9v-4c0-1.6,1.3-2.9,2.9-2.9h4 c1.6,0,2.9,1.3,2.9,2.9V371.6z"></path> <path d="M412.3,375.4h-4c-2.1,0-3.8-1.7-3.8-3.8v-4c0-2.1,1.7-3.8,3.8-3.8h4c2.1,0,3.8,1.7,3.8,3.8v4 C416.1,373.7,414.4,375.4,412.3,375.4z M408.3,365.5c-1.1,0-2.1,0.9-2.1,2v4c0,1.1,0.9,2,2.1,2h4c1.1,0,2-0.9,2-2v-4 c0-1.1-0.9-2-2-2H408.3z"></path> </g> </g> <g> <g> <path class="st16" d="M431.3,415c0,1.6-1.3,2.9-2.9,2.9h-4c-1.6,0-2.9-1.3-2.9-2.9v-4c0-1.6,1.3-2.9,2.9-2.9h4 c1.6,0,2.9,1.3,2.9,2.9V415z"></path> <path d="M428.4,418.8h-4c-2.1,0-3.8-1.7-3.8-3.8v-4c0-2.1,1.7-3.8,3.8-3.8h4c2.1,0,3.8,1.7,3.8,3.8v4 C432.1,417.1,430.5,418.8,428.4,418.8z M424.4,408.9c-1.1,0-2.1,0.9-2.1,2v4c0,1.1,0.9,2,2.1,2h4c1.1,0,2-0.9,2-2v-4 c0-1.1-0.9-2-2-2H424.4z"></path> </g> <g> <path class="st16" d="M431.3,400.5c0,1.6-1.3,2.9-2.9,2.9h-4c-1.6,0-2.9-1.3-2.9-2.9v-4c0-1.6,1.3-2.9,2.9-2.9h4 c1.6,0,2.9,1.3,2.9,2.9V400.5z"></path> <path d="M428.4,404.3h-4c-2.1,0-3.8-1.7-3.8-3.8v-4c0-2.1,1.7-3.8,3.8-3.8h4c2.1,0,3.8,1.7,3.8,3.8v4 C432.1,402.6,430.5,404.3,428.4,404.3z M424.4,394.5c-1.1,0-2.1,0.9-2.1,2v4c0,1.1,0.9,2.1,2.1,2.1h4c1.1,0,2-0.9,2-2.1v-4 c0-1.1-0.9-2-2-2H424.4z"></path> </g> <g> <path class="st16" d="M431.3,386.1c0,1.6-1.3,2.9-2.9,2.9h-4c-1.6,0-2.9-1.3-2.9-2.9v-4c0-1.6,1.3-2.9,2.9-2.9h4 c1.6,0,2.9,1.3,2.9,2.9V386.1z"></path> <path d="M428.4,389.8h-4c-2.1,0-3.8-1.7-3.8-3.8v-4c0-2.1,1.7-3.8,3.8-3.8h4c2.1,0,3.8,1.7,3.8,3.8v4 C432.1,388.1,430.5,389.8,428.4,389.8z M424.4,380c-1.1,0-2.1,0.9-2.1,2v4c0,1.1,0.9,2,2.1,2h4c1.1,0,2-0.9,2-2v-4 c0-1.1-0.9-2-2-2H424.4z"></path> </g> <g> <path class="st16" d="M431.3,371.6c0,1.6-1.3,2.9-2.9,2.9h-4c-1.6,0-2.9-1.3-2.9-2.9v-4c0-1.6,1.3-2.9,2.9-2.9h4 c1.6,0,2.9,1.3,2.9,2.9V371.6z"></path> <path d="M428.4,375.4h-4c-2.1,0-3.8-1.7-3.8-3.8v-4c0-2.1,1.7-3.8,3.8-3.8h4c2.1,0,3.8,1.7,3.8,3.8v4 C432.1,373.7,430.5,375.4,428.4,375.4z M424.4,365.5c-1.1,0-2.1,0.9-2.1,2v4c0,1.1,0.9,2,2.1,2h4c1.1,0,2-0.9,2-2v-4 c0-1.1-0.9-2-2-2H424.4z"></path> </g> </g> <g> <g> <path class="st16" d="M447.4,415c0,1.6-1.3,2.9-2.9,2.9h-4c-1.6,0-2.9-1.3-2.9-2.9v-4c0-1.6,1.3-2.9,2.9-2.9h4 c1.6,0,2.9,1.3,2.9,2.9V415z"></path> <path d="M444.5,418.8h-4c-2.1,0-3.8-1.7-3.8-3.8v-4c0-2.1,1.7-3.8,3.8-3.8h4c2.1,0,3.8,1.7,3.8,3.8v4 C448.2,417.1,446.5,418.8,444.5,418.8z M440.5,408.9c-1.1,0-2.1,0.9-2.1,2v4c0,1.1,0.9,2,2.1,2h4c1.1,0,2-0.9,2-2v-4 c0-1.1-0.9-2-2-2H440.5z"></path> </g> <g> <path class="st16" d="M447.4,400.5c0,1.6-1.3,2.9-2.9,2.9h-4c-1.6,0-2.9-1.3-2.9-2.9v-4c0-1.6,1.3-2.9,2.9-2.9h4 c1.6,0,2.9,1.3,2.9,2.9V400.5z"></path> <path d="M444.5,404.3h-4c-2.1,0-3.8-1.7-3.8-3.8v-4c0-2.1,1.7-3.8,3.8-3.8h4c2.1,0,3.8,1.7,3.8,3.8v4 C448.2,402.6,446.5,404.3,444.5,404.3z M440.5,394.5c-1.1,0-2.1,0.9-2.1,2v4c0,1.1,0.9,2.1,2.1,2.1h4c1.1,0,2-0.9,2-2.1v-4 c0-1.1-0.9-2-2-2H440.5z"></path> </g> <g> <path class="st16" d="M447.4,386.1c0,1.6-1.3,2.9-2.9,2.9h-4c-1.6,0-2.9-1.3-2.9-2.9v-4c0-1.6,1.3-2.9,2.9-2.9h4 c1.6,0,2.9,1.3,2.9,2.9V386.1z"></path> <path d="M444.5,389.8h-4c-2.1,0-3.8-1.7-3.8-3.8v-4c0-2.1,1.7-3.8,3.8-3.8h4c2.1,0,3.8,1.7,3.8,3.8v4 C448.2,388.1,446.5,389.8,444.5,389.8z M440.5,380c-1.1,0-2.1,0.9-2.1,2v4c0,1.1,0.9,2,2.1,2h4c1.1,0,2-0.9,2-2v-4 c0-1.1-0.9-2-2-2H440.5z"></path> </g> <g> <path class="st16" d="M447.4,371.6c0,1.6-1.3,2.9-2.9,2.9h-4c-1.6,0-2.9-1.3-2.9-2.9v-4c0-1.6,1.3-2.9,2.9-2.9h4 c1.6,0,2.9,1.3,2.9,2.9V371.6z"></path> <path d="M444.5,375.4h-4c-2.1,0-3.8-1.7-3.8-3.8v-4c0-2.1,1.7-3.8,3.8-3.8h4c2.1,0,3.8,1.7,3.8,3.8v4 C448.2,373.7,446.5,375.4,444.5,375.4z M440.5,365.5c-1.1,0-2.1,0.9-2.1,2v4c0,1.1,0.9,2,2.1,2h4c1.1,0,2-0.9,2-2v-4 c0-1.1-0.9-2-2-2H440.5z"></path> </g> </g> <g> <g> <path class="st16" d="M463.4,415c0,1.6-1.3,2.9-2.9,2.9h-4c-1.6,0-2.9-1.3-2.9-2.9v-4c0-1.6,1.3-2.9,2.9-2.9h4 c1.6,0,2.9,1.3,2.9,2.9V415z"></path> <path d="M460.5,418.8h-4c-2.1,0-3.8-1.7-3.8-3.8v-4c0-2.1,1.7-3.8,3.8-3.8h4c2.1,0,3.8,1.7,3.8,3.8v4 C464.3,417.1,462.6,418.8,460.5,418.8z M456.5,408.9c-1.1,0-2,0.9-2,2v4c0,1.1,0.9,2,2,2h4c1.1,0,2-0.9,2-2v-4c0-1.1-0.9-2-2-2 H456.5z"></path> </g> <g> <path class="st16" d="M463.4,400.5c0,1.6-1.3,2.9-2.9,2.9h-4c-1.6,0-2.9-1.3-2.9-2.9v-4c0-1.6,1.3-2.9,2.9-2.9h4 c1.6,0,2.9,1.3,2.9,2.9V400.5z"></path> <path d="M460.5,404.3h-4c-2.1,0-3.8-1.7-3.8-3.8v-4c0-2.1,1.7-3.8,3.8-3.8h4c2.1,0,3.8,1.7,3.8,3.8v4 C464.3,402.6,462.6,404.3,460.5,404.3z M456.5,394.5c-1.1,0-2,0.9-2,2v4c0,1.1,0.9,2.1,2,2.1h4c1.1,0,2-0.9,2-2.1v-4 c0-1.1-0.9-2-2-2H456.5z"></path> </g> <g> <path class="st16" d="M463.4,386.1c0,1.6-1.3,2.9-2.9,2.9h-4c-1.6,0-2.9-1.3-2.9-2.9v-4c0-1.6,1.3-2.9,2.9-2.9h4 c1.6,0,2.9,1.3,2.9,2.9V386.1z"></path> <path d="M460.5,389.8h-4c-2.1,0-3.8-1.7-3.8-3.8v-4c0-2.1,1.7-3.8,3.8-3.8h4c2.1,0,3.8,1.7,3.8,3.8v4 C464.3,388.1,462.6,389.8,460.5,389.8z M456.5,380c-1.1,0-2,0.9-2,2v4c0,1.1,0.9,2,2,2h4c1.1,0,2-0.9,2-2v-4c0-1.1-0.9-2-2-2 H456.5z"></path> </g> <g> <path class="st16" d="M463.4,371.6c0,1.6-1.3,2.9-2.9,2.9h-4c-1.6,0-2.9-1.3-2.9-2.9v-4c0-1.6,1.3-2.9,2.9-2.9h4 c1.6,0,2.9,1.3,2.9,2.9V371.6z"></path> <path d="M460.5,375.4h-4c-2.1,0-3.8-1.7-3.8-3.8v-4c0-2.1,1.7-3.8,3.8-3.8h4c2.1,0,3.8,1.7,3.8,3.8v4 C464.3,373.7,462.6,375.4,460.5,375.4z M456.5,365.5c-1.1,0-2,0.9-2,2v4c0,1.1,0.9,2,2,2h4c1.1,0,2-0.9,2-2v-4c0-1.1-0.9-2-2-2 H456.5z"></path> </g> </g> <g> <g> <path class="st16" d="M479.5,415c0,1.6-1.3,2.9-2.9,2.9h-4c-1.6,0-2.9-1.3-2.9-2.9v-4c0-1.6,1.3-2.9,2.9-2.9h4 c1.6,0,2.9,1.3,2.9,2.9V415z"></path> <path d="M476.6,418.8h-4c-2.1,0-3.8-1.7-3.8-3.8v-4c0-2.1,1.7-3.8,3.8-3.8h4c2.1,0,3.8,1.7,3.8,3.8v4 C480.4,417.1,478.7,418.8,476.6,418.8z M472.6,408.9c-1.2,0-2.1,0.9-2.1,2v4c0,1.1,0.9,2,2.1,2h4c1.1,0,2-0.9,2-2v-4 c0-1.1-0.9-2-2-2H472.6z"></path> </g> <g> <path class="st16" d="M479.5,400.5c0,1.6-1.3,2.9-2.9,2.9h-4c-1.6,0-2.9-1.3-2.9-2.9v-4c0-1.6,1.3-2.9,2.9-2.9h4 c1.6,0,2.9,1.3,2.9,2.9V400.5z"></path> <path d="M476.6,404.3h-4c-2.1,0-3.8-1.7-3.8-3.8v-4c0-2.1,1.7-3.8,3.8-3.8h4c2.1,0,3.8,1.7,3.8,3.8v4 C480.4,402.6,478.7,404.3,476.6,404.3z M472.6,394.5c-1.1,0-2.1,0.9-2.1,2v4c0,1.1,0.9,2.1,2.1,2.1h4c1.1,0,2-0.9,2-2.1v-4 c0-1.1-0.9-2-2-2H472.6z"></path> </g> <g> <path class="st16" d="M479.5,386.1c0,1.6-1.3,2.9-2.9,2.9h-4c-1.6,0-2.9-1.3-2.9-2.9v-4c0-1.6,1.3-2.9,2.9-2.9h4 c1.6,0,2.9,1.3,2.9,2.9V386.1z"></path> <path d="M476.6,389.8h-4c-2.1,0-3.8-1.7-3.8-3.8v-4c0-2.1,1.7-3.8,3.8-3.8h4c2.1,0,3.8,1.7,3.8,3.8v4 C480.4,388.1,478.7,389.8,476.6,389.8z M472.6,380c-1.1,0-2.1,0.9-2.1,2v4c0,1.1,0.9,2,2.1,2h4c1.1,0,2-0.9,2-2v-4 c0-1.1-0.9-2-2-2H472.6z"></path> </g> <g> <path class="st16" d="M479.5,371.6c0,1.6-1.3,2.9-2.9,2.9h-4c-1.6,0-2.9-1.3-2.9-2.9v-4c0-1.6,1.3-2.9,2.9-2.9h4 c1.6,0,2.9,1.3,2.9,2.9V371.6z"></path> <path d="M476.6,375.4h-4c-2.1,0-3.8-1.7-3.8-3.8v-4c0-2.1,1.7-3.8,3.8-3.8h4c2.1,0,3.8,1.7,3.8,3.8v4 C480.4,373.7,478.7,375.4,476.6,375.4z M472.6,365.5c-1.2,0-2.1,0.9-2.1,2v4c0,1.1,0.9,2,2.1,2h4c1.1,0,2-0.9,2-2v-4 c0-1.1-0.9-2-2-2H472.6z"></path> </g> </g> <g> <linearGradient id="SVGID_6_" gradientUnits="userSpaceOnUse" x1="147.21" y1="690.5547" x2="793.8047" y2="247.8662"> <stop offset="0" style="stop-color:#E65A49"></stop> <stop offset="1" style="stop-color:#F89C2B"></stop> </linearGradient> <rect x="549" y="386.8" class="st8" width="12.8" height="48.5"></rect> <path d="M562.7,436.2h-14.6v-50.3h14.6V436.2z M549.9,434.5H561v-46.8h-11.1V434.5z"></path> </g> <g> <polygon class="st4" points="552.3,379.3 555.5,372.4 558.7,379.3 "></polygon> <path d="M560,380.1h-9.1l4.6-9.8L560,380.1z M553.6,378.4h3.7l-1.8-4L553.6,378.4z"></path> </g> <g> <path class="st12" d="M555.4,442.3c3.5,0,6.4-2.9,6.4-6.4v-2.9c0-3.5-2.9-6.4-6.4-6.4l0,0c-3.5,0-6.4,2.9-6.4,6.4v2.9 C549,439.4,551.9,442.3,555.4,442.3L555.4,442.3z"></path> <path d="M555.4,443.2c-4,0-7.3-3.3-7.3-7.3v-2.9c0-4,3.3-7.3,7.3-7.3c4,0,7.3,3.3,7.3,7.3v2.9 C562.7,439.9,559.5,443.2,555.4,443.2z M555.4,427.4c-3.1,0-5.6,2.5-5.6,5.6v2.9c0,3.1,2.5,5.6,5.6,5.6c3.1,0,5.6-2.5,5.6-5.6 v-2.9C561,429.9,558.5,427.4,555.4,427.4z"></path> </g> <g> <rect x="549" y="425.9" class="st12" width="12.8" height="7.9"></rect> <path d="M562.7,434.7h-14.6V425h14.6V434.7z M549.9,432.9H561v-6.2h-11.1V432.9z"></path> </g> <g> <linearGradient id="SVGID_7_" gradientUnits="userSpaceOnUse" x1="24.8315" y1="511.8086" x2="671.4244" y2="69.1214"> <stop offset="0" style="stop-color:#E65A49"></stop> <stop offset="1" style="stop-color:#F89C2B"></stop> </linearGradient> <rect x="225" y="325.7" class="st9" width="10.9" height="90.6"></rect> <path d="M236.8,417.2h-12.7v-92.3h12.7V417.2z M225.9,415.4h9.2v-88.9h-9.2V415.4z"></path> </g> <g> <linearGradient id="SVGID_8_" gradientUnits="userSpaceOnUse" x1="-65.4336" y1="379.9102" x2="581.1563" y2="-62.7749"> <stop offset="0" style="stop-color:#E65A49"></stop> <stop offset="1" style="stop-color:#F89C2B"></stop> </linearGradient> <path class="st10" d="M241.1,175.3c0-9.1-7.4-16.5-16.5-16.6c-9.1,0-16.5,7.4-16.5,16.5c0,7.3,4.7,13.4,11.1,15.6l0,12.9l10.8,0 l0-12.9C236.4,188.7,241.1,182.5,241.1,175.3z"></path> <path d="M230.8,204.7l-12.5,0l0-13.2c-6.7-2.6-11.1-9-11.1-16.3c0-9.6,7.8-17.4,17.4-17.4c4.7,0,9,1.8,12.3,5.1 c3.3,3.3,5.1,7.7,5.1,12.3c0,7.2-4.5,13.7-11.2,16.2L230.8,204.7z M220,203l9,0l0-12.7l0.6-0.2c6.3-2.2,10.6-8.1,10.6-14.8 c0-4.2-1.6-8.1-4.6-11.1c-3-3-6.9-4.6-11.1-4.6c-8.6,0-15.7,7-15.7,15.7c0,6.7,4.2,12.7,10.6,14.8l0.6,0.2L220,203z"></path> </g> <g> <path class="st30" d="M231.7,174.9c0,0.8-0.6,1.4-1.3,1.4c-0.7,0-1.3-0.6-1.3-1.4c0-0.7,0.6-1.3,1.3-1.3 C231.1,173.6,231.7,174.2,231.7,174.9z"></path> <path d="M230.3,177.2L230.3,177.2c-0.6,0-1.1-0.2-1.6-0.7c-0.4-0.4-0.6-1-0.6-1.6c0-1.2,1-2.2,2.2-2.2c0.6,0,1.1,0.2,1.5,0.6 s0.6,1,0.6,1.5C232.5,176.2,231.5,177.2,230.3,177.2z M230.3,174.5c-0.3,0-0.5,0.2-0.5,0.5c0,0.1,0.1,0.3,0.1,0.4 c0.1,0.1,0.2,0.1,0.3,0.1l0,0.9v-0.9c0.3,0,0.5-0.2,0.5-0.5c0-0.2-0.1-0.3-0.1-0.3C230.6,174.6,230.5,174.5,230.3,174.5z"></path> </g> <g> <path class="st30" d="M218.6,174.8c0,0.7-0.6,1.3-1.3,1.3c-0.7,0-1.3-0.6-1.3-1.3c0-0.7,0.6-1.3,1.3-1.3 C218,173.4,218.6,174,218.6,174.8z"></path> <path d="M217.2,177L217.2,177c-0.6,0-1.1-0.2-1.5-0.6c-0.4-0.4-0.6-1-0.6-1.6c0-1.2,1-2.2,2.2-2.2c1.2,0,2.2,1,2.2,2.2 C219.4,176,218.4,177,217.2,177z M217.2,174.3c-0.3,0-0.5,0.2-0.5,0.5c0,0.1,0,0.2,0.1,0.3c0.1,0.1,0.2,0.1,0.3,0.1 c0.3,0,0.5-0.2,0.5-0.5C217.7,174.5,217.5,174.3,217.2,174.3z"></path> </g> <g> <path class="st3" d="M219.1,199.8l0,5.4c0,1.5,1.2,2.7,2.7,2.7l5.4,0c1.5,0,2.7-1.2,2.7-2.7l0-5.4L219.1,199.8z"></path> <path d="M227.2,208.8L227.2,208.8l-5.4,0c-2,0-3.6-1.6-3.6-3.6l0-6.2l12.5,0l0,6.2C230.8,207.2,229.2,208.8,227.2,208.8z M220,200.7l0,4.5c0,1,0.8,1.9,1.8,1.9l5.4,0l0,0.9v-0.9c1,0,1.8-0.8,1.8-1.9l0-4.5L220,200.7z"></path> </g> <polygon points="227.5,199.8 225.8,199.8 226,183.9 228.5,177.3 224.7,179 223.7,177.7 222.6,179.8 220.7,178.5 223.1,183.7 223.1,199.8 221.4,199.8 221.4,184.1 216.5,173.7 221.9,177.3 223.4,174.5 225.2,176.9 231.6,174.1 227.7,184.2 "></polygon> <g> <g> <line class="st15" x1="537.3" y1="239.3" x2="565.4" y2="239.3"></line> <rect x="537.3" y="238.4" width="28.1" height="1.7"></rect> </g> <g> <line class="st15" x1="537.3" y1="249.1" x2="565.4" y2="249.1"></line> <rect x="537.3" y="248.2" width="28.1" height="1.7"></rect> </g> <g> <line class="st15" x1="537.3" y1="258.9" x2="565.4" y2="258.9"></line> <rect x="537.3" y="258.1" width="28.1" height="1.7"></rect> </g> <g> <line class="st15" x1="537.3" y1="268.8" x2="565.4" y2="268.8"></line> <rect x="537.3" y="267.9" width="28.1" height="1.7"></rect> </g> <g> <line class="st15" x1="537.3" y1="278.6" x2="565.4" y2="278.6"></line> <rect x="537.3" y="277.7" width="28.1" height="1.7"></rect> </g> </g> <g> <g> <line class="st15" x1="584.1" y1="239.3" x2="612.2" y2="239.3"></line> <rect x="584.1" y="238.4" width="28.1" height="1.7"></rect> </g> <g> <line class="st15" x1="584.1" y1="249.1" x2="612.2" y2="249.1"></line> <rect x="584.1" y="248.2" width="28.1" height="1.7"></rect> </g> <g> <line class="st15" x1="584.1" y1="258.9" x2="612.2" y2="258.9"></line> <rect x="584.1" y="258.1" width="28.1" height="1.7"></rect> </g> <g> <line class="st15" x1="584.1" y1="268.8" x2="612.2" y2="268.8"></line> <rect x="584.1" y="267.9" width="28.1" height="1.7"></rect> </g> <g> <line class="st15" x1="584.1" y1="278.6" x2="612.2" y2="278.6"></line> <rect x="584.1" y="277.7" width="28.1" height="1.7"></rect> </g> </g> <g> <line class="st0" x1="235.9" y1="410.2" x2="231.5" y2="410.2"></line> <rect x="231.5" y="409.3" width="4.5" height="1.7"></rect> </g> <g> <line class="st0" x1="235.9" y1="405" x2="231.5" y2="405"></line> <rect x="231.5" y="404.1" width="4.5" height="1.7"></rect> </g> <g> <line class="st0" x1="235.9" y1="399.8" x2="231.5" y2="399.8"></line> <rect x="231.5" y="399" width="4.5" height="1.7"></rect> </g> <g> <line class="st0" x1="235.9" y1="394.6" x2="231.5" y2="394.6"></line> <rect x="231.5" y="393.8" width="4.5" height="1.7"></rect> </g> <g> <line class="st0" x1="235.9" y1="389.5" x2="231.5" y2="389.5"></line> <rect x="231.5" y="388.6" width="4.5" height="1.7"></rect> </g> <g> <line class="st0" x1="235.9" y1="384.3" x2="231.5" y2="384.3"></line> <rect x="231.5" y="383.4" width="4.5" height="1.7"></rect> </g> <g> <line class="st0" x1="235.9" y1="379.1" x2="231.5" y2="379.1"></line> <rect x="231.5" y="378.2" width="4.5" height="1.7"></rect> </g> <g> <line class="st0" x1="235.9" y1="373.9" x2="231.5" y2="373.9"></line> <rect x="231.5" y="373.1" width="4.5" height="1.7"></rect> </g> <g> <line class="st0" x1="235.9" y1="368.8" x2="231.5" y2="368.8"></line> <rect x="231.5" y="367.9" width="4.5" height="1.7"></rect> </g> <g> <line class="st0" x1="235.9" y1="363.6" x2="231.5" y2="363.6"></line> <rect x="231.5" y="362.7" width="4.5" height="1.7"></rect> </g> <g> <line class="st0" x1="235.9" y1="358.4" x2="231.5" y2="358.4"></line> <rect x="231.5" y="357.5" width="4.5" height="1.7"></rect> </g> <g> <line class="st0" x1="235.9" y1="353.2" x2="231.5" y2="353.2"></line> <rect x="231.5" y="352.4" width="4.5" height="1.7"></rect> </g> <g> <line class="st0" x1="235.9" y1="348" x2="231.5" y2="348"></line> <rect x="231.5" y="347.2" width="4.5" height="1.7"></rect> </g> <g> <line class="st0" x1="235.9" y1="342.9" x2="231.5" y2="342.9"></line> <rect x="231.5" y="342" width="4.5" height="1.7"></rect> </g> <g> <line class="st0" x1="235.9" y1="337.7" x2="231.5" y2="337.7"></line> <rect x="231.5" y="336.8" width="4.5" height="1.7"></rect> </g> <g> <line class="st0" x1="235.9" y1="332.5" x2="231.5" y2="332.5"></line> <rect x="231.5" y="331.6" width="4.5" height="1.7"></rect> </g> <g> <ellipse class="st16" cx="477.6" cy="478.6" rx="10.9" ry="18.3"></ellipse> <path d="M477.6,497.8c-6.5,0-11.8-8.6-11.8-19.1c0-10.6,5.3-19.1,11.8-19.1s11.8,8.6,11.8,19.1 C489.3,489.2,484.1,497.8,477.6,497.8z M477.6,461.2c-5.6,0-10.1,7.8-10.1,17.4c0,9.6,4.5,17.4,10.1,17.4 c5.6,0,10.1-7.8,10.1-17.4C487.6,469,483.1,461.2,477.6,461.2z"></path> </g> <g> <line class="st16" x1="477.6" y1="460" x2="477.6" y2="470.4"></line> <rect x="476.7" y="460" width="1.7" height="10.4"></rect> </g> <path d="M478.2,468.2v-24.1c0-2.4,2-4.4,4.4-4.4h14.5v-1.4h-14.5c-3.2,0-5.8,2.6-5.8,5.8v24.1H478.2z"></path> <g> <path class="st5" d="M467.3,542.1v-18.5c-0.3-0.2-0.6-0.6-0.8-0.9L456.2,503c-0.8-1.5-0.2-3.3,1.3-4.1c1.5-0.8,3.3-0.2,4.1,1.3 l5.7,10.8v-30.5c0-1.7,1.4-3,3.1-3c1.7,0,3,1.4,3,3v21.3h3.8v-25.1c0-1.7,1.4-3,3.1-3c1.7,0,3.1,1.4,3.1,3v25.1h3.8v-21.9 c0-1.7,1.4-3.1,3-3.1c1.7,0,3,1.4,3,3.1v21.9h3.8v-16.7c0-1.7,1.4-3,3-3c1.7,0,3.1,1.4,3.1,3v18.3v14.2v24.6H467.3z"></path> <path d="M503.8,543h-37.4v-19c-0.3-0.3-0.5-0.6-0.7-0.9l-10.3-19.6c-1-1.9-0.3-4.3,1.6-5.3c0.6-0.3,1.2-0.5,1.8-0.5 c1.5,0,2.8,0.8,3.5,2.1l4,7.7v-27.1c0-2.2,1.8-3.9,3.9-3.9c2.2,0,3.9,1.8,3.9,3.9v20.4h2.1v-24.3c0-2.2,1.8-3.9,3.9-3.9 c2.2,0,3.9,1.8,3.9,3.9v24.3h2v-21.1c0-2.2,1.8-3.9,3.9-3.9c2.2,0,3.9,1.8,3.9,3.9v21.1h2.1v-15.9c0-2.2,1.8-3.9,3.9-3.9 c2.2,0,3.9,1.8,3.9,3.9V543z M468.1,541.2h34v-56.3c0-1.2-1-2.2-2.2-2.2c-1.2,0-2.2,1-2.2,2.2v17.6h-5.5v-22.8 c0-1.2-1-2.2-2.2-2.2c-1.2,0-2.2,1-2.2,2.2v22.8h-5.5v-26c0-1.2-1-2.2-2.2-2.2c-1.2,0-2.2,1-2.2,2.2v26h-5.5v-22.1 c0-1.2-1-2.2-2.2-2.2c-1.2,0-2.2,1-2.2,2.2v34l-7.3-13.8c-0.4-0.7-1.1-1.2-1.9-1.2c-0.4,0-0.7,0.1-1,0.3c-1.1,0.6-1.5,1.9-0.9,3 l10.3,19.6c0.1,0.3,0.3,0.5,0.5,0.7l0.3,0.3V541.2z"></path> </g> <g> <linearGradient id="SVGID_9_" gradientUnits="userSpaceOnUse" x1="186.7915" y1="748.3594" x2="833.3784" y2="305.6763"> <stop offset="0" style="stop-color:#E65A49"></stop> <stop offset="1" style="stop-color:#F89C2B"></stop> </linearGradient> <rect x="461.9" y="534.4" class="st27" width="45" height="20.4"></rect> <path d="M507.8,555.7h-46.8v-22.2h46.8V555.7z M462.8,553.9h43.3v-18.7h-43.3V553.9z"></path> </g> <g> <path class="st5" d="M86.7,333.9h18.5c0.2-0.3,0.6-0.6,0.9-0.8l19.6-10.3c1.5-0.8,3.3-0.2,4.1,1.3c0.8,1.5,0.2,3.3-1.3,4.1 l-10.8,5.7h30.5c1.7,0,3.1,1.4,3.1,3.1c0,1.7-1.4,3-3.1,3h-21.3v3.8h25.1c1.7,0,3,1.4,3,3c0,1.7-1.4,3.1-3,3.1h-25.1v3.8h21.9 c1.7,0,3.1,1.4,3.1,3c0,1.7-1.4,3-3.1,3h-21.9v3.8h16.7c1.7,0,3,1.4,3,3c0,1.7-1.4,3-3,3h-18.3h-14.2H86.7V333.9z"></path> <path d="M143.9,370.4h-58V333h19c0.3-0.3,0.6-0.5,0.9-0.7l19.6-10.3c0.6-0.3,1.2-0.5,1.8-0.5c1.5,0,2.8,0.8,3.5,2.1 c1,1.9,0.3,4.3-1.6,5.3l-7.7,4h27.1c2.2,0,3.9,1.8,3.9,3.9s-1.8,3.9-3.9,3.9H128v2.1h24.3c2.2,0,3.9,1.8,3.9,3.9 c0,2.2-1.8,3.9-3.9,3.9H128v2h21.1c2.2,0,3.9,1.8,3.9,3.9s-1.8,3.9-3.9,3.9H128v2.1h15.9c2.2,0,3.9,1.8,3.9,3.9 C147.8,368.7,146,370.4,143.9,370.4z M87.5,368.7h56.3c1.2,0,2.2-1,2.2-2.2c0-1.2-1-2.2-2.2-2.2h-17.6v-5.5h22.8 c1.2,0,2.2-1,2.2-2.2c0-1.2-1-2.2-2.2-2.2h-22.8V349h26c1.2,0,2.2-1,2.2-2.2c0-1.2-1-2.2-2.2-2.2h-26v-5.5h22.1 c1.2,0,2.2-1,2.2-2.2c0-1.2-1-2.2-2.2-2.2h-34l13.8-7.3c1.1-0.6,1.5-1.9,0.9-3c-0.4-0.7-1.1-1.2-1.9-1.2c-0.4,0-0.7,0.1-1,0.3 l-19.6,10.3c-0.3,0.1-0.5,0.3-0.7,0.5l-0.3,0.3H87.5V368.7z"></path> </g> <g> <linearGradient id="SVGID_10_" gradientUnits="userSpaceOnUse" x1="-40.2681" y1="416.7295" x2="606.3361" y2="-25.9654"> <stop offset="0" style="stop-color:#E65A49"></stop> <stop offset="1" style="stop-color:#F89C2B"></stop> </linearGradient> <rect x="16.8" y="328.6" class="st22" width="77.6" height="45"></rect> <path d="M95.3,374.5H16v-46.8h79.3V374.5z M17.7,372.7h75.9v-43.3H17.7V372.7z"></path> </g> <g> <path class="st5" d="M712.5,252.7H694c-0.2-0.3-0.6-0.6-0.9-0.8l-19.6-10.3c-1.5-0.8-3.3-0.2-4.1,1.3c-0.8,1.5-0.2,3.3,1.3,4.1 l10.8,5.7h-30.5c-1.7,0-3,1.4-3,3.1c0,1.7,1.4,3,3,3H672v3.8h-25.1c-1.7,0-3,1.4-3,3.1c0,1.7,1.4,3.1,3,3.1H672v3.8h-21.9 c-1.7,0-3.1,1.4-3.1,3c0,1.7,1.4,3,3.1,3H672v3.8h-16.7c-1.7,0-3,1.4-3,3c0,1.7,1.4,3,3,3h18.3h14.2h24.6V252.7z"></path> <path d="M713.4,289.3h-58c-2.2,0-3.9-1.8-3.9-3.9c0-2.2,1.8-3.9,3.9-3.9h15.9v-2.1h-21.1c-2.2,0-3.9-1.8-3.9-3.9 c0-2.2,1.8-3.9,3.9-3.9h21.1v-2h-24.3c-2.2,0-3.9-1.8-3.9-3.9c0-2.2,1.8-3.9,3.9-3.9h24.3v-2.1h-20.4c-2.2,0-3.9-1.8-3.9-3.9 c0-2.2,1.8-3.9,3.9-3.9h27.1l-7.7-4c-1.9-1-2.6-3.4-1.6-5.3c0.7-1.3,2-2.1,3.5-2.1c0.6,0,1.3,0.2,1.8,0.5l19.6,10.3 c0.4,0.2,0.7,0.4,0.9,0.7h19V289.3z M655.3,283.2c-1.2,0-2.2,1-2.2,2.2c0,1.2,1,2.2,2.2,2.2h56.3v-34h-18.1l-0.3-0.3 c-0.2-0.2-0.4-0.4-0.7-0.5L673,242.4c-0.3-0.2-0.7-0.3-1-0.3c-0.8,0-1.6,0.4-1.9,1.2c-0.6,1.1-0.2,2.4,0.9,3l13.8,7.3h-34 c-1.2,0-2.2,1-2.2,2.2c0,1.2,1,2.2,2.2,2.2h22.1v5.5h-26c-1.2,0-2.2,1-2.2,2.2c0,1.2,1,2.2,2.2,2.2h26v5.5h-22.8 c-1.2,0-2.2,1-2.2,2.2c0,1.2,1,2.2,2.2,2.2h22.8v5.5H655.3z"></path> </g> <g> <linearGradient id="SVGID_11_" gradientUnits="userSpaceOnUse" x1="141.4404" y1="682.1387" x2="788.0417" y2="239.4458"> <stop offset="0" style="stop-color:#E65A49"></stop> <stop offset="1" style="stop-color:#F89C2B"></stop> </linearGradient> <rect x="704.7" y="247.4" class="st23" width="77.6" height="45"></rect> <linearGradient id="SVGID_12_" gradientUnits="userSpaceOnUse" x1="141.4551" y1="682.1289" x2="788.0415" y2="239.4462"> <stop offset="0" style="stop-color:#E65A49"></stop> <stop offset="1" style="stop-color:#F89C2B"></stop> </linearGradient> <path class="st18" d="M783.2,293.3h-79.3v-46.8h79.3V293.3z M705.6,291.6h75.9v-43.3h-75.9V291.6z"></path> </g> <g> <g> <line class="st12" x1="298.8" y1="445.8" x2="298.8" y2="462.7"></line> <rect x="298" y="445.8" width="1.7" height="16.9"></rect> </g> <g> <polygon class="st12" points="295.3,462.5 298.8,468.5 302.3,462.5 "></polygon> <path d="M298.8,470.3l-5-8.7h10L298.8,470.3z M296.8,463.3l2,3.5l2-3.5H296.8z"></path> </g> </g> <g> <g> <line class="st12" x1="649.2" y1="491.1" x2="649.2" y2="474.2"></line> <rect x="648.3" y="474.2" width="1.7" height="17"></rect> </g> <g> <polygon class="st12" points="645.7,474.4 649.2,468.3 652.7,474.4 "></polygon> <path d="M654.2,475.3h-10l5-8.7L654.2,475.3z M647.2,473.5h4l-2-3.5L647.2,473.5z"></path> </g> </g> <g> <g> <line class="st12" x1="547.9" y1="191.7" x2="547.9" y2="208.7"></line> <rect x="547" y="191.7" width="1.7" height="17"></rect> </g> <g> <polygon class="st12" points="544.4,208.4 547.9,214.5 551.4,208.4 "></polygon> <path d="M547.9,216.2l-5-8.7h10L547.9,216.2z M545.9,209.3l2,3.5l2-3.5H545.9z"></path> </g> </g> <g> <g> <line class="st12" x1="341.6" y1="182.3" x2="341.6" y2="230.2"></line> <rect x="340.8" y="182.3" width="1.7" height="47.9"></rect> </g> <g> <polygon class="st12" points="338.1,230 341.6,236 345.2,230 "></polygon> <path d="M341.6,237.8l-5-8.7h10L341.6,237.8z M339.6,230.8l2,3.5l2-3.5H339.6z"></path> </g> </g> <g> <g> <rect x="358.3" y="462.6" class="st29" width="7.2" height="4.6"></rect> <path d="M366.4,468h-8.9v-6.3h8.9V468z M359.2,466.3h5.5v-2.8h-5.5V466.3z"></path> </g> <g> <linearGradient id="SVGID_13_" gradientUnits="userSpaceOnUse" x1="118.0283" y1="647.9209" x2="764.6102" y2="205.2413"> <stop offset="0" style="stop-color:#E65A49"></stop> <stop offset="1" style="stop-color:#F89C2B"></stop> </linearGradient> <path class="st19" d="M407.7,464.9c0,2.9-2.4,5.3-5.3,5.3h-34.2c-2.9,0-5.3-2.4-5.3-5.3l0,0c0-2.9,2.4-5.3,5.3-5.3h34.2 C405.4,459.6,407.7,462,407.7,464.9L407.7,464.9z"></path> <path d="M402.5,471h-34.2c-3.4,0-6.1-2.8-6.1-6.1c0-3.4,2.7-6.1,6.1-6.1h34.2c3.4,0,6.1,2.8,6.1,6.1 C408.6,468.3,405.8,471,402.5,471z M368.3,460.5c-2.4,0-4.4,2-4.4,4.4c0,2.4,2,4.4,4.4,4.4h34.2c2.4,0,4.4-2,4.4-4.4 c0-2.4-2-4.4-4.4-4.4H368.3z"></path> </g> <g> <circle class="st12" cx="342.5" cy="464.9" r="15.8"></circle> <path d="M342.5,481.6c-9.2,0-16.7-7.5-16.7-16.7c0-9.2,7.5-16.7,16.7-16.7s16.7,7.5,16.7,16.7 C359.2,474.1,351.7,481.6,342.5,481.6z M342.5,449.9c-8.3,0-15,6.7-15,15s6.7,15,15,15c8.3,0,15-6.7,15-15 S350.7,449.9,342.5,449.9z"></path> </g> <g> <circle class="st12" cx="345.5" cy="459.6" r="3.6"></circle> <path d="M345.5,464.1c-2.5,0-4.5-2-4.5-4.5c0-2.5,2-4.5,4.5-4.5s4.5,2,4.5,4.5C349.9,462.1,347.9,464.1,345.5,464.1z M345.5,456.8c-1.5,0-2.8,1.2-2.8,2.8c0,1.5,1.2,2.8,2.8,2.8c1.5,0,2.8-1.2,2.8-2.8C348.2,458.1,347,456.8,345.5,456.8z"></path> </g> </g> <g> <line class="st12" x1="523.7" y1="78.9" x2="534" y2="78.9"></line> <rect x="523.7" y="78.1" width="10.3" height="1.7"></rect> </g> <g> <line class="st12" x1="542.2" y1="78.9" x2="552.5" y2="78.9"></line> <rect x="542.2" y="78.1" width="10.3" height="1.7"></rect> </g> <g> <circle class="st12" cx="533.1" cy="78.9" r="22"></circle> <path d="M533.1,101.8c-12.6,0-22.9-10.3-22.9-22.9c0-12.6,10.3-22.9,22.9-22.9S556,66.3,556,78.9 C556,91.5,545.7,101.8,533.1,101.8z M533.1,57.8c-11.7,0-21.1,9.5-21.1,21.1s9.5,21.1,21.1,21.1c11.7,0,21.1-9.5,21.1-21.1 S544.8,57.8,533.1,57.8z"></path> </g> <g> <line class="st21" x1="533.1" y1="56.6" x2="533.1" y2="101.2"></line> <rect x="532.2" y="56.6" width="1.7" height="44.5"></rect> </g> <path d="M539.5,100.4l-1.4-0.9c0,0,3.1-4.9,4.7-12.3c1.4-6.8,1.7-17.4-4.7-28.8l1.5-0.8c6.7,11.9,6.3,22.9,4.9,30.1 C542.7,95.3,539.6,100.2,539.5,100.4z"></path> <path d="M527,100.4c-0.1-0.2-3.3-5.1-4.9-12.8c-1.5-7.2-1.8-18.2,4.8-30.1l1.5,0.8c-6.4,11.4-6.1,21.9-4.7,28.8 c1.5,7.5,4.6,12.3,4.6,12.3L527,100.4z"></path> <path d="M533.1,74c-5.7,0-12.5-1.2-19.6-5.3l0.8-1.5c10.4,5.8,20,5.5,26.3,4.3c6.8-1.4,11.2-4.2,11.2-4.2l0.9,1.4 c-0.2,0.1-4.7,3-11.8,4.5C538.8,73.7,536.1,74,533.1,74z"></path> <path d="M514.1,90.6l-0.8-1.5c11-6.2,21.2-5.9,27.8-4.5c7.2,1.5,11.7,4.4,11.9,4.5l-0.9,1.4c0,0-4.5-2.9-11.4-4.3 C534.4,85,524.6,84.7,514.1,90.6z"></path> <g> <line class="st21" x1="510.8" y1="78.9" x2="555.4" y2="78.9"></line> <rect x="510.8" y="78" width="44.5" height="1.7"></rect> </g> <g> <g> <rect x="272.5" y="165.7" class="st12" width="49.1" height="64.6"></rect> <path d="M322.4,231.2h-50.8v-66.4h50.8V231.2z M273.3,229.5h47.3v-62.9h-47.3V229.5z"></path> </g> <g> <g> <line class="st15" x1="281.1" y1="177.7" x2="311.5" y2="177.7"></line> <rect x="281.1" y="176.8" width="30.5" height="1.7"></rect> </g> <g> <line class="st15" x1="281.1" y1="187.8" x2="311.5" y2="187.8"></line> <rect x="281.1" y="187" width="30.5" height="1.7"></rect> </g> <g> <line class="st15" x1="281.1" y1="198" x2="311.5" y2="198"></line> <rect x="281.1" y="197.1" width="30.5" height="1.7"></rect> </g> <g> <line class="st15" x1="281.1" y1="208.1" x2="311.5" y2="208.1"></line> <rect x="281.1" y="207.3" width="30.5" height="1.7"></rect> </g> <g> <line class="st15" x1="281.1" y1="218.3" x2="311.5" y2="218.3"></line> <rect x="281.1" y="217.4" width="30.5" height="1.7"></rect> </g> </g> </g> <g> <rect x="606.9" y="393.6" class="st12" width="50.3" height="64.6"></rect> <path d="M658,459.1h-52v-66.4h52V459.1z M607.8,457.4h48.5v-62.9h-48.5V457.4z"></path> </g> <g> <g> <path class="st16" d="M153.7,158.8c-8.3,0-15,6.7-15,15h30C168.7,165.5,162,158.8,153.7,158.8z"></path> <path d="M169.6,174.6h-31.7v-0.9c0-8.7,7.1-15.9,15.9-15.9c8.7,0,15.9,7.1,15.9,15.9V174.6z M139.6,172.9h28.2 c-0.4-7.4-6.6-13.3-14.1-13.3C146.2,159.6,140,165.5,139.6,172.9z"></path> </g> <g> <circle class="st16" cx="153.7" cy="153.5" r="8.4"></circle> <path d="M153.7,162.9c-5.1,0-9.3-4.2-9.3-9.3c0-5.1,4.2-9.3,9.3-9.3c5.1,0,9.3,4.2,9.3,9.3C163,158.7,158.9,162.9,153.7,162.9z M153.7,146c-4.2,0-7.6,3.4-7.6,7.6c0,4.2,3.4,7.6,7.6,7.6c4.2,0,7.6-3.4,7.6-7.6C161.3,149.4,157.9,146,153.7,146z"></path> </g> <g> <path class="st16" d="M145.6,151.2c1.4,1.2,3.3,1.8,5.3,1.8c3.8,0,7.1-2.6,8.1-6.1c-1.4-1.2-3.3-1.8-5.3-1.8 C149.9,145.1,146.6,147.7,145.6,151.2z"></path> <path d="M150.9,153.9c-2.1,0-4.1-0.7-5.8-2l-0.4-0.4l0.2-0.6c1.1-4,4.8-6.7,8.9-6.7c2.1,0,4.1,0.7,5.8,2l0.4,0.4l-0.2,0.6 C158.7,151.1,155,153.9,150.9,153.9z M146.6,150.9c1.3,0.9,2.7,1.3,4.3,1.3c3.2,0,6-2,7.1-4.9c-1.3-0.9-2.7-1.3-4.3-1.3 C150.6,146,147.7,148,146.6,150.9z"></path> </g> </g> <g> <line class="st16" x1="119.5" y1="141.3" x2="132.7" y2="141.3"></line> <rect x="119.5" y="140.4" width="13.2" height="1.7"></rect> </g> <g> <line class="st16" x1="153.7" y1="173.9" x2="153.8" y2="216.1"></line> <rect x="132.7" y="194.1" transform="matrix(2.211406e-003 1 -1 2.211406e-003 348.4354 40.8084)" width="42.2" height="1.7"></rect> </g> <g> <line class="st16" x1="181" y1="160" x2="181.1" y2="187"></line> <rect x="167.5" y="172.6" transform="matrix(3.446648e-003 1 -1 3.446648e-003 353.9427 -8.1862)" width="27.1" height="1.7"></rect> </g> <g> <line class="st16" x1="126.1" y1="160.4" x2="126.2" y2="187.5"></line> <rect x="112.6" y="173.1" transform="matrix(3.446528e-003 1 -1 3.446528e-003 299.6205 47.2406)" width="27.1" height="1.7"></rect> </g> <g> <line class="st16" x1="125.1" y1="187" x2="182" y2="187"></line> <rect x="125.1" y="186.2" width="56.8" height="1.7"></rect> </g> <g> <line class="st16" x1="153.8" y1="215.2" x2="272.5" y2="215.2"></line> <rect x="153.8" y="214.4" width="118.7" height="1.7"></rect> </g> <g> <circle class="st16" cx="153.8" cy="214.8" r="3.9"></circle> <path d="M153.8,219.6c-2.6,0-4.8-2.1-4.8-4.8c0-2.6,2.1-4.8,4.8-4.8c2.6,0,4.8,2.1,4.8,4.8C158.6,217.5,156.4,219.6,153.8,219.6z M153.8,211.8c-1.7,0-3.1,1.4-3.1,3.1c0,1.7,1.4,3.1,3.1,3.1c1.7,0,3.1-1.4,3.1-3.1C156.9,213.2,155.5,211.8,153.8,211.8z"></path> </g> <g> <circle class="st16" cx="153.7" cy="187" r="5.1"></circle> <path d="M153.7,192.9c-3.3,0-5.9-2.7-5.9-5.9s2.7-5.9,5.9-5.9c3.3,0,5.9,2.7,5.9,5.9S157,192.9,153.7,192.9z M153.7,182.8 c-2.3,0-4.2,1.9-4.2,4.2c0,2.3,1.9,4.2,4.2,4.2c2.3,0,4.2-1.9,4.2-4.2C157.9,184.7,156,182.8,153.7,182.8z"></path> </g> <g> <path class="st16" d="M200.3,387h-7.2c-1.5-10.5-10.5-18.5-21.4-18.5c-12,0-21.7,9.7-21.7,21.7c0,12,9.7,21.7,21.7,21.7 c9.8,0,18.1-6.6,20.8-15.5h7.9c2.6,0,4.6-2.1,4.6-4.6C205,389.1,202.9,387,200.3,387z"></path> <path d="M171.7,412.7c-12.4,0-22.5-10.1-22.5-22.5c0-12.4,10.1-22.5,22.5-22.5c10.9,0,20.3,7.9,22.2,18.5h6.5c3,0,5.5,2.5,5.5,5.5 c0,3-2.5,5.5-5.5,5.5h-7.2C190.1,406.4,181.4,412.7,171.7,412.7z M171.7,369.4c-11.5,0-20.8,9.3-20.8,20.8 c0,11.5,9.3,20.8,20.8,20.8c9.1,0,17.4-6.1,19.9-14.9l0.2-0.6h8.5c2.1,0,3.8-1.7,3.8-3.8c0-2.1-1.7-3.8-3.8-3.8h-8l-0.1-0.7 C190.8,377,181.9,369.4,171.7,369.4z"></path> </g> <g> <path class="st5" d="M155.4,390.2c0,9,7.3,16.2,16.2,16.2c9,0,16.2-7.3,16.2-16.2c0-9-7.3-16.2-16.2-16.2 C162.7,373.9,155.4,381.2,155.4,390.2z"></path> <path d="M171.7,407.3c-9.4,0-17.1-7.7-17.1-17.1c0-9.4,7.7-17.1,17.1-17.1c9.4,0,17.1,7.7,17.1,17.1 C188.8,399.6,181.1,407.3,171.7,407.3z M171.7,374.8c-8.5,0-15.4,6.9-15.4,15.4c0,8.5,6.9,15.4,15.4,15.4 c8.5,0,15.4-6.9,15.4-15.4C187,381.7,180.1,374.8,171.7,374.8z"></path> </g> <g> <g> <path class="st16" d="M697.5,345.5c0,13.6-11,24.7-24.7,24.7c-13.6,0-24.7-11-24.7-24.7c0-13.6,11-24.7,24.7-24.7 C686.4,320.8,697.5,331.8,697.5,345.5z"></path> <path d="M672.8,371c-14.1,0-25.5-11.5-25.5-25.5c0-14.1,11.5-25.5,25.5-25.5c14.1,0,25.5,11.5,25.5,25.5 C698.3,359.6,686.9,371,672.8,371z M672.8,321.7c-13.1,0-23.8,10.7-23.8,23.8c0,13.1,10.7,23.8,23.8,23.8 c13.1,0,23.8-10.7,23.8-23.8C696.6,332.3,685.9,321.7,672.8,321.7z"></path> </g> <path class="st11" d="M656.8,356.6c0.4-0.2,0.5-0.7,0.3-1.1c-0.2-0.4-0.7-0.5-1.2-0.3c-0.4,0.2-0.5,0.7-0.3,1.2 C655.8,356.7,656.4,356.9,656.8,356.6z"></path> <path class="st11" d="M654.5,350.4c0.4-0.2,0.5-0.7,0.3-1.2c-0.2-0.4-0.7-0.5-1.2-0.3c-0.4,0.2-0.5,0.7-0.3,1.1 C653.6,350.5,654.1,350.7,654.5,350.4z"></path> <g> <path class="st12" d="M669.9,345.5c0,1.8,1.4,3.2,3.2,3.2c1.7,0,3.2-1.4,3.2-3.2c0-1.8-1.4-3.2-3.2-3.2 C671.4,342.3,669.9,343.7,669.9,345.5z"></path> <path d="M673.1,349.5c-2.2,0-4.1-1.8-4.1-4c0-2.2,1.8-4,4.1-4c2.2,0,4,1.8,4,4C677.2,347.7,675.4,349.5,673.1,349.5z M673.1,343.2c-1.3,0-2.3,1-2.3,2.3c0,1.3,1.1,2.3,2.3,2.3c1.3,0,2.3-1,2.3-2.3C675.5,344.2,674.4,343.2,673.1,343.2z"></path> </g> <path class="st11" d="M672,327.4c0,0.5,0.4,0.8,0.8,0.8c0.5,0,0.8-0.4,0.8-0.8s-0.4-0.8-0.8-0.8C672.4,326.5,672,326.9,672,327.4z "></path> <path class="st11" d="M678.5,328.2c-0.2,0.4,0.1,0.9,0.5,1.1c0.4,0.2,0.9-0.1,1.1-0.5c0.2-0.4-0.1-0.9-0.5-1.1 C679.2,327.6,678.7,327.8,678.5,328.2z"></path> <path class="st11" d="M684.4,331.3c-0.3,0.4-0.3,0.9,0.1,1.2c0.3,0.3,0.9,0.3,1.2-0.1c0.3-0.4,0.3-0.9-0.1-1.2 C685.2,330.9,684.7,330.9,684.4,331.3z"></path> <path class="st11" d="M688.9,336.1c-0.4,0.2-0.6,0.7-0.3,1.1c0.2,0.4,0.7,0.5,1.2,0.3c0.4-0.2,0.5-0.7,0.3-1.1 C689.8,336.1,689.3,335.9,688.9,336.1z"></path> <path class="st11" d="M691.4,342.3c-0.5,0.1-0.8,0.5-0.7,1c0.1,0.5,0.5,0.8,1,0.7c0.5-0.1,0.8-0.5,0.7-1 C692.3,342.5,691.9,342.2,691.4,342.3z"></path> <path class="st11" d="M691.7,348.9c-0.5-0.1-0.9,0.2-1,0.7c-0.1,0.5,0.2,0.9,0.7,1c0.5,0.1,0.9-0.2,1-0.7 C692.5,349.4,692.2,348.9,691.7,348.9z"></path> <path class="st11" d="M689.7,355.2c-0.4-0.2-0.9-0.1-1.2,0.3c-0.2,0.4-0.1,0.9,0.3,1.1c0.4,0.2,0.9,0.1,1.2-0.3 C690.3,355.9,690.1,355.4,689.7,355.2z"></path> <path class="st11" d="M685.7,360.4c-0.3-0.4-0.8-0.4-1.2-0.1c-0.4,0.3-0.4,0.8-0.1,1.2c0.3,0.4,0.8,0.4,1.2,0.1 C686,361.3,686,360.8,685.7,360.4z"></path> <path class="st11" d="M680.1,364c-0.2-0.4-0.7-0.7-1.1-0.5c-0.4,0.2-0.7,0.6-0.5,1.1c0.2,0.4,0.6,0.7,1.1,0.5 C680.1,364.9,680.3,364.4,680.1,364z"></path> <path class="st11" d="M673.7,365.4c0-0.5-0.4-0.8-0.8-0.8c-0.5,0-0.8,0.4-0.8,0.8c0,0.5,0.4,0.8,0.8,0.8 C673.3,366.3,673.7,365.9,673.7,365.4z"></path> <path class="st11" d="M667.1,364.6c0.2-0.4-0.1-0.9-0.5-1.1c-0.4-0.2-0.9,0.1-1.1,0.5s0.1,0.9,0.5,1.1 C666.5,365.2,666.9,365,667.1,364.6z"></path> <path class="st11" d="M661.2,361.5c0.3-0.4,0.3-0.9-0.1-1.2c-0.4-0.3-0.9-0.3-1.2,0.1c-0.3,0.4-0.3,0.9,0.1,1.2 C660.4,361.9,660.9,361.9,661.2,361.5z"></path> <path class="st11" d="M653.9,343.9c0.5,0.1,0.9-0.2,1-0.7c0.1-0.5-0.2-0.9-0.7-1c-0.4-0.1-0.9,0.2-1,0.7 C653.2,343.4,653.5,343.8,653.9,343.9z"></path> <path class="st11" d="M655.9,337.6c0.4,0.2,0.9,0.1,1.2-0.3c0.2-0.4,0.1-0.9-0.3-1.1c-0.4-0.2-0.9-0.1-1.1,0.3 C655.4,336.9,655.5,337.4,655.9,337.6z"></path> <path class="st11" d="M659.9,332.4c0.3,0.4,0.8,0.4,1.2,0.1c0.4-0.3,0.4-0.8,0.1-1.2c-0.3-0.4-0.8-0.4-1.2-0.1 C659.7,331.5,659.6,332,659.9,332.4z"></path> <path class="st11" d="M665.5,328.8c0.2,0.4,0.6,0.7,1.1,0.5c0.4-0.2,0.7-0.6,0.5-1.1c-0.2-0.4-0.6-0.7-1.1-0.5 C665.6,327.9,665.3,328.4,665.5,328.8z"></path> <path class="st11" d="M654.7,349.2c-0.2-0.2-0.5-0.4-0.8-0.3c-0.2,0-0.4,0.2-0.5,0.3H654.7z"></path> <g> <line class="st12" x1="673.1" y1="342.3" x2="673.1" y2="331"></line> <rect x="667.5" y="335.8" transform="matrix(6.898204e-004 1 -1 6.898204e-004 1009.2949 -336.7296)" width="11.3" height="1.7"></rect> </g> <g> <line class="st12" x1="685.8" y1="358.3" x2="675.3" y2="348"></line> <rect x="673.2" y="352.3" transform="matrix(0.7178 0.6963 -0.6963 0.7178 437.961 -374.179)" width="14.7" height="1.7"></rect> </g> </g> <g> <path class="st16" d="M170.5,382.5c0,1.6-1.3,2.9-2.9,2.9c-1.6,0-2.9-1.3-2.9-2.9c0-1.6,1.3-2.9,2.9-2.9 C169.2,379.6,170.5,380.9,170.5,382.5z"></path> <path d="M167.6,386.3c-2.1,0-3.8-1.7-3.8-3.7c0-2.1,1.7-3.8,3.8-3.8c2.1,0,3.8,1.7,3.8,3.8C171.3,384.6,169.7,386.3,167.6,386.3z M167.6,380.5c-1.1,0-2,0.9-2,2c0,1.1,0.9,2,2,2c1.1,0,2-0.9,2-2C169.6,381.4,168.7,380.5,167.6,380.5z"></path> </g> <g> <circle class="st16" cx="178.6" cy="384" r="3.3"></circle> <path d="M178.6,388.1c-2.3,0-4.1-1.9-4.1-4.1s1.9-4.1,4.1-4.1c2.3,0,4.1,1.9,4.1,4.1S180.8,388.1,178.6,388.1z M178.6,381.6 c-1.3,0-2.4,1.1-2.4,2.4c0,1.3,1.1,2.4,2.4,2.4c1.3,0,2.4-1.1,2.4-2.4C181,382.7,179.9,381.6,178.6,381.6z"></path> </g> <g> <circle class="st16" cx="173.7" cy="388.8" r="2"></circle> <path d="M173.7,391.7c-1.6,0-2.9-1.3-2.9-2.9s1.3-2.9,2.9-2.9s2.9,1.3,2.9,2.9S175.3,391.7,173.7,391.7z M173.7,387.6 c-0.6,0-1.2,0.5-1.2,1.2c0,0.6,0.5,1.2,1.2,1.2c0.6,0,1.2-0.5,1.2-1.2C174.9,388.2,174.3,387.6,173.7,387.6z"></path> </g> <g> <circle class="st16" cx="174.4" cy="379.7" r="2.8"></circle> <path d="M174.5,383.4c-2,0-3.6-1.6-3.6-3.6s1.6-3.6,3.6-3.6c2,0,3.6,1.6,3.6,3.6S176.5,383.4,174.5,383.4z M174.5,377.8 c-1.1,0-1.9,0.9-1.9,1.9s0.9,1.9,1.9,1.9c1.1,0,1.9-0.9,1.9-1.9S175.5,377.8,174.5,377.8z"></path> </g> <g> <line class="st12" x1="630.5" y1="490.7" x2="650" y2="490.7"></line> <rect x="630.5" y="489.9" width="19.5" height="1.7"></rect> </g> <g> <path class="st12" d="M653.2,291.4v-48.5c-5.5-1.7-9.4-6.8-9.4-12.8c0-4.9,2.7-9.3,6.7-11.6v10.6l6.7,3.9l6.7-3.9l0-10.6 c4,2.3,6.7,6.6,6.7,11.6c0,6-4,11.1-9.5,12.8v48.5c3.7,1.6,6.3,5.2,6.3,9.4c0,3.8-2,7-5.1,8.8l0-8.1l-5.1-3l-5.1,3l0,8.1 c-3-1.8-5.1-5-5.1-8.8C647,296.6,649.6,293,653.2,291.4z"></path> <path d="M661.4,311.1l0-9.1l-4.3-2.5l-4.3,2.5l0,9.1l-1.3-0.8c-3.4-2-5.5-5.6-5.5-9.6c0-4.3,2.4-8.1,6.2-10v-47.3 c-5.7-2-9.4-7.3-9.4-13.4c0-5,2.7-9.8,7.1-12.3l1.3-0.8v11.6l5.9,3.4l5.9-3.4l0-11.6l1.3,0.8c4.4,2.5,7.1,7.3,7.1,12.3 c0,6.1-3.8,11.4-9.5,13.4v47.3c3.8,1.9,6.3,5.7,6.3,10c0,3.9-2.1,7.6-5.5,9.6L661.4,311.1z M657.2,297.6l6,3.5l0,6.9 c2.1-1.8,3.3-4.3,3.3-7.2c0-3.8-2.2-7.1-5.7-8.6l-0.5-0.2v-49.7l0.6-0.2c5.3-1.6,8.8-6.4,8.8-12c0-3.9-1.9-7.6-4.9-10l0,9.5 l-7.6,4.4l-7.6-4.4v-9.5c-3.1,2.4-4.9,6.1-4.9,10c0,5.5,3.5,10.3,8.8,12l0.6,0.2V292l-0.5,0.2c-3.5,1.5-5.7,4.9-5.7,8.6 c0,2.8,1.3,5.4,3.3,7.2l0-6.9L657.2,297.6z"></path> </g> <g> <g> <polygon class="st12" points="677.9,156.7 677.9,194.1 684.1,194.1 684.1,204.3 694.2,194.1 736.8,194.1 736.8,156.7 "></polygon> <path d="M683.3,206.4v-11.4h-6.2v-39h60.6v39h-43.1L683.3,206.4z M678.8,193.2h6.2v9l8.9-9h42.1v-35.6h-57.2V193.2z"></path> </g> <g> <line class="st12" x1="688.6" y1="166.9" x2="726.1" y2="166.9"></line> <rect x="688.6" y="166.1" width="37.5" height="1.7"></rect> </g> <g> <line class="st12" x1="688.6" y1="175.1" x2="726.1" y2="175.1"></line> <rect x="688.6" y="174.3" width="37.5" height="1.7"></rect> </g> <g> <line class="st12" x1="688.6" y1="183.4" x2="726.1" y2="183.4"></line> <rect x="688.6" y="182.5" width="37.5" height="1.7"></rect> </g> </g> <g> <polygon class="st16" points="254.4,326.8 255.2,333.3 255.2,410.2 259.2,410.2 259.2,333.3 260,326.8 "></polygon> <path d="M260.1,411h-5.7v-77.7l-0.9-7.4h7.6l-0.9,7.4V411z M256.1,409.3h2.2v-76.1l0.7-5.6h-3.7l0.7,5.6V409.3z"></path> </g> <g> <path class="st5" d="M261.4,411c0,2.3-1.9,4.2-4.2,4.2l0,0c-2.4,0-4.2-1.9-4.2-4.2v-34c0-2.3,1.9-4.2,4.2-4.2l0,0 c2.3,0,4.2,1.9,4.2,4.2V411z"></path> <path d="M257.2,416.1c-2.8,0-5.1-2.3-5.1-5.1v-34c0-2.8,2.3-5.1,5.1-5.1c2.8,0,5.1,2.3,5.1,5.1v34 C262.3,413.8,260,416.1,257.2,416.1z M257.2,373.7c-1.9,0-3.4,1.5-3.4,3.4v34c0,1.9,1.5,3.4,3.4,3.4c1.9,0,3.4-1.5,3.4-3.4v-34 C260.6,375.2,259.1,373.7,257.2,373.7z"></path> </g> <g> <path class="st16" d="M264.7,375.1c0,1.6-1.3,3-3,3h-9c-1.6,0-3-1.3-3-3l0,0c0-1.6,1.3-3,3-3h9 C263.3,372.1,264.7,373.4,264.7,375.1L264.7,375.1z"></path> <path d="M261.7,378.9h-9c-2.1,0-3.8-1.7-3.8-3.8c0-2.1,1.7-3.8,3.8-3.8h9c2.1,0,3.8,1.7,3.8,3.8 C265.5,377.2,263.8,378.9,261.7,378.9z M252.7,372.9c-1.2,0-2.1,1-2.1,2.1c0,1.2,0.9,2.1,2.1,2.1h9c1.2,0,2.1-0.9,2.1-2.1 c0-1.2-1-2.1-2.1-2.1H252.7z"></path> </g> <rect x="253" y="378" class="st28" width="8.5" height="1.9"></rect> <g> <g> <path class="st12" d="M206.6,434c-6.1,0-11,4.9-11,11v27.1h21.9V445C217.5,438.9,212.6,434,206.6,434z"></path> <path d="M218.4,472.9h-23.7V445c0-6.5,5.3-11.8,11.8-11.8s11.8,5.3,11.8,11.8V472.9z M196.4,471.2h20.2V445 c0-5.6-4.5-10.1-10.1-10.1s-10.1,4.5-10.1,10.1V471.2z"></path> </g> <g> <linearGradient id="SVGID_14_" gradientUnits="userSpaceOnUse" x1="65.2749" y1="570.8867" x2="711.8805" y2="128.1909"> <stop offset="0" style="stop-color:#E65A49"></stop> <stop offset="1" style="stop-color:#F89C2B"></stop> </linearGradient> <path class="st20" d="M223.6,474.2c0,9.4-7.6,17-17,17c-9.4,0-17-7.6-17-17c0-9.4,7.6-17,17-17 C216,457.1,223.6,464.8,223.6,474.2z"></path> <path d="M206.6,492c-9.9,0-17.9-8-17.9-17.9c0-9.9,8-17.9,17.9-17.9c9.9,0,17.9,8,17.9,17.9C224.4,484,216.4,492,206.6,492z M206.6,458c-8.9,0-16.2,7.2-16.2,16.2c0,8.9,7.2,16.2,16.2,16.2c8.9,0,16.2-7.2,16.2-16.2C222.7,465.3,215.5,458,206.6,458z"></path> </g> <g> <path class="st12" d="M209.6,471.3c0-1.7-1.4-3.1-3.1-3.1c-1.7,0-3.1,1.4-3.1,3.1c0,1,0.5,1.9,1.3,2.5v6.2h3.6v-6.2 C209.1,473.3,209.6,472.4,209.6,471.3z"></path> <path d="M209.2,480.9h-5.3v-6.7c-0.8-0.7-1.3-1.8-1.3-2.9c0-2.2,1.8-3.9,3.9-3.9c2.2,0,3.9,1.8,3.9,3.9c0,1.1-0.5,2.2-1.3,2.9 V480.9z M205.6,479.2h1.8v-5.8l0.4-0.3c0.6-0.4,0.9-1.1,0.9-1.8c0-1.2-1-2.2-2.2-2.2c-1.2,0-2.2,1-2.2,2.2c0,0.7,0.3,1.4,0.9,1.8 l0.4,0.3V479.2z"></path> </g> </g> <g> <path class="st1" d="M406.1,277.4h-23l-4.6,12.3c-0.8,2.1-2.8,3.3-4.9,3.3c-0.7,0-1.2-0.1-1.8-0.3c-2.7-1-4.1-4.1-3.1-6.8 l20.9-55.7c0.9-2.1,2.9-3.4,5-3.3c2.2-0.1,4.2,1.2,5,3.3l20.9,55.7c0.9,2.7-0.4,5.8-3.1,6.8c-0.5,0.2-1.1,0.3-1.8,0.3 c-2.1,0-4.1-1.2-4.8-3.3L406.1,277.4z M402.2,267l-7.7-20.3l-7.7,20.3H402.2z"></path> </g> <g> <path class="st1" d="M638.6,433.5h-12.9l-2.6,6.9c-0.5,1.2-1.6,1.9-2.8,1.9c-0.4,0-0.7-0.1-1-0.2c-1.5-0.6-2.3-2.3-1.7-3.8 l11.7-31.2c0.5-1.2,1.6-1.9,2.8-1.9c1.2-0.1,2.3,0.7,2.8,1.9l11.7,31.2c0.5,1.5-0.2,3.2-1.7,3.8c-0.3,0.1-0.6,0.2-1,0.2 c-1.2,0-2.3-0.7-2.7-1.9L638.6,433.5z M636.5,427.7l-4.3-11.4l-4.3,11.4H636.5z"></path> </g> <g> <g> <path class="st29" d="M373.7,293.3c-3.5,0-6.3-2.8-6.3-6.3c0-3.5,2.8-6.3,6.3-6.3c3.5,0,6.3,2.8,6.3,6.3 C380,290.5,377.2,293.3,373.7,293.3z M373.7,281.3c-3.1,0-5.7,2.5-5.7,5.7c0,3.1,2.5,5.7,5.7,5.7c3.1,0,5.7-2.5,5.7-5.7 C379.4,283.9,376.8,281.3,373.7,281.3z"></path> <path class="st29" d="M373.7,293.6c-3.6,0-6.6-3-6.6-6.6c0-3.6,3-6.6,6.6-6.6c3.6,0,6.6,3,6.6,6.6 C380.3,290.6,377.4,293.6,373.7,293.6z M373.7,281.7c-2.9,0-5.3,2.4-5.3,5.3c0,2.9,2.4,5.3,5.3,5.3c2.9,0,5.3-2.4,5.3-5.3 C379,284.1,376.7,281.7,373.7,281.7z"></path> </g> <g> <path class="st29" d="M415.8,293.3c-3.5,0-6.3-2.8-6.3-6.3c0-3.5,2.8-6.3,6.3-6.3c3.5,0,6.3,2.8,6.3,6.3 C422,290.5,419.2,293.3,415.8,293.3z M415.8,281.3c-3.1,0-5.7,2.5-5.7,5.7c0,3.1,2.5,5.7,5.7,5.7c3.1,0,5.7-2.5,5.7-5.7 C421.4,283.9,418.9,281.3,415.8,281.3z"></path> <path class="st29" d="M415.8,293.6c-3.6,0-6.6-3-6.6-6.6c0-3.6,3-6.6,6.6-6.6c3.6,0,6.6,3,6.6,6.6 C422.4,290.6,419.4,293.6,415.8,293.6z M415.8,281.7c-2.9,0-5.3,2.4-5.3,5.3c0,2.9,2.4,5.3,5.3,5.3c2.9,0,5.3-2.4,5.3-5.3 C421.1,284.1,418.7,281.7,415.8,281.7z"></path> </g> <g> <path class="st29" d="M394.6,239.1c-3.5,0-6.3-2.8-6.3-6.3c0-3.5,2.8-6.3,6.3-6.3s6.3,2.8,6.3,6.3 C400.9,236.3,398,239.1,394.6,239.1z M394.6,227.2c-3.1,0-5.7,2.5-5.7,5.7c0,3.1,2.5,5.7,5.7,5.7c3.1,0,5.7-2.5,5.7-5.7 C400.2,229.7,397.7,227.2,394.6,227.2z"></path> <path class="st29" d="M394.6,239.5c-3.6,0-6.6-3-6.6-6.6c0-3.6,3-6.6,6.6-6.6c3.6,0,6.6,3,6.6,6.6 C401.2,236.5,398.2,239.5,394.6,239.5z M394.6,227.5c-2.9,0-5.3,2.4-5.3,5.3c0,2.9,2.4,5.3,5.3,5.3c2.9,0,5.3-2.4,5.3-5.3 C399.9,229.9,397.5,227.5,394.6,227.5z"></path> </g> <g> <rect x="366.1" y="277.3" class="st29" width="54.7" height="0.9"></rect> <path class="st29" d="M421.1,278.6h-55.3V277h55.3V278.6z M366.5,277.9h54v-0.2h-54V277.9z"></path> </g> <g> <rect x="366.1" y="266.1" class="st29" width="54.7" height="0.9"></rect> <path class="st29" d="M421.1,267.4h-55.3v-1.6h55.3V267.4z M366.5,266.7h54v-0.2h-54V266.7z"></path> </g> <g> <rect x="366.1" y="293.1" class="st29" width="55.1" height="0.9"></rect> <path class="st29" d="M421.6,294.4h-55.8v-1.6h55.8V294.4z M366.5,293.7h54.4v-0.2h-54.4V293.7z"></path> </g> <g> <rect x="366.3" y="225.5" class="st29" width="55.1" height="0.9"></rect> <path class="st29" d="M421.8,226.8H366v-1.6h55.8V226.8z M366.7,226.1h54.5v-0.2h-54.5V226.1z"></path> </g> <g> <rect x="420.3" y="225.6" class="st29" width="0.9" height="68"></rect> <path class="st29" d="M421.6,293.9H420v-68.7h1.6V293.9z M420.7,293.2h0.2v-67.3h-0.2V293.2z"></path> </g> <g> <rect x="366.1" y="225.6" class="st29" width="0.9" height="68"></rect> <path class="st29" d="M367.4,293.9h-1.6v-68.7h1.6V293.9z M366.5,293.2h0.2v-67.3h-0.2V293.2z"></path> </g> <g> <path class="st29" d="M371.2,231.2h-9.4v-9.4h9.4V231.2z M362.4,230.5h8.1v-8.1h-8.1V230.5z"></path> <path class="st29" d="M371.5,231.5h-10v-10h10V231.5z M362.8,230.2h7.4v-7.4h-7.4V230.2z"></path> </g> <g> <path class="st29" d="M371.2,297.8h-9.4v-9.4h9.4V297.8z M362.4,297.2h8.1V289h-8.1V297.2z"></path> <path class="st29" d="M371.5,298.1h-10v-10h10V298.1z M362.8,296.8h7.4v-7.4h-7.4V296.8z"></path> </g> <g> <path class="st29" d="M425.7,298.2h-9.4v-9.4h9.4V298.2z M417,297.6h8.1v-8.1H417V297.6z"></path> <path class="st29" d="M426,298.6h-10v-10h10V298.6z M417.3,297.3h7.4v-7.4h-7.4V297.3z"></path> </g> <g> <path class="st29" d="M425.7,230.7h-9.4v-9.4h9.4V230.7z M417,230.1h8.1v-8.1H417V230.1z"></path> <path class="st29" d="M426,231h-10v-10h10V231z M417.3,229.7h7.4v-7.4h-7.4V229.7z"></path> </g> <g> <path class="st29" d="M371.2,264.5h-9.4v-9.4h9.4V264.5z M362.4,263.9h8.1v-8.1h-8.1V263.9z"></path> <path class="st29" d="M371.5,264.8h-10v-10h10V264.8z M362.8,263.5h7.4v-7.4h-7.4V263.5z"></path> </g> <g> <path class="st29" d="M398.7,230.7h-9.4v-9.4h9.4V230.7z M390,230.1h8.1v-8.1H390V230.1z"></path> <path class="st29" d="M399.1,231h-10v-10h10V231z M390.3,229.7h7.4v-7.4h-7.4V229.7z"></path> </g> <g> <path class="st29" d="M425.7,264.5h-9.4v-9.4h9.4V264.5z M417,263.9h8.1v-8.1H417V263.9z"></path> <path class="st29" d="M426,264.8h-10v-10h10V264.8z M417.3,263.5h7.4v-7.4h-7.4V263.5z"></path> </g> <g> <path class="st29" d="M398.2,298h-9.4v-9.4h9.4V298z M389.5,297.4h8.1v-8.1h-8.1V297.4z"></path> <path class="st29" d="M398.6,298.4h-10v-10h10V298.4z M389.8,297.1h7.4v-7.4h-7.4V297.1z"></path> </g> </g> </g> </svg> 