<?xml version="1.0" encoding="UTF-8"?> <!-- Generator: Adobe Illustrator 16.0.0, SVG Export Plug-In . SVG Version: 6.00 Build 0) --> <svg xmlns="http://www.w3.org/2000/svg" xmlns:xlink="http://www.w3.org/1999/xlink" id="Layer_1" x="0px" y="0px" width="800px" height="378px" viewBox="0 0 800 378" style="enable-background:new 0 0 800 378;" xml:space="preserve"> <style type="text/css"> <![CDATA[ .st0{fill:#E6E7E8;} .st1{fill:#F5F6F7;} .st2{fill:url(#SVGID_100_);} .st3{fill:url(#SVGID_101_);} .st4{fill:url(#SVGID_102_);} .st5{fill:url(#SVGID_103_);} .st6{fill:url(#SVGID_104_);} .st7{fill:url(#SVGID_105_);} .st8{fill:url(#SVGID_106_);} .st9{fill:url(#SVGID_107_);} .st10{fill:url(#SVGID_108_);} .st11{fill:url(#SVGID_109_);} .st12{fill:url(#SVGID_110_);} .st13{fill:url(#SVGID_111_);} .st14{fill:url(#SVGID_112_);} .st15{fill:url(#SVGID_113_);} .st16{fill:url(#SVGID_114_);} .st17{fill:url(#SVGID_115_);} .st18{fill:url(#SVGID_116_);} .st19{fill:url(#SVGID_117_);} .st20{fill:url(#SVGID_118_);} .st21{fill:url(#SVGID_119_);} .st22{fill:url(#SVGID_120_);} .st23{fill:url(#SVGID_121_);} .st24{fill:url(#SVGID_122_);} .st25{fill:url(#SVGID_123_);} .st26{fill:url(#SVGID_124_);} .st27{fill:url(#SVGID_125_);} .st28{fill:url(#SVGID_126_);} .st29{fill:url(#SVGID_127_);} .st30{fill:url(#SVGID_128_);} .st31{fill:url(#SVGID_129_);} .st32{fill:url(#SVGID_130_);} .st33{fill:url(#SVGID_131_);} .st34{fill:url(#SVGID_132_);} .st35{fill:url(#SVGID_133_);} .st36{fill:url(#SVGID_134_);} .st37{fill:url(#SVGID_135_);} .st38{fill:url(#SVGID_136_);} .st39{fill:url(#SVGID_137_);} .st40{fill:url(#SVGID_138_);} .st41{fill:url(#SVGID_139_);} .st42{fill:url(#SVGID_140_);} .st43{fill:url(#SVGID_141_);} .st44{fill:url(#SVGID_142_);} .st45{fill:url(#SVGID_143_);} .st46{fill:url(#SVGID_144_);} .st47{fill:#FFFFFF;stroke:#3A495E;stroke-width:3;stroke-linecap:round;stroke-linejoin:round;stroke-miterlimit:10;} .st48{fill:url(#SVGID_1_);} .st49{fill:url(#SVGID_2_);} .st50{fill:url(#SVGID_3_);} .st51{fill:url(#SVGID_4_);} .st52{fill:url(#SVGID_5_);} .st53{fill:url(#SVGID_6_);} .st54{fill:url(#SVGID_7_);} .st55{fill:url(#SVGID_8_);} .st56{fill:url(#SVGID_9_);} .st57{fill:none;} .st58{fill:url(#SVGID_10_);} .st59{fill:url(#SVGID_11_);} .st60{fill:url(#SVGID_12_);} .st61{fill:url(#SVGID_13_);} .st62{fill:url(#SVGID_14_);} .st63{fill:url(#SVGID_15_);} .st64{fill:url(#SVGID_16_);} .st65{fill:url(#SVGID_17_);} .st66{fill:url(#SVGID_18_);} .st67{fill:url(#SVGID_19_);} .st68{fill:url(#SVGID_20_);} .st69{fill:url(#SVGID_21_);} .st70{fill:url(#SVGID_22_);} .st71{fill:url(#SVGID_23_);} .st72{fill:url(#SVGID_24_);} .st73{fill:url(#SVGID_25_);} .st74{fill:url(#SVGID_26_);} .st75{fill:url(#SVGID_27_);} .st76{fill:url(#SVGID_28_);} .st77{fill:url(#SVGID_29_);} .st78{fill:url(#SVGID_30_);} .st79{fill:url(#SVGID_31_);} .st80{fill:url(#SVGID_32_);} .st81{fill:url(#SVGID_33_);} .st82{fill:url(#SVGID_34_);} .st83{fill:url(#SVGID_35_);} .st84{fill:url(#SVGID_36_);} .st85{fill:url(#SVGID_37_);} .st86{fill:url(#SVGID_38_);} .st87{fill:url(#SVGID_39_);} .st88{fill:url(#SVGID_40_);} .st89{fill:url(#SVGID_41_);} .st90{fill:url(#SVGID_42_);} .st91{fill:url(#SVGID_43_);} .st92{fill:url(#SVGID_44_);} .st93{fill:url(#SVGID_45_);} .st94{fill:url(#SVGID_46_);} .st95{fill:url(#SVGID_47_);} .st96{fill:url(#SVGID_48_);} .st97{fill:url(#SVGID_49_);} .st98{fill:url(#SVGID_50_);} .st99{fill:url(#SVGID_51_);} .st100{fill:url(#SVGID_52_);} .st101{fill:url(#SVGID_53_);} .st102{fill:url(#SVGID_54_);} .st103{fill:url(#SVGID_55_);} .st104{fill:url(#SVGID_56_);} .st105{fill:url(#SVGID_57_);} .st106{fill:url(#SVGID_58_);} .st107{fill:url(#SVGID_59_);} .st108{fill:url(#SVGID_60_);} .st109{fill:url(#SVGID_61_);} .st110{fill:url(#SVGID_62_);} .st111{fill:url(#SVGID_63_);} .st112{fill:url(#SVGID_64_);} .st113{fill:url(#SVGID_65_);} .st114{fill:url(#SVGID_66_);} .st115{fill:url(#SVGID_67_);} .st116{fill:url(#SVGID_68_);} .st117{fill:url(#SVGID_69_);} .st118{fill:url(#SVGID_70_);} .st119{fill:url(#SVGID_71_);} .st120{fill:url(#SVGID_72_);} .st121{fill:url(#SVGID_73_);} .st122{fill:url(#SVGID_74_);} .st123{fill:url(#SVGID_75_);} .st124{fill:url(#SVGID_76_);} .st125{fill:url(#SVGID_77_);} .st126{fill:url(#SVGID_78_);} .st127{fill:url(#SVGID_79_);} .st128{fill:url(#SVGID_80_);} .st129{fill:url(#SVGID_81_);} .st130{fill:url(#SVGID_82_);} .st131{fill:url(#SVGID_83_);} .st132{fill:url(#SVGID_84_);} .st133{fill:url(#SVGID_85_);} .st134{fill:url(#SVGID_86_);} .st135{fill:url(#SVGID_87_);} .st136{fill:url(#SVGID_88_);} .st137{fill:url(#SVGID_89_);} .st138{fill:url(#SVGID_90_);} .st139{fill:url(#SVGID_91_);} .st140{fill:url(#SVGID_92_);} .st141{fill:url(#SVGID_93_);} .st142{fill:url(#SVGID_94_);} .st143{fill:url(#SVGID_95_);} .st144{fill:url(#SVGID_96_);} .st145{fill:url(#SVGID_97_);} .st146{fill:url(#SVGID_98_);} .st147{fill:url(#SVGID_99_);} ]]> </style> <linearGradient id="SVGID_1_" gradientUnits="userSpaceOnUse" x1="399.9497" y1="365.2314" x2="399.9497" y2="34.4724" gradientTransform="matrix(1 0 0 -1 94 383)"> <stop offset="0" style="stop-color:#E65A49"></stop> <stop offset="1" style="stop-color:#F89C2B"></stop> </linearGradient> <path class="st48" d="M494,157.2c-1.3,0-2.5-0.2-3.7-0.7c-2.5-1-4.6-2.9-5.7-5.4c-1.1-2.5-1.2-5.3-0.2-7.8c1.5-3.9,5.3-6.6,9.5-6.6 c1.3,0,2.5,0.2,3.7,0.7c2.5,1,4.6,2.9,5.7,5.4c1.1,2.5,1.2,5.3,0.2,7.8C502,154.5,498.2,157.2,494,157.2z M494,140.6 c-2.6,0-5,1.6-5.9,4c-0.6,1.6-0.6,3.3,0.1,4.8s1.9,2.7,3.5,3.3c0.7,0.3,1.5,0.4,2.3,0.4c2.6,0,5-1.6,5.9-4c1.2-3.2-0.4-6.9-3.6-8.1 C495.5,140.8,494.8,140.6,494,140.6z"></path> <linearGradient id="SVGID_2_" gradientUnits="userSpaceOnUse" x1="622.8984" y1="365.2285" x2="622.8984" y2="34.4739" gradientTransform="matrix(1 0 0 -1 94 383)"> <stop offset="0" style="stop-color:#E65A49"></stop> <stop offset="1" style="stop-color:#F89C2B"></stop> </linearGradient> <path class="st49" d="M722.2,234.3h-10.6c-1.1,0-2-0.9-2-2v-19.9c0-1.1,0.9-2,2-2h10.6c1.1,0,2,0.9,2,2v19.9 C724.2,233.5,723.3,234.3,722.2,234.3z M713.6,230.4h6.6v-16h-6.6V230.4z"></path> <linearGradient id="SVGID_3_" gradientUnits="userSpaceOnUse" x1="593.5996" y1="365.2285" x2="593.5996" y2="34.4739" gradientTransform="matrix(1 0 0 -1 94 383)"> <stop offset="0" style="stop-color:#E65A49"></stop> <stop offset="1" style="stop-color:#F89C2B"></stop> </linearGradient> <path class="st50" d="M692.9,234.3h-10.6c-1.1,0-2-0.9-2-2v-19.9c0-1.1,0.9-2,2-2h10.6c1.1,0,2,0.9,2,2v19.9 C694.9,233.5,694,234.3,692.9,234.3z M684.3,230.4h6.6v-16h-6.6V230.4z"></path> <linearGradient id="SVGID_4_" gradientUnits="userSpaceOnUse" x1="651.6992" y1="365.2285" x2="651.6992" y2="34.4739" gradientTransform="matrix(1 0 0 -1 94 383)"> <stop offset="0" style="stop-color:#E65A49"></stop> <stop offset="1" style="stop-color:#F89C2B"></stop> </linearGradient> <path class="st51" d="M750.4,234.3H741c-1.1,0-2-0.9-2-2v-19.9c0-1.1,0.9-2,2-2h9.4c1.1,0,2,0.9,2,2v19.9 C752.3,233.5,751.4,234.3,750.4,234.3z M742.9,230.4h5.5v-16h-5.5V230.4z"></path> <linearGradient id="SVGID_5_" gradientUnits="userSpaceOnUse" x1="628.8994" y1="365.2539" x2="628.8994" y2="34.452" gradientTransform="matrix(1 0 0 -1 94 383)"> <stop offset="0" style="stop-color:#E65A49"></stop> <stop offset="1" style="stop-color:#F89C2B"></stop> </linearGradient> <path class="st52" d="M785.9,199.2c-5.2,0-7.8-2.1-10.2-3.9c-2.1-1.7-4-3.1-7.8-3.1c-3.8,0-5.7,1.4-7.8,3.1c-2.4,1.8-5,3.9-10.2,3.9 c-5.2,0-7.8-2.1-10.2-3.9c-2.1-1.7-4-3.1-7.8-3.1c-3.8,0-5.7,1.4-7.8,3.1c-2.4,1.8-5,3.9-10.2,3.9c-5.2,0-7.8-2.1-10.2-3.9 c-2.1-1.7-4-3.1-7.8-3.1c-3.8,0-5.7,1.4-7.8,3.1c-2.4,1.8-5,3.9-10.2,3.9c-5.2,0-7.8-2.1-10.2-3.9c-2.1-1.7-4-3.1-7.8-3.1 c-1.1,0-2-0.9-2-2c0-1.1,0.9-2,2-2c5.2,0,7.8,2.1,10.2,3.9c2.1,1.7,4,3.1,7.8,3.1c3.8,0,5.7-1.4,7.8-3.1c2.4-1.8,5-3.9,10.2-3.9 c5.2,0,7.8,2.1,10.2,3.9c2.1,1.7,4,3.1,7.8,3.1c3.8,0,5.7-1.4,7.8-3.1c2.4-1.8,5-3.9,10.2-3.9c5.2,0,7.8,2.1,10.2,3.9 c2.1,1.7,4,3.1,7.8,3.1c3.8,0,5.7-1.4,7.8-3.1c2.4-1.8,5-3.9,10.2-3.9c5.2,0,7.8,2.1,10.2,3.9c2.1,1.7,4,3.1,7.8,3.1 c1.1,0,2,0.9,2,2C787.9,198.3,787,199.2,785.9,199.2z"></path> <linearGradient id="SVGID_6_" gradientUnits="userSpaceOnUse" x1="309.3999" y1="360.0303" x2="309.3999" y2="29.2705" gradientTransform="matrix(1 0 0 -1 94 383)"> <stop offset="0" style="stop-color:#E65A49"></stop> <stop offset="1" style="stop-color:#F89C2B"></stop> </linearGradient> <path class="st53" d="M403.4,362c-91.3,0-165.6-74.3-165.6-165.6c0-91.3,74.3-165.6,165.6-165.6c91.3,0,165.6,74.3,165.6,165.6 C569,287.7,494.7,362,403.4,362z M403.4,34.8c-89.1,0-161.7,72.5-161.7,161.7c0,89.1,72.5,161.7,161.7,161.7 c89.1,0,161.7-72.5,161.7-161.7C565,107.3,492.5,34.8,403.4,34.8z"></path> <linearGradient id="SVGID_7_" gradientUnits="userSpaceOnUse" x1="95.2339" y1="360.0537" x2="95.2339" y2="29.2592" gradientTransform="matrix(1 0 0 -1 94 383)"> <stop offset="0" style="stop-color:#E65A49"></stop> <stop offset="1" style="stop-color:#F89C2B"></stop> </linearGradient> <path class="st54" d="M190.9,236.1c-0.4,0-0.8-0.1-1.2-0.4c-1-0.8-2.1-1.5-3.2-2.2c-0.9-0.6-1.2-1.8-0.6-2.7 c0.6-0.9,1.8-1.2,2.7-0.6c1.2,0.7,2.4,1.6,3.5,2.4c0.9,0.7,1,1.9,0.4,2.7C192.1,235.8,191.5,236.1,190.9,236.1z"></path> <linearGradient id="SVGID_8_" gradientUnits="userSpaceOnUse" x1="71.3003" y1="360.0303" x2="71.3003" y2="29.2714" gradientTransform="matrix(1 0 0 -1 94 383)"> <stop offset="0" style="stop-color:#E65A49"></stop> <stop offset="1" style="stop-color:#F89C2B"></stop> </linearGradient> <path class="st55" d="M161.2,312.2c-0.1,0-0.1,0-0.2,0c-2.9-0.3-5.9-0.9-8.7-1.7c-1-0.3-1.6-1.4-1.3-2.4s1.4-1.6,2.4-1.3 c2.6,0.8,5.2,1.3,7.9,1.6c1.1,0.1,1.9,1.1,1.8,2.1C163.1,311.4,162.2,312.2,161.2,312.2z M169.7,312.1c-1,0-1.8-0.8-1.9-1.8 c-0.1-1.1,0.7-2,1.8-2.2c2.7-0.3,5.3-0.8,7.9-1.6c1-0.3,2.1,0.3,2.5,1.3c0.3,1-0.3,2.1-1.3,2.5c-2.8,0.9-5.7,1.5-8.7,1.8 C169.8,312.1,169.7,312.1,169.7,312.1z M145.1,307.3c-0.3,0-0.6-0.1-0.9-0.2c-2.6-1.4-5-3.1-7.3-4.9c-0.8-0.7-0.9-1.9-0.3-2.8 c0.6-0.9,1.9-0.9,2.8-0.3c2.1,1.7,4.3,3.2,6.7,4.5c1,0.5,1.3,1.7,0.8,2.7C146.5,306.9,145.8,307.3,145.1,307.3z M185.7,307.1 c-0.7,0-1.4-0.4-1.7-1c-0.5-0.9-0.2-2.1,0.8-2.7c2.3-1.3,4.6-2.8,6.6-4.6c0.8-0.7,2.1-0.6,2.8,0.2c0.7,0.8,0.6,2.1-0.2,2.8 c-2.3,1.9-4.7,3.6-7.3,5C186.3,307.1,186,307.1,185.7,307.1z M132.2,296.6c-0.6,0-1.1-0.3-1.5-0.7c-1.9-2.3-3.5-4.8-4.8-7.4 c-0.5-1-0.1-2.1,0.8-2.6c1-0.5,2.1-0.1,2.6,0.8c1.2,2.4,2.7,4.6,4.4,6.7c0.7,0.8,0.5,2.1-0.3,2.8 C133.1,296.4,132.7,296.6,132.2,296.6z M198.5,296.3c-0.4,0-0.9-0.1-1.2-0.4c-0.8-0.7-1-1.9-0.3-2.8c1.7-2.1,3.1-4.4,4.4-6.8 c0.5-1,1.7-1.3,2.6-0.9c0.9,0.4,1.3,1.7,0.9,2.6c-1.3,2.6-2.9,5.1-4.8,7.4C199.7,296,199.1,296.3,198.5,296.3z M124.5,281.7 c-0.9,0-1.6-0.6-1.9-1.4c-0.8-2.8-1.3-5.7-1.6-8.7c-0.1-1.1,0.7-2,1.8-2.1c1.1-0.1,2,0.7,2.1,1.8c0.2,2.7,0.7,5.3,1.4,7.9 c0.3,1-0.3,2.1-1.3,2.4C124.8,281.6,124.7,281.7,124.5,281.7z M206.2,281.3c-0.2,0-0.4,0-0.5-0.1c-1-0.3-1.7-1.4-1.4-2.4 c0.7-2.6,1.2-5.2,1.4-7.9c0.1-1.1,1-1.9,2.1-1.8c1.1,0.1,1.9,1,1.8,2.1c-0.2,2.9-0.7,5.9-1.5,8.7C207.8,280.8,207,281.3,206.2,281.3 z M123.1,264.9c-0.1,0-0.2,0-0.2,0c-1.1-0.1-1.8-1.1-1.7-2.2c0.3-2.9,1-5.8,1.9-8.6c0.3-1,1.4-1.6,2.5-1.3c1,0.3,1.6,1.4,1.3,2.5 c-0.8,2.5-1.4,5.2-1.7,7.9C125,264.2,124.1,264.9,123.1,264.9z M207.4,264.6c-1,0-1.8-0.7-1.9-1.7c-0.3-2.7-0.9-5.3-1.8-7.8 c-0.3-1,0.2-2.1,1.2-2.5c1-0.3,2.1,0.2,2.5,1.2c0.9,2.8,1.6,5.7,2,8.6c0.1,1.1-0.6,2.1-1.7,2.2C207.5,264.6,207.5,264.6,207.4,264.6 z M128.4,249c-0.3,0-0.7-0.1-1-0.3c-0.9-0.5-1.3-1.7-0.7-2.7c1.5-2.6,3.2-5,5.1-7.2c0.7-0.8,2-0.9,2.8-0.2c0.8,0.7,0.9,2,0.2,2.8 c-1.8,2-3.3,4.2-4.7,6.6C129.7,248.6,129,249,128.4,249z M202,248.7c-0.7,0-1.3-0.4-1.7-1c-1.3-2.3-2.9-4.5-4.7-6.5 c-0.7-0.8-0.6-2.1,0.2-2.8c0.8-0.7,2.1-0.6,2.8,0.2c2,2.2,3.7,4.6,5.2,7.2c0.5,0.9,0.2,2.1-0.7,2.7 C202.7,248.6,202.4,248.7,202,248.7z"></path> <linearGradient id="SVGID_9_" gradientUnits="userSpaceOnUse" x1="47.146" y1="359.9727" x2="47.146" y2="29.3038" gradientTransform="matrix(1 0 0 -1 94 383)"> <stop offset="0" style="stop-color:#E65A49"></stop> <stop offset="1" style="stop-color:#F89C2B"></stop> </linearGradient> <path class="st56" d="M139.5,236.2c-0.6,0-1.2-0.3-1.6-0.8c-0.7-0.9-0.5-2.1,0.4-2.8c1.1-0.9,2.3-1.7,3.5-2.4 c0.9-0.6,2.1-0.3,2.7,0.6c0.6,0.9,0.3,2.1-0.6,2.7c-1.1,0.7-2.2,1.4-3.2,2.2C140.3,236.1,139.9,236.2,139.5,236.2z"></path> <linearGradient id="SVGID_10_" gradientUnits="userSpaceOnUse" x1="331.4038" y1="360.0293" x2="331.4038" y2="29.2797" gradientTransform="matrix(1 0 0 -1 94 383)"> <stop offset="0" style="stop-color:#E65A49"></stop> <stop offset="1" style="stop-color:#F89C2B"></stop> </linearGradient> <path class="st58" d="M474.3,106.6c-1.1,0-2-0.9-2-2c0-3.2-0.4-6.4-1-9.5c-0.2-1.1,0.4-2.1,1.5-2.3c1.1-0.2,2.1,0.4,2.3,1.5 c0.8,3.4,1.1,6.9,1.1,10.4C476.3,105.7,475.4,106.6,474.3,106.6z M376.6,106.6c-1.1,0-2-0.9-2-2c0-4.1,0.5-8.2,1.6-12.1 c0.3-1,1.4-1.7,2.4-1.4c1,0.3,1.7,1.3,1.4,2.4c-0.9,3.6-1.4,7.3-1.4,11.1C378.6,105.7,377.7,106.6,376.6,106.6z M469.3,85.7 c-0.7,0-1.4-0.4-1.7-1.1c-1.7-3.3-3.8-6.4-6.3-9.2c-0.7-0.8-0.6-2.1,0.2-2.8c0.8-0.7,2-0.6,2.8,0.2c2.7,3.1,5,6.4,6.9,10 c0.5,1,0.1,2.1-0.8,2.6C469.9,85.6,469.6,85.7,469.3,85.7z M382.5,84.2c-0.3,0-0.7-0.1-1-0.3c-0.9-0.5-1.3-1.7-0.7-2.7 c2-3.5,4.4-6.8,7.3-9.8c0.7-0.8,2-0.8,2.8-0.1c0.8,0.7,0.8,2,0.1,2.8c-2.6,2.7-4.8,5.8-6.7,9C383.9,83.8,383.2,84.2,382.5,84.2z M453.9,68.3c-0.4,0-0.8-0.1-1.1-0.3c-3.1-2.1-6.4-3.9-9.9-5.2c-1-0.4-1.5-1.5-1.1-2.5c0.4-1,1.5-1.5,2.5-1.1 c3.8,1.5,7.4,3.4,10.8,5.7c0.9,0.6,1.1,1.8,0.5,2.7C455.1,68,454.5,68.3,453.9,68.3z M398.5,67.4c-0.6,0-1.3-0.3-1.7-0.9 c-0.6-0.9-0.3-2.1,0.6-2.7c3.4-2.2,7.1-4,11-5.3c1-0.4,2.1,0.2,2.5,1.2c0.4,1-0.2,2.1-1.2,2.5c-3.6,1.2-7,2.9-10.1,4.9 C399.2,67.3,398.9,67.4,398.5,67.4z M432.2,60c-0.1,0-0.2,0-0.3,0c-3.7-0.5-7.5-0.6-11.2-0.2c-1.1,0.1-2-0.7-2.1-1.8 c-0.1-1.1,0.7-2,1.8-2.1c4-0.4,8.2-0.3,12.1,0.2c1.1,0.1,1.8,1.1,1.7,2.2C434,59.3,433.1,60,432.2,60z"></path> <linearGradient id="SVGID_11_" gradientUnits="userSpaceOnUse" x1="624.1348" y1="360.0244" x2="624.1348" y2="29.295" gradientTransform="matrix(1 0 0 -1 94 383)"> <stop offset="0" style="stop-color:#E65A49"></stop> <stop offset="1" style="stop-color:#F89C2B"></stop> </linearGradient> <path class="st59" d="M718.6,96.1c-0.9,0-1.7-0.6-1.9-1.5c-0.5-2-0.8-4.1-0.9-6.2c0-1.1,0.8-2,1.9-2c1.1,0,2,0.8,2,1.9 c0,1.8,0.3,3.6,0.7,5.4c0.3,1-0.4,2.1-1.4,2.4C718.9,96.1,718.8,96.1,718.6,96.1z"></path> <linearGradient id="SVGID_12_" gradientUnits="userSpaceOnUse" x1="648.9414" y1="360.0264" x2="648.9414" y2="29.3086" gradientTransform="matrix(1 0 0 -1 94 383)"> <stop offset="0" style="stop-color:#E65A49"></stop> <stop offset="1" style="stop-color:#F89C2B"></stop> </linearGradient> <path class="st60" d="M720,79.2c-0.3,0-0.5-0.1-0.8-0.2c-1-0.4-1.4-1.6-1-2.6c1.7-3.7,4.2-7.1,7.3-9.7c0.8-0.7,2.1-0.6,2.8,0.2 c0.7,0.8,0.6,2.1-0.2,2.8c-2.7,2.3-4.8,5.2-6.2,8.3C721.5,78.8,720.8,79.2,720,79.2z M765.9,77.2c-0.7,0-1.4-0.4-1.7-1 c-1.7-3-4.1-5.7-6.9-7.8c-0.9-0.6-1.1-1.9-0.5-2.7c0.6-0.9,1.9-1.1,2.7-0.5c3.3,2.4,6.1,5.5,8.1,9c0.5,0.9,0.2,2.1-0.8,2.7 C766.5,77.1,766.2,77.2,765.9,77.2z M736.7,64.9c-0.9,0-1.7-0.6-1.9-1.4c-0.3-1,0.3-2.1,1.4-2.4c3.9-1.1,8.1-1.2,12.1-0.5 c1.1,0.2,1.8,1.2,1.6,2.3c-0.2,1.1-1.2,1.8-2.3,1.6c-3.4-0.6-7-0.5-10.4,0.5C737.1,64.9,736.9,64.9,736.7,64.9z"></path> <linearGradient id="SVGID_13_" gradientUnits="userSpaceOnUse" x1="675.0322" y1="360.0352" x2="675.0322" y2="29.2538" gradientTransform="matrix(1 0 0 -1 94 383)"> <stop offset="0" style="stop-color:#E65A49"></stop> <stop offset="1" style="stop-color:#F89C2B"></stop> </linearGradient> <path class="st61" d="M768.8,93.9c-0.1,0-0.2,0-0.3,0c-1.1-0.2-1.8-1.2-1.6-2.3c0.2-1.3,0.3-2.6,0.3-3.9c0-0.5,0-1,0-1.5 c-0.1-1.1,0.8-2,1.8-2.1c1.1-0.1,2,0.8,2.1,1.8c0,0.6,0.1,1.2,0.1,1.8c0,1.5-0.1,3-0.4,4.5C770.6,93.2,769.7,93.9,768.8,93.9z"></path> <linearGradient id="SVGID_14_" gradientUnits="userSpaceOnUse" x1="-42.5991" y1="360.0303" x2="-42.5993" y2="29.2714" gradientTransform="matrix(1 0 0 -1 94 383)"> <stop offset="0" style="stop-color:#E65A49"></stop> <stop offset="1" style="stop-color:#F89C2B"></stop> </linearGradient> <path class="st62" d="M90.1,307.9H12.7c-1.1,0-2-0.9-2-2v-52.8c0-1.1,0.9-2,2-2h17.4l18.8-18.2c0.6-0.5,1.4-0.7,2.1-0.4 s1.2,1,1.2,1.8v16.9h37.9c1.1,0,2,0.9,2,2V306C92.1,307,91.2,307.9,90.1,307.9z M14.7,303.9h73.5v-48.8h-38c-1.1,0-2-0.9-2-2V239 l-16,15.5c-0.4,0.4-0.9,0.6-1.4,0.6H14.7V303.9z"></path> <line class="st57" x1="80.7" y1="295.3" x2="65.5" y2="295.3"></line> <linearGradient id="SVGID_15_" gradientUnits="userSpaceOnUse" x1="-20.8994" y1="359.9688" x2="-20.8994" y2="29.2869" gradientTransform="matrix(1 0 0 -1 94 383)"> <stop offset="0" style="stop-color:#E65A49"></stop> <stop offset="1" style="stop-color:#F89C2B"></stop> </linearGradient> <path class="st63" d="M80.7,297.3H65.5c-1.1,0-2-0.9-2-2c0-1.1,0.9-2,2-2h15.2c1.1,0,2,0.9,2,2C82.7,296.4,81.8,297.3,80.7,297.3z"></path> <line class="st57" x1="80.7" y1="283.6" x2="22.1" y2="283.6"></line> <linearGradient id="SVGID_16_" gradientUnits="userSpaceOnUse" x1="-42.5991" y1="360.0342" x2="-42.5991" y2="29.27" gradientTransform="matrix(1 0 0 -1 94 383)"> <stop offset="0" style="stop-color:#E65A49"></stop> <stop offset="1" style="stop-color:#F89C2B"></stop> </linearGradient> <path class="st64" d="M80.7,285.6H22.1c-1.1,0-2-0.9-2-2c0-1.1,0.9-2,2-2h58.6c1.1,0,2,0.9,2,2C82.7,284.7,81.8,285.6,80.7,285.6z"></path> <line class="st57" x1="80.7" y1="271.9" x2="22.1" y2="271.9"></line> <linearGradient id="SVGID_17_" gradientUnits="userSpaceOnUse" x1="-42.5991" y1="359.9717" x2="-42.5991" y2="29.2899" gradientTransform="matrix(1 0 0 -1 94 383)"> <stop offset="0" style="stop-color:#E65A49"></stop> <stop offset="1" style="stop-color:#F89C2B"></stop> </linearGradient> <path class="st65" d="M80.7,273.9H22.1c-1.1,0-2-0.9-2-2c0-1.1,0.9-2,2-2h58.6c1.1,0,2,0.9,2,2C82.7,273,81.8,273.9,80.7,273.9z"></path> <line class="st57" x1="80.7" y1="262.5" x2="67.8" y2="262.5"></line> <linearGradient id="SVGID_18_" gradientUnits="userSpaceOnUse" x1="-19.7495" y1="359.9746" x2="-19.7495" y2="29.2927" gradientTransform="matrix(1 0 0 -1 94 383)"> <stop offset="0" style="stop-color:#E65A49"></stop> <stop offset="1" style="stop-color:#F89C2B"></stop> </linearGradient> <path class="st66" d="M80.7,264.5H67.8c-1.1,0-2-0.9-2-2c0-1.1,0.9-2,2-2h12.9c1.1,0,2,0.9,2,2C82.7,263.6,81.8,264.5,80.7,264.5z"></path> <line class="st57" x1="59.6" y1="262.5" x2="43.2" y2="262.5"></line> <linearGradient id="SVGID_19_" gradientUnits="userSpaceOnUse" x1="-42.5991" y1="359.9746" x2="-42.5991" y2="29.2927" gradientTransform="matrix(1 0 0 -1 94 383)"> <stop offset="0" style="stop-color:#E65A49"></stop> <stop offset="1" style="stop-color:#F89C2B"></stop> </linearGradient> <path class="st67" d="M59.6,264.5H43.2c-1.1,0-2-0.9-2-2c0-1.1,0.9-2,2-2h16.4c1.1,0,2,0.9,2,2C61.6,263.6,60.7,264.5,59.6,264.5z"></path> <line class="st57" x1="37.3" y1="262.5" x2="22.1" y2="262.5"></line> <linearGradient id="SVGID_20_" gradientUnits="userSpaceOnUse" x1="-64.2993" y1="359.9756" x2="-64.2994" y2="29.2937" gradientTransform="matrix(1 0 0 -1 94 383)"> <stop offset="0" style="stop-color:#E65A49"></stop> <stop offset="1" style="stop-color:#F89C2B"></stop> </linearGradient> <path class="st68" d="M37.3,264.5H22.1c-1.1,0-2-0.9-2-2c0-1.1,0.9-2,2-2h15.2c1.1,0,2,0.9,2,2C39.3,263.6,38.4,264.5,37.3,264.5z"></path> <line class="st57" x1="58.4" y1="295.3" x2="22.1" y2="295.3"></line> <linearGradient id="SVGID_21_" gradientUnits="userSpaceOnUse" x1="-53.6997" y1="359.9688" x2="-53.6997" y2="29.2869" gradientTransform="matrix(1 0 0 -1 94 383)"> <stop offset="0" style="stop-color:#E65A49"></stop> <stop offset="1" style="stop-color:#F89C2B"></stop> </linearGradient> <path class="st69" d="M58.4,297.3H22.1c-1.1,0-2-0.9-2-2c0-1.1,0.9-2,2-2h36.4c1.1,0,2,0.9,2,2C60.4,296.4,59.5,297.3,58.4,297.3z"></path> <linearGradient id="SVGID_22_" gradientUnits="userSpaceOnUse" x1="11.9507" y1="360.0293" x2="11.9507" y2="29.273" gradientTransform="matrix(1 0 0 -1 94 383)"> <stop offset="0" style="stop-color:#E65A49"></stop> <stop offset="1" style="stop-color:#F89C2B"></stop> </linearGradient> <path class="st70" d="M130,190.3H81.9c-1.1,0-2-0.9-2-2v-10.6c0-1.1,0.9-2,2-2h16.8v-23.8c0-1.1,0.9-2,2-2h10.6c1.1,0,2,0.9,2,2 v23.8H130c1.1,0,2,0.9,2,2v10.6C131.9,189.4,131.1,190.3,130,190.3z M83.8,186.4H128v-6.6h-16.8c-1.1,0-2-0.9-2-2V154h-6.6v23.8 c0,1.1-0.9,2-2,2H83.8V186.4z"></path> <linearGradient id="SVGID_23_" gradientUnits="userSpaceOnUse" x1="308.0503" y1="360.0361" x2="308.0503" y2="29.2722" gradientTransform="matrix(1 0 0 -1 94 383)"> <stop offset="0" style="stop-color:#E65A49"></stop> <stop offset="1" style="stop-color:#F89C2B"></stop> </linearGradient> <path class="st71" d="M412.6,322.8h-21.1c-1.1,0-2-0.9-2-2v-28.1c0-1.1,0.9-2,2-2h21.1c1.1,0,2,0.9,2,2v28.1 C414.6,321.9,413.7,322.8,412.6,322.8z M393.5,318.9h17.2v-24.2h-17.2V318.9z"></path> <linearGradient id="SVGID_24_" gradientUnits="userSpaceOnUse" x1="309.2002" y1="360.0303" x2="309.2002" y2="29.2713" gradientTransform="matrix(1 0 0 -1 94 383)"> <stop offset="0" style="stop-color:#E65A49"></stop> <stop offset="1" style="stop-color:#F89C2B"></stop> </linearGradient> <path class="st72" d="M528.7,279.6h-251c-1.1,0-2-0.9-2-2V109.9c0-1.1,0.9-2,2-2h251c1.1,0,2,0.9,2,2v167.7 C530.7,278.7,529.8,279.6,528.7,279.6z M279.7,275.7h247V111.9h-247V275.7z"></path> <linearGradient id="SVGID_25_" gradientUnits="userSpaceOnUse" x1="271.6504" y1="360.0313" x2="271.6504" y2="29.2727" gradientTransform="matrix(1 0 0 -1 94 383)"> <stop offset="0" style="stop-color:#E65A49"></stop> <stop offset="1" style="stop-color:#F89C2B"></stop> </linearGradient> <path class="st73" d="M372.7,206.7h-14.1c-1.1,0-2-0.9-2-2v-28.1c0-1.1,0.9-2,2-2h14.1c1.1,0,2,0.9,2,2v28.1 C374.7,205.8,373.8,206.7,372.7,206.7z M360.6,202.8h10.1v-24.2h-10.1V202.8z"></path> <linearGradient id="SVGID_26_" gradientUnits="userSpaceOnUse" x1="286.4004" y1="360.0273" x2="286.4004" y2="29.2751" gradientTransform="matrix(1 0 0 -1 94 383)"> <stop offset="0" style="stop-color:#E65A49"></stop> <stop offset="1" style="stop-color:#F89C2B"></stop> </linearGradient> <path class="st74" d="M388,206.7h-15.2c-1.1,0-2-0.9-2-2v-36.4c0-1.1,0.9-2,2-2H388c1.1,0,2,0.9,2,2v36.4 C389.9,205.8,389.1,206.7,388,206.7z M374.7,202.8H386v-32.4h-11.3V202.8z"></path> <linearGradient id="SVGID_27_" gradientUnits="userSpaceOnUse" x1="301.0503" y1="360.0293" x2="301.0503" y2="29.2737" gradientTransform="matrix(1 0 0 -1 94 383)"> <stop offset="0" style="stop-color:#E65A49"></stop> <stop offset="1" style="stop-color:#F89C2B"></stop> </linearGradient> <path class="st75" d="M402.1,206.7H388c-1.1,0-2-0.9-2-2v-50.4c0-1.1,0.9-2,2-2h14.1c1.1,0,2,0.9,2,2v50.4 C404,205.8,403.1,206.7,402.1,206.7z M389.9,202.8H400v-46.5h-10.1V202.8z"></path> <linearGradient id="SVGID_28_" gradientUnits="userSpaceOnUse" x1="329.8003" y1="360.0371" x2="329.8003" y2="29.2672" gradientTransform="matrix(1 0 0 -1 94 383)"> <stop offset="0" style="stop-color:#E65A49"></stop> <stop offset="1" style="stop-color:#F89C2B"></stop> </linearGradient> <path class="st76" d="M431.4,241.9h-15.2c-1.1,0-2-0.9-2-2v-35.2c0-1.1,0.9-2,2-2h15.2c1.1,0,2,0.9,2,2v35.2 C433.3,241,432.5,241.9,431.4,241.9z M418.1,238h11.3v-31.3h-11.3V238z"></path> <linearGradient id="SVGID_29_" gradientUnits="userSpaceOnUse" x1="315.0503" y1="360.0352" x2="315.0503" y2="29.2692" gradientTransform="matrix(1 0 0 -1 94 383)"> <stop offset="0" style="stop-color:#E65A49"></stop> <stop offset="1" style="stop-color:#F89C2B"></stop> </linearGradient> <path class="st77" d="M416.1,256H402c-1.1,0-2-0.9-2-2v-49.3c0-1.1,0.9-2,2-2h14.1c1.1,0,2,0.9,2,2V254 C418.1,255.1,417.2,256,416.1,256z M404,252h10.1v-45.3H404V252z"></path> <linearGradient id="SVGID_30_" gradientUnits="userSpaceOnUse" x1="344.3501" y1="360.0352" x2="344.3501" y2="29.2695" gradientTransform="matrix(1 0 0 -1 94 383)"> <stop offset="0" style="stop-color:#E65A49"></stop> <stop offset="1" style="stop-color:#F89C2B"></stop> </linearGradient> <path class="st78" d="M445.4,233.7h-14.1c-1.1,0-2-0.9-2-2v-27c0-1.1,0.9-2,2-2h14.1c1.1,0,2,0.9,2,2v27 C447.4,232.8,446.5,233.7,445.4,233.7z M433.3,229.8h10.1v-23h-10.1V229.8z"></path> <rect x="264.8" y="277.5" class="st1" width="276.8" height="15.2"></rect> <linearGradient id="SVGID_31_" gradientUnits="userSpaceOnUse" x1="309.1997" y1="360.0215" x2="309.1997" y2="29.2766" gradientTransform="matrix(1 0 0 -1 94 383)"> <stop offset="0" style="stop-color:#E65A49"></stop> <stop offset="1" style="stop-color:#F89C2B"></stop> </linearGradient> <path class="st79" d="M541.6,294.7H264.8c-1.1,0-2-0.9-2-2v-15.2c0-1.1,0.9-2,2-2h276.8c1.1,0,2,0.9,2,2v15.2 C543.6,293.8,542.7,294.7,541.6,294.7z M266.8,290.7h272.8v-11.3H266.8V290.7z"></path> <line class="st57" x1="348.1" y1="204.7" x2="458.3" y2="204.7"></line> <linearGradient id="SVGID_32_" gradientUnits="userSpaceOnUse" x1="309.1997" y1="360.0352" x2="309.1997" y2="29.271" gradientTransform="matrix(1 0 0 -1 94 383)"> <stop offset="0" style="stop-color:#E65A49"></stop> <stop offset="1" style="stop-color:#F89C2B"></stop> </linearGradient> <path class="st80" d="M458.3,206.7H348.1c-1.1,0-2-0.9-2-2s0.9-2,2-2h110.2c1.1,0,2,0.9,2,2S459.4,206.7,458.3,206.7z"></path> <linearGradient id="SVGID_33_" gradientUnits="userSpaceOnUse" x1="366.0708" y1="360.0342" x2="366.0708" y2="29.2666" gradientTransform="matrix(1 0 0 -1 94 383)"> <stop offset="0" style="stop-color:#E65A49"></stop> <stop offset="1" style="stop-color:#F89C2B"></stop> </linearGradient> <path class="st81" d="M424.4,191.3c-1.1,0-1.9-0.9-2-1.9c0-1.1,0.8-2,1.9-2c0.5,0,47.6-1.3,69.8-38.8c0.6-0.9,1.8-1.2,2.7-0.7 c0.9,0.6,1.2,1.8,0.7,2.7c-12.2,20.6-31.5,30.6-45.5,35.3C437,191,424.9,191.3,424.4,191.3L424.4,191.3z"></path> <linearGradient id="SVGID_34_" gradientUnits="userSpaceOnUse" x1="396.0625" y1="360.0322" x2="396.0625" y2="29.2742" gradientTransform="matrix(1 0 0 -1 94 383)"> <stop offset="0" style="stop-color:#E65A49"></stop> <stop offset="1" style="stop-color:#F89C2B"></stop> </linearGradient> <path class="st82" d="M498.6,164.7c-0.9,0-1.7-0.6-1.9-1.6l-2.4-11.4l-12.7,0.9c-1.1,0.1-2-0.7-2.1-1.8c-0.1-1.1,0.7-2,1.8-2.1 l14.4-1c1-0.1,1.9,0.6,2.1,1.6l2.8,13.1c0.2,1.1-0.5,2.1-1.5,2.3C498.9,164.6,498.7,164.7,498.6,164.7z"></path> <linearGradient id="SVGID_35_" gradientUnits="userSpaceOnUse" x1="217.8413" y1="360.0391" x2="217.8413" y2="29.2643" gradientTransform="matrix(1 0 0 -1 94 383)"> <stop offset="0" style="stop-color:#E65A49"></stop> <stop offset="1" style="stop-color:#F89C2B"></stop> </linearGradient> <path class="st83" d="M311.8,211.6L311.8,211.6c-4.2,0-8-2.6-9.5-6.6c-1-2.5-0.9-5.3,0.2-7.8s3.1-4.4,5.7-5.4 c1.2-0.5,2.4-0.7,3.7-0.7c4.2,0,8,2.6,9.5,6.6c2,5.3-0.6,11.2-5.9,13.2C314.3,211.4,313.1,211.6,311.8,211.6z M311.8,195.1 c-0.8,0-1.5,0.1-2.3,0.4c-1.6,0.6-2.8,1.8-3.5,3.3s-0.7,3.2-0.1,4.8c0.9,2.4,3.3,4,5.9,4c0.8,0,1.5-0.1,2.3-0.4 c3.2-1.2,4.9-4.9,3.6-8.1C316.7,196.7,314.4,195.1,311.8,195.1z"></path> <path class="st57" d="M381.4,238.6c0,0-48.4-0.8-71.5-39.7"></path> <linearGradient id="SVGID_36_" gradientUnits="userSpaceOnUse" x1="251.6118" y1="360.0342" x2="251.6118" y2="29.2685" gradientTransform="matrix(1 0 0 -1 94 383)"> <stop offset="0" style="stop-color:#E65A49"></stop> <stop offset="1" style="stop-color:#F89C2B"></stop> </linearGradient> <path class="st84" d="M381.4,240.5L381.4,240.5c-0.5,0-12.6-0.3-27.7-5.4c-14-4.7-33.2-14.7-45.5-35.3c-0.6-0.9-0.2-2.1,0.7-2.7 c0.9-0.6,2.1-0.2,2.7,0.7c22.3,37.5,69.4,38.7,69.8,38.8c1.1,0,1.9,0.9,1.9,2C383.4,239.7,382.5,240.5,381.4,240.5z"></path> <polyline class="st57" points="324.3,199.9 309.9,198.9 307.2,211.9 "></polyline> <linearGradient id="SVGID_37_" gradientUnits="userSpaceOnUse" x1="221.8354" y1="360.0225" x2="221.8354" y2="29.2776" gradientTransform="matrix(1 0 0 -1 94 383)"> <stop offset="0" style="stop-color:#E65A49"></stop> <stop offset="1" style="stop-color:#F89C2B"></stop> </linearGradient> <path class="st85" d="M307.2,213.9c-0.1,0-0.3,0-0.4,0c-1.1-0.2-1.7-1.3-1.5-2.3l2.8-13.1c0.2-1,1.1-1.6,2.1-1.6l14.4,1 c1.1,0.1,1.9,1,1.8,2.1c-0.1,1.1-1,1.9-2.1,1.8l-12.7-0.9l-2.4,11.4C308.9,213.3,308.1,213.9,307.2,213.9z"></path> <linearGradient id="SVGID_38_" gradientUnits="userSpaceOnUse" x1="228.3003" y1="360.0342" x2="228.3003" y2="29.2692" gradientTransform="matrix(1 0 0 -1 94 383)"> <stop offset="0" style="stop-color:#E65A49"></stop> <stop offset="1" style="stop-color:#F89C2B"></stop> </linearGradient> <path class="st86" d="M351.6,149.2H293c-1.1,0-2-0.9-2-2v-23.5c0-1.1,0.9-2,2-2h58.6c1.1,0,2,0.9,2,2v23.5 C353.6,148.4,352.7,149.2,351.6,149.2z M294.9,145.3h54.7v-19.5h-54.7V145.3z"></path> <line class="st57" x1="368" y1="147.3" x2="335.2" y2="147.3"></line> <linearGradient id="SVGID_39_" gradientUnits="userSpaceOnUse" x1="257.6006" y1="360.0352" x2="257.6006" y2="29.271" gradientTransform="matrix(1 0 0 -1 94 383)"> <stop offset="0" style="stop-color:#E65A49"></stop> <stop offset="1" style="stop-color:#F89C2B"></stop> </linearGradient> <path class="st87" d="M368,149.2h-32.8c-1.1,0-2-0.9-2-2s0.9-2,2-2H368c1.1,0,2,0.9,2,2S369.1,149.2,368,149.2z"></path> <line class="st57" x1="328.2" y1="147.3" x2="316.4" y2="147.3"></line> <linearGradient id="SVGID_40_" gradientUnits="userSpaceOnUse" x1="228.3506" y1="360.0352" x2="228.3506" y2="29.271" gradientTransform="matrix(1 0 0 -1 94 383)"> <stop offset="0" style="stop-color:#E65A49"></stop> <stop offset="1" style="stop-color:#F89C2B"></stop> </linearGradient> <path class="st88" d="M328.2,149.2h-11.7c-1.1,0-2-0.9-2-2s0.9-2,2-2h11.7c1.1,0,2,0.9,2,2S329.3,149.2,328.2,149.2z"></path> <line class="st57" x1="368" y1="136.7" x2="335.2" y2="136.7"></line> <linearGradient id="SVGID_41_" gradientUnits="userSpaceOnUse" x1="257.6006" y1="360.0342" x2="257.6006" y2="29.27" gradientTransform="matrix(1 0 0 -1 94 383)"> <stop offset="0" style="stop-color:#E65A49"></stop> <stop offset="1" style="stop-color:#F89C2B"></stop> </linearGradient> <path class="st89" d="M368,138.7h-32.8c-1.1,0-2-0.9-2-2s0.9-2,2-2H368c1.1,0,2,0.9,2,2S369.1,138.7,368,138.7z"></path> <line class="st57" x1="328.2" y1="136.7" x2="316.4" y2="136.7"></line> <linearGradient id="SVGID_42_" gradientUnits="userSpaceOnUse" x1="228.3506" y1="360.0342" x2="228.3506" y2="29.27" gradientTransform="matrix(1 0 0 -1 94 383)"> <stop offset="0" style="stop-color:#E65A49"></stop> <stop offset="1" style="stop-color:#F89C2B"></stop> </linearGradient> <path class="st90" d="M328.2,138.7h-11.7c-1.1,0-2-0.9-2-2s0.9-2,2-2h11.7c1.1,0,2,0.9,2,2C330.1,137.8,329.3,138.7,328.2,138.7z"></path> <linearGradient id="SVGID_43_" gradientUnits="userSpaceOnUse" x1="376.7002" y1="360.0361" x2="376.7002" y2="29.2693" gradientTransform="matrix(1 0 0 -1 94 383)"> <stop offset="0" style="stop-color:#E65A49"></stop> <stop offset="1" style="stop-color:#F89C2B"></stop> </linearGradient> <path class="st91" d="M483,263h-24.6c-1.1,0-2-0.9-2-2v-22.3c0-1.1,0.9-2,2-2H483c1.1,0,2,0.9,2,2V261 C484.9,262.1,484.1,263,483,263z M460.3,259.1H481v-18.4h-20.7V259.1z"></path> <line class="st57" x1="491.2" y1="241.1" x2="512.3" y2="241.1"></line> <linearGradient id="SVGID_44_" gradientUnits="userSpaceOnUse" x1="407.749" y1="360.0342" x2="407.749" y2="29.27" gradientTransform="matrix(1 0 0 -1 94 383)"> <stop offset="0" style="stop-color:#E65A49"></stop> <stop offset="1" style="stop-color:#F89C2B"></stop> </linearGradient> <path class="st92" d="M512.3,243.1h-21.1c-1.1,0-2-0.9-2-2c0-1.1,0.9-2,2-2h21.1c1.1,0,2,0.9,2,2 C514.3,242.2,513.4,243.1,512.3,243.1z"></path> <line class="st57" x1="491.2" y1="257.5" x2="512.3" y2="257.5"></line> <linearGradient id="SVGID_45_" gradientUnits="userSpaceOnUse" x1="407.749" y1="360.0342" x2="407.749" y2="29.27" gradientTransform="matrix(1 0 0 -1 94 383)"> <stop offset="0" style="stop-color:#E65A49"></stop> <stop offset="1" style="stop-color:#F89C2B"></stop> </linearGradient> <path class="st93" d="M512.3,259.5h-21.1c-1.1,0-2-0.9-2-2c0-1.1,0.9-2,2-2h21.1c1.1,0,2,0.9,2,2 C514.3,258.6,513.4,259.5,512.3,259.5z"></path> <line class="st57" x1="458.5" y1="239.3" x2="483.5" y2="263.1"></line> <linearGradient id="SVGID_46_" gradientUnits="userSpaceOnUse" x1="376.9497" y1="360.0332" x2="376.9497" y2="29.2711" gradientTransform="matrix(1 0 0 -1 94 383)"> <stop offset="0" style="stop-color:#E65A49"></stop> <stop offset="1" style="stop-color:#F89C2B"></stop> </linearGradient> <path class="st94" d="M483.5,265c-0.5,0-1-0.2-1.4-0.5l-25-23.7c-0.8-0.7-0.8-2-0.1-2.8s2-0.8,2.8-0.1l25,23.7 c0.8,0.7,0.8,2,0.1,2.8C484.5,264.8,484,265,483.5,265z"></path> <line class="st57" x1="342.2" y1="320.8" x2="461.9" y2="320.8"></line> <linearGradient id="SVGID_47_" gradientUnits="userSpaceOnUse" x1="308.0005" y1="360.0352" x2="308.0005" y2="29.2711" gradientTransform="matrix(1 0 0 -1 94 383)"> <stop offset="0" style="stop-color:#E65A49"></stop> <stop offset="1" style="stop-color:#F89C2B"></stop> </linearGradient> <path class="st95" d="M461.9,322.8H342.2c-1.1,0-2-0.9-2-2c0-1.1,0.9-2,2-2h119.6c1.1,0,2,0.9,2,2 C463.8,321.9,462.9,322.8,461.9,322.8z"></path> <rect x="559.2" y="126.2" class="st0" width="14.1" height="3.5"></rect> <linearGradient id="SVGID_48_" gradientUnits="userSpaceOnUse" x1="472.249" y1="360.0498" x2="472.249" y2="29.2354" gradientTransform="matrix(1 0 0 -1 94 383)"> <stop offset="0" style="stop-color:#E65A49"></stop> <stop offset="1" style="stop-color:#F89C2B"></stop> </linearGradient> <path class="st96" d="M573.3,131.6h-14.1c-1.1,0-2-0.9-2-2v-3.4c0-1.1,0.9-2,2-2h14.1c1.1,0,2,0.9,2,2v3.5 C575.2,130.8,574.4,131.6,573.3,131.6z"></path> <rect x="559.2" y="129.7" class="st1" width="14.1" height="83.3"></rect> <linearGradient id="SVGID_49_" gradientUnits="userSpaceOnUse" x1="472.249" y1="360.0322" x2="472.249" y2="29.2683" gradientTransform="matrix(1 0 0 -1 94 383)"> <stop offset="0" style="stop-color:#E65A49"></stop> <stop offset="1" style="stop-color:#F89C2B"></stop> </linearGradient> <path class="st97" d="M573.3,214.9h-14.1c-1.1,0-2-0.9-2-2v-83.3c0-1.1,0.9-2,2-2h14.1c1.1,0,2,0.9,2,2v83.3 C575.2,214,574.4,214.9,573.3,214.9z M561.2,211h10.1v-79.3h-10.1V211z"></path> <linearGradient id="SVGID_50_" gradientUnits="userSpaceOnUse" x1="471.6484" y1="360.0273" x2="471.6484" y2="29.2826" gradientTransform="matrix(1 0 0 -1 94 383)"> <stop offset="0" style="stop-color:#E65A49"></stop> <stop offset="1" style="stop-color:#F89C2B"></stop> </linearGradient> <path class="st98" d="M572.1,128.1h-12.9c-1.1,0-2-0.9-2-2v-15.2c0-1.1,0.9-2,2-2h12.9c1.1,0,2,0.9,2,2v15.3 C574.1,127.3,573.2,128.1,572.1,128.1z M561.2,124.2h9v-11.3h-9V124.2z"></path> <polygon class="st1" points="565.7,228.2 572.3,213 559.2,213 "></polygon> <linearGradient id="SVGID_51_" gradientUnits="userSpaceOnUse" x1="471.7275" y1="360.0195" x2="471.7275" y2="29.2799" gradientTransform="matrix(1 0 0 -1 94 383)"> <stop offset="0" style="stop-color:#E65A49"></stop> <stop offset="1" style="stop-color:#F89C2B"></stop> </linearGradient> <path class="st99" d="M565.7,230.2c-0.8,0-1.5-0.5-1.8-1.2l-6.5-15.3c-0.3-0.6-0.2-1.3,0.2-1.9c0.4-0.5,1-0.9,1.6-0.9h13.1 c0.7,0,1.3,0.3,1.6,0.9c0.4,0.6,0.4,1.2,0.2,1.9l-6.5,15.3C567.2,229.7,566.5,230.2,565.7,230.2z M562.2,214.9l3.6,8.3l3.6-8.3 H562.2z"></path> <line class="st57" x1="566.2" y1="213" x2="566.2" y2="135.5"></line> <linearGradient id="SVGID_52_" gradientUnits="userSpaceOnUse" x1="472.1992" y1="360.0313" x2="472.1992" y2="29.2701" gradientTransform="matrix(1 0 0 -1 94 383)"> <stop offset="0" style="stop-color:#E65A49"></stop> <stop offset="1" style="stop-color:#F89C2B"></stop> </linearGradient> <path class="st100" d="M566.2,214.9c-1.1,0-2-0.9-2-2v-77.4c0-1.1,0.9-2,2-2c1.1,0,2,0.9,2,2v77.4 C568.2,214,567.3,214.9,566.2,214.9z"></path> <linearGradient id="SVGID_53_" gradientUnits="userSpaceOnUse" x1="473.0986" y1="360.0205" x2="473.0986" y2="29.2765" gradientTransform="matrix(1 0 0 -1 94 383)"> <stop offset="0" style="stop-color:#E65A49"></stop> <stop offset="1" style="stop-color:#F89C2B"></stop> </linearGradient> <path class="st101" d="M567.1,247.8c-1.1,0-2-0.9-2-2v-5.9c0-1.1,0.9-2,2-2c1.1,0,2,0.9,2,2v5.9 C569.1,246.9,568.2,247.8,567.1,247.8z"></path> <linearGradient id="SVGID_54_" gradientUnits="userSpaceOnUse" x1="513.7822" y1="360.0322" x2="513.7822" y2="29.2701" gradientTransform="matrix(1 0 0 -1 94 383)"> <stop offset="0" style="stop-color:#E65A49"></stop> <stop offset="1" style="stop-color:#F89C2B"></stop> </linearGradient> <path class="st102" d="M611.7,285.6h-11.4c-1.1,0-2-0.9-1.9-2c0-1.1,0.9-2,2-1.9h0.3h11.1c1.1,0,2,0.9,2,2 C613.6,284.7,612.8,285.6,611.7,285.6z M623,284.5c-0.9,0-1.7-0.6-1.9-1.5c-0.3-1.1,0.4-2.1,1.4-2.4c3.5-0.9,6.8-2.4,9.7-4.3 c0.9-0.6,2.1-0.4,2.7,0.5c0.6,0.9,0.4,2.1-0.5,2.7c-3.3,2.2-7,3.9-10.9,4.9C623.3,284.5,623.1,284.5,623,284.5z M589.2,283.6 c-0.2,0-0.4,0-0.7-0.1c-3.8-1.3-7.3-3.3-10.5-5.8c-0.8-0.7-1-1.9-0.3-2.8c0.7-0.8,1.9-1,2.8-0.3c2.8,2.2,5.9,4,9.3,5.2 c1,0.4,1.6,1.5,1.2,2.5C590.7,283.1,590,283.6,589.2,283.6z M641.5,272.1c-0.4,0-0.8-0.1-1.2-0.4c-0.9-0.6-1-1.9-0.4-2.7 c2.1-2.9,3.7-6.1,4.8-9.5c0.3-1,1.4-1.6,2.4-1.3s1.6,1.4,1.3,2.4c-1.1,3.9-2.9,7.5-5.4,10.7C642.7,271.8,642.1,272.1,641.5,272.1z M571.8,269.6c-0.7,0-1.3-0.3-1.7-0.9c-2.1-3.5-3.6-7.2-4.4-11.2c-0.2-1.1,0.5-2.1,1.5-2.3c1.1-0.2,2.1,0.5,2.3,1.5 c0.7,3.5,2,6.8,3.9,9.9c0.6,0.9,0.3,2.1-0.7,2.7C572.5,269.5,572.2,269.6,571.8,269.6z M647.9,250.7c-1.1,0-2-0.9-2-2v-11.4 c0-1.1,0.9-2,2-2c1.1,0,2,0.9,2,2v11.4C649.8,249.9,649,250.7,647.9,250.7z M647.9,228c-1.1,0-2-0.9-2-2v-11.4c0-1.1,0.9-2,2-2 c1.1,0,2,0.9,2,2V226C649.8,227.1,649,228,647.9,228z M647.9,205.3c-1.1,0-2-0.9-2-2v-11.4c0-1.1,0.9-2,2-2c1.1,0,2,0.9,2,2v11.4 C649.8,204.4,649,205.3,647.9,205.3z"></path> <linearGradient id="SVGID_55_" gradientUnits="userSpaceOnUse" x1="553.8994" y1="360.0391" x2="553.8994" y2="29.2628" gradientTransform="matrix(1 0 0 -1 94 383)"> <stop offset="0" style="stop-color:#E65A49"></stop> <stop offset="1" style="stop-color:#F89C2B"></stop> </linearGradient> <path class="st103" d="M647.9,182.5c-1.1,0-2-0.9-2-2v-5.9c0-1.1,0.9-2,2-2c1.1,0,2,0.9,2,2v5.9C649.8,181.6,649,182.5,647.9,182.5z "></path> <rect x="232" y="298.6" class="st0" width="14.1" height="2.3"></rect> <linearGradient id="SVGID_56_" gradientUnits="userSpaceOnUse" x1="145.0503" y1="360.0605" x2="145.0503" y2="29.2644" gradientTransform="matrix(1 0 0 -1 94 383)"> <stop offset="0" style="stop-color:#E65A49"></stop> <stop offset="1" style="stop-color:#F89C2B"></stop> </linearGradient> <path class="st104" d="M246.1,302.9H232c-1.1,0-2-0.9-2-2v-2.3c0-1.1,0.9-2,2-2h14.1c1.1,0,2,0.9,2,2v2.3 C248,302,247.2,302.9,246.1,302.9z"></path> <rect x="232" y="211.8" class="st1" width="14.1" height="86.8"></rect> <linearGradient id="SVGID_57_" gradientUnits="userSpaceOnUse" x1="145.0503" y1="360.0352" x2="145.0503" y2="29.2695" gradientTransform="matrix(1 0 0 -1 94 383)"> <stop offset="0" style="stop-color:#E65A49"></stop> <stop offset="1" style="stop-color:#F89C2B"></stop> </linearGradient> <path class="st105" d="M246.1,300.5H232c-1.1,0-2-0.9-2-2v-86.8c0-1.1,0.9-2,2-2h14.1c1.1,0,2,0.9,2,2v86.8 C248,299.6,247.2,300.5,246.1,300.5z M234,296.6h10.1v-82.9H234V296.6z"></path> <linearGradient id="SVGID_58_" gradientUnits="userSpaceOnUse" x1="145.6509" y1="360.0273" x2="145.6507" y2="29.2722" gradientTransform="matrix(1 0 0 -1 94 383)"> <stop offset="0" style="stop-color:#E65A49"></stop> <stop offset="1" style="stop-color:#F89C2B"></stop> </linearGradient> <path class="st106" d="M246.1,319.3h-12.9c-1.1,0-2-0.9-2-2v-16.4c0-1.1,0.9-2,2-2h12.9c1.1,0,2,0.9,2,2v16.4 C248,318.4,247.2,319.3,246.1,319.3z M235.1,315.4h9v-12.5h-9V315.4z"></path> <polygon class="st1" points="239.1,196 232.5,211.8 245.6,211.8 "></polygon> <linearGradient id="SVGID_59_" gradientUnits="userSpaceOnUse" x1="145.022" y1="360.042" x2="145.0218" y2="29.2638" gradientTransform="matrix(1 0 0 -1 94 383)"> <stop offset="0" style="stop-color:#E65A49"></stop> <stop offset="1" style="stop-color:#F89C2B"></stop> </linearGradient> <path class="st107" d="M245.6,213.7h-13.1c-0.7,0-1.3-0.3-1.6-0.9c-0.4-0.5-0.4-1.2-0.2-1.8l6.5-15.8c0.3-0.7,1-1.2,1.8-1.2 s1.5,0.5,1.8,1.2l6.5,15.8c0.3,0.6,0.2,1.3-0.2,1.8C246.9,213.4,246.3,213.7,245.6,213.7z M235.5,209.8h7.2l-3.6-8.7L235.5,209.8z"></path> <line class="st57" x1="239" y1="211.8" x2="239" y2="292.7"></line> <linearGradient id="SVGID_60_" gradientUnits="userSpaceOnUse" x1="145.0005" y1="360.0342" x2="145.0005" y2="29.2728" gradientTransform="matrix(1 0 0 -1 94 383)"> <stop offset="0" style="stop-color:#E65A49"></stop> <stop offset="1" style="stop-color:#F89C2B"></stop> </linearGradient> <path class="st108" d="M239,294.7c-1.1,0-2-0.9-2-2v-80.9c0-1.1,0.9-2,2-2s2,0.9,2,2v80.9C241,293.8,240.1,294.7,239,294.7z"></path> <linearGradient id="SVGID_61_" gradientUnits="userSpaceOnUse" x1="143.7007" y1="360.0557" x2="143.7007" y2="29.2464" gradientTransform="matrix(1 0 0 -1 94 383)"> <stop offset="0" style="stop-color:#E65A49"></stop> <stop offset="1" style="stop-color:#F89C2B"></stop> </linearGradient> <path class="st109" d="M237.7,185.6c-1.1,0-2-0.9-2-2v-5.9c0-1.1,0.9-2,2-2c1.1,0,2,0.9,2,2v5.9 C239.7,184.7,238.8,185.6,237.7,185.6z"></path> <linearGradient id="SVGID_62_" gradientUnits="userSpaceOnUse" x1="103.3003" y1="360.0313" x2="103.3003" y2="29.271" gradientTransform="matrix(1 0 0 -1 94 383)"> <stop offset="0" style="stop-color:#E65A49"></stop> <stop offset="1" style="stop-color:#F89C2B"></stop> </linearGradient> <path class="st110" d="M156.9,214.1c-1.1,0-2-0.9-2-2v-11.2c0-1.1,0.9-2,2-2s2,0.9,2,2v11.2C158.9,213.2,158,214.1,156.9,214.1z M156.9,191.7c-1.1,0-2-0.9-2-2v-11.2c0-1.1,0.9-2,2-2s2,0.9,2,2v11.2C158.9,190.8,158,191.7,156.9,191.7z M156.9,169.3 c-1.1,0-2-0.9-2-2v-11.2c0-1.1,0.9-2,2-2s2,0.9,2,2v11.2C158.9,168.4,158,169.3,156.9,169.3z M237.7,168.5c-1.1,0-2-0.9-2-2v-11.2 c0-1.1,0.9-2,2-2c1.1,0,2,0.9,2,2v11.2C239.7,167.6,238.8,168.5,237.7,168.5z M157.9,146.9c-0.2,0-0.3,0-0.5-0.1 c-1-0.3-1.7-1.3-1.4-2.4c1-3.8,2.6-7.5,4.9-10.8c0.6-0.9,1.8-1.1,2.7-0.5c0.9,0.6,1.1,1.8,0.5,2.7c-2,2.9-3.5,6.1-4.3,9.5 C159.6,146.4,158.8,146.9,157.9,146.9z M236.5,146.2c-0.9,0-1.6-0.6-1.9-1.4c-1-3.4-2.5-6.5-4.6-9.4c-0.6-0.9-0.4-2.1,0.4-2.7 c0.9-0.6,2.1-0.4,2.7,0.4c2.3,3.3,4.1,6.8,5.1,10.6c0.3,1-0.3,2.1-1.4,2.4C236.9,146.2,236.7,146.2,236.5,146.2z M170.3,128.8 c-0.6,0-1.2-0.3-1.6-0.8c-0.6-0.9-0.5-2.1,0.4-2.7c3.2-2.3,6.7-4.1,10.5-5.3c1-0.3,2.1,0.3,2.5,1.3c0.3,1-0.3,2.1-1.3,2.5 c-3.4,1-6.5,2.6-9.4,4.7C171.1,128.7,170.7,128.8,170.3,128.8z M223.7,128.4c-0.4,0-0.8-0.1-1.1-0.4c-2.9-2-6.1-3.5-9.5-4.5 c-1-0.3-1.6-1.4-1.3-2.4c0.3-1,1.4-1.6,2.4-1.3c3.8,1.1,7.4,2.8,10.7,5.1c0.9,0.6,1.1,1.8,0.5,2.7 C224.9,128.1,224.3,128.4,223.7,128.4z M202.5,122.3h-11.2c-1.1,0-2-0.9-2-2c0-1.1,0.9-2,2-2h11.2c1.1,0,2,0.9,2,2 C204.5,121.4,203.6,122.3,202.5,122.3z"></path> <linearGradient id="SVGID_63_" gradientUnits="userSpaceOnUse" x1="62.9004" y1="360.0215" x2="62.9004" y2="29.2779" gradientTransform="matrix(1 0 0 -1 94 383)"> <stop offset="0" style="stop-color:#E65A49"></stop> <stop offset="1" style="stop-color:#F89C2B"></stop> </linearGradient> <path class="st111" d="M156.9,231.2c-1.1,0-2-0.9-2-2v-5.9c0-1.1,0.9-2,2-2s2,0.9,2,2v5.9C158.9,230.4,158,231.2,156.9,231.2z"></path> <linearGradient id="SVGID_64_" gradientUnits="userSpaceOnUse" x1="513.1494" y1="360.0264" x2="513.1494" y2="29.2738" gradientTransform="matrix(1 0 0 -1 94 383)"> <stop offset="0" style="stop-color:#E65A49"></stop> <stop offset="1" style="stop-color:#F89C2B"></stop> </linearGradient> <path class="st112" d="M612,272.4h-9c-3.3,0-3.5-2-3.5-2.6v-4.9c-0.3-0.1-0.5-0.2-0.8-0.4l-3.2,3.4c-0.6,0.6-1.4,0.9-2.2,0.9 s-1.6-0.3-2.2-0.9l-6.4-6.4c-0.6-0.6-0.9-1.3-0.9-2.2c0-0.8,0.3-1.6,0.9-2.2l3.5-3.5c-0.2-0.4-0.3-0.8-0.5-1.2h-4.9 c-2,0-3.4-1.1-3.4-2.8v-9c0-1.3,1.1-2.7,3.4-2.7h4.9c0.2-0.4,0.3-0.8,0.5-1.2l-3.5-3.6c-1.2-1.2-1.2-3.1,0-4.3l6.3-6.4 c1.2-1.2,3.1-1.2,4.2,0l3.3,3.4c0.3-0.1,0.5-0.2,0.8-0.4v-4.9c0-0.6,0.3-2.6,3.5-2.6h9c2.9,0,3.1,2,3.1,2.6v4.9 c0.3,0.1,0.7,0.3,1,0.4l3.4-3.4c1.1-1.2,3.2-1.1,4.3,0l6.4,6.4c1.2,1.2,1.2,3.1,0,4.3l-3.5,3.5c0.2,0.4,0.3,0.8,0.5,1.2h4.9 c2.1,0,3,1.4,3,2.7v9c0,1.3-0.9,2.8-3,2.8H627c-0.2,0.4-0.3,0.8-0.5,1.2l3.5,3.6c0.5,0.5,0.9,1.3,0.9,2.1s-0.3,1.6-0.9,2.2l-6.4,6.4 c-0.6,0.6-1.3,0.9-2.1,0.9s-1.6-0.3-2.2-0.9l-3.4-3.4c-0.3,0.2-0.7,0.3-1,0.4v4.9C615.1,270.2,615,272.4,612,272.4z M603.4,268.5 h7.8v-5c0-0.9,0.6-1.6,1.4-1.9c1-0.3,2-0.7,3-1.3c0.8-0.4,1.7-0.3,2.3,0.3l3.8,3.8l5.1-5.1l-3.9-4c-0.6-0.6-0.7-1.5-0.3-2.3 c0.4-0.8,0.9-1.9,1.3-3.2c0.3-0.8,1-1.4,1.9-1.4h5.4v-6.6h-5.4c-0.9,0-1.6-0.6-1.9-1.4c-0.4-1.3-0.8-2.4-1.3-3.2 c-0.4-0.8-0.3-1.7,0.3-2.3l3.9-3.9l-5.1-5.2l-3.8,3.8c-0.6,0.6-1.5,0.8-2.3,0.4c-1-0.5-2-1-3-1.3c-0.8-0.3-1.4-1-1.4-1.9v-5h-7.8v5 c0,0.9-0.6,1.6-1.4,1.9c-1,0.3-1.7,0.7-2.8,1.3c-0.8,0.4-1.7,0.3-2.3-0.4l-3.7-3.8l-5.1,5.1l3.9,4c0.6,0.6,0.7,1.5,0.3,2.3 c-0.4,0.8-0.8,1.9-1.3,3.2c-0.3,0.8-1,1.4-1.9,1.4h-5.8v6.6h5.8c0.9,0,1.6,0.6,1.9,1.4c0.4,1.3,0.8,2.4,1.3,3.2 c0.4,0.8,0.3,1.7-0.3,2.3l-3.9,3.9l5.1,5.1l3.6-3.8c0.6-0.6,1.6-0.8,2.4-0.4c1.1,0.6,1.8,1,2.8,1.3c0.8,0.3,1.4,1,1.4,1.9V268.5z"></path> <linearGradient id="SVGID_65_" gradientUnits="userSpaceOnUse" x1="513.2988" y1="360.0303" x2="513.2988" y2="29.2692" gradientTransform="matrix(1 0 0 -1 94 383)"> <stop offset="0" style="stop-color:#E65A49"></stop> <stop offset="1" style="stop-color:#F89C2B"></stop> </linearGradient> <path class="st113" d="M607.3,255.5c-5.5,0-10-4.5-10-10s4.5-10,10-10s10,4.5,10,10S612.8,255.5,607.3,255.5z M607.3,239.4 c-3.4,0-6.1,2.7-6.1,6.1c0,3.4,2.7,6.1,6.1,6.1c3.4,0,6.1-2.7,6.1-6.1C613.4,242.1,610.6,239.4,607.3,239.4z"></path> <linearGradient id="SVGID_66_" gradientUnits="userSpaceOnUse" x1="103.3003" y1="360.0361" x2="103.3003" y2="29.2666" gradientTransform="matrix(1 0 0 -1 94 383)"> <stop offset="0" style="stop-color:#E65A49"></stop> <stop offset="1" style="stop-color:#F89C2B"></stop> </linearGradient> <path class="st114" d="M201.8,186.8h-9c-0.3,0-2.7-0.1-2.7-3v-4.9c-0.4-0.2-0.9-0.3-1.2-0.5l-3.7,3.5c-0.5,0.5-1.3,0.9-2.1,0.9 c-0.8,0-1.6-0.3-2.2-0.9l-6.4-6.4c-0.6-0.6-0.9-1.3-0.9-2.1c0-0.8,0.3-1.6,0.9-2.1l3.5-3.4c-0.2-0.3-0.3-0.7-0.4-1h-4.9 c-0.7,0-1.3-0.3-1.8-0.7c-0.8-0.8-0.8-1.7-0.8-2.3v-9.2c0-0.7,0-1.9,0.8-2.8c0.4-0.4,1-0.7,1.7-0.7h4.9c0.1-0.3,0.2-0.5,0.4-0.8 l-3.4-3.2c-1.2-1.2-1.2-3.1,0-4.3l6.4-6.4c0.6-0.6,1.4-0.9,2.2-0.9l0,0c0.8,0,1.6,0.3,2.2,0.9l3.5,3.5c0.4-0.2,0.8-0.3,1.2-0.5v-4.9 c0-3.3,2.4-3.4,2.7-3.4h9c1.6,0,2.8,1.5,2.8,3.4v4.9c0.4,0.1,0.8,0.3,1.2,0.5l3.6-3.5c0.6-0.6,1.3-0.9,2.1-0.9 c0.8,0,1.6,0.3,2.1,0.9l6.4,6.3c1.2,1.2,1.2,3.1,0,4.2l-3.4,3.3c0.1,0.3,0.2,0.5,0.4,0.8h4.9c1.2,0,2.7,0.9,2.7,3.5v9 c0,2.1-1.4,3.1-2.7,3.1H217c-0.1,0.3-0.3,0.7-0.4,1l3.4,3.4c0.6,0.6,0.9,1.3,0.9,2.1s-0.3,1.6-0.9,2.2l-6.4,6.4 c-0.6,0.6-1.3,0.9-2.2,0.9c-0.8,0-1.6-0.3-2.2-0.9l-3.5-3.5c-0.4,0.2-0.7,0.3-1.2,0.5v4.9C204.6,185.5,203.5,186.8,201.8,186.8z M194.1,182.8h6.6v-5.3c0-0.9,0.6-1.6,1.4-1.9c1.2-0.4,2.3-0.8,3.2-1.3c0.8-0.4,1.7-0.3,2.3,0.3l3.9,3.8l5.1-5.1l-3.8-3.8 c-0.6-0.6-0.8-1.6-0.3-2.3c0.5-1,1-2,1.3-3c0.3-0.8,1-1.4,1.9-1.4h5.1V155h-5.1c-0.9,0-1.6-0.6-1.9-1.4c-0.3-1-0.7-1.7-1.3-2.8 c-0.4-0.8-0.3-1.7,0.4-2.3l3.8-3.7l-5.1-5l-3.9,3.9c-0.6,0.6-1.5,0.7-2.3,0.3c-0.8-0.4-1.9-0.9-3.2-1.3c-0.8-0.3-1.4-1-1.4-1.9v-5.6 h-6.6v5.8c0,0.9-0.6,1.6-1.4,1.9c-1.4,0.4-2.5,0.9-3.3,1.3s-1.7,0.3-2.3-0.3l-4-3.9l-5.2,5.1l3.8,3.5c0.6,0.6,0.8,1.6,0.4,2.4 c-0.5,1-1,1.8-1.3,2.8c-0.3,0.8-1,1.4-1.9,1.4h-4.9v7.8h4.9c0.9,0,1.6,0.6,1.9,1.4c0.3,1,0.7,2,1.3,3c0.4,0.8,0.3,1.7-0.3,2.3 l-3.8,3.8l5.1,5.1l4-3.9c0.6-0.6,1.5-0.7,2.3-0.3s1.8,0.8,3.2,1.3c0.8,0.3,1.4,1,1.4,1.9V182.8L194.1,182.8z"></path> <linearGradient id="SVGID_67_" gradientUnits="userSpaceOnUse" x1="103.1006" y1="360.0293" x2="103.1006" y2="29.2763" gradientTransform="matrix(1 0 0 -1 94 383)"> <stop offset="0" style="stop-color:#E65A49"></stop> <stop offset="1" style="stop-color:#F89C2B"></stop> </linearGradient> <path class="st115" d="M197.1,169.6c-5.5,0-10-4.5-10-10s4.5-10,10-10s10,4.5,10,10S202.6,169.6,197.1,169.6z M197.1,153.4 c-3.4,0-6.1,2.7-6.1,6.1s2.7,6.1,6.1,6.1s6.1-2.7,6.1-6.1S200.5,153.4,197.1,153.4z"></path> <linearGradient id="SVGID_68_" gradientUnits="userSpaceOnUse" x1="549.9199" y1="360.0273" x2="549.9199" y2="29.282" gradientTransform="matrix(1 0 0 -1 94 383)"> <stop offset="0" style="stop-color:#E65A49"></stop> <stop offset="1" style="stop-color:#F89C2B"></stop> </linearGradient> <path class="st116" d="M643,158.2c-0.5,0-0.9-0.2-1.3-0.5l-10.3-9l-42.5-36.3c-0.6-0.5-0.8-1.4-0.6-2.2s1-1.3,1.8-1.3h107.6 c0.8,0,1.6,0.5,1.8,1.3c0.3,0.8,0,1.6-0.6,2.2L655,148.8l-10.7,9C643.9,158.1,643.5,158.2,643,158.2z M595.5,112.9l38.5,32.9 l9.1,7.9l9.4-7.9l39.9-32.9H595.5z"></path> <linearGradient id="SVGID_69_" gradientUnits="userSpaceOnUse" x1="516.8984" y1="360.0313" x2="516.8984" y2="29.2722" gradientTransform="matrix(1 0 0 -1 94 383)"> <stop offset="0" style="stop-color:#E65A49"></stop> <stop offset="1" style="stop-color:#F89C2B"></stop> </linearGradient> <path class="st117" d="M589.7,183.1c-0.3,0-0.6-0.1-0.9-0.2c-0.7-0.3-1.1-1-1.1-1.8v-69.8c0-0.8,0.4-1.5,1.1-1.8 c0.7-0.3,1.5-0.2,2.1,0.3l42.5,36.1c0.4,0.4,0.7,0.9,0.7,1.5s-0.3,1.1-0.7,1.5l-42.5,33.7C590.6,183,590.1,183.1,589.7,183.1z M591.7,115.6v61.5l37.4-29.7L591.7,115.6z"></path> <linearGradient id="SVGID_70_" gradientUnits="userSpaceOnUse" x1="581.499" y1="360.0313" x2="581.499" y2="29.2722" gradientTransform="matrix(1 0 0 -1 94 383)"> <stop offset="0" style="stop-color:#E65A49"></stop> <stop offset="1" style="stop-color:#F89C2B"></stop> </linearGradient> <path class="st118" d="M697.6,183.1c-0.4,0-0.8-0.1-1.2-0.4L652.3,149c-0.5-0.4-0.8-0.9-0.8-1.5s0.3-1.2,0.7-1.6l44.1-36.1 c0.6-0.5,1.4-0.6,2.1-0.3c0.7,0.3,1.1,1,1.1,1.8v69.9c0,0.7-0.4,1.4-1.1,1.8C698.2,183,697.9,183.1,697.6,183.1z M656.7,147.4 l39,29.8v-61.6L656.7,147.4z"></path> <linearGradient id="SVGID_71_" gradientUnits="userSpaceOnUse" x1="549.9902" y1="360.0273" x2="549.9902" y2="29.2783" gradientTransform="matrix(1 0 0 -1 94 383)"> <stop offset="0" style="stop-color:#E65A49"></stop> <stop offset="1" style="stop-color:#F89C2B"></stop> </linearGradient> <path class="st119" d="M697.9,183.2C697.9,183.2,697.8,183.3,697.9,183.2H590.2c-0.8,0-1.6-0.5-1.9-1.3c-0.3-0.8,0-1.7,0.6-2.2 l42.5-33.7c0.7-0.6,1.8-0.6,2.5,0l9.1,7.6l9.5-7.7c0.7-0.6,1.7-0.6,2.4,0l44,33.6c0.6,0.3,0.9,1,0.9,1.7 C699.8,182.4,698.9,183.2,697.9,183.2z M595.8,179.3H692L653.7,150l-9.5,7.7c-0.7,0.6-1.8,0.6-2.5,0l-9.1-7.7L595.8,179.3z"></path> <linearGradient id="SVGID_72_" gradientUnits="userSpaceOnUse" x1="71.8003" y1="360.0322" x2="71.8003" y2="29.2708" gradientTransform="matrix(1 0 0 -1 94 383)"> <stop offset="0" style="stop-color:#E65A49"></stop> <stop offset="1" style="stop-color:#F89C2B"></stop> </linearGradient> <path class="st120" d="M166,304.4c-20.3,0-36.7-16.3-36.7-36.2c0-15.9,11-28.8,22.2-33.8v-21.5c0-1.1,0.9-2,2-2H177c1.1,0,2,0.9,2,2 v21.4c14.2,5.3,23.3,18.4,23.3,33.8C202.2,288.2,185.9,304.4,166,304.4z M155.4,214.9v20.8c0,0.8-0.5,1.5-1.2,1.8 c-10.4,4.1-21,15.9-21,30.6c0,17.8,14.7,32.3,32.8,32.3c17.8,0,32.2-14.5,32.2-32.3c0-14.2-8.6-26.2-22-30.6c-0.8-0.3-1.4-1-1.4-1.9 v-20.8h-19.4V214.9z"></path> <linearGradient id="SVGID_73_" gradientUnits="userSpaceOnUse" x1="71.1504" y1="360.0225" x2="71.1503" y2="29.2777" gradientTransform="matrix(1 0 0 -1 94 383)"> <stop offset="0" style="stop-color:#E65A49"></stop> <stop offset="1" style="stop-color:#F89C2B"></stop> </linearGradient> <path class="st121" d="M176.9,214.9h-23.5c-1.1,0-2-0.9-2-2v-15.2c0-1.1,0.9-2,2-2h23.5c1.1,0,2,0.9,2,2v15.2 C178.8,214,178,214.9,176.9,214.9z M155.4,211h19.5v-11.3h-19.5V211z"></path> <line class="st57" x1="165.2" y1="213" x2="165.2" y2="269.2"></line> <linearGradient id="SVGID_74_" gradientUnits="userSpaceOnUse" x1="71.2007" y1="360.0293" x2="71.2007" y2="29.2726" gradientTransform="matrix(1 0 0 -1 94 383)"> <stop offset="0" style="stop-color:#E65A49"></stop> <stop offset="1" style="stop-color:#F89C2B"></stop> </linearGradient> <path class="st122" d="M165.2,271.2c-1.1,0-2-0.9-2-2v-56.3c0-1.1,0.9-2,2-2c1.1,0,2,0.9,2,2v56.3 C167.1,270.3,166.2,271.2,165.2,271.2z"></path> <line class="st57" x1="173.4" y1="269.2" x2="156.9" y2="269.2"></line> <linearGradient id="SVGID_75_" gradientUnits="userSpaceOnUse" x1="71.2007" y1="360.0342" x2="71.2006" y2="29.27" gradientTransform="matrix(1 0 0 -1 94 383)"> <stop offset="0" style="stop-color:#E65A49"></stop> <stop offset="1" style="stop-color:#F89C2B"></stop> </linearGradient> <path class="st123" d="M173.4,271.2H157c-1.1,0-2-0.9-2-2s0.9-2,2-2h16.4c1.1,0,2,0.9,2,2C175.3,270.3,174.4,271.2,173.4,271.2z"></path> <linearGradient id="SVGID_76_" gradientUnits="userSpaceOnUse" x1="91.874" y1="360.0283" x2="91.874" y2="29.2731" gradientTransform="matrix(1 0 0 -1 94 383)"> <stop offset="0" style="stop-color:#E65A49"></stop> <stop offset="1" style="stop-color:#F89C2B"></stop> </linearGradient> <path class="st124" d="M181.8,287.7c-0.6,0-1.2-0.3-1.6-0.8c-0.6-0.9-0.4-2.1,0.5-2.7c0.4-0.3,10.4-7.6,6.4-21.4 c-0.3-1,0.3-2.1,1.3-2.4s2.1,0.3,2.4,1.3c4.8,16.6-7.8,25.6-7.9,25.7C182.6,287.6,182.2,287.7,181.8,287.7z"></path> <line class="st57" x1="195.6" y1="196.5" x2="195.6" y2="215.3"></line> <linearGradient id="SVGID_77_" gradientUnits="userSpaceOnUse" x1="101.6006" y1="360.0332" x2="101.6006" y2="29.2692" gradientTransform="matrix(1 0 0 -1 94 383)"> <stop offset="0" style="stop-color:#E65A49"></stop> <stop offset="1" style="stop-color:#F89C2B"></stop> </linearGradient> <path class="st125" d="M195.6,217.3c-1.1,0-2-0.9-2-2v-18.8c0-1.1,0.9-2,2-2s2,0.9,2,2v18.8C197.6,216.4,196.7,217.3,195.6,217.3z"></path> <line class="st57" x1="216.8" y1="196.5" x2="216.8" y2="237.6"></line> <linearGradient id="SVGID_78_" gradientUnits="userSpaceOnUse" x1="122.8003" y1="360.0303" x2="122.8003" y2="29.2722" gradientTransform="matrix(1 0 0 -1 94 383)"> <stop offset="0" style="stop-color:#E65A49"></stop> <stop offset="1" style="stop-color:#F89C2B"></stop> </linearGradient> <path class="st126" d="M216.8,239.5c-1.1,0-2-0.9-2-2v-41c0-1.1,0.9-2,2-2c1.1,0,2,0.9,2,2v41C218.7,238.7,217.8,239.5,216.8,239.5z "></path> <line class="st57" x1="620.2" y1="213" x2="620.2" y2="189.5"></line> <linearGradient id="SVGID_79_" gradientUnits="userSpaceOnUse" x1="526.1992" y1="360.0332" x2="526.1992" y2="29.2682" gradientTransform="matrix(1 0 0 -1 94 383)"> <stop offset="0" style="stop-color:#E65A49"></stop> <stop offset="1" style="stop-color:#F89C2B"></stop> </linearGradient> <path class="st127" d="M620.2,214.9c-1.1,0-2-0.9-2-2v-23.5c0-1.1,0.9-2,2-2c1.1,0,2,0.9,2,2v23.5 C622.1,214,621.3,214.9,620.2,214.9z"></path> <line class="st57" x1="596.7" y1="213" x2="596.7" y2="196.5"></line> <linearGradient id="SVGID_80_" gradientUnits="userSpaceOnUse" x1="502.6992" y1="360.0342" x2="502.6992" y2="29.2669" gradientTransform="matrix(1 0 0 -1 94 383)"> <stop offset="0" style="stop-color:#E65A49"></stop> <stop offset="1" style="stop-color:#F89C2B"></stop> </linearGradient> <path class="st128" d="M596.7,214.9c-1.1,0-2-0.9-2-2v-16.4c0-1.1,0.9-2,2-2c1.1,0,2,0.9,2,2v16.4 C598.7,214,597.8,214.9,596.7,214.9z"></path> <linearGradient id="SVGID_81_" gradientUnits="userSpaceOnUse" x1="622.8994" y1="360.041" x2="622.8994" y2="29.2674" gradientTransform="matrix(1 0 0 -1 94 383)"> <stop offset="0" style="stop-color:#E65A49"></stop> <stop offset="1" style="stop-color:#F89C2B"></stop> </linearGradient> <path class="st129" d="M764.4,252.4h-95c-1.1,0-2-0.9-2-2v-28.1c0-1.1,0.9-2,2-2h95c1.1,0,2,0.9,2,2v28.1 C766.4,251.6,765.5,252.4,764.4,252.4z M671.4,248.5h91.1v-24.2h-91.1V248.5z"></path> <linearGradient id="SVGID_82_" gradientUnits="userSpaceOnUse" x1="622.8994" y1="360.0303" x2="622.8994" y2="29.2727" gradientTransform="matrix(1 0 0 -1 94 383)"> <stop offset="0" style="stop-color:#E65A49"></stop> <stop offset="1" style="stop-color:#F89C2B"></stop> </linearGradient> <path class="st130" d="M764.4,319.3h-95c-1.1,0-2-0.9-2-2v-66.8c0-1.1,0.9-2,2-2h95c1.1,0,2,0.9,2,2v66.8 C766.4,318.4,765.5,319.3,764.4,319.3z M671.4,315.4h91.1v-62.9h-91.1V315.4z"></path> <linearGradient id="SVGID_83_" gradientUnits="userSpaceOnUse" x1="594.1484" y1="360.0518" x2="594.1484" y2="29.2639" gradientTransform="matrix(1 0 0 -1 94 383)"> <stop offset="0" style="stop-color:#E65A49"></stop> <stop offset="1" style="stop-color:#F89C2B"></stop> </linearGradient> <path class="st131" d="M695.2,279.4h-14.1c-1.1,0-2-0.9-2-2v-14.1c0-1.1,0.9-2,2-2h14.1c1.1,0,2,0.9,2,2v14.1 C697.2,278.5,696.3,279.4,695.2,279.4z M683.1,275.5h10.2v-10.1h-10.2V275.5z"></path> <linearGradient id="SVGID_84_" gradientUnits="userSpaceOnUse" x1="623.5488" y1="360.0518" x2="623.5488" y2="29.2639" gradientTransform="matrix(1 0 0 -1 94 383)"> <stop offset="0" style="stop-color:#E65A49"></stop> <stop offset="1" style="stop-color:#F89C2B"></stop> </linearGradient> <path class="st132" d="M724.6,279.4h-14.1c-1.1,0-2-0.9-2-2v-14.1c0-1.1,0.9-2,2-2h14.1c1.1,0,2,0.9,2,2v14.1 C726.5,278.5,725.6,279.4,724.6,279.4z M712.5,275.5h10.1v-10.1h-10.1V275.5z"></path> <linearGradient id="SVGID_85_" gradientUnits="userSpaceOnUse" x1="651.0488" y1="360.0518" x2="651.0488" y2="29.2639" gradientTransform="matrix(1 0 0 -1 94 383)"> <stop offset="0" style="stop-color:#E65A49"></stop> <stop offset="1" style="stop-color:#F89C2B"></stop> </linearGradient> <path class="st133" d="M751.5,279.4h-12.9c-1.1,0-2-0.9-2-2v-14.1c0-1.1,0.9-2,2-2h12.9c1.1,0,2,0.9,2,2v14.1 C753.5,278.5,752.6,279.4,751.5,279.4z M740.6,275.5h9v-10.1h-9V275.5z"></path> <linearGradient id="SVGID_86_" gradientUnits="userSpaceOnUse" x1="594.1484" y1="360.042" x2="594.1484" y2="29.2721" gradientTransform="matrix(1 0 0 -1 94 383)"> <stop offset="0" style="stop-color:#E65A49"></stop> <stop offset="1" style="stop-color:#F89C2B"></stop> </linearGradient> <path class="st134" d="M695.2,306.4h-14.1c-1.1,0-2-0.9-2-2v-14.1c0-1.1,0.9-2,2-2h14.1c1.1,0,2,0.9,2,2v14.1 C697.2,305.5,696.3,306.4,695.2,306.4z M683.1,302.5h10.2v-10.1h-10.2V302.5z"></path> <linearGradient id="SVGID_87_" gradientUnits="userSpaceOnUse" x1="651.0488" y1="360.042" x2="651.0488" y2="29.2721" gradientTransform="matrix(1 0 0 -1 94 383)"> <stop offset="0" style="stop-color:#E65A49"></stop> <stop offset="1" style="stop-color:#F89C2B"></stop> </linearGradient> <path class="st135" d="M751.5,306.4h-12.9c-1.1,0-2-0.9-2-2v-14.1c0-1.1,0.9-2,2-2h12.9c1.1,0,2,0.9,2,2v14.1 C753.5,305.5,752.6,306.4,751.5,306.4z M740.6,302.5h9v-10.1h-9V302.5z"></path> <line class="st57" x1="710.5" y1="289.3" x2="725.4" y2="304.1"></line> <linearGradient id="SVGID_88_" gradientUnits="userSpaceOnUse" x1="623.999" y1="360.043" x2="623.999" y2="29.2709" gradientTransform="matrix(1 0 0 -1 94 383)"> <stop offset="0" style="stop-color:#E65A49"></stop> <stop offset="1" style="stop-color:#F89C2B"></stop> </linearGradient> <path class="st136" d="M725.4,306.1c-0.5,0-1-0.2-1.4-0.6l-14.8-14.8c-0.8-0.8-0.8-2,0-2.8s2-0.8,2.8,0l14.8,14.9 c0.8,0.8,0.8,2,0,2.8C726.4,305.9,725.9,306.1,725.4,306.1z"></path> <line class="st57" x1="710.5" y1="304.1" x2="725.4" y2="289.3"></line> <linearGradient id="SVGID_89_" gradientUnits="userSpaceOnUse" x1="623.8984" y1="360.0352" x2="623.8984" y2="29.2716" gradientTransform="matrix(1 0 0 -1 94 383)"> <stop offset="0" style="stop-color:#E65A49"></stop> <stop offset="1" style="stop-color:#F89C2B"></stop> </linearGradient> <path class="st137" d="M710.5,306.1c-0.5,0-1-0.2-1.4-0.6c-0.8-0.8-0.8-2,0-2.8l14.8-14.9c0.8-0.8,2-0.8,2.8,0c0.8,0.8,0.8,2,0,2.8 l-14.8,14.8C711.5,305.9,711,306.1,710.5,306.1z"></path> <linearGradient id="SVGID_90_" gradientUnits="userSpaceOnUse" x1="649.2988" y1="360.0303" x2="649.2988" y2="29.2729" gradientTransform="matrix(1 0 0 -1 94 383)"> <stop offset="0" style="stop-color:#E65A49"></stop> <stop offset="1" style="stop-color:#F89C2B"></stop> </linearGradient> <path class="st138" d="M766.8,173.9h-46.9c-1.1,0-2-0.9-2-2v-9.3c0-3.2,2.5-6.7,5.8-6.7h38.8c3.5,0,6.2,3.7,6.2,6.7v9.3 C768.7,173,767.9,173.9,766.8,173.9z M721.8,169.9h43v-7.4c0-1.2-1.3-2.8-2.3-2.8h-38.8c-0.9,0-1.9,1.5-1.9,2.8V169.9z"></path> <linearGradient id="SVGID_91_" gradientUnits="userSpaceOnUse" x1="648.7988" y1="360.0303" x2="648.7988" y2="29.2732" gradientTransform="matrix(1 0 0 -1 94 383)"> <stop offset="0" style="stop-color:#E65A49"></stop> <stop offset="1" style="stop-color:#F89C2B"></stop> </linearGradient> <path class="st139" d="M753.9,152.8h-21.1c-1.1,0-2-0.9-2-2v-36.7h-2.6c-2.4,0-4.4-2.1-4.4-4.8v-5.2c0-2.5,1.9-4.5,4.4-4.5h1.3 c-1.8-2.7-2.9-5.5-2.9-9c0-9.2,7.4-16.6,16.6-16.6s16.6,7.4,16.6,16.6c0,3.5-1.1,6.3-2.9,9h1.3c1.4,0,3.6,0.6,3.6,4.5v5.2 c0,4.3-2.5,4.8-3.6,4.8H756v36.7C755.8,151.9,755,152.8,753.9,152.8z M734.7,148.8h17.2v-36.7c0-1.1,0.9-2,2-2h3.9 c0-0.2,0.1-0.4,0.1-0.8v-5.2c0-0.3,0-0.5,0-0.6h-5c-0.8,0-1.5-0.4-1.8-1.1c-0.3-0.7-0.2-1.5,0.3-2.1c2.8-3.3,4.5-5.9,4.5-9.7 c0-7-5.7-12.7-12.7-12.7s-12.7,5.7-12.7,12.7c0,3.7,1.6,6.4,4.5,9.7c0.5,0.6,0.6,1.4,0.3,2.1c-0.3,0.7-1,1.1-1.8,1.1h-5.3 c-0.4,0-0.5,0.4-0.5,0.6v5.2c0,0.4,0.3,0.8,0.5,0.8h4.6c1.1,0,2,0.9,2,2L734.7,148.8L734.7,148.8z"></path> <linearGradient id="SVGID_92_" gradientUnits="userSpaceOnUse" x1="648.6992" y1="360.0303" x2="648.6992" y2="29.2725" gradientTransform="matrix(1 0 0 -1 94 383)"> <stop offset="0" style="stop-color:#E65A49"></stop> <stop offset="1" style="stop-color:#F89C2B"></stop> </linearGradient> <path class="st140" d="M759.7,159.8h-34c-1.1,0-2-0.9-2-2v-7c0-1.1,0.9-2,2-2h34c1.1,0,2,0.9,2,2v7 C761.7,158.9,760.8,159.8,759.7,159.8z M727.7,152.8v3.1h30.1v-3.1"></path> <linearGradient id="SVGID_93_" gradientUnits="userSpaceOnUse" x1="649.2988" y1="360.0215" x2="649.2988" y2="29.2833" gradientTransform="matrix(1 0 0 -1 94 383)"> <stop offset="0" style="stop-color:#E65A49"></stop> <stop offset="1" style="stop-color:#F89C2B"></stop> </linearGradient> <path class="st141" d="M773.8,185.6h-61c-1.1,0-2-0.9-2-2v-11.7c0-1.1,0.9-2,2-2h61c1.1,0,2,0.9,2,2v11.7 C775.8,184.7,774.9,185.6,773.8,185.6z M714.8,181.7h57.1v-7.8h-57.1V181.7z"></path> <line class="st57" x1="733.9" y1="101.5" x2="742.2" y2="101.5"></line> <linearGradient id="SVGID_94_" gradientUnits="userSpaceOnUse" x1="644.0996" y1="360.0313" x2="644.0996" y2="29.267" gradientTransform="matrix(1 0 0 -1 94 383)"> <stop offset="0" style="stop-color:#E65A49"></stop> <stop offset="1" style="stop-color:#F89C2B"></stop> </linearGradient> <path class="st142" d="M742.2,103.5H734c-1.1,0-2-0.9-2-2s0.9-2,2-2h8.2c1.1,0,2,0.9,2,2S743.2,103.5,742.2,103.5z"></path> <line class="st57" x1="732.8" y1="112.1" x2="745.7" y2="112.1"></line> <linearGradient id="SVGID_95_" gradientUnits="userSpaceOnUse" x1="645.249" y1="360.0439" x2="645.249" y2="29.2386" gradientTransform="matrix(1 0 0 -1 94 383)"> <stop offset="0" style="stop-color:#E65A49"></stop> <stop offset="1" style="stop-color:#F89C2B"></stop> </linearGradient> <path class="st143" d="M745.7,114.1h-12.9c-1.1,0-2-0.9-2-2c0-1.1,0.9-2,2-2h12.9c1.1,0,2,0.9,2,2 C747.6,113.2,746.8,114.1,745.7,114.1z"></path> <line class="st57" x1="712.8" y1="171.9" x2="773.8" y2="171.9"></line> <linearGradient id="SVGID_96_" gradientUnits="userSpaceOnUse" x1="649.2988" y1="360.0137" x2="649.2988" y2="29.2907" gradientTransform="matrix(1 0 0 -1 94 383)"> <stop offset="0" style="stop-color:#E65A49"></stop> <stop offset="1" style="stop-color:#F89C2B"></stop> </linearGradient> <path class="st144" d="M773.8,173.9h-61c-1.1,0-2-0.9-2-2s0.9-2,2-2h61c1.1,0,2,0.9,2,2S774.9,173.9,773.8,173.9z"></path> <path class="st47" d="M165.2,160.7"></path> <linearGradient id="SVGID_97_" gradientUnits="userSpaceOnUse" x1="-1.8511" y1="360.0313" x2="-1.8511" y2="29.2734" gradientTransform="matrix(1 0 0 -1 94 383)"> <stop offset="0" style="stop-color:#E65A49"></stop> <stop offset="1" style="stop-color:#F89C2B"></stop> </linearGradient> <path class="st145" d="M165.7,162.1L165.7,162.1H18.9c-1.1,0-2-0.9-2-2c0-16.5,13.6-30,30.2-30c5.5,0,10.9,1.6,15.7,4.5 c2.8-2.8,6.4-4.8,10.3-5.7c-0.1-0.9-0.1-1.7-0.1-2.6c0-16.7,13.6-30.2,30.2-30.2c16.7,0,30.2,13.6,30.2,30.2c0,1.4-0.1,2.8-0.3,4.1 c1.3-0.2,2.6-0.4,4-0.4c16.6,0,30.1,13.3,30.2,29.7c0,0.1,0,0.2,0,0.3C167.7,161.3,166.8,162.1,165.7,162.1z M21,158.2h142.7 c-1-13.5-12.4-24.1-26.2-24.1c-2.1,0-4.2,0.5-6.1,0.9c-0.7,0.2-1.4,0-1.8-0.5c-0.5-0.5-0.7-1.2-0.5-1.8c0.5-2.1,0.7-4.1,0.7-6.2 c0-14.5-11.8-26.3-26.3-26.3S77.2,112,77.2,126.5c0,1.3,0.1,2.5,0.3,3.8c0.2,1.1-0.6,2-1.6,2.2c-4.3,0.7-8.2,2.9-11,6.1 c-0.7,0.7-1.8,0.9-2.6,0.3c-4.5-3.1-9.7-4.8-14.9-4.8C33.4,134.1,22,144.7,21,158.2z"></path> <path class="st0" d="M130.9,133.1c0,0-3.5,2.8-4.6,3.4"></path> <linearGradient id="SVGID_98_" gradientUnits="userSpaceOnUse" x1="34.6558" y1="360.0391" x2="34.6556" y2="29.2599" gradientTransform="matrix(1 0 0 -1 94 383)"> <stop offset="0" style="stop-color:#E65A49"></stop> <stop offset="1" style="stop-color:#F89C2B"></stop> </linearGradient> <path class="st146" d="M126.3,138.5c-0.7,0-1.4-0.4-1.7-1.1c-0.5-1-0.1-2.1,0.8-2.6c0.7-0.3,2.9-2.1,4.3-3.2 c0.8-0.7,2.1-0.5,2.8,0.3c0.7,0.8,0.5,2.1-0.3,2.8c-0.6,0.5-3.7,2.9-4.9,3.6C126.9,138.4,126.6,138.5,126.3,138.5z"></path> <path class="st0" d="M63.3,137.4c0,0,1.6,2.7,1.6,4.7"></path> <linearGradient id="SVGID_99_" gradientUnits="userSpaceOnUse" x1="-29.9663" y1="360.0254" x2="-29.9663" y2="29.2602" gradientTransform="matrix(1 0 0 -1 94 383)"> <stop offset="0" style="stop-color:#E65A49"></stop> <stop offset="1" style="stop-color:#F89C2B"></stop> </linearGradient> <path class="st147" d="M64.9,144.1c-1.1,0-1.9-0.8-2-1.9c0-1.2-0.9-3.1-1.4-3.8c-0.5-0.9-0.2-2.1,0.7-2.7c0.9-0.5,2.1-0.2,2.7,0.7 c0.2,0.3,1.8,3.2,1.9,5.7C66.9,143.1,66,144,64.9,144.1L64.9,144.1z"></path> <line class="st57" x1="100.6" y1="177.8" x2="105.3" y2="177.8"></line> <linearGradient id="SVGID_100_" gradientUnits="userSpaceOnUse" x1="8.9507" y1="360.0352" x2="8.9507" y2="29.271" gradientTransform="matrix(1 0 0 -1 94 383)"> <stop offset="0" style="stop-color:#E65A49"></stop> <stop offset="1" style="stop-color:#F89C2B"></stop> </linearGradient> <path class="st2" d="M105.3,179.7h-4.7c-1.1,0-2-0.9-2-2s0.9-2,2-2h4.7c1.1,0,2,0.9,2,2C107.3,178.9,106.4,179.7,105.3,179.7z"></path> <line class="st57" x1="130" y1="182.5" x2="141.7" y2="182.5"></line> <linearGradient id="SVGID_101_" gradientUnits="userSpaceOnUse" x1="41.8506" y1="360.0342" x2="41.8506" y2="29.27" gradientTransform="matrix(1 0 0 -1 94 383)"> <stop offset="0" style="stop-color:#E65A49"></stop> <stop offset="1" style="stop-color:#F89C2B"></stop> </linearGradient> <path class="st3" d="M141.7,184.4H130c-1.1,0-2-0.9-2-2s0.9-2,2-2h11.7c1.1,0,2,0.9,2,2S142.8,184.4,141.7,184.4z"></path> <line class="st57" x1="70.2" y1="183.6" x2="81.9" y2="183.6"></line> <linearGradient id="SVGID_102_" gradientUnits="userSpaceOnUse" x1="-17.9497" y1="360.0547" x2="-17.9497" y2="29.2494" gradientTransform="matrix(1 0 0 -1 94 383)"> <stop offset="0" style="stop-color:#E65A49"></stop> <stop offset="1" style="stop-color:#F89C2B"></stop> </linearGradient> <path class="st4" d="M81.9,185.6H70.2c-1.1,0-2-0.9-2-2c0-1.1,0.9-2,2-2h11.7c1.1,0,2,0.9,2,2C83.8,184.7,83,185.6,81.9,185.6z"></path> <linearGradient id="SVGID_103_" gradientUnits="userSpaceOnUse" x1="-7.2495" y1="360.0264" x2="-7.2495" y2="29.275" gradientTransform="matrix(1 0 0 -1 94 383)"> <stop offset="0" style="stop-color:#E65A49"></stop> <stop offset="1" style="stop-color:#F89C2B"></stop> </linearGradient> <path class="st5" d="M141.7,211.4c-4.7,0-7.1-2.1-9.2-4c-1.9-1.7-3.4-3-6.5-3c-3.2,0-4.7,1.3-6.5,3c-2.1,1.9-4.5,4-9.2,4 c-4.7,0-7.1-2.1-9.2-4c-1.9-1.7-3.4-3-6.5-3c-3.2,0-4.7,1.3-6.5,3c-2.1,1.9-4.5,4-9.2,4c-4.7,0-7.1-2.1-9.2-4c-1.9-1.7-3.4-3-6.5-3 c-3.2,0-4.7,1.3-6.5,3c-2.1,1.9-4.5,4-9.2,4s-7.1-2.1-9.2-4c-1.9-1.7-3.4-3-6.5-3c-1.1,0-2-0.9-2-2c0-1.1,0.9-2,2-2 c4.7,0,7.1,2.1,9.2,4c1.9,1.7,3.4,3,6.5,3c3.2,0,4.7-1.3,6.5-3c2.1-1.9,4.5-4,9.2-4c4.7,0,7.1,2.1,9.2,4c1.9,1.7,3.4,3,6.5,3 c3.2,0,4.7-1.3,6.5-3c2.1-1.9,4.5-4,9.2-4c4.7,0,7.1,2.1,9.2,4c1.9,1.7,3.4,3,6.5,3c3.1,0,4.7-1.3,6.5-3c2.1-1.9,4.5-4,9.2-4 s7.1,2.1,9.2,4c1.9,1.7,3.4,3,6.5,3c1.1,0,2,0.9,2,2C143.7,210.5,142.8,211.4,141.7,211.4z"></path> <polygon class="st1" points="107.7,273.9 58.4,273.9 58.4,241.1 83.1,241.1 83.1,229.4 96.3,241.1 107.7,241.1 "></polygon> <linearGradient id="SVGID_104_" gradientUnits="userSpaceOnUse" x1="-10.9497" y1="360.0332" x2="-10.9497" y2="29.2714" gradientTransform="matrix(1 0 0 -1 94 383)"> <stop offset="0" style="stop-color:#E65A49"></stop> <stop offset="1" style="stop-color:#F89C2B"></stop> </linearGradient> <path class="st6" d="M107.7,275.9H58.4c-1.1,0-2-0.9-2-2v-32.8c0-1.1,0.9-2,2-2h22.7v-9.8c0-0.8,0.5-1.5,1.2-1.8 c0.7-0.3,1.5-0.2,2.1,0.3L97,239.1h10.7c1.1,0,2,0.9,2,2v32.8C109.6,275,108.8,275.9,107.7,275.9z M60.4,272h45.3v-28.9h-9.5 c-0.5,0-0.9-0.2-1.3-0.5l-9.9-8.8v7.4c0,1.1-0.9,2-2,2H60.4V272z"></path> <line class="st57" x1="84.2" y1="264.6" x2="66.6" y2="264.6"></line> <linearGradient id="SVGID_105_" gradientUnits="userSpaceOnUse" x1="-18.5991" y1="360.0947" x2="-18.5993" y2="29.2482" gradientTransform="matrix(1 0 0 -1 94 383)"> <stop offset="0" style="stop-color:#E65A49"></stop> <stop offset="1" style="stop-color:#F89C2B"></stop> </linearGradient> <path class="st7" d="M84.2,266.5H66.6c-1.1,0-2-0.9-2-2c0-1.1,0.9-2,2-2h17.6c1.1,0,2,0.9,2,2C86.2,265.6,85.3,266.5,84.2,266.5z"></path> <line class="st57" x1="66.6" y1="252.8" x2="100.6" y2="252.8"></line> <linearGradient id="SVGID_106_" gradientUnits="userSpaceOnUse" x1="-10.3994" y1="360.0352" x2="-10.3994" y2="29.271" gradientTransform="matrix(1 0 0 -1 94 383)"> <stop offset="0" style="stop-color:#E65A49"></stop> <stop offset="1" style="stop-color:#F89C2B"></stop> </linearGradient> <path class="st8" d="M100.6,254.8h-34c-1.1,0-2-0.9-2-2c0-1.1,0.9-2,2-2h34c1.1,0,2,0.9,2,2C102.6,253.9,101.7,254.8,100.6,254.8z"></path> <linearGradient id="SVGID_107_" gradientUnits="userSpaceOnUse" x1="529.749" y1="360.0186" x2="529.749" y2="29.2718" gradientTransform="matrix(1 0 0 -1 94 383)"> <stop offset="0" style="stop-color:#E65A49"></stop> <stop offset="1" style="stop-color:#F89C2B"></stop> </linearGradient> <path class="st9" d="M637.8,332.2h-28.1c-1.1,0-2-0.9-2-2v-25.8c0-1.1,0.9-2,2-2h28.1c1.1,0,2,0.9,2,2v25.8 C639.7,331.3,638.9,332.2,637.8,332.2z M611.6,328.3h24.2v-21.9h-24.2V328.3z"></path> <line class="st57" x1="599.1" y1="325.5" x2="514.6" y2="325.5"></line> <linearGradient id="SVGID_108_" gradientUnits="userSpaceOnUse" x1="462.8984" y1="360.0352" x2="462.8984" y2="29.2711" gradientTransform="matrix(1 0 0 -1 94 383)"> <stop offset="0" style="stop-color:#E65A49"></stop> <stop offset="1" style="stop-color:#F89C2B"></stop> </linearGradient> <path class="st10" d="M599.1,327.5h-84.4c-1.1,0-2-0.9-2-2c0-1.1,0.9-2,2-2h84.4c1.1,0,2,0.9,2,2C601,326.6,600.2,327.5,599.1,327.5 z"></path> <line class="st57" x1="599.1" y1="311.5" x2="555.7" y2="311.5"></line> <linearGradient id="SVGID_109_" gradientUnits="userSpaceOnUse" x1="483.3984" y1="360.0342" x2="483.3984" y2="29.2701" gradientTransform="matrix(1 0 0 -1 94 383)"> <stop offset="0" style="stop-color:#E65A49"></stop> <stop offset="1" style="stop-color:#F89C2B"></stop> </linearGradient> <path class="st11" d="M599.1,313.4h-43.4c-1.1,0-2-0.9-2-2c0-1.1,0.9-2,2-2h43.4c1.1,0,2,0.9,2,2C601,312.5,600.2,313.4,599.1,313.4 z"></path> <line class="st57" x1="637.7" y1="304.7" x2="610.8" y2="330.2"></line> <linearGradient id="SVGID_110_" gradientUnits="userSpaceOnUse" x1="530.2988" y1="360.0283" x2="530.2988" y2="29.2722" gradientTransform="matrix(1 0 0 -1 94 383)"> <stop offset="0" style="stop-color:#E65A49"></stop> <stop offset="1" style="stop-color:#F89C2B"></stop> </linearGradient> <path class="st12" d="M610.8,332.2c-0.5,0-1-0.2-1.4-0.6c-0.7-0.8-0.7-2,0.1-2.8l26.9-25.6c0.8-0.7,2-0.7,2.8,0.1 c0.7,0.8,0.7,2-0.1,2.8l-26.9,25.6C611.8,332,611.3,332.2,610.8,332.2z"></path> <line class="st57" x1="546.3" y1="311.5" x2="531.1" y2="311.5"></line> <linearGradient id="SVGID_111_" gradientUnits="userSpaceOnUse" x1="444.6992" y1="360.0342" x2="444.6992" y2="29.2701" gradientTransform="matrix(1 0 0 -1 94 383)"> <stop offset="0" style="stop-color:#E65A49"></stop> <stop offset="1" style="stop-color:#F89C2B"></stop> </linearGradient> <path class="st13" d="M546.3,313.4h-15.2c-1.1,0-2-0.9-2-2c0-1.1,0.9-2,2-2h15.2c1.1,0,2,0.9,2,2 C548.3,312.5,547.4,313.4,546.3,313.4z"></path> <linearGradient id="SVGID_112_" gradientUnits="userSpaceOnUse" x1="80.5503" y1="360.0352" x2="80.5503" y2="29.2559" gradientTransform="matrix(1 0 0 -1 94 383)"> <stop offset="0" style="stop-color:#E65A49"></stop> <stop offset="1" style="stop-color:#F89C2B"></stop> </linearGradient> <path class="st14" d="M188.6,99h-28.1c-1.1,0-2-0.9-2-2V71.2c0-1.1,0.9-2,2-2h28.1c1.1,0,2,0.9,2,2V97C190.6,98.1,189.7,99,188.6,99 z M162.4,95.1h24.2V73.2h-24.2V95.1z"></path> <line class="st57" x1="199.2" y1="75.9" x2="241.4" y2="75.9"></line> <linearGradient id="SVGID_113_" gradientUnits="userSpaceOnUse" x1="126.3003" y1="360.0313" x2="126.3003" y2="29.2672" gradientTransform="matrix(1 0 0 -1 94 383)"> <stop offset="0" style="stop-color:#E65A49"></stop> <stop offset="1" style="stop-color:#F89C2B"></stop> </linearGradient> <path class="st15" d="M241.4,77.9h-42.2c-1.1,0-2-0.9-2-2s0.9-2,2-2h42.2c1.1,0,2,0.9,2,2S242.5,77.9,241.4,77.9z"></path> <line class="st57" x1="199.2" y1="90" x2="214.4" y2="90"></line> <linearGradient id="SVGID_114_" gradientUnits="userSpaceOnUse" x1="112.8003" y1="360.04" x2="112.8003" y2="29.2347" gradientTransform="matrix(1 0 0 -1 94 383)"> <stop offset="0" style="stop-color:#E65A49"></stop> <stop offset="1" style="stop-color:#F89C2B"></stop> </linearGradient> <path class="st16" d="M214.4,92h-15.2c-1.1,0-2-0.9-2-2s0.9-2,2-2h15.2c1.1,0,2,0.9,2,2S215.5,92,214.4,92z"></path> <line class="st57" x1="160.5" y1="96.8" x2="187.4" y2="71.2"></line> <linearGradient id="SVGID_115_" gradientUnits="userSpaceOnUse" x1="80.0005" y1="360.0342" x2="80.0005" y2="29.2593" gradientTransform="matrix(1 0 0 -1 94 383)"> <stop offset="0" style="stop-color:#E65A49"></stop> <stop offset="1" style="stop-color:#F89C2B"></stop> </linearGradient> <path class="st17" d="M160.5,98.8c-0.5,0-1-0.2-1.4-0.6c-0.7-0.8-0.7-2,0.1-2.8l26.9-25.6c0.8-0.7,2-0.7,2.8,0.1 c0.7,0.8,0.7,2-0.1,2.8l-26.9,25.5C161.5,98.6,161,98.8,160.5,98.8z"></path> <line class="st57" x1="250.8" y1="75.9" x2="260.1" y2="75.9"></line> <linearGradient id="SVGID_116_" gradientUnits="userSpaceOnUse" x1="161.4009" y1="360.0313" x2="161.4009" y2="29.2672" gradientTransform="matrix(1 0 0 -1 94 383)"> <stop offset="0" style="stop-color:#E65A49"></stop> <stop offset="1" style="stop-color:#F89C2B"></stop> </linearGradient> <path class="st18" d="M260.1,77.9h-9.4c-1.1,0-2-0.9-2-2s0.9-2,2-2h9.4c1.1,0,2,0.9,2,2S261.2,77.9,260.1,77.9z"></path> <line class="st57" x1="220.3" y1="90" x2="250.8" y2="90"></line> <linearGradient id="SVGID_117_" gradientUnits="userSpaceOnUse" x1="141.5503" y1="360.04" x2="141.5503" y2="29.2347" gradientTransform="matrix(1 0 0 -1 94 383)"> <stop offset="0" style="stop-color:#E65A49"></stop> <stop offset="1" style="stop-color:#F89C2B"></stop> </linearGradient> <path class="st19" d="M250.8,92h-30.5c-1.1,0-2-0.9-2-2s0.9-2,2-2h30.5c1.1,0,2,0.9,2,2C252.7,91.1,251.8,92,250.8,92z"></path> <line class="st57" x1="541.6" y1="122.6" x2="541.6" y2="241.1"></line> <linearGradient id="SVGID_118_" gradientUnits="userSpaceOnUse" x1="447.5986" y1="360.0322" x2="447.5986" y2="29.2712" gradientTransform="matrix(1 0 0 -1 94 383)"> <stop offset="0" style="stop-color:#E65A49"></stop> <stop offset="1" style="stop-color:#F89C2B"></stop> </linearGradient> <path class="st20" d="M541.6,243.1c-1.1,0-2-0.9-2-2V122.6c0-1.1,0.9-2,2-2c1.1,0,2,0.9,2,2V241 C543.6,242.2,542.7,243.1,541.6,243.1z"></path> <line class="st57" x1="260.1" y1="122.6" x2="260.1" y2="245.8"></line> <linearGradient id="SVGID_119_" gradientUnits="userSpaceOnUse" x1="166.1006" y1="360.0313" x2="166.1006" y2="29.2711" gradientTransform="matrix(1 0 0 -1 94 383)"> <stop offset="0" style="stop-color:#E65A49"></stop> <stop offset="1" style="stop-color:#F89C2B"></stop> </linearGradient> <path class="st21" d="M260.1,247.8c-1.1,0-2-0.9-2-2V122.6c0-1.1,0.9-2,2-2s2,0.9,2,2v123.1C262.1,246.9,261.2,247.8,260.1,247.8z"></path> <line class="st57" x1="665.9" y1="94" x2="638.9" y2="94"></line> <linearGradient id="SVGID_120_" gradientUnits="userSpaceOnUse" x1="558.3994" y1="360.0313" x2="558.3994" y2="29.267" gradientTransform="matrix(1 0 0 -1 94 383)"> <stop offset="0" style="stop-color:#E65A49"></stop> <stop offset="1" style="stop-color:#F89C2B"></stop> </linearGradient> <path class="st22" d="M665.9,96h-27c-1.1,0-2-0.9-2-2s0.9-2,2-2h27c1.1,0,2,0.9,2,2S667,96,665.9,96z"></path> <line class="st57" x1="633.1" y1="94" x2="622.5" y2="94"></line> <linearGradient id="SVGID_121_" gradientUnits="userSpaceOnUse" x1="533.7988" y1="360.0313" x2="533.7988" y2="29.267" gradientTransform="matrix(1 0 0 -1 94 383)"> <stop offset="0" style="stop-color:#E65A49"></stop> <stop offset="1" style="stop-color:#F89C2B"></stop> </linearGradient> <path class="st23" d="M633.1,96h-10.6c-1.1,0-2-0.9-2-2s0.9-2,2-2h10.6c1.1,0,2,0.9,2,2C635,95.1,634.2,96,633.1,96z"></path> <line class="st57" x1="665.9" y1="77.6" x2="638.9" y2="77.6"></line> <linearGradient id="SVGID_122_" gradientUnits="userSpaceOnUse" x1="558.3994" y1="360.0391" x2="558.3994" y2="29.2337" gradientTransform="matrix(1 0 0 -1 94 383)"> <stop offset="0" style="stop-color:#E65A49"></stop> <stop offset="1" style="stop-color:#F89C2B"></stop> </linearGradient> <path class="st24" d="M665.9,79.6h-27c-1.1,0-2-0.9-2-2c0-1.1,0.9-2,2-2h27c1.1,0,2,0.9,2,2C667.9,78.7,667,79.6,665.9,79.6z"></path> <line class="st57" x1="633.1" y1="77.6" x2="622.5" y2="77.6"></line> <linearGradient id="SVGID_123_" gradientUnits="userSpaceOnUse" x1="533.7988" y1="360.0391" x2="533.7988" y2="29.2337" gradientTransform="matrix(1 0 0 -1 94 383)"> <stop offset="0" style="stop-color:#E65A49"></stop> <stop offset="1" style="stop-color:#F89C2B"></stop> </linearGradient> <path class="st25" d="M633.1,79.6h-10.6c-1.1,0-2-0.9-2-2c0-1.1,0.9-2,2-2h10.6c1.1,0,2,0.9,2,2C635,78.7,634.2,79.6,633.1,79.6z"></path> <line class="st57" x1="15.1" y1="96.8" x2="42.1" y2="96.8"></line> <linearGradient id="SVGID_124_" gradientUnits="userSpaceOnUse" x1="-65.3994" y1="360.0137" x2="-65.3995" y2="29.3302" gradientTransform="matrix(1 0 0 -1 94 383)"> <stop offset="0" style="stop-color:#E65A49"></stop> <stop offset="1" style="stop-color:#F89C2B"></stop> </linearGradient> <path class="st26" d="M42.1,98.8h-27c-1.1,0-2-0.9-2-2c0-1.1,0.9-2,2-2h27c1.1,0,2,0.9,2,2C44.1,97.9,43.1,98.8,42.1,98.8z"></path> <line class="st57" x1="47.9" y1="96.8" x2="58.5" y2="96.8"></line> <linearGradient id="SVGID_125_" gradientUnits="userSpaceOnUse" x1="-40.7993" y1="360.0313" x2="-40.7993" y2="29.267" gradientTransform="matrix(1 0 0 -1 94 383)"> <stop offset="0" style="stop-color:#E65A49"></stop> <stop offset="1" style="stop-color:#F89C2B"></stop> </linearGradient> <path class="st27" d="M58.5,98.8H47.9c-1.1,0-2-0.9-2-2c0-1.1,0.9-2,2-2h10.6c1.1,0,2,0.9,2,2C60.5,97.9,59.6,98.8,58.5,98.8z"></path> <line class="st57" x1="15.1" y1="113.3" x2="42.1" y2="113.3"></line> <linearGradient id="SVGID_126_" gradientUnits="userSpaceOnUse" x1="-65.3994" y1="360" x2="-65.3995" y2="29.3576" gradientTransform="matrix(1 0 0 -1 94 383)"> <stop offset="0" style="stop-color:#E65A49"></stop> <stop offset="1" style="stop-color:#F89C2B"></stop> </linearGradient> <path class="st28" d="M42.1,115.2h-27c-1.1,0-2-0.9-2-2s0.9-2,2-2h27c1.1,0,2,0.9,2,2S43.1,115.2,42.1,115.2z"></path> <line class="st57" x1="47.9" y1="113.3" x2="58.5" y2="113.3"></line> <linearGradient id="SVGID_127_" gradientUnits="userSpaceOnUse" x1="-40.7993" y1="360.0234" x2="-40.7993" y2="29.3004" gradientTransform="matrix(1 0 0 -1 94 383)"> <stop offset="0" style="stop-color:#E65A49"></stop> <stop offset="1" style="stop-color:#F89C2B"></stop> </linearGradient> <path class="st29" d="M58.5,115.2H47.9c-1.1,0-2-0.9-2-2s0.9-2,2-2h10.6c1.1,0,2,0.9,2,2S59.6,115.2,58.5,115.2z"></path> <line class="st57" x1="328.2" y1="320.8" x2="315.3" y2="320.8"></line> <linearGradient id="SVGID_128_" gradientUnits="userSpaceOnUse" x1="227.7505" y1="360.0352" x2="227.7505" y2="29.2711" gradientTransform="matrix(1 0 0 -1 94 383)"> <stop offset="0" style="stop-color:#E65A49"></stop> <stop offset="1" style="stop-color:#F89C2B"></stop> </linearGradient> <path class="st30" d="M328.2,322.8h-12.9c-1.1,0-2-0.9-2-2c0-1.1,0.9-2,2-2h12.9c1.1,0,2,0.9,2,2 C330.1,321.9,329.3,322.8,328.2,322.8z"></path> <linearGradient id="SVGID_129_" gradientUnits="userSpaceOnUse" x1="350.1499" y1="360.0303" x2="350.1499" y2="29.2779" gradientTransform="matrix(1 0 0 -1 94 383)"> <stop offset="0" style="stop-color:#E65A49"></stop> <stop offset="1" style="stop-color:#F89C2B"></stop> </linearGradient> <path class="st31" d="M463.4,107.2H425c-1.1,0-2-0.9-2-2V66.6c0-0.5,0.2-1,0.6-1.4c0.4-0.4,0.9-0.6,1.4-0.6 c22.2,0.2,40.3,18.5,40.3,40.6c0,0.5-0.2,1-0.6,1.4C464.4,107,463.9,107.2,463.4,107.2z M427,103.3h34.4 c-1.1-18.5-16-33.5-34.4-34.7V103.3z"></path> <path class="st1" d="M452.3,132.6c6.9-7,11.1-16.6,11.1-27.2v-0.1H425L452.3,132.6z"></path> <linearGradient id="SVGID_130_" gradientUnits="userSpaceOnUse" x1="350.2183" y1="360.0303" x2="350.2183" y2="29.2732" gradientTransform="matrix(1 0 0 -1 94 383)"> <stop offset="0" style="stop-color:#E65A49"></stop> <stop offset="1" style="stop-color:#F89C2B"></stop> </linearGradient> <path class="st32" d="M452.3,134.5c-0.5,0-1-0.2-1.4-0.6l-27.3-27.3c-0.6-0.6-0.7-1.4-0.4-2.1c0.3-0.7,1-1.2,1.8-1.2h38.4 c1.1,0,2,0.9,2,2v0.1c0,10.7-4.1,20.9-11.7,28.5C453.3,134.3,452.8,134.5,452.3,134.5L452.3,134.5z M429.7,107.2l22.5,22.5 c5.5-6.3,8.7-14.2,9.1-22.5H429.7z"></path> <path class="st1" d="M425,105.3V66.6c-0.1,0-0.3,0-0.4,0c-21.5,0-38.8,17.4-38.8,38.8s17.4,38.8,38.8,38.8 c10.9,0,20.7-4.5,27.8-11.7L425,105.3z"></path> <linearGradient id="SVGID_131_" gradientUnits="userSpaceOnUse" x1="325.0503" y1="360.0303" x2="325.0503" y2="29.2736" gradientTransform="matrix(1 0 0 -1 94 383)"> <stop offset="0" style="stop-color:#E65A49"></stop> <stop offset="1" style="stop-color:#F89C2B"></stop> </linearGradient> <path class="st33" d="M424.6,146.2c-22.5,0-40.8-18.3-40.8-40.8s18.3-40.8,40.8-40.8c0.1,0,0.2,0,0.3,0h0.2c1.1,0,1.9,0.9,1.9,2 v37.9l26.7,26.7c0.8,0.8,0.8,2,0,2.8C446,141.9,435.6,146.2,424.6,146.2z M423,68.5c-19.6,0.8-35.4,17-35.4,36.9 c0,20.3,16.5,36.9,36.9,36.9c9.3,0,18.1-3.4,25-9.7l-25.9-25.9c-0.4-0.4-0.6-0.9-0.6-1.4V68.5z"></path> <line class="st57" x1="425" y1="77.1" x2="437.9" y2="77.1"></line> <linearGradient id="SVGID_132_" gradientUnits="userSpaceOnUse" x1="337.4502" y1="360.0264" x2="337.4502" y2="29.3034" gradientTransform="matrix(1 0 0 -1 94 383)"> <stop offset="0" style="stop-color:#E65A49"></stop> <stop offset="1" style="stop-color:#F89C2B"></stop> </linearGradient> <path class="st34" d="M437.9,79.1H425c-1.1,0-2-0.9-2-2c0-1.1,0.9-2,2-2h12.9c1.1,0,2,0.9,2,2C439.9,78.2,439,79.1,437.9,79.1z"></path> <line class="st57" x1="425" y1="86.5" x2="447.3" y2="86.5"></line> <linearGradient id="SVGID_133_" gradientUnits="userSpaceOnUse" x1="342.1499" y1="360.0313" x2="342.1499" y2="29.267" gradientTransform="matrix(1 0 0 -1 94 383)"> <stop offset="0" style="stop-color:#E65A49"></stop> <stop offset="1" style="stop-color:#F89C2B"></stop> </linearGradient> <path class="st35" d="M447.3,88.5H425c-1.1,0-2-0.9-2-2s0.9-2,2-2h22.3c1.1,0,2,0.9,2,2C449.2,87.6,448.4,88.5,447.3,88.5z"></path> <line class="st57" x1="425" y1="95.9" x2="454.3" y2="95.9"></line> <linearGradient id="SVGID_134_" gradientUnits="userSpaceOnUse" x1="345.6499" y1="360.0322" x2="345.6499" y2="29.268" gradientTransform="matrix(1 0 0 -1 94 383)"> <stop offset="0" style="stop-color:#E65A49"></stop> <stop offset="1" style="stop-color:#F89C2B"></stop> </linearGradient> <path class="st36" d="M454.3,97.8H425c-1.1,0-2-0.9-2-2c0-1.1,0.9-2,2-2h29.3c1.1,0,2,0.9,2,2C456.3,96.9,455.4,97.8,454.3,97.8z"></path> <linearGradient id="SVGID_135_" gradientUnits="userSpaceOnUse" x1="404.1992" y1="360.0332" x2="404.1992" y2="29.2659" gradientTransform="matrix(1 0 0 -1 94 383)"> <stop offset="0" style="stop-color:#E65A49"></stop> <stop offset="1" style="stop-color:#F89C2B"></stop> </linearGradient> <path class="st37" d="M506.4,94.1H490c-1.1,0-2-0.9-2-2V75.7c0-1.1,0.9-2,2-2h16.4c1.1,0,2,0.9,2,2v16.5 C508.4,93.2,507.5,94.1,506.4,94.1z M492,90.2h12.5V77.7H492V90.2z"></path> <linearGradient id="SVGID_136_" gradientUnits="userSpaceOnUse" x1="410.9424" y1="360.0273" x2="410.9424" y2="29.2888" gradientTransform="matrix(1 0 0 -1 94 383)"> <stop offset="0" style="stop-color:#E65A49"></stop> <stop offset="1" style="stop-color:#F89C2B"></stop> </linearGradient> <path class="st38" d="M500.4,85.1L500.4,85.1c-0.6,0-1.1-0.2-1.4-0.6l-4-4.2c-0.7-0.8-0.7-2,0.1-2.8c0.8-0.7,2-0.7,2.8,0.1l2.6,2.7 L512,68.8c0.8-0.8,2-0.8,2.8,0c0.8,0.8,0.8,2,0,2.8l-12.9,12.9C501.4,84.9,500.9,85.1,500.4,85.1z"></path> <linearGradient id="SVGID_137_" gradientUnits="userSpaceOnUse" x1="404.249" y1="360.0332" x2="404.249" y2="29.2659" gradientTransform="matrix(1 0 0 -1 94 383)"> <stop offset="0" style="stop-color:#E65A49"></stop> <stop offset="1" style="stop-color:#F89C2B"></stop> </linearGradient> <path class="st39" d="M506.4,94.1H490c-1.1,0-2-0.9-2-2V75.7c0-1.1,0.9-2,2-2s2,0.9,2,2v14.5h14.5c1.1,0,2,0.9,2,2 S507.5,94.1,506.4,94.1z"></path> <line class="st57" x1="519.3" y1="78.1" x2="538.1" y2="78.1"></line> <linearGradient id="SVGID_138_" gradientUnits="userSpaceOnUse" x1="434.6992" y1="360.0381" x2="434.6992" y2="29.2328" gradientTransform="matrix(1 0 0 -1 94 383)"> <stop offset="0" style="stop-color:#E65A49"></stop> <stop offset="1" style="stop-color:#F89C2B"></stop> </linearGradient> <path class="st40" d="M538.1,80h-18.8c-1.1,0-2-0.9-2-2s0.9-2,2-2h18.8c1.1,0,2,0.9,2,2C540.1,79.2,539.2,80,538.1,80z"></path> <line class="st57" x1="519.3" y1="88.6" x2="548.6" y2="88.6"></line> <linearGradient id="SVGID_139_" gradientUnits="userSpaceOnUse" x1="439.9492" y1="360.0322" x2="439.9492" y2="29.268" gradientTransform="matrix(1 0 0 -1 94 383)"> <stop offset="0" style="stop-color:#E65A49"></stop> <stop offset="1" style="stop-color:#F89C2B"></stop> </linearGradient> <path class="st41" d="M548.6,90.6h-29.3c-1.1,0-2-0.9-2-2c0-1.1,0.9-2,2-2h29.3c1.1,0,2,0.9,2,2C550.6,89.7,549.7,90.6,548.6,90.6z"></path> <linearGradient id="SVGID_140_" gradientUnits="userSpaceOnUse" x1="202.5005" y1="360.0273" x2="202.5005" y2="29.2916" gradientTransform="matrix(1 0 0 -1 94 383)"> <stop offset="0" style="stop-color:#E65A49"></stop> <stop offset="1" style="stop-color:#F89C2B"></stop> </linearGradient> <path class="st42" d="M304.7,96.7h-16.4c-1.1,0-2-0.9-2-2V78.3c0-1.1,0.9-2,2-2h16.4c1.1,0,2,0.9,2,2v16.4 C306.7,95.8,305.8,96.7,304.7,96.7z M290.3,92.7h12.5V80.2h-12.5V92.7z"></path> <linearGradient id="SVGID_141_" gradientUnits="userSpaceOnUse" x1="209.2441" y1="360.0283" x2="209.2441" y2="29.2859" gradientTransform="matrix(1 0 0 -1 94 383)"> <stop offset="0" style="stop-color:#E65A49"></stop> <stop offset="1" style="stop-color:#F89C2B"></stop> </linearGradient> <path class="st43" d="M298.7,87.6L298.7,87.6c-0.6,0-1.1-0.2-1.4-0.6l-4-4.2c-0.7-0.8-0.7-2,0.1-2.8c0.8-0.7,2-0.7,2.8,0.1l2.6,2.7 l11.5-11.5c0.8-0.8,2-0.8,2.8,0c0.8,0.8,0.8,2,0,2.8L300.2,87C299.7,87.4,299.2,87.6,298.7,87.6z"></path> <linearGradient id="SVGID_142_" gradientUnits="userSpaceOnUse" x1="202.5503" y1="360.0273" x2="202.5503" y2="29.2916" gradientTransform="matrix(1 0 0 -1 94 383)"> <stop offset="0" style="stop-color:#E65A49"></stop> <stop offset="1" style="stop-color:#F89C2B"></stop> </linearGradient> <path class="st44" d="M304.7,96.7h-16.4c-1.1,0-2-0.9-2-2V78.3c0-1.1,0.9-2,2-2c1.1,0,2,0.9,2,2v14.5h14.5c1.1,0,2,0.9,2,2 C306.7,95.8,305.8,96.7,304.7,96.7z"></path> <line class="st57" x1="317.6" y1="81.8" x2="336.4" y2="81.8"></line> <linearGradient id="SVGID_143_" gradientUnits="userSpaceOnUse" x1="233.0005" y1="360.0313" x2="233.0005" y2="29.267" gradientTransform="matrix(1 0 0 -1 94 383)"> <stop offset="0" style="stop-color:#E65A49"></stop> <stop offset="1" style="stop-color:#F89C2B"></stop> </linearGradient> <path class="st45" d="M336.4,83.8h-18.8c-1.1,0-2-0.9-2-2c0-1.1,0.9-2,2-2h18.8c1.1,0,2,0.9,2,2C338.3,82.9,337.5,83.8,336.4,83.8z"></path> <line class="st57" x1="317.6" y1="92.4" x2="352.8" y2="92.4"></line> <linearGradient id="SVGID_144_" gradientUnits="userSpaceOnUse" x1="241.2002" y1="360.0234" x2="241.2002" y2="29.3004" gradientTransform="matrix(1 0 0 -1 94 383)"> <stop offset="0" style="stop-color:#E65A49"></stop> <stop offset="1" style="stop-color:#F89C2B"></stop> </linearGradient> <path class="st46" d="M352.8,94.3h-35.2c-1.1,0-2-0.9-2-2c0-1.1,0.9-2,2-2h35.2c1.1,0,2,0.9,2,2C354.8,93.4,353.9,94.3,352.8,94.3z"></path> </svg> 