<?xml version="1.0" encoding="UTF-8"?> <!-- Generator: Adobe Illustrator 16.0.0, SVG Export Plug-In . SVG Version: 6.00 Build 0) --> <svg xmlns="http://www.w3.org/2000/svg" xmlns:xlink="http://www.w3.org/1999/xlink" id="Layer_1" x="0px" y="0px" width="800px" height="531px" viewBox="0 0 800 531" style="enable-background:new 0 0 800 531;" xml:space="preserve"> <style type="text/css"> <![CDATA[ .st0{fill:url(#SVGID_100_);} .st1{fill:url(#SVGID_101_);} .st2{fill:url(#SVGID_102_);} .st3{fill:url(#SVGID_103_);} .st4{fill:url(#SVGID_104_);} .st5{fill:url(#SVGID_105_);} .st6{fill:url(#SVGID_106_);} .st7{fill:url(#SVGID_107_);} .st8{fill:url(#SVGID_108_);} .st9{fill:url(#SVGID_109_);} .st10{fill:url(#SVGID_110_);} .st11{fill:url(#SVGID_111_);} .st12{fill:url(#SVGID_112_);} .st13{fill:url(#SVGID_113_);} .st14{fill:url(#SVGID_114_);} .st15{fill:url(#SVGID_115_);} .st16{fill:url(#SVGID_1_);} .st17{fill:url(#SVGID_2_);} .st18{fill:url(#SVGID_3_);} .st19{fill:url(#SVGID_4_);} .st20{fill:url(#SVGID_5_);} .st21{fill:url(#SVGID_6_);} .st22{fill:url(#SVGID_7_);} .st23{fill:url(#SVGID_8_);} .st24{fill:url(#SVGID_9_);} .st25{fill:none;} .st26{fill:none;stroke:#F89C2C;stroke-width:2;stroke-linecap:round;stroke-linejoin:round;stroke-miterlimit:10;} .st27{fill:url(#SVGID_10_);} .st28{fill:url(#SVGID_11_);} .st29{fill:url(#SVGID_12_);} .st30{fill:url(#SVGID_13_);} .st31{fill:url(#SVGID_14_);} .st32{fill:url(#SVGID_15_);} .st33{fill:url(#SVGID_16_);} .st34{fill:url(#SVGID_17_);} .st35{fill:url(#SVGID_18_);} .st36{fill:url(#SVGID_19_);} .st37{fill:url(#SVGID_20_);} .st38{fill:url(#SVGID_21_);} .st39{fill:url(#SVGID_22_);} .st40{fill:url(#SVGID_23_);} .st41{fill:url(#SVGID_24_);} .st42{fill:url(#SVGID_25_);} .st43{fill:url(#SVGID_26_);} .st44{fill:url(#SVGID_27_);} .st45{fill:url(#SVGID_28_);} .st46{fill:url(#SVGID_29_);} .st47{fill:url(#SVGID_30_);} .st48{fill:url(#SVGID_31_);} .st49{fill:url(#SVGID_32_);} .st50{fill:url(#SVGID_33_);} .st51{fill:url(#SVGID_34_);} .st52{fill:url(#SVGID_35_);} .st53{fill:url(#SVGID_36_);} .st54{fill:url(#SVGID_37_);} .st55{fill:url(#SVGID_38_);} .st56{fill:url(#SVGID_39_);} .st57{fill:url(#SVGID_40_);} .st58{fill:url(#SVGID_41_);} .st59{fill:url(#SVGID_42_);} .st60{fill:url(#SVGID_43_);} .st61{fill:url(#SVGID_44_);} .st62{fill:url(#SVGID_45_);} .st63{fill:url(#SVGID_46_);} .st64{fill:url(#SVGID_47_);} .st65{fill:url(#SVGID_48_);} .st66{fill:url(#SVGID_49_);} .st67{fill:url(#SVGID_50_);} .st68{fill:url(#SVGID_51_);} .st69{fill:url(#SVGID_52_);} .st70{fill:url(#SVGID_53_);} .st71{fill:url(#SVGID_54_);} .st72{fill:url(#SVGID_55_);} .st73{fill:url(#SVGID_56_);} .st74{fill:url(#SVGID_57_);} .st75{fill:url(#SVGID_58_);} .st76{fill:url(#SVGID_59_);} .st77{fill:url(#SVGID_60_);} .st78{fill:url(#SVGID_61_);} .st79{fill:url(#SVGID_62_);} .st80{fill:url(#SVGID_63_);} .st81{fill:url(#SVGID_64_);} .st82{fill:url(#SVGID_65_);} .st83{fill:url(#SVGID_66_);} .st84{fill:url(#SVGID_67_);} .st85{fill:url(#SVGID_68_);} .st86{fill:url(#SVGID_69_);} .st87{fill:url(#SVGID_70_);} .st88{fill:url(#SVGID_71_);} .st89{fill:url(#SVGID_72_);} .st90{fill:url(#SVGID_73_);} .st91{fill:url(#SVGID_74_);} .st92{fill:url(#SVGID_75_);} .st93{fill:url(#SVGID_76_);} .st94{fill:url(#SVGID_77_);} .st95{fill:url(#SVGID_78_);} .st96{fill:url(#SVGID_79_);} .st97{fill:url(#SVGID_80_);} .st98{fill:url(#SVGID_81_);} .st99{fill:url(#SVGID_82_);} .st100{fill:url(#SVGID_83_);} .st101{fill:url(#SVGID_84_);} .st102{fill:url(#SVGID_85_);} .st103{fill:url(#SVGID_86_);} .st104{fill:url(#SVGID_87_);} .st105{fill:url(#SVGID_88_);} .st106{fill:url(#SVGID_89_);} .st107{fill:url(#SVGID_90_);} .st108{fill:url(#SVGID_91_);} .st109{fill:url(#SVGID_92_);} .st110{fill:url(#SVGID_93_);} .st111{fill:url(#SVGID_94_);} .st112{fill:url(#SVGID_95_);} .st113{fill:url(#SVGID_96_);} .st114{fill:url(#SVGID_97_);} .st115{fill:url(#SVGID_98_);} .st116{fill:url(#SVGID_99_);} ]]> </style> <g> <g> <g> <linearGradient id="SVGID_1_" gradientUnits="userSpaceOnUse" x1="322.833" y1="482.9531" x2="501.2894" y2="312.8242"> <stop offset="0" style="stop-color:#E65A49"></stop> <stop offset="1" style="stop-color:#F89C2B"></stop> </linearGradient> <path class="st16" d="M540.7,428.9H231.1c-0.5,0-0.9-0.4-0.9-0.9v-10.3c0-0.5,0.4-0.9,0.9-0.9h309.6c0.5,0,0.9,0.4,0.9,0.9V428 C541.6,428.5,541.2,428.9,540.7,428.9z M232,427.1h307.8v-8.6H232V427.1z"></path> </g> </g> <g> <g> <linearGradient id="SVGID_2_" gradientUnits="userSpaceOnUse" x1="327.9961" y1="488.3691" x2="506.4528" y2="318.24"> <stop offset="0" style="stop-color:#E65A49"></stop> <stop offset="1" style="stop-color:#F89C2B"></stop> </linearGradient> <path class="st17" d="M554.9,439.2H217c-0.5,0-0.9-0.4-0.9-0.9V428c0-0.5,0.4-0.9,0.9-0.9h337.9c0.5,0,0.9,0.4,0.9,0.9v10.3 C555.8,438.8,555.4,439.2,554.9,439.2z M217.9,437.4H554v-8.6H217.9V437.4z"></path> </g> </g> <g> <g> <linearGradient id="SVGID_3_" gradientUnits="userSpaceOnUse" x1="339.374" y1="500.3037" x2="517.8312" y2="330.1741"> <stop offset="0" style="stop-color:#E65A49"></stop> <stop offset="1" style="stop-color:#F89C2B"></stop> </linearGradient> <path class="st18" d="M393.5,474.4h-15.2c-0.5,0-0.9-0.4-0.9-0.9v-35.2c0-0.5,0.4-0.9,0.9-0.9h15.2c0.5,0,0.9,0.4,0.9,0.9v35.2 C394.4,474,394,474.4,393.5,474.4z M379.2,472.6h13.4v-33.4h-13.4V472.6z"></path> </g> </g> <g> <g> <linearGradient id="SVGID_4_" gradientUnits="userSpaceOnUse" x1="350.1641" y1="511.6191" x2="528.6153" y2="341.4952"> <stop offset="0" style="stop-color:#E65A49"></stop> <stop offset="1" style="stop-color:#F89C2B"></stop> </linearGradient> <path class="st19" d="M403.1,483.2h-35c-0.5,0-0.9-0.4-0.9-0.9v-8.8c0-0.5,0.4-0.9,0.9-0.9h35c0.5,0,0.9,0.4,0.9,0.9v8.8 C404,482.8,403.6,483.2,403.1,483.2z M368.9,481.4h33.3v-7h-33.3V481.4z"></path> </g> </g> <g> <g> <linearGradient id="SVGID_5_" gradientUnits="userSpaceOnUse" x1="355.9375" y1="517.6777" x2="534.3951" y2="347.5476"> <stop offset="0" style="stop-color:#E65A49"></stop> <stop offset="1" style="stop-color:#F89C2B"></stop> </linearGradient> <path class="st20" d="M427.6,496.8h-83.4c-0.5,0-0.9-0.4-0.9-0.9v-13.6c0-0.5,0.4-0.9,0.9-0.9h83.4c0.5,0,0.9,0.4,0.9,0.9v13.6 C428.5,496.4,428.1,496.8,427.6,496.8z M345.1,495h81.6v-11.8h-81.6V495z"></path> </g> </g> <g> <linearGradient id="SVGID_6_" gradientUnits="userSpaceOnUse" x1="265.9028" y1="552.4688" x2="794.1346" y2="109.8969"> <stop offset="0" style="stop-color:#E65A49"></stop> <stop offset="1" style="stop-color:#F89C2B"></stop> </linearGradient> <path class="st21" d="M344.2,496.8h-21.6c-0.5,0-1-0.4-1-1c0-0.5,0.4-1,1-1h21.6c0.5,0,1,0.4,1,1 C345.2,496.4,344.8,496.8,344.2,496.8z"></path> </g> <g> <linearGradient id="SVGID_7_" gradientUnits="userSpaceOnUse" x1="308.4434" y1="603.2441" x2="836.6759" y2="160.6717"> <stop offset="0" style="stop-color:#E65A49"></stop> <stop offset="1" style="stop-color:#F89C2B"></stop> </linearGradient> <path class="st22" d="M445.6,496.8h-17.9c-0.5,0-1-0.4-1-1c0-0.5,0.4-1,1-1h17.9c0.5,0,1,0.4,1,1 C446.5,496.4,446.1,496.8,445.6,496.8z"></path> </g> <g> <linearGradient id="SVGID_8_" gradientUnits="userSpaceOnUse" x1="315.4443" y1="611.5977" x2="843.6742" y2="169.0274"> <stop offset="0" style="stop-color:#E65A49"></stop> <stop offset="1" style="stop-color:#F89C2B"></stop> </linearGradient> <path class="st23" d="M456.7,496.8h-6.2c-0.5,0-1-0.4-1-1c0-0.5,0.4-1,1-1h6.2c0.5,0,1,0.4,1,1 C457.6,496.4,457.2,496.8,456.7,496.8z"></path> </g> <g> <linearGradient id="SVGID_9_" gradientUnits="userSpaceOnUse" x1="287.2603" y1="577.9619" x2="815.4954" y2="135.3873"> <stop offset="0" style="stop-color:#E65A49"></stop> <stop offset="1" style="stop-color:#F89C2B"></stop> </linearGradient> <path class="st24" d="M681.1,298.8H659c-0.5,0-1-0.4-1-1v-71.2c0-0.2,0.1-0.4,0.2-0.6l11-19.1c0.3-0.6,1.3-0.6,1.7,0l11,19.1 c0.1,0.2,0.2,0.4,0.2,0.6v71.2C682,298.3,681.6,298.8,681.1,298.8z M659.9,296.8h20.2v-70L670,209.4l-10.1,17.5V296.8z"></path> </g> <g> <linearGradient id="SVGID_10_" gradientUnits="userSpaceOnUse" x1="272.1621" y1="559.9541" x2="800.404" y2="117.3738"> <stop offset="0" style="stop-color:#E65A49"></stop> <stop offset="1" style="stop-color:#F89C2B"></stop> </linearGradient> <path class="st27" d="M684.4,227.6h-28.7c-0.5,0-1-0.4-1-1c0-0.5,0.4-1,1-1h28.7c0.5,0,1,0.4,1,1 C685.3,227.1,684.9,227.6,684.4,227.6z"></path> </g> <g> <linearGradient id="SVGID_11_" gradientUnits="userSpaceOnUse" x1="226.9849" y1="506.0176" x2="755.2172" y2="63.4453"> <stop offset="0" style="stop-color:#E65A49"></stop> <stop offset="1" style="stop-color:#F89C2B"></stop> </linearGradient> <path class="st28" d="M307.1,497h-96.5c-0.2,0-0.4-0.1-0.6-0.2l-23.5-13.6c-0.3-0.2-0.5-0.5-0.5-0.8c0-0.3,0.2-0.7,0.5-0.8 L210,468c0.2-0.1,0.4-0.2,0.6-0.2h96.5c0.5,0,1,0.4,1,1v27.3C308,496.6,307.6,497,307.1,497z M210.9,495.1h95.3v-25.4h-95.3 l-22,12.7L210.9,495.1z"></path> </g> <g> <linearGradient id="SVGID_12_" gradientUnits="userSpaceOnUse" x1="208.5967" y1="484.0703" x2="736.8201" y2="41.5055"> <stop offset="0" style="stop-color:#E65A49"></stop> <stop offset="1" style="stop-color:#F89C2B"></stop> </linearGradient> <path class="st29" d="M210.6,501.1c-0.5,0-1-0.4-1-1v-35.5c0-0.5,0.4-1,1-1c0.5,0,1,0.4,1,1v35.5 C211.5,500.7,211.1,501.1,210.6,501.1z"></path> </g> <g> <linearGradient id="SVGID_13_" gradientUnits="userSpaceOnUse" x1="280.1611" y1="569.4844" x2="808.3936" y2="126.912"> <stop offset="0" style="stop-color:#E65A49"></stop> <stop offset="1" style="stop-color:#F89C2B"></stop> </linearGradient> <path class="st30" d="M644.2,298.8h-22.1c-0.5,0-1-0.4-1-1v-38.2c0-0.2,0.1-0.4,0.2-0.6l11-19c0.3-0.6,1.3-0.6,1.7,0l11,19.1 c0.1,0.2,0.2,0.4,0.2,0.6v38.2C645.2,298.3,644.7,298.8,644.2,298.8z M623,296.8h20.2v-37l-10.1-17.5L623,259.8V296.8z"></path> </g> <g> <linearGradient id="SVGID_14_" gradientUnits="userSpaceOnUse" x1="273.1694" y1="561.1563" x2="801.4133" y2="118.5743"> <stop offset="0" style="stop-color:#E65A49"></stop> <stop offset="1" style="stop-color:#F89C2B"></stop> </linearGradient> <path class="st31" d="M647.5,260.5h-28.7c-0.5,0-1-0.4-1-1s0.4-1,1-1h28.7c0.5,0,1,0.4,1,1S648,260.5,647.5,260.5z"></path> </g> <g> <linearGradient id="SVGID_15_" gradientUnits="userSpaceOnUse" x1="261.5562" y1="547.2773" x2="789.7858" y2="104.7073"> <stop offset="0" style="stop-color:#E65A49"></stop> <stop offset="1" style="stop-color:#F89C2B"></stop> </linearGradient> <path class="st32" d="M607.3,298.8h-22.1c-0.5,0-1-0.4-1-1v-52c0-0.2,0.1-0.4,0.2-0.6l11-19.1c0.3-0.6,1.3-0.6,1.7,0l11,19.1 c0.1,0.2,0.2,0.4,0.2,0.6v52C608.3,298.3,607.9,298.8,607.3,298.8z M586.2,296.8h20.2V246l-10.1-17.5L586.2,246V296.8z"></path> </g> <g> <linearGradient id="SVGID_16_" gradientUnits="userSpaceOnUse" x1="251.1812" y1="534.8877" x2="779.407" y2="92.3208"> <stop offset="0" style="stop-color:#E65A49"></stop> <stop offset="1" style="stop-color:#F89C2B"></stop> </linearGradient> <path class="st33" d="M610.6,246.7h-28.7c-0.5,0-1-0.4-1-1c0-0.5,0.4-1,1-1h28.7c0.5,0,1,0.4,1,1 C611.6,246.3,611.2,246.7,610.6,246.7z"></path> </g> <g> <linearGradient id="SVGID_17_" gradientUnits="userSpaceOnUse" x1="253.5596" y1="537.7305" x2="781.7864" y2="95.1628"> <stop offset="0" style="stop-color:#E65A49"></stop> <stop offset="1" style="stop-color:#F89C2B"></stop> </linearGradient> <path class="st34" d="M570.4,298.8h-22.1c-0.5,0-1-0.4-1-1v-22.7c0-0.2,0.1-0.4,0.2-0.6l11-19c0.3-0.6,1.3-0.6,1.7,0l11,19.1 c0.1,0.2,0.2,0.4,0.2,0.6v22.7C571.4,298.3,571,298.8,570.4,298.8z M549.3,296.8h20.2v-21.5l-10.1-17.5l-10.1,17.5V296.8z"></path> </g> <g> <linearGradient id="SVGID_18_" gradientUnits="userSpaceOnUse" x1="250.3984" y1="533.9482" x2="778.6188" y2="91.386"> <stop offset="0" style="stop-color:#E65A49"></stop> <stop offset="1" style="stop-color:#F89C2B"></stop> </linearGradient> <path class="st35" d="M573.8,276H545c-0.5,0-1-0.4-1-1s0.4-1,1-1h28.7c0.5,0,1,0.4,1,1S574.3,276,573.8,276z"></path> </g> <g> <linearGradient id="SVGID_19_" gradientUnits="userSpaceOnUse" x1="288.6616" y1="579.6328" x2="816.8945" y2="137.06"> <stop offset="0" style="stop-color:#E65A49"></stop> <stop offset="1" style="stop-color:#F89C2B"></stop> </linearGradient> <path class="st36" d="M688.7,307.4H540.7c-0.5,0-1-0.4-1-1s0.4-1,1-1h147.9c0.5,0,1,0.4,1,1S689.2,307.4,688.7,307.4z"></path> </g> <g> <linearGradient id="SVGID_20_" gradientUnits="userSpaceOnUse" x1="267.9414" y1="554.9063" x2="796.1779" y2="112.3305"> <stop offset="0" style="stop-color:#E65A49"></stop> <stop offset="1" style="stop-color:#F89C2B"></stop> </linearGradient> <path class="st37" d="M566.8,316.4h-26c-0.5,0-1-0.4-1-1c0-0.5,0.4-1,1-1h26c0.5,0,1,0.4,1,1C567.8,316,567.3,316.4,566.8,316.4z"></path> </g> <g> <linearGradient id="SVGID_21_" gradientUnits="userSpaceOnUse" x1="277.8467" y1="566.6885" x2="806.0473" y2="124.1428"> <stop offset="0" style="stop-color:#E65A49"></stop> <stop offset="1" style="stop-color:#F89C2B"></stop> </linearGradient> <path class="st38" d="M582.9,316.4h-10.3c-0.5,0-1-0.4-1-1c0-0.5,0.4-1,1-1h10.3c0.5,0,1,0.4,1,1 C583.9,316,583.4,316.4,582.9,316.4z"></path> </g> <g> <linearGradient id="SVGID_22_" gradientUnits="userSpaceOnUse" x1="283.0283" y1="572.9248" x2="811.275" y2="130.3405"> <stop offset="0" style="stop-color:#E65A49"></stop> <stop offset="1" style="stop-color:#F89C2B"></stop> </linearGradient> <path class="st39" d="M592.9,316.4h-5c-0.5,0-1-0.4-1-1c0-0.5,0.4-1,1-1h5c0.5,0,1,0.4,1,1C593.8,316,593.4,316.4,592.9,316.4z"></path> </g> <g> <g> <linearGradient id="SVGID_23_" gradientUnits="userSpaceOnUse" x1="103.1431" y1="358.207" x2="631.3741" y2="-84.3642"> <stop offset="0" style="stop-color:#E65A49"></stop> <stop offset="1" style="stop-color:#F89C2B"></stop> </linearGradient> <path class="st40" d="M57.4,441.9c-25,0-45.4-20.3-45.4-45.4c0-25,20.3-45.4,45.4-45.4c11.7,0,22.8,4.4,31.3,12.5 c0.4,0.4,0.4,1,0,1.4c-0.4,0.4-1,0.4-1.4,0c-8.1-7.7-18.7-12-29.9-12c-24,0-43.4,19.5-43.4,43.4c0,24,19.5,43.4,43.4,43.4 c24,0,43.4-19.5,43.4-43.4c0-2.2-0.2-4.5-0.5-6.7c-0.1-0.5,0.3-1,0.8-1.1c0.5-0.1,1,0.3,1.1,0.8c0.4,2.3,0.5,4.6,0.5,7 C102.7,421.6,82.4,441.9,57.4,441.9z"></path> </g> <g> <g> <linearGradient id="SVGID_24_" gradientUnits="userSpaceOnUse" x1="108.2476" y1="364.2988" x2="636.47" y2="-78.2652"> <stop offset="0" style="stop-color:#E65A49"></stop> <stop offset="1" style="stop-color:#F89C2B"></stop> </linearGradient> <path class="st41" d="M100.1,382.8c-0.2,0-0.5-0.1-0.7-0.3l-10.9-10.9c-0.2-0.2-0.3-0.4-0.3-0.7c0-0.3,0.1-0.5,0.3-0.7l8.6-8.6 c0.2-0.2,0.4-0.3,0.7-0.3c0.3,0,0.5,0.1,0.7,0.3L109,373c0.4,0.4,0.3,1,0,1.3l-8.2,8.2C100.6,382.7,100.3,382.8,100.1,382.8z M90.6,371l9.5,9.5l6.9-6.9l-9.1-9.9L90.6,371z"></path> </g> <g> <linearGradient id="SVGID_25_" gradientUnits="userSpaceOnUse" x1="102.9053" y1="357.9219" x2="631.1409" y2="-84.6531"> <stop offset="0" style="stop-color:#E65A49"></stop> <stop offset="1" style="stop-color:#F89C2B"></stop> </linearGradient> <path class="st42" d="M59.9,422.9c-0.2,0-0.5-0.1-0.7-0.3l-24.5-24.5c-1.6-1.6-2.5-3.8-2.5-6.1c0-2.3,0.9-4.5,2.5-6.1 c1.6-1.6,3.8-2.5,6.1-2.5l0,0c2.3,0,4.5,0.9,6.1,2.5l13,13l16.4-16.4c0.4-0.4,1-0.4,1.4,0l10.9,10.9c0.2,0.2,0.3,0.4,0.3,0.7 c0,0.3-0.1,0.5-0.3,0.7l-28,27.9C60.4,422.8,60.1,422.9,59.9,422.9z M40.8,385.3c-1.8,0-3.5,0.7-4.8,2c-1.3,1.3-2,3-2,4.8 c0,1.8,0.7,3.5,2,4.8l23.8,23.8L86.5,394l-9.5-9.5l-16.4,16.4c-0.4,0.4-1,0.4-1.4,0l-13.6-13.6C44.3,386,42.6,385.3,40.8,385.3z "></path> </g> <g> <linearGradient id="SVGID_26_" gradientUnits="userSpaceOnUse" x1="109.0732" y1="365.2832" x2="637.3207" y2="-77.3018"> <stop offset="0" style="stop-color:#E65A49"></stop> <stop offset="1" style="stop-color:#F89C2B"></stop> </linearGradient> <path class="st43" d="M90.5,392.4c-0.2,0-0.5-0.1-0.7-0.3l-10.9-10.9c-0.2-0.2-0.3-0.4-0.3-0.7c0-0.3,0.1-0.5,0.3-0.7l6.9-6.9 c0.4-0.4,1-0.4,1.4,0l10.9,10.9c0.2,0.2,0.3,0.4,0.3,0.7c0,0.3-0.1,0.5-0.3,0.7l-6.9,6.9C91,392.3,90.8,392.4,90.5,392.4z M81,380.5l9.5,9.5l5.6-5.6l-9.5-9.5L81,380.5z"></path> </g> </g> </g> <g> <path class="st25" d="M629.4,436c-0.2-0.4-0.4-0.8-0.6-1.3c-0.3-0.6-0.5-1.1-0.7-1.7c-0.2-0.4-0.3-0.8-0.5-1.2 c-0.2-0.6-0.4-1.2-0.6-1.8c-0.1-0.4-0.3-0.8-0.4-1.2c-0.2-0.8-0.4-1.5-0.6-2.3c-0.1-0.3-0.1-0.5-0.2-0.7c-0.2-1-0.5-2.1-0.7-3.1 c-0.1-0.3-0.1-0.6-0.1-0.9c-0.1-0.7-0.2-1.5-0.3-2.2c0-0.4-0.1-0.8-0.1-1.2c-0.1-0.7-0.1-1.3-0.2-2c0-0.4,0-0.8-0.1-1.3 c0-0.5-0.1-0.9-0.1-1.4h-19.3c0.2,11.3,4.8,21.8,12.7,29.8c0.1-0.1,0.2-0.1,0.2-0.2c0.8-0.6,1.7-1.1,2.6-1.6 c0.1-0.1,0.2-0.1,0.3-0.2c0.9-0.5,1.8-1,2.7-1.4c0.1,0,0.1-0.1,0.2-0.1c0.9-0.5,1.8-0.9,2.8-1.3c0.2-0.1,0.3-0.2,0.5-0.2 c0.9-0.4,1.8-0.7,2.7-1.1c0.1,0,0.2-0.1,0.3-0.1C629.7,436.8,629.5,436.4,629.4,436z"></path> <path class="st25" d="M624.2,411.6c0-0.5,0-1,0.1-1.4c0-0.4,0-0.9,0.1-1.3c0-0.7,0.1-1.3,0.2-2c0-0.4,0.1-0.8,0.1-1.2 c0.1-0.7,0.2-1.5,0.3-2.2c0.1-0.3,0.1-0.7,0.2-1c0.2-1,0.4-2.1,0.7-3.1c0.1-0.3,0.2-0.6,0.2-0.9c0.2-0.7,0.4-1.5,0.6-2.2 c0.1-0.4,0.3-0.8,0.4-1.2c0.2-0.6,0.4-1.2,0.6-1.8c0.2-0.4,0.3-0.8,0.5-1.3c0.2-0.6,0.5-1.1,0.7-1.7c0.2-0.4,0.4-0.8,0.6-1.3 c0.2-0.4,0.3-0.8,0.5-1.1c-0.2-0.1-0.3-0.1-0.5-0.2c-0.2-0.1-0.5-0.2-0.7-0.3c-0.4-0.1-0.7-0.3-1.1-0.4c-0.2-0.1-0.5-0.2-0.7-0.3 c-0.4-0.2-0.7-0.3-1.1-0.5c-0.2-0.1-0.4-0.2-0.6-0.3c-0.4-0.2-0.8-0.4-1.2-0.6c-0.2-0.1-0.3-0.2-0.5-0.2c-0.6-0.3-1.1-0.6-1.6-0.9 c-0.1-0.1-0.2-0.1-0.3-0.2c-0.4-0.2-0.9-0.5-1.3-0.7c-0.2-0.1-0.4-0.2-0.6-0.3c-0.3-0.2-0.7-0.4-1-0.6c-0.2-0.1-0.4-0.3-0.6-0.4 c-0.2-0.1-0.4-0.2-0.6-0.4c-8,8-12.5,18.6-12.7,29.8H624.2z"></path> <path class="st25" d="M677.8,444.6c-0.8-0.5-1.6-1-2.4-1.5c-0.1-0.1-0.3-0.2-0.4-0.2c-0.9-0.5-1.7-1-2.6-1.4 c-0.1,0-0.1-0.1-0.2-0.1c-0.9-0.4-1.8-0.8-2.6-1.2c-0.1,0-0.2-0.1-0.3-0.1c-0.9-0.4-1.8-0.7-2.7-1c-0.1,0-0.2-0.1-0.3-0.1 c-0.3,0.5-0.6,1-0.9,1.6c-0.1,0.2-0.3,0.5-0.4,0.7c-0.5,0.9-1.1,1.7-1.6,2.6c-0.2,0.3-0.5,0.6-0.7,0.9c-0.4,0.5-0.7,1-1.1,1.5 c-0.3,0.4-0.6,0.8-1,1.2c-0.3,0.4-0.7,0.8-1,1.2c-0.3,0.4-0.7,0.8-1,1.2c-0.4,0.4-0.7,0.8-1.1,1.2c-0.3,0.4-0.7,0.7-1,1.1 c-0.4,0.4-0.9,0.8-1.3,1.2c-0.3,0.3-0.6,0.6-0.9,0.8c-0.6,0.6-1.3,1.1-1.9,1.6c-0.1,0.1-0.3,0.2-0.4,0.3c0,0-0.1,0-0.1,0.1 c9.8-0.7,19.1-4.7,26.3-11.4C678,444.7,677.9,444.7,677.8,444.6z"></path> <path class="st25" d="M639.6,450.9c-0.4-0.4-0.7-0.8-1.1-1.2c-0.3-0.4-0.7-0.8-1-1.2c-0.3-0.4-0.7-0.8-1-1.2 c-0.3-0.4-0.6-0.8-0.9-1.2c-0.4-0.5-0.8-1-1.1-1.6c-0.2-0.3-0.4-0.6-0.7-0.9c-0.6-0.8-1.1-1.7-1.6-2.6c-0.1-0.2-0.3-0.5-0.4-0.7 c-0.3-0.5-0.6-1-0.9-1.6c-0.1,0-0.2,0.1-0.3,0.1c-0.9,0.3-1.8,0.7-2.7,1.1c-0.1,0-0.2,0.1-0.3,0.1c-0.9,0.4-1.8,0.8-2.6,1.2 c-0.1,0-0.1,0.1-0.2,0.1c-0.9,0.4-1.7,0.9-2.6,1.4c-0.2,0.1-0.3,0.2-0.5,0.3c-0.8,0.5-1.6,1-2.4,1.5c-0.1,0-0.1,0.1-0.2,0.1 c7.2,6.6,16.5,10.7,26.3,11.4c0,0-0.1,0-0.1-0.1c-0.2-0.1-0.3-0.3-0.5-0.4c-0.6-0.5-1.3-1-1.9-1.6c-0.3-0.3-0.6-0.6-0.9-0.9 c-0.4-0.4-0.9-0.8-1.3-1.2C640.3,451.7,639.9,451.3,639.6,450.9z"></path> <path class="st25" d="M657.4,374.2c0.4,0.4,0.7,0.8,1.1,1.2c0.3,0.4,0.7,0.8,1,1.1c0.4,0.4,0.7,0.8,1,1.3c0.3,0.4,0.6,0.8,0.9,1.1 c0.4,0.5,0.8,1.1,1.2,1.6c0.2,0.3,0.4,0.6,0.6,0.9c0.6,0.8,1.1,1.7,1.7,2.6c0.1,0.2,0.3,0.5,0.4,0.7c0.3,0.5,0.6,1,0.9,1.6 c0.1,0,0.2-0.1,0.3-0.1c0.9-0.3,1.8-0.7,2.6-1c0.1-0.1,0.2-0.1,0.4-0.2c0.9-0.4,1.7-0.8,2.6-1.2c0.1,0,0.1-0.1,0.2-0.1 c0.9-0.4,1.7-0.9,2.6-1.4c0.1-0.1,0.3-0.2,0.4-0.2c0.8-0.5,1.6-1,2.4-1.5c0.1,0,0.1-0.1,0.2-0.1c-7.2-6.6-16.5-10.6-26.3-11.4 c0,0,0.1,0,0.1,0.1c0.2,0.1,0.3,0.3,0.5,0.4c0.6,0.5,1.3,1,1.9,1.6c0.3,0.3,0.6,0.6,0.9,0.9c0.4,0.4,0.9,0.8,1.3,1.2 C656.7,373.5,657.1,373.9,657.4,374.2z"></path> <path class="st25" d="M619.2,380.5c0.8,0.5,1.6,1,2.4,1.5c0.2,0.1,0.3,0.2,0.5,0.3c0.8,0.5,1.7,0.9,2.6,1.4c0.1,0,0.2,0.1,0.2,0.1 c0.8,0.4,1.7,0.8,2.6,1.2c0.1,0.1,0.2,0.1,0.4,0.2c0.9,0.4,1.8,0.7,2.6,1c0.1,0,0.2,0.1,0.3,0.1c0.3-0.5,0.6-1,0.9-1.5 c0.2-0.3,0.3-0.5,0.4-0.8c0.5-0.9,1.1-1.7,1.6-2.5c0.2-0.3,0.5-0.6,0.7-1c0.4-0.5,0.7-1,1.1-1.5c0.3-0.4,0.6-0.8,0.9-1.2 c0.3-0.4,0.7-0.8,1-1.2c0.3-0.4,0.7-0.8,1-1.2c0.4-0.4,0.7-0.8,1.1-1.2c0.3-0.4,0.7-0.7,1-1c0.4-0.4,0.9-0.8,1.3-1.3 c0.3-0.3,0.6-0.6,0.9-0.8c0.6-0.6,1.3-1.1,1.9-1.6c0.1-0.1,0.3-0.2,0.4-0.3c0,0,0.1,0,0.1-0.1c-9.8,0.7-19,4.7-26.3,11.4 C619.1,380.4,619.1,380.5,619.2,380.5z"></path> <path class="st25" d="M693.4,354.9c1.9,0,3.4-1.5,3.4-3.4s-1.5-3.4-3.4-3.4s-3.4,1.5-3.4,3.4S691.5,354.9,693.4,354.9z"></path> <path class="st25" d="M581.2,359.1h134.5v-15.4H581.2V359.1z M703.1,350.5h8.4c0.5,0,1,0.4,1,1c0,0.5-0.4,1-1,1h-8.4 c-0.5,0-1-0.4-1-1C702.1,350.9,702.5,350.5,703.1,350.5z M693.4,346.1c3,0,5.4,2.4,5.4,5.4s-2.4,5.4-5.4,5.4c-3,0-5.4-2.4-5.4-5.4 S690.4,346.1,693.4,346.1z"></path> <path class="st25" d="M667.7,389.1c0.2,0.4,0.4,0.9,0.6,1.3c0.2,0.6,0.5,1.1,0.7,1.7c0.2,0.4,0.3,0.8,0.5,1.3 c0.2,0.6,0.4,1.2,0.6,1.8c0.1,0.4,0.3,0.8,0.4,1.2c0.2,0.8,0.4,1.5,0.6,2.3c0.1,0.3,0.1,0.5,0.2,0.8c0.2,1,0.5,2.1,0.7,3.1 c0.1,0.3,0.1,0.6,0.2,1c0.1,0.7,0.2,1.5,0.3,2.2c0,0.4,0.1,0.8,0.1,1.2c0.1,0.7,0.1,1.3,0.2,2c0,0.4,0,0.9,0.1,1.3 c0,0.5,0.1,0.9,0.1,1.4h19.3c-0.2-11.3-4.8-21.8-12.7-29.8c-0.2,0.1-0.4,0.3-0.6,0.4c-0.2,0.1-0.4,0.3-0.6,0.4 c-0.3,0.2-0.7,0.4-1.1,0.7c-0.2,0.1-0.4,0.2-0.5,0.3c-0.4,0.2-0.8,0.5-1.3,0.7c-0.1,0.1-0.3,0.1-0.4,0.2c-0.5,0.3-1.1,0.6-1.6,0.8 c-0.2,0.1-0.4,0.2-0.6,0.3c-0.4,0.2-0.7,0.3-1.1,0.5c-0.2,0.1-0.5,0.2-0.7,0.3c-0.3,0.1-0.7,0.3-1,0.4c-0.2,0.1-0.5,0.2-0.7,0.3 c-0.3,0.1-0.7,0.3-1,0.4c-0.2,0.1-0.5,0.2-0.7,0.3c-0.1,0.1-0.3,0.1-0.4,0.2C667.3,388.4,667.5,388.8,667.7,389.1z"></path> <path class="st25" d="M672.9,413.6c0,0.5,0,0.9-0.1,1.4c0,0.4,0,0.9-0.1,1.3c0,0.7-0.1,1.3-0.2,2c0,0.4-0.1,0.8-0.1,1.2 c-0.1,0.7-0.2,1.5-0.3,2.2c-0.1,0.3-0.1,0.7-0.2,1c-0.2,1-0.4,2.1-0.7,3.1c-0.1,0.2-0.1,0.5-0.2,0.7c-0.2,0.8-0.4,1.6-0.7,2.4 c-0.1,0.4-0.3,0.8-0.4,1.1c-0.2,0.6-0.4,1.3-0.6,1.9c-0.2,0.4-0.3,0.8-0.5,1.2c-0.2,0.6-0.5,1.2-0.7,1.7c-0.2,0.4-0.4,0.9-0.6,1.3 c-0.2,0.4-0.3,0.7-0.5,1.1c0.1,0,0.2,0.1,0.3,0.1c0.9,0.3,1.8,0.7,2.8,1.1c0.2,0.1,0.3,0.1,0.4,0.2c1,0.4,1.9,0.9,2.8,1.3 c0,0,0.1,0,0.1,0.1c0.9,0.5,1.9,1,2.8,1.5c0.1,0,0.2,0.1,0.3,0.1c0.9,0.5,1.7,1.1,2.6,1.6c0.1,0.1,0.2,0.1,0.2,0.2 c8-8,12.5-18.6,12.7-29.8H672.9z"></path> <path class="st25" d="M715.7,361.1H581.2V464h134.5V361.1z M680.3,445.3L680.3,445.3C680.3,445.3,680.3,445.3,680.3,445.3 c-8.5,8.2-19.7,12.8-31.5,12.9c-0.1,0-0.2,0.1-0.4,0.1c-0.1,0-0.2,0-0.3-0.1c-11.8-0.1-22.9-4.7-31.3-12.9v0c0,0,0,0,0,0 c-9-8.7-13.9-20.3-13.9-32.7c0-12.4,4.9-24.1,13.9-32.8l0,0l0,0l0,0l0,0c8.5-8.2,19.6-12.8,31.3-12.9c0.3-0.1,0.5-0.1,0.8,0 c11.8,0.1,22.9,4.7,31.3,12.9c9,8.7,13.9,20.3,13.9,32.8C694.1,425,689.2,436.7,680.3,445.3z"></path> <path class="st25" d="M649.5,413.6v20.4c0.3,0,0.6,0,0.8,0c0.2,0,0.5,0,0.7,0c0.5,0,1,0.1,1.4,0.1c0.3,0,0.5,0,0.8,0.1 c0.5,0,0.9,0.1,1.4,0.1c0.3,0,0.5,0.1,0.8,0.1c0.5,0.1,0.9,0.1,1.4,0.2c0.3,0.1,0.7,0.1,1,0.2c0.6,0.1,1.2,0.2,1.7,0.3 c0.4,0.1,0.7,0.2,1.1,0.2c0.3,0.1,0.7,0.1,1,0.2c0.4,0.1,0.7,0.2,1.1,0.3c0.3,0.1,0.7,0.2,1,0.3c0.3,0.1,0.7,0.2,1,0.3 c0.2,0.1,0.4,0.1,0.6,0.2c0.2-0.4,0.4-0.9,0.6-1.3c0.2-0.4,0.4-0.8,0.5-1.1c0.3-0.6,0.5-1.2,0.7-1.8c0.1-0.4,0.3-0.7,0.4-1.1 c0.2-0.7,0.5-1.3,0.7-2c0.1-0.3,0.2-0.6,0.3-0.9c0.3-1,0.6-2,0.8-2.9c0.1-0.2,0.1-0.5,0.2-0.7c0.2-0.8,0.3-1.5,0.5-2.3 c0.1-0.4,0.1-0.7,0.2-1.1c0.1-0.6,0.2-1.3,0.3-1.9c0.1-0.4,0.1-0.8,0.1-1.2c0.1-0.6,0.1-1.3,0.2-1.9c0-0.4,0-0.8,0.1-1.3 c0-0.4,0-0.9,0-1.3H649.5z"></path> <path class="st25" d="M647.5,411.6v-20.4c-0.3,0-0.6,0-0.8,0c-0.2,0-0.5,0-0.7,0c-0.5,0-1-0.1-1.4-0.1c-0.2,0-0.5,0-0.7-0.1 c-0.5,0-0.9-0.1-1.4-0.1c-0.2,0-0.5,0-0.7-0.1c-0.5-0.1-1-0.1-1.5-0.2c-0.2,0-0.4-0.1-0.6-0.1c-0.7-0.1-1.4-0.2-2-0.4 c-0.3-0.1-0.5-0.1-0.8-0.2c-0.4-0.1-0.8-0.2-1.3-0.3c-0.3-0.1-0.6-0.2-0.9-0.2c-0.4-0.1-0.8-0.2-1.1-0.3c-0.3-0.1-0.6-0.2-1-0.3 c-0.2-0.1-0.5-0.1-0.7-0.2c-0.2,0.4-0.4,0.8-0.6,1.3c-0.2,0.4-0.4,0.8-0.5,1.2c-0.3,0.6-0.5,1.2-0.7,1.7c-0.2,0.4-0.3,0.8-0.5,1.1 c-0.2,0.6-0.5,1.3-0.7,1.9c-0.1,0.3-0.2,0.7-0.3,1c-0.3,1-0.6,2-0.8,2.9c-0.1,0.3-0.1,0.5-0.2,0.8c-0.2,0.7-0.3,1.5-0.5,2.3 c-0.1,0.4-0.1,0.7-0.2,1.1c-0.1,0.6-0.2,1.3-0.3,1.9c0,0.4-0.1,0.8-0.1,1.2c-0.1,0.6-0.1,1.3-0.2,1.9c0,0.4,0,0.8-0.1,1.3 c0,0.4,0,0.9,0,1.3H647.5z"></path> <path class="st25" d="M656.8,448.8c0.3-0.4,0.7-0.7,1-1.1c0.4-0.5,0.8-1,1.3-1.5c0.5-0.6,0.9-1.1,1.3-1.7c0.4-0.5,0.7-1,1.1-1.5 c0.3-0.4,0.5-0.7,0.7-1.1c0.3-0.5,0.6-1,0.9-1.5c0.2-0.4,0.5-0.8,0.7-1.2c0.2-0.3,0.4-0.6,0.5-1c-0.2-0.1-0.4-0.1-0.6-0.2 c-0.2-0.1-0.5-0.1-0.7-0.2c-0.4-0.1-0.9-0.2-1.3-0.3c-0.2-0.1-0.5-0.1-0.7-0.2c-0.4-0.1-0.9-0.2-1.3-0.3c-0.2,0-0.4-0.1-0.7-0.1 c-0.5-0.1-1.1-0.2-1.6-0.3c-0.1,0-0.2,0-0.4-0.1c-0.7-0.1-1.3-0.2-2-0.3c-0.2,0-0.3,0-0.5-0.1c-0.5-0.1-1-0.1-1.5-0.2 c-0.2,0-0.5,0-0.7-0.1c-0.4,0-0.9-0.1-1.3-0.1c-0.3,0-0.5,0-0.8,0c-0.2,0-0.5,0-0.7,0v19.5c0.2-0.2,0.4-0.3,0.6-0.5 c0.4-0.3,0.7-0.6,1.1-0.8c0.4-0.4,0.9-0.7,1.3-1.1c0.3-0.3,0.7-0.6,1-0.9c0.4-0.4,0.8-0.8,1.2-1.1c0.3-0.3,0.7-0.7,1-1 C656.1,449.5,656.4,449.1,656.8,448.8z"></path> <path class="st25" d="M632.5,436.3c0.3-0.1,0.6-0.2,0.9-0.3c0.4-0.1,0.8-0.2,1.2-0.3c0.3-0.1,0.6-0.2,0.9-0.2 c0.5-0.1,0.9-0.2,1.4-0.3c0.2-0.1,0.5-0.1,0.7-0.2c0.7-0.1,1.4-0.3,2.1-0.4c0.1,0,0.3,0,0.4-0.1c0.6-0.1,1.1-0.2,1.7-0.2 c0.2,0,0.5,0,0.7-0.1c0.5-0.1,1-0.1,1.5-0.1c0.2,0,0.5,0,0.7-0.1c0.5,0,1-0.1,1.5-0.1c0.2,0,0.5,0,0.7,0c0.3,0,0.6,0,0.8,0v-20.4 h-21.4c0,0.4,0,0.9,0,1.3c0,0.4,0,0.8,0.1,1.3c0,0.6,0.1,1.3,0.2,1.9c0,0.4,0.1,0.8,0.1,1.2c0.1,0.7,0.2,1.3,0.3,1.9 c0.1,0.4,0.1,0.7,0.2,1.1c0.1,0.8,0.3,1.5,0.5,2.3c0.1,0.3,0.1,0.5,0.2,0.8c0.2,1,0.5,2,0.8,2.9c0.1,0.3,0.2,0.6,0.3,1 c0.2,0.7,0.4,1.3,0.7,2c0.1,0.4,0.3,0.7,0.5,1.1c0.2,0.6,0.5,1.2,0.7,1.8c0.2,0.4,0.4,0.8,0.5,1.1c0.2,0.4,0.4,0.9,0.6,1.3 C632,436.5,632.2,436.4,632.5,436.3z"></path> <path class="st25" d="M647.5,435.9c-0.2,0-0.5,0-0.7,0c-0.3,0-0.5,0-0.8,0c-0.4,0-0.9,0-1.3,0.1c-0.2,0-0.5,0-0.7,0.1 c-0.5,0-1,0.1-1.5,0.2c-0.2,0-0.4,0-0.5,0.1c-0.7,0.1-1.3,0.2-2,0.3c-0.1,0-0.2,0-0.4,0.1c-0.5,0.1-1.1,0.2-1.6,0.3 c-0.2,0-0.4,0.1-0.7,0.1c-0.4,0.1-0.9,0.2-1.3,0.3c-0.2,0.1-0.5,0.1-0.7,0.2c-0.4,0.1-0.9,0.2-1.3,0.3c-0.2,0.1-0.5,0.1-0.7,0.2 c-0.2,0.1-0.4,0.1-0.6,0.2c0.2,0.4,0.4,0.7,0.6,1.1c0.2,0.3,0.4,0.7,0.6,1c0.3,0.5,0.7,1.1,1,1.6c0.2,0.3,0.4,0.7,0.6,1 c0.4,0.6,0.8,1.1,1.2,1.7c0.3,0.3,0.5,0.7,0.8,1c0.5,0.7,1.1,1.4,1.7,2c0.3,0.3,0.6,0.6,0.9,1c0.4,0.4,0.8,0.9,1.2,1.3 c0.3,0.3,0.6,0.6,1,0.9c0.4,0.4,0.8,0.8,1.3,1.2c0.3,0.3,0.7,0.6,1,0.9c0.4,0.4,0.9,0.8,1.4,1.1c0.3,0.3,0.7,0.5,1,0.8 c0.2,0.2,0.4,0.3,0.6,0.5V435.9z"></path> <path class="st25" d="M640.2,376.5c-0.3,0.3-0.6,0.7-0.9,1c-0.5,0.6-1,1.2-1.5,1.9c-0.3,0.4-0.6,0.8-0.9,1.2 c-0.4,0.5-0.8,1.1-1.2,1.6c-0.2,0.3-0.4,0.7-0.6,1c-0.4,0.5-0.7,1.1-1,1.6c-0.2,0.3-0.4,0.7-0.6,1c-0.2,0.4-0.4,0.7-0.6,1.1 c0.2,0.1,0.4,0.1,0.5,0.2c0.3,0.1,0.5,0.2,0.8,0.2c0.4,0.1,0.8,0.2,1.2,0.3c0.3,0.1,0.5,0.1,0.8,0.2c0.4,0.1,0.9,0.2,1.3,0.3 c0.2,0,0.5,0.1,0.7,0.1c0.5,0.1,1.1,0.2,1.6,0.3c0.1,0,0.3,0.1,0.4,0.1c0.7,0.1,1.3,0.2,2,0.3c0.2,0,0.4,0,0.6,0.1 c0.5,0.1,0.9,0.1,1.4,0.1c0.3,0,0.5,0,0.8,0.1c0.4,0,0.8,0.1,1.2,0.1c0.3,0,0.6,0,0.9,0c0.2,0,0.4,0,0.6,0v-19.5 c-0.2,0.2-0.4,0.3-0.6,0.5c-0.3,0.3-0.7,0.5-1,0.8c-0.5,0.4-0.9,0.7-1.3,1.1c-0.3,0.3-0.7,0.6-1,0.9c-0.4,0.4-0.8,0.8-1.2,1.2 c-0.3,0.3-0.7,0.6-1,1C640.9,375.6,640.6,376.1,640.2,376.5z"></path> <path class="st25" d="M649.5,389.3c0.2,0,0.4,0,0.6,0c0.3,0,0.6,0,0.9,0c0.4,0,0.8,0,1.2-0.1c0.3,0,0.5,0,0.8-0.1 c0.5,0,0.9-0.1,1.4-0.1c0.2,0,0.4,0,0.6-0.1c0.7-0.1,1.3-0.2,2-0.3c0.1,0,0.3-0.1,0.4-0.1c0.5-0.1,1-0.2,1.6-0.3 c0.2,0,0.5-0.1,0.7-0.2c0.4-0.1,0.9-0.2,1.3-0.3c0.3-0.1,0.5-0.1,0.8-0.2c0.4-0.1,0.8-0.2,1.2-0.3c0.3-0.1,0.5-0.1,0.8-0.2 c0.2-0.1,0.4-0.1,0.5-0.2c-0.2-0.3-0.4-0.7-0.6-1c-0.2-0.4-0.4-0.7-0.6-1.1c-0.3-0.5-0.6-1-1-1.5c-0.2-0.4-0.5-0.7-0.7-1.1 c-0.4-0.5-0.7-1-1.1-1.5c-0.4-0.6-0.9-1.1-1.3-1.7c-0.4-0.5-0.8-1-1.2-1.5c-0.3-0.4-0.7-0.7-1-1.1c-0.4-0.4-0.7-0.8-1.1-1.1 c-0.3-0.4-0.7-0.7-1-1c-0.4-0.4-0.8-0.7-1.2-1.1c-0.3-0.3-0.7-0.6-1.1-0.9c-0.4-0.4-0.8-0.7-1.3-1.1c-0.4-0.3-0.7-0.6-1.1-0.8 c-0.2-0.2-0.4-0.3-0.6-0.5V389.3z"></path> <path class="st25" d="M664.6,388.8c-0.3,0.1-0.7,0.2-1,0.3c-0.4,0.1-0.7,0.2-1.1,0.3c-0.3,0.1-0.6,0.2-0.9,0.2 c-0.4,0.1-0.8,0.2-1.2,0.3c-0.3,0.1-0.6,0.1-0.8,0.2c-0.7,0.1-1.4,0.3-2,0.4c-0.2,0-0.4,0.1-0.6,0.1c-0.5,0.1-1,0.2-1.5,0.2 c-0.2,0-0.5,0.1-0.7,0.1c-0.5,0.1-0.9,0.1-1.4,0.1c-0.2,0-0.5,0-0.7,0.1c-0.5,0-1,0.1-1.4,0.1c-0.2,0-0.5,0-0.7,0 c-0.3,0-0.6,0-0.8,0v20.4h21.4c0-0.4,0-0.9,0-1.3c0-0.4,0-0.8-0.1-1.3c0-0.6-0.1-1.3-0.2-1.9c0-0.4-0.1-0.8-0.1-1.2 c-0.1-0.7-0.2-1.3-0.3-2c-0.1-0.4-0.1-0.7-0.2-1.1c-0.1-0.8-0.3-1.5-0.5-2.3c-0.1-0.2-0.1-0.5-0.2-0.7c-0.2-1-0.5-2-0.8-2.9 c-0.1-0.3-0.2-0.6-0.3-0.9c-0.2-0.7-0.4-1.3-0.7-2c-0.1-0.4-0.3-0.8-0.5-1.1c-0.2-0.6-0.5-1.2-0.7-1.7c-0.2-0.4-0.4-0.8-0.6-1.2 c-0.2-0.4-0.4-0.8-0.6-1.3C665,388.7,664.8,388.8,664.6,388.8z"></path> <linearGradient id="SVGID_27_" gradientUnits="userSpaceOnUse" x1="620.0537" y1="438.002" x2="723.5583" y2="313.6779"> <stop offset="0" style="stop-color:#E65A49"></stop> <stop offset="1" style="stop-color:#F89C2B"></stop> </linearGradient> <path class="st44" d="M716.7,341.8H580.3c-0.5,0-1,0.4-1,1v17.3V465c0,0.5,0.4,1,1,1h136.4c0.5,0,1-0.4,1-1V360.1v-17.3 C717.7,342.2,717.2,341.8,716.7,341.8z M715.7,359.1H581.2v-15.4h134.5V359.1z M581.2,361.1h134.5V464H581.2V361.1z"></path> <linearGradient id="SVGID_28_" gradientUnits="userSpaceOnUse" x1="629.0137" y1="445.4531" x2="732.5128" y2="321.1356"> <stop offset="0" style="stop-color:#E65A49"></stop> <stop offset="1" style="stop-color:#F89C2B"></stop> </linearGradient> <path class="st45" d="M703.1,352.4h8.4c0.5,0,1-0.4,1-1c0-0.5-0.4-1-1-1h-8.4c-0.5,0-1,0.4-1,1C702.1,352,702.5,352.4,703.1,352.4 z"></path> <linearGradient id="SVGID_29_" gradientUnits="userSpaceOnUse" x1="620.8242" y1="438.6436" x2="724.3292" y2="314.319"> <stop offset="0" style="stop-color:#E65A49"></stop> <stop offset="1" style="stop-color:#F89C2B"></stop> </linearGradient> <path class="st46" d="M693.4,356.8c3,0,5.4-2.4,5.4-5.4s-2.4-5.4-5.4-5.4c-3,0-5.4,2.4-5.4,5.4S690.4,356.8,693.4,356.8z M693.4,348c1.9,0,3.4,1.5,3.4,3.4s-1.5,3.4-3.4,3.4s-3.4-1.5-3.4-3.4S691.5,348,693.4,348z"></path> <linearGradient id="SVGID_30_" gradientUnits="userSpaceOnUse" x1="624.3682" y1="441.5938" x2="727.8732" y2="317.2692"> <stop offset="0" style="stop-color:#E65A49"></stop> <stop offset="1" style="stop-color:#F89C2B"></stop> </linearGradient> <path class="st47" d="M648.9,367c-0.3-0.1-0.5-0.1-0.8,0c-11.8,0.1-22.9,4.7-31.3,12.9l0,0l0,0l0,0l0,0 c-9,8.7-13.9,20.3-13.9,32.8c0,12.4,4.9,24.1,13.9,32.7c0,0,0,0,0,0v0c8.5,8.2,19.6,12.8,31.3,12.9c0.1,0,0.2,0.1,0.3,0.1 c0.1,0,0.2,0,0.4-0.1c11.8-0.1,23-4.6,31.4-12.9c0,0,0,0,0,0l0,0c9-8.7,13.9-20.3,13.9-32.7c0-12.4-4.9-24.1-13.9-32.8 C671.8,371.6,660.7,367.1,648.9,367z M668.3,387.6c0.3-0.1,0.7-0.3,1-0.4c0.2-0.1,0.5-0.2,0.7-0.3c0.3-0.1,0.7-0.3,1-0.4 c0.2-0.1,0.5-0.2,0.7-0.3c0.4-0.2,0.7-0.3,1.1-0.5c0.2-0.1,0.4-0.2,0.6-0.3c0.5-0.3,1.1-0.6,1.6-0.8c0.1-0.1,0.3-0.1,0.4-0.2 c0.4-0.2,0.8-0.5,1.3-0.7c0.2-0.1,0.4-0.2,0.5-0.3c0.4-0.2,0.7-0.4,1.1-0.7c0.2-0.1,0.4-0.2,0.6-0.4c0.2-0.1,0.4-0.3,0.6-0.4 c8,8,12.5,18.6,12.7,29.8h-19.3c0-0.5,0-0.9-0.1-1.4c0-0.4,0-0.9-0.1-1.3c0-0.7-0.1-1.3-0.2-2c0-0.4-0.1-0.8-0.1-1.2 c-0.1-0.7-0.2-1.5-0.3-2.2c-0.1-0.3-0.1-0.7-0.2-1c-0.2-1-0.4-2.1-0.7-3.1c-0.1-0.3-0.1-0.5-0.2-0.8c-0.2-0.8-0.4-1.5-0.6-2.3 c-0.1-0.4-0.3-0.8-0.4-1.2c-0.2-0.6-0.4-1.2-0.6-1.8c-0.2-0.4-0.3-0.9-0.5-1.3c-0.2-0.6-0.5-1.1-0.7-1.7c-0.2-0.4-0.4-0.9-0.6-1.3 c-0.2-0.4-0.3-0.7-0.5-1.1c0.1-0.1,0.3-0.1,0.4-0.2C667.8,387.8,668.1,387.7,668.3,387.6z M679.2,443.2c-0.9-0.6-1.7-1.1-2.6-1.6 c-0.1,0-0.2-0.1-0.3-0.1c-0.9-0.5-1.8-1-2.8-1.5c0,0-0.1,0-0.1-0.1c-0.9-0.5-1.9-0.9-2.8-1.3c-0.2-0.1-0.3-0.1-0.4-0.2 c-0.9-0.4-1.8-0.7-2.8-1.1c-0.1,0-0.2-0.1-0.3-0.1c0.2-0.4,0.3-0.7,0.5-1.1c0.2-0.4,0.4-0.8,0.6-1.3c0.3-0.6,0.5-1.1,0.7-1.7 c0.2-0.4,0.3-0.8,0.5-1.2c0.2-0.6,0.4-1.2,0.6-1.9c0.1-0.4,0.3-0.8,0.4-1.1c0.2-0.8,0.4-1.6,0.7-2.4c0.1-0.2,0.1-0.5,0.2-0.7 c0.2-1,0.5-2.1,0.7-3.1c0.1-0.3,0.1-0.7,0.2-1c0.1-0.7,0.2-1.5,0.3-2.2c0-0.4,0.1-0.8,0.1-1.2c0.1-0.7,0.1-1.3,0.2-2 c0-0.4,0-0.9,0.1-1.3c0-0.5,0.1-0.9,0.1-1.4h19.3c-0.2,11.3-4.8,21.8-12.7,29.8C679.4,443.3,679.3,443.3,679.2,443.2z M626.9,438.3c-0.2,0.1-0.3,0.2-0.5,0.2c-0.9,0.4-1.9,0.8-2.8,1.3c-0.1,0-0.1,0.1-0.2,0.1c-0.9,0.5-1.8,0.9-2.7,1.4 c-0.1,0.1-0.2,0.1-0.3,0.2c-0.9,0.5-1.7,1.1-2.6,1.6c-0.1,0.1-0.2,0.1-0.2,0.2c-8-8-12.5-18.6-12.7-29.8h19.3c0,0.5,0,1,0.1,1.4 c0,0.4,0,0.8,0.1,1.3c0,0.7,0.1,1.4,0.2,2c0,0.4,0.1,0.8,0.1,1.2c0.1,0.7,0.2,1.5,0.3,2.2c0.1,0.3,0.1,0.6,0.1,0.9 c0.2,1,0.4,2.1,0.7,3.1c0.1,0.3,0.1,0.5,0.2,0.7c0.2,0.8,0.4,1.5,0.6,2.3c0.1,0.4,0.3,0.8,0.4,1.2c0.2,0.6,0.4,1.2,0.6,1.8 c0.2,0.4,0.3,0.8,0.5,1.2c0.2,0.6,0.5,1.2,0.7,1.7c0.2,0.4,0.4,0.8,0.6,1.3c0.2,0.4,0.3,0.8,0.5,1.1c-0.1,0-0.2,0.1-0.3,0.1 C628.7,437.6,627.8,438,626.9,438.3z M618.1,382.2c0.2,0.1,0.4,0.3,0.6,0.4c0.3,0.2,0.7,0.4,1,0.6c0.2,0.1,0.4,0.2,0.6,0.3 c0.4,0.2,0.8,0.5,1.3,0.7c0.1,0.1,0.2,0.1,0.3,0.2c0.5,0.3,1.1,0.6,1.6,0.9c0.2,0.1,0.3,0.2,0.5,0.2c0.4,0.2,0.8,0.4,1.2,0.6 c0.2,0.1,0.4,0.2,0.6,0.3c0.4,0.2,0.7,0.3,1.1,0.5c0.2,0.1,0.5,0.2,0.7,0.3c0.4,0.1,0.7,0.3,1.1,0.4c0.2,0.1,0.5,0.2,0.7,0.3 c0.2,0.1,0.3,0.1,0.5,0.2c-0.2,0.4-0.3,0.8-0.5,1.1c-0.2,0.4-0.4,0.8-0.6,1.3c-0.2,0.6-0.5,1.1-0.7,1.7c-0.2,0.4-0.3,0.8-0.5,1.3 c-0.2,0.6-0.4,1.2-0.6,1.8c-0.1,0.4-0.3,0.8-0.4,1.2c-0.2,0.7-0.4,1.5-0.6,2.2c-0.1,0.3-0.2,0.6-0.2,0.9c-0.2,1-0.5,2-0.7,3.1 c-0.1,0.3-0.1,0.7-0.2,1c-0.1,0.7-0.2,1.4-0.3,2.2c0,0.4-0.1,0.8-0.1,1.2c-0.1,0.7-0.1,1.3-0.2,2c0,0.4,0,0.9-0.1,1.3 c0,0.5-0.1,0.9-0.1,1.4h-19.3c0.2-11.3,4.8-21.8,12.7-29.8C617.8,381.9,618,382,618.1,382.2z M651.8,456.1 c0.1-0.1,0.3-0.2,0.4-0.3c0.7-0.5,1.3-1.1,1.9-1.6c0.3-0.3,0.6-0.6,0.9-0.8c0.4-0.4,0.9-0.8,1.3-1.2c0.4-0.3,0.7-0.7,1-1.1 c0.4-0.4,0.7-0.8,1.1-1.2c0.3-0.4,0.7-0.8,1-1.2c0.3-0.4,0.7-0.8,1-1.2c0.3-0.4,0.6-0.8,1-1.2c0.4-0.5,0.7-1,1.1-1.5 c0.2-0.3,0.5-0.6,0.7-0.9c0.6-0.8,1.1-1.7,1.6-2.6c0.1-0.2,0.3-0.5,0.4-0.7c0.3-0.5,0.6-1,0.9-1.6c0.1,0,0.2,0.1,0.3,0.1 c0.9,0.3,1.8,0.7,2.7,1c0.1,0,0.2,0.1,0.3,0.1c0.9,0.4,1.8,0.8,2.6,1.2c0.1,0,0.1,0.1,0.2,0.1c0.9,0.4,1.8,0.9,2.6,1.4 c0.1,0.1,0.3,0.2,0.4,0.2c0.8,0.5,1.6,1,2.4,1.5c0.1,0,0.1,0.1,0.2,0.1C670.8,451.4,661.5,455.4,651.8,456.1 C651.8,456.1,651.8,456.1,651.8,456.1z M641.9,453.2c0.3,0.3,0.6,0.6,0.9,0.9c0.6,0.5,1.2,1.1,1.9,1.6c0.2,0.1,0.3,0.3,0.5,0.4 c0,0,0.1,0,0.1,0.1c-9.8-0.7-19.1-4.7-26.3-11.4c0.1,0,0.1-0.1,0.2-0.1c0.8-0.5,1.6-1,2.4-1.5c0.2-0.1,0.3-0.2,0.5-0.3 c0.8-0.5,1.7-0.9,2.6-1.4c0.1,0,0.1-0.1,0.2-0.1c0.9-0.4,1.7-0.8,2.6-1.2c0.1,0,0.2-0.1,0.3-0.1c0.9-0.4,1.8-0.7,2.7-1.1 c0.1,0,0.2-0.1,0.3-0.1c0.3,0.5,0.6,1.1,0.9,1.6c0.1,0.2,0.3,0.5,0.4,0.7c0.5,0.9,1.1,1.7,1.6,2.6c0.2,0.3,0.4,0.6,0.7,0.9 c0.4,0.5,0.7,1,1.1,1.6c0.3,0.4,0.6,0.8,0.9,1.2c0.3,0.4,0.7,0.8,1,1.2c0.3,0.4,0.7,0.8,1,1.2c0.4,0.4,0.7,0.8,1.1,1.2 c0.3,0.4,0.7,0.7,1,1.1C641.1,452.4,641.5,452.8,641.9,453.2z M645.2,369.1c-0.1,0.1-0.3,0.2-0.4,0.3c-0.7,0.5-1.3,1.1-1.9,1.6 c-0.3,0.3-0.6,0.6-0.9,0.8c-0.4,0.4-0.9,0.8-1.3,1.3c-0.3,0.3-0.7,0.7-1,1c-0.4,0.4-0.7,0.8-1.1,1.2c-0.3,0.4-0.7,0.8-1,1.2 c-0.3,0.4-0.7,0.8-1,1.2c-0.3,0.4-0.6,0.8-0.9,1.2c-0.4,0.5-0.7,1-1.1,1.5c-0.2,0.3-0.5,0.6-0.7,1c-0.6,0.8-1.1,1.7-1.6,2.5 c-0.2,0.3-0.3,0.5-0.4,0.8c-0.3,0.5-0.6,1-0.9,1.5c-0.1,0-0.2-0.1-0.3-0.1c-0.9-0.3-1.8-0.7-2.6-1c-0.1-0.1-0.2-0.1-0.4-0.2 c-0.9-0.4-1.7-0.8-2.6-1.2c-0.1,0-0.2-0.1-0.2-0.1c-0.9-0.4-1.7-0.9-2.6-1.4c-0.2-0.1-0.3-0.2-0.5-0.3c-0.8-0.5-1.6-1-2.4-1.5 c-0.1,0-0.1-0.1-0.2-0.1C626.2,373.8,635.5,369.8,645.2,369.1C645.3,369.1,645.2,369.1,645.2,369.1z M655.1,371.9 c-0.3-0.3-0.6-0.6-0.9-0.9c-0.6-0.5-1.2-1.1-1.9-1.6c-0.2-0.1-0.3-0.3-0.5-0.4c0,0-0.1,0-0.1-0.1c9.8,0.7,19,4.7,26.3,11.4 c-0.1,0-0.1,0.1-0.2,0.1c-0.8,0.5-1.6,1-2.4,1.5c-0.1,0.1-0.3,0.2-0.4,0.2c-0.9,0.5-1.7,1-2.6,1.4c-0.1,0-0.1,0.1-0.2,0.1 c-0.9,0.4-1.7,0.8-2.6,1.2c-0.1,0.1-0.2,0.1-0.4,0.2c-0.9,0.4-1.7,0.7-2.6,1c-0.1,0-0.2,0.1-0.3,0.1c-0.3-0.5-0.6-1-0.9-1.6 c-0.1-0.2-0.3-0.5-0.4-0.7c-0.5-0.9-1.1-1.7-1.7-2.6c-0.2-0.3-0.4-0.6-0.6-0.9c-0.4-0.5-0.8-1.1-1.2-1.6c-0.3-0.4-0.6-0.8-0.9-1.1 c-0.3-0.4-0.7-0.8-1-1.3c-0.3-0.4-0.7-0.8-1-1.1c-0.4-0.4-0.7-0.8-1.1-1.2c-0.3-0.4-0.7-0.7-1-1 C656,372.8,655.5,372.3,655.1,371.9z M653.5,452.1c-0.3,0.3-0.7,0.6-1,0.9c-0.4,0.4-0.9,0.7-1.3,1.1c-0.3,0.3-0.7,0.6-1.1,0.8 c-0.2,0.2-0.4,0.3-0.6,0.5v-19.5c0.2,0,0.5,0,0.7,0c0.3,0,0.5,0,0.8,0c0.4,0,0.9,0,1.3,0.1c0.2,0,0.5,0,0.7,0.1 c0.5,0,1,0.1,1.5,0.2c0.2,0,0.3,0,0.5,0.1c0.7,0.1,1.3,0.2,2,0.3c0.1,0,0.2,0,0.4,0.1c0.6,0.1,1.1,0.2,1.6,0.3 c0.2,0,0.4,0.1,0.7,0.1c0.4,0.1,0.9,0.2,1.3,0.3c0.2,0.1,0.5,0.1,0.7,0.2c0.4,0.1,0.9,0.2,1.3,0.3c0.2,0.1,0.5,0.1,0.7,0.2 c0.2,0.1,0.4,0.1,0.6,0.2c-0.2,0.3-0.4,0.7-0.5,1c-0.2,0.4-0.4,0.8-0.7,1.2c-0.3,0.5-0.6,1-0.9,1.5c-0.2,0.4-0.5,0.7-0.7,1.1 c-0.3,0.5-0.7,1-1.1,1.5c-0.4,0.6-0.9,1.2-1.3,1.7c-0.4,0.5-0.8,1-1.3,1.5c-0.3,0.4-0.7,0.7-1,1.1c-0.4,0.4-0.7,0.8-1.1,1.2 c-0.3,0.3-0.7,0.7-1,1C654.3,451.3,653.9,451.7,653.5,452.1z M645.9,454.1c-0.5-0.4-0.9-0.8-1.4-1.1c-0.3-0.3-0.7-0.6-1-0.9 c-0.4-0.4-0.8-0.8-1.3-1.2c-0.3-0.3-0.6-0.6-1-0.9c-0.4-0.4-0.8-0.9-1.2-1.3c-0.3-0.3-0.6-0.6-0.9-1c-0.6-0.7-1.1-1.3-1.7-2 c-0.3-0.3-0.5-0.7-0.8-1c-0.4-0.6-0.8-1.1-1.2-1.7c-0.2-0.3-0.4-0.7-0.6-1c-0.3-0.5-0.7-1.1-1-1.6c-0.2-0.3-0.4-0.7-0.6-1 c-0.2-0.3-0.4-0.7-0.6-1.1c0.2-0.1,0.4-0.1,0.6-0.2c0.2-0.1,0.5-0.1,0.7-0.2c0.4-0.1,0.9-0.2,1.3-0.3c0.2-0.1,0.5-0.1,0.7-0.2 c0.4-0.1,0.9-0.2,1.3-0.3c0.2,0,0.4-0.1,0.7-0.1c0.5-0.1,1.1-0.2,1.6-0.3c0.1,0,0.2,0,0.4-0.1c0.7-0.1,1.3-0.2,2-0.3 c0.2,0,0.3,0,0.5-0.1c0.5-0.1,1-0.1,1.5-0.2c0.2,0,0.5,0,0.7-0.1c0.4,0,0.9-0.1,1.3-0.1c0.3,0,0.5,0,0.8,0c0.2,0,0.5,0,0.7,0v19.5 c-0.2-0.2-0.4-0.3-0.6-0.5C646.6,454.6,646.2,454.4,645.9,454.1z M643.5,373.1c0.3-0.3,0.7-0.6,1-0.9c0.4-0.4,0.9-0.8,1.3-1.1 c0.3-0.3,0.7-0.5,1-0.8c0.2-0.2,0.4-0.3,0.6-0.5v19.5c-0.2,0-0.4,0-0.6,0c-0.3,0-0.6,0-0.9,0c-0.4,0-0.8,0-1.2-0.1 c-0.3,0-0.5,0-0.8-0.1c-0.5,0-0.9-0.1-1.4-0.1c-0.2,0-0.4,0-0.6-0.1c-0.7-0.1-1.3-0.2-2-0.3c-0.1,0-0.3-0.1-0.4-0.1 c-0.5-0.1-1.1-0.2-1.6-0.3c-0.2,0-0.5-0.1-0.7-0.1c-0.4-0.1-0.9-0.2-1.3-0.3c-0.3-0.1-0.5-0.1-0.8-0.2c-0.4-0.1-0.8-0.2-1.2-0.3 c-0.3-0.1-0.5-0.1-0.8-0.2c-0.2-0.1-0.4-0.1-0.5-0.2c0.2-0.4,0.4-0.7,0.6-1.1c0.2-0.3,0.4-0.7,0.6-1c0.3-0.5,0.7-1.1,1-1.6 c0.2-0.3,0.4-0.7,0.6-1c0.4-0.6,0.8-1.1,1.2-1.6c0.3-0.4,0.6-0.8,0.9-1.2c0.5-0.6,1-1.3,1.5-1.9c0.3-0.3,0.6-0.7,0.9-1 c0.4-0.4,0.8-0.8,1.1-1.2c0.3-0.3,0.7-0.7,1-1C642.7,373.9,643.1,373.5,643.5,373.1z M651.2,371.1c0.4,0.4,0.9,0.7,1.3,1.1 c0.4,0.3,0.7,0.6,1.1,0.9c0.4,0.4,0.8,0.7,1.2,1.1c0.4,0.3,0.7,0.7,1,1c0.4,0.4,0.7,0.8,1.1,1.1c0.3,0.4,0.7,0.7,1,1.1 c0.4,0.5,0.8,1,1.2,1.5c0.4,0.6,0.9,1.1,1.3,1.7c0.4,0.5,0.7,1,1.1,1.5c0.2,0.3,0.5,0.7,0.7,1.1c0.3,0.5,0.7,1,1,1.5 c0.2,0.4,0.4,0.7,0.6,1.1c0.2,0.3,0.4,0.7,0.6,1c-0.2,0.1-0.4,0.1-0.5,0.2c-0.3,0.1-0.5,0.2-0.8,0.2c-0.4,0.1-0.8,0.2-1.2,0.3 c-0.3,0.1-0.5,0.1-0.8,0.2c-0.4,0.1-0.9,0.2-1.3,0.3c-0.2,0.1-0.5,0.1-0.7,0.2c-0.5,0.1-1,0.2-1.6,0.3c-0.1,0-0.3,0.1-0.4,0.1 c-0.7,0.1-1.3,0.2-2,0.3c-0.2,0-0.4,0-0.6,0.1c-0.5,0.1-0.9,0.1-1.4,0.1c-0.3,0-0.5,0-0.8,0.1c-0.4,0-0.8,0.1-1.2,0.1 c-0.3,0-0.6,0-0.9,0c-0.2,0-0.4,0-0.6,0v-19.5c0.2,0.2,0.4,0.3,0.6,0.5C650.5,370.5,650.8,370.8,651.2,371.1z M666.4,391.1 c0.3,0.6,0.5,1.2,0.7,1.7c0.2,0.4,0.3,0.8,0.5,1.1c0.2,0.7,0.5,1.3,0.7,2c0.1,0.3,0.2,0.6,0.3,0.9c0.3,1,0.6,2,0.8,2.9 c0.1,0.2,0.1,0.5,0.2,0.7c0.2,0.8,0.3,1.5,0.5,2.3c0.1,0.4,0.1,0.7,0.2,1.1c0.1,0.7,0.2,1.3,0.3,2c0.1,0.4,0.1,0.8,0.1,1.2 c0.1,0.6,0.1,1.3,0.2,1.9c0,0.4,0,0.8,0.1,1.3c0,0.4,0,0.9,0,1.3h-21.4v-20.4c0.3,0,0.6,0,0.8,0c0.2,0,0.5,0,0.7,0 c0.5,0,1-0.1,1.4-0.1c0.2,0,0.5,0,0.7-0.1c0.5,0,0.9-0.1,1.4-0.1c0.2,0,0.5,0,0.7-0.1c0.5-0.1,1-0.1,1.5-0.2 c0.2,0,0.4-0.1,0.6-0.1c0.7-0.1,1.4-0.2,2-0.4c0.3-0.1,0.6-0.1,0.8-0.2c0.4-0.1,0.8-0.2,1.2-0.3c0.3-0.1,0.6-0.2,0.9-0.2 c0.4-0.1,0.7-0.2,1.1-0.3c0.3-0.1,0.7-0.2,1-0.3c0.2-0.1,0.4-0.1,0.7-0.2c0.2,0.4,0.4,0.8,0.6,1.3 C666.1,390.3,666.2,390.7,666.4,391.1z M670.8,416.2c0,0.6-0.1,1.3-0.2,1.9c0,0.4-0.1,0.8-0.1,1.2c-0.1,0.7-0.2,1.3-0.3,1.9 c-0.1,0.4-0.1,0.7-0.2,1.1c-0.1,0.8-0.3,1.5-0.5,2.3c-0.1,0.2-0.1,0.5-0.2,0.7c-0.2,1-0.5,2-0.8,2.9c-0.1,0.3-0.2,0.6-0.3,0.9 c-0.2,0.7-0.4,1.3-0.7,2c-0.1,0.4-0.3,0.7-0.4,1.1c-0.2,0.6-0.5,1.2-0.7,1.8c-0.2,0.4-0.4,0.8-0.5,1.1c-0.2,0.4-0.4,0.9-0.6,1.3 c-0.2-0.1-0.4-0.1-0.6-0.2c-0.3-0.1-0.7-0.2-1-0.3c-0.3-0.1-0.7-0.2-1-0.3c-0.4-0.1-0.7-0.2-1.1-0.3c-0.3-0.1-0.7-0.2-1-0.2 c-0.4-0.1-0.7-0.2-1.1-0.2c-0.6-0.1-1.2-0.2-1.7-0.3c-0.3-0.1-0.7-0.1-1-0.2c-0.5-0.1-0.9-0.1-1.4-0.2c-0.3,0-0.5-0.1-0.8-0.1 c-0.5-0.1-0.9-0.1-1.4-0.1c-0.2,0-0.5,0-0.8-0.1c-0.5,0-1-0.1-1.4-0.1c-0.2,0-0.5,0-0.7,0c-0.3,0-0.6,0-0.8,0v-20.4h21.4 c0,0.4,0,0.9,0,1.3C670.9,415.3,670.8,415.7,670.8,416.2z M630.6,434.1c-0.3-0.6-0.5-1.2-0.7-1.8c-0.1-0.4-0.3-0.7-0.5-1.1 c-0.2-0.6-0.5-1.3-0.7-2c-0.1-0.3-0.2-0.6-0.3-1c-0.3-1-0.6-2-0.8-2.9c-0.1-0.3-0.1-0.5-0.2-0.8c-0.2-0.7-0.3-1.5-0.5-2.3 c-0.1-0.4-0.1-0.7-0.2-1.1c-0.1-0.6-0.2-1.3-0.3-1.9c0-0.4-0.1-0.8-0.1-1.2c-0.1-0.6-0.1-1.3-0.2-1.9c0-0.4,0-0.8-0.1-1.3 c0-0.4,0-0.9,0-1.3h21.4v20.4c-0.3,0-0.6,0-0.8,0c-0.2,0-0.5,0-0.7,0c-0.5,0-1,0.1-1.5,0.1c-0.2,0-0.5,0-0.7,0.1 c-0.5,0-1,0.1-1.5,0.1c-0.2,0-0.5,0-0.7,0.1c-0.6,0.1-1.1,0.2-1.7,0.2c-0.1,0-0.3,0-0.4,0.1c-0.7,0.1-1.4,0.2-2.1,0.4 c-0.2,0-0.5,0.1-0.7,0.2c-0.5,0.1-0.9,0.2-1.4,0.3c-0.3,0.1-0.6,0.2-0.9,0.2c-0.4,0.1-0.8,0.2-1.2,0.3c-0.3,0.1-0.6,0.2-0.9,0.3 c-0.2,0.1-0.5,0.1-0.7,0.2c-0.2-0.4-0.4-0.9-0.6-1.3C631,434.9,630.8,434.5,630.6,434.1z M626.2,409c0-0.6,0.1-1.3,0.2-1.9 c0-0.4,0.1-0.8,0.1-1.2c0.1-0.7,0.2-1.3,0.3-1.9c0.1-0.4,0.1-0.8,0.2-1.1c0.1-0.8,0.3-1.5,0.5-2.3c0.1-0.3,0.1-0.5,0.2-0.8 c0.2-1,0.5-2,0.8-2.9c0.1-0.3,0.2-0.7,0.3-1c0.2-0.6,0.4-1.3,0.7-1.9c0.1-0.4,0.3-0.8,0.5-1.1c0.2-0.6,0.5-1.2,0.7-1.7 c0.2-0.4,0.4-0.8,0.5-1.2c0.2-0.4,0.4-0.8,0.6-1.3c0.2,0.1,0.5,0.1,0.7,0.2c0.3,0.1,0.6,0.2,1,0.3c0.4,0.1,0.8,0.2,1.1,0.3 c0.3,0.1,0.6,0.2,0.9,0.2c0.4,0.1,0.8,0.2,1.3,0.3c0.3,0.1,0.5,0.1,0.8,0.2c0.7,0.1,1.4,0.3,2,0.4c0.2,0,0.4,0.1,0.6,0.1 c0.5,0.1,1,0.2,1.5,0.2c0.2,0,0.5,0.1,0.7,0.1c0.5,0.1,0.9,0.1,1.4,0.1c0.2,0,0.5,0,0.7,0.1c0.5,0,1,0.1,1.4,0.1 c0.2,0,0.5,0,0.7,0c0.3,0,0.6,0,0.8,0v20.4h-21.4c0-0.4,0-0.9,0-1.3C626.2,409.9,626.2,409.4,626.2,409z"></path> </g> <g> <circle class="st25" cx="207.1" cy="266" r="3.2"></circle> <rect x="92.1" y="302.4" class="st25" width="123.2" height="5.2"></rect> <path class="st25" d="M33.3,273.3h195.1v-14.7H33.3V273.3z M216.3,265h8c0.5,0,1,0.4,1,1s-0.4,1-1,1h-8c-0.5,0-1-0.4-1-1 S215.8,265,216.3,265z M207.1,260.8c2.9,0,5.2,2.3,5.2,5.2c0,2.9-2.3,5.2-5.2,5.2c-2.9,0-5.2-2.3-5.2-5.2 C201.8,263.1,204.2,260.8,207.1,260.8z"></path> <rect x="92.1" y="315.9" class="st25" width="123.2" height="5.2"></rect> <rect x="92.1" y="289" class="st25" width="123.2" height="5.2"></rect> <path class="st25" d="M228.4,275.3H33.3v59.5h195.1V275.3z M62.3,324.6c-10.8,0-19.6-8.8-19.6-19.6c0-10.8,8.8-19.6,19.6-19.6 s19.6,8.8,19.6,19.6C81.9,315.8,73.1,324.6,62.3,324.6z M217.3,322c0,0.5-0.4,1-1,1H91.1c-0.5,0-1-0.4-1-1v-7.2c0-0.5,0.4-1,1-1 h125.2c0.5,0,1,0.4,1,1V322z M217.3,308.6c0,0.5-0.4,1-1,1H91.1c-0.5,0-1-0.4-1-1v-7.2c0-0.5,0.4-1,1-1h125.2c0.5,0,1,0.4,1,1 V308.6z M217.3,295.2c0,0.5-0.4,1-1,1H91.1c-0.5,0-1-0.4-1-1V288c0-0.5,0.4-1,1-1h125.2c0.5,0,1,0.4,1,1V295.2z"></path> <path class="st25" d="M62.3,287.4c-9.7,0-17.6,7.9-17.6,17.6c0,9.7,7.9,17.6,17.6,17.6s17.6-7.9,17.6-17.6 C79.9,295.3,72,287.4,62.3,287.4z"></path> <linearGradient id="SVGID_31_" gradientUnits="userSpaceOnUse" x1="128.2012" y1="298.4854" x2="409.2704" y2="111.9978"> <stop offset="0" style="stop-color:#E65A49"></stop> <stop offset="1" style="stop-color:#F89C2B"></stop> </linearGradient> <path class="st48" d="M229.4,256.7H32.3c-0.5,0-1,0.4-1,1v16.6v61.5c0,0.5,0.4,1,1,1h197.1c0.5,0,1-0.4,1-1v-61.5v-16.6 C230.4,257.1,229.9,256.7,229.4,256.7z M228.4,273.3H33.3v-14.7h195.1V273.3z M33.3,275.3h195.1v59.5H33.3V275.3z"></path> <linearGradient id="SVGID_32_" gradientUnits="userSpaceOnUse" x1="141.397" y1="318.3682" x2="422.4582" y2="131.886"> <stop offset="0" style="stop-color:#E65A49"></stop> <stop offset="1" style="stop-color:#F89C2B"></stop> </linearGradient> <path class="st49" d="M216.3,267h8c0.5,0,1-0.4,1-1s-0.4-1-1-1h-8c-0.5,0-1,0.4-1,1S215.8,267,216.3,267z"></path> <linearGradient id="SVGID_33_" gradientUnits="userSpaceOnUse" x1="137.3262" y1="312.2422" x2="418.4029" y2="125.7497"> <stop offset="0" style="stop-color:#E65A49"></stop> <stop offset="1" style="stop-color:#F89C2B"></stop> </linearGradient> <path class="st50" d="M207.1,271.2c2.9,0,5.2-2.3,5.2-5.2c0-2.9-2.3-5.2-5.2-5.2c-2.9,0-5.2,2.3-5.2,5.2 C201.8,268.9,204.2,271.2,207.1,271.2z M207.1,262.7c1.8,0,3.2,1.5,3.2,3.2c0,1.8-1.5,3.2-3.2,3.2c-1.8,0-3.2-1.5-3.2-3.2 C203.8,264.2,205.3,262.7,207.1,262.7z"></path> <linearGradient id="SVGID_34_" gradientUnits="userSpaceOnUse" x1="111.0845" y1="272.6885" x2="392.1534" y2="86.2012"> <stop offset="0" style="stop-color:#E65A49"></stop> <stop offset="1" style="stop-color:#F89C2B"></stop> </linearGradient> <path class="st51" d="M62.3,285.4c-10.8,0-19.6,8.8-19.6,19.6c0,10.8,8.8,19.6,19.6,19.6s19.6-8.8,19.6-19.6 C81.9,294.2,73.1,285.4,62.3,285.4z M62.3,322.7c-9.7,0-17.6-7.9-17.6-17.6c0-9.7,7.9-17.6,17.6-17.6s17.6,7.9,17.6,17.6 C79.9,314.8,72,322.7,62.3,322.7z"></path> <linearGradient id="SVGID_35_" gradientUnits="userSpaceOnUse" x1="132.8408" y1="305.4785" x2="413.9111" y2="118.9903"> <stop offset="0" style="stop-color:#E65A49"></stop> <stop offset="1" style="stop-color:#F89C2B"></stop> </linearGradient> <path class="st52" d="M216.3,287H91.1c-0.5,0-1,0.4-1,1v7.2c0,0.5,0.4,1,1,1h125.2c0.5,0,1-0.4,1-1V288 C217.3,287.5,216.9,287,216.3,287z M215.4,289v5.2H92.1V289H215.4z"></path> <linearGradient id="SVGID_36_" gradientUnits="userSpaceOnUse" x1="139.0273" y1="314.8018" x2="420.097" y2="128.314"> <stop offset="0" style="stop-color:#E65A49"></stop> <stop offset="1" style="stop-color:#F89C2B"></stop> </linearGradient> <path class="st53" d="M216.3,300.5H91.1c-0.5,0-1,0.4-1,1v7.2c0,0.5,0.4,1,1,1h125.2c0.5,0,1-0.4,1-1v-7.2 C217.3,300.9,216.9,300.5,216.3,300.5z M215.4,302.4v5.2H92.1v-5.2H215.4z"></path> <linearGradient id="SVGID_37_" gradientUnits="userSpaceOnUse" x1="145.2119" y1="324.123" x2="426.2809" y2="137.6357"> <stop offset="0" style="stop-color:#E65A49"></stop> <stop offset="1" style="stop-color:#F89C2B"></stop> </linearGradient> <path class="st54" d="M216.3,313.9H91.1c-0.5,0-1,0.4-1,1v7.2c0,0.5,0.4,1,1,1h125.2c0.5,0,1-0.4,1-1v-7.2 C217.3,314.3,216.9,313.9,216.3,313.9z M215.4,315.9v5.2H92.1v-5.2H215.4z"></path> </g> <g> <g> <linearGradient id="SVGID_38_" gradientUnits="userSpaceOnUse" x1="191.3384" y1="463.4785" x2="719.5735" y2="20.9039"> <stop offset="0" style="stop-color:#E65A49"></stop> <stop offset="1" style="stop-color:#F89C2B"></stop> </linearGradient> <path class="st55" d="M605.2,193.6c-42.4,0-76.9-34.5-76.9-76.9c0-42.4,34.5-76.9,76.9-76.9c42.4,0,76.9,34.5,76.9,76.9 C682,159.1,647.6,193.6,605.2,193.6z M605.2,41.8c-41.3,0-74.9,33.6-74.9,74.9c0,41.3,33.6,74.9,74.9,74.9 c41.3,0,74.9-33.6,74.9-74.9C680.1,75.4,646.5,41.8,605.2,41.8z"></path> </g> <g> <linearGradient id="SVGID_39_" gradientUnits="userSpaceOnUse" x1="191.3418" y1="463.4746" x2="719.5724" y2="20.9037"> <stop offset="0" style="stop-color:#E65A49"></stop> <stop offset="1" style="stop-color:#F89C2B"></stop> </linearGradient> <path class="st56" d="M605.2,169.4c-29,0-52.7-23.6-52.7-52.7s23.6-52.7,52.7-52.7s52.7,23.6,52.7,52.7S634.2,169.4,605.2,169.4z M605.2,66c-28,0-50.7,22.8-50.7,50.7c0,28,22.8,50.7,50.7,50.7c28,0,50.7-22.8,50.7-50.7C655.9,88.8,633.1,66,605.2,66z"></path> </g> <g> <linearGradient id="SVGID_40_" gradientUnits="userSpaceOnUse" x1="191.3394" y1="463.4756" x2="719.5731" y2="20.9022"> <stop offset="0" style="stop-color:#E65A49"></stop> <stop offset="1" style="stop-color:#F89C2B"></stop> </linearGradient> <path class="st57" d="M605.2,144.7c-15.4,0-28-12.5-28-28c0-15.4,12.5-28,28-28s28,12.5,28,28 C633.1,132.2,620.6,144.7,605.2,144.7z M605.2,90.7c-14.4,0-26,11.7-26,26c0,14.4,11.7,26,26,26c14.4,0,26-11.7,26-26 C631.2,102.4,619.5,90.7,605.2,90.7z"></path> </g> <g> <linearGradient id="SVGID_41_" gradientUnits="userSpaceOnUse" x1="167.6431" y1="435.1924" x2="695.8769" y2="-7.3811"> <stop offset="0" style="stop-color:#E65A49"></stop> <stop offset="1" style="stop-color:#F89C2B"></stop> </linearGradient> <path class="st58" d="M596.1,117.9h-97.3c-0.5,0-1-0.4-1-1c0-0.5,0.4-1,1-1h97.3c0.5,0,1,0.4,1,1 C597.1,117.5,596.7,117.9,596.1,117.9z"></path> </g> <g> <linearGradient id="SVGID_42_" gradientUnits="userSpaceOnUse" x1="136.0547" y1="397.4883" x2="664.2875" y2="-45.0845"> <stop offset="0" style="stop-color:#E65A49"></stop> <stop offset="1" style="stop-color:#F89C2B"></stop> </linearGradient> <path class="st59" d="M456,130.2c-0.4,0-0.7-0.2-0.9-0.5c-0.2-0.4-0.1-0.8,0.2-1.1l10.8-11.6l-10.8-10.4 c-0.3-0.3-0.4-0.7-0.2-1.1c0.2-0.4,0.6-0.6,1-0.6l31.3,2.6c0.2,0,0.3,0.1,0.5,0.2l11.5,8.5c0.2,0.2,0.4,0.4,0.4,0.7 c0,0.3-0.1,0.6-0.3,0.8l-11.5,9.7c-0.2,0.1-0.3,0.2-0.5,0.2L456,130.2C456.1,130.2,456.1,130.2,456,130.2z M458.7,107.1l9.5,9.2 c0.4,0.4,0.4,1,0,1.3l-9.8,10.5l28.5-2.4l10.3-8.7l-10.3-7.6L458.7,107.1z"></path> </g> <g> <linearGradient id="SVGID_43_" gradientUnits="userSpaceOnUse" x1="191.6909" y1="463.875" x2="719.912" y2="21.3121"> <stop offset="0" style="stop-color:#E65A49"></stop> <stop offset="1" style="stop-color:#F89C2B"></stop> </linearGradient> <path class="st60" d="M605.8,127.3c-0.5,0-1-0.4-1-1v-18.8c0-0.5,0.4-1,1-1c0.5,0,1,0.4,1,1v18.8 C606.7,126.9,606.3,127.3,605.8,127.3z"></path> </g> <g> <linearGradient id="SVGID_44_" gradientUnits="userSpaceOnUse" x1="187.5557" y1="458.9502" x2="715.7846" y2="16.3807"> <stop offset="0" style="stop-color:#E65A49"></stop> <stop offset="1" style="stop-color:#F89C2B"></stop> </linearGradient> <path class="st61" d="M592.6,126.2c-0.2,0-0.5-0.1-0.7-0.3c-0.3-0.3-0.4-0.7-0.2-1.1l3.4-7.9l-3.4-7.9c-0.2-0.4-0.1-0.8,0.2-1.1 c0.3-0.3,0.7-0.4,1.1-0.2l13.2,5.7c0.4,0.2,0.6,0.5,0.6,0.9v5.2c0,0.4-0.2,0.7-0.6,0.9l-13.2,5.7 C592.8,126.2,592.7,126.2,592.6,126.2z M594.4,110.5l2.6,6.1c0.1,0.2,0.1,0.5,0,0.8l-2.6,6.1l10.4-4.5V115L594.4,110.5z"></path> </g> </g> <g> <g> <linearGradient id="SVGID_45_" gradientUnits="userSpaceOnUse" x1="341.9634" y1="643.2666" x2="870.2052" y2="200.6864"> <stop offset="0" style="stop-color:#E65A49"></stop> <stop offset="1" style="stop-color:#F89C2B"></stop> </linearGradient> <path class="st62" d="M754.5,313.6c-0.2,0-0.3,0-0.5-0.1c-0.3-0.2-0.5-0.5-0.5-0.8v-38.8c0-0.3,0.2-0.7,0.5-0.8 c0.3-0.2,0.7-0.2,1,0l33.6,19.4c0.3,0.2,0.5,0.5,0.5,0.8c0,0.3-0.2,0.7-0.5,0.8l-33.6,19.4C754.8,313.6,754.6,313.6,754.5,313.6z M755.4,275.6V311l30.7-17.7L755.4,275.6z"></path> </g> <g> <linearGradient id="SVGID_46_" gradientUnits="userSpaceOnUse" x1="324.7529" y1="622.7129" x2="852.9862" y2="180.1398"> <stop offset="0" style="stop-color:#E65A49"></stop> <stop offset="1" style="stop-color:#F89C2B"></stop> </linearGradient> <path class="st63" d="M712.7,313.6c-0.2,0-0.3,0-0.5-0.1c-0.3-0.2-0.5-0.5-0.5-0.8v-38.8c0-0.3,0.2-0.7,0.5-0.8 c0.3-0.2,0.7-0.2,1,0l33.6,19.4c0.3,0.2,0.5,0.5,0.5,0.8c0,0.3-0.2,0.7-0.5,0.8l-33.6,19.4C713.1,313.6,712.9,313.6,712.7,313.6z M713.7,275.6V311l30.7-17.7L713.7,275.6z"></path> </g> <g> <linearGradient id="SVGID_47_" gradientUnits="userSpaceOnUse" x1="307.5347" y1="602.165" x2="835.772" y2="159.5885"> <stop offset="0" style="stop-color:#E65A49"></stop> <stop offset="1" style="stop-color:#F89C2B"></stop> </linearGradient> <path class="st64" d="M671,313.6c-0.2,0-0.3,0-0.5-0.1c-0.3-0.2-0.5-0.5-0.5-0.8v-38.8c0-0.3,0.2-0.7,0.5-0.8 c0.3-0.2,0.7-0.2,1,0l33.6,19.4c0.3,0.2,0.5,0.5,0.5,0.8c0,0.3-0.2,0.7-0.5,0.8l-33.6,19.4C671.3,313.6,671.1,313.6,671,313.6z M671.9,275.6V311l30.7-17.7L671.9,275.6z"></path> </g> <g> <linearGradient id="SVGID_48_" gradientUnits="userSpaceOnUse" x1="339.833" y1="640.6826" x2="868.0474" y2="198.1254"> <stop offset="0" style="stop-color:#E65A49"></stop> <stop offset="1" style="stop-color:#F89C2B"></stop> </linearGradient> <path class="st65" d="M754.5,320.3c-0.5,0-1-0.4-1-1v-52.2c0-0.5,0.4-1,1-1c0.5,0,1,0.4,1,1v52.2 C755.4,319.9,755,320.3,754.5,320.3z"></path> </g> <g> <linearGradient id="SVGID_49_" gradientUnits="userSpaceOnUse" x1="322.6172" y1="620.1338" x2="850.8334" y2="177.575"> <stop offset="0" style="stop-color:#E65A49"></stop> <stop offset="1" style="stop-color:#F89C2B"></stop> </linearGradient> <path class="st66" d="M712.7,320.3c-0.5,0-1-0.4-1-1v-52.2c0-0.5,0.4-1,1-1s1,0.4,1,1v52.2C713.7,319.9,713.3,320.3,712.7,320.3z "></path> </g> <g> <linearGradient id="SVGID_50_" gradientUnits="userSpaceOnUse" x1="305.3896" y1="599.5957" x2="833.6204" y2="157.0247"> <stop offset="0" style="stop-color:#E65A49"></stop> <stop offset="1" style="stop-color:#F89C2B"></stop> </linearGradient> <path class="st67" d="M671,320.3c-0.5,0-1-0.4-1-1v-52.2c0-0.5,0.4-1,1-1c0.5,0,1,0.4,1,1v52.2 C671.9,319.9,671.5,320.3,671,320.3z"></path> </g> </g> <g> <g> <g> <linearGradient id="SVGID_51_" gradientUnits="userSpaceOnUse" x1="-18.7886" y1="212.6777" x2="509.4471" y2="-229.8974"> <stop offset="0" style="stop-color:#E65A49"></stop> <stop offset="1" style="stop-color:#F89C2B"></stop> </linearGradient> <path class="st68" d="M212.6,69.2H110.1c-0.5,0-1-0.4-1-1v-13c0-0.5,0.4-1,1-1h102.6c0.5,0,1,0.4,1,1v13 C213.6,68.8,213.2,69.2,212.6,69.2z M111,67.3h100.7V56.2H111V67.3z"></path> </g> <g> <linearGradient id="SVGID_52_" gradientUnits="userSpaceOnUse" x1="25.9858" y1="266.1152" x2="554.2179" y2="-176.4568"> <stop offset="0" style="stop-color:#E65A49"></stop> <stop offset="1" style="stop-color:#F89C2B"></stop> </linearGradient> <path class="st69" d="M212.6,238.1H110.1c-0.5,0-1-0.4-1-1V68.3c0-0.5,0.4-1,1-1h102.6c0.5,0,1,0.4,1,1v168.9 C213.6,237.7,213.2,238.1,212.6,238.1z M111,236.2h100.7V69.2H111V236.2z"></path> </g> </g> <g> <linearGradient id="SVGID_53_" gradientUnits="userSpaceOnUse" x1="-0.5566" y1="234.4492" x2="527.6931" y2="-208.1377"> <stop offset="0" style="stop-color:#E65A49"></stop> <stop offset="1" style="stop-color:#F89C2B"></stop> </linearGradient> <path class="st70" d="M208.7,62.7h-6.3c-0.5,0-1-0.4-1-1c0-0.5,0.4-1,1-1h6.3c0.5,0,1,0.4,1,1C209.7,62.3,209.2,62.7,208.7,62.7z "></path> </g> <g> <linearGradient id="SVGID_54_" gradientUnits="userSpaceOnUse" x1="-4.8389" y1="229.3047" x2="523.3684" y2="-213.2466"> <stop offset="0" style="stop-color:#E65A49"></stop> <stop offset="1" style="stop-color:#F89C2B"></stop> </linearGradient> <path class="st71" d="M195.1,66c-2.4,0-4.3-1.9-4.3-4.3s1.9-4.3,4.3-4.3s4.3,1.9,4.3,4.3S197.5,66,195.1,66z M195.1,59.4 c-1.3,0-2.4,1.1-2.4,2.4s1.1,2.4,2.4,2.4c1.3,0,2.4-1.1,2.4-2.4S196.4,59.4,195.1,59.4z"></path> </g> <g> <g> <linearGradient id="SVGID_55_" gradientUnits="userSpaceOnUse" x1="4.5371" y1="240.5693" x2="532.856" y2="-202.0754"> <stop offset="0" style="stop-color:#E65A49"></stop> <stop offset="1" style="stop-color:#F89C2B"></stop> </linearGradient> <path class="st72" d="M164.2,107.6c-0.4,0-0.8-0.3-0.9-0.7c0-0.1,0-0.2,0-0.3c0-0.4,0.3-0.8,0.7-0.9c0.2-0.1,0.5-0.2,0.7-0.3 c0.5-0.2,1.1,0,1.3,0.5c0.2,0.5,0,1.1-0.5,1.3c-0.3,0.1-0.6,0.2-0.9,0.3C164.4,107.6,164.3,107.6,164.2,107.6z"></path> </g> <g> <linearGradient id="SVGID_56_" gradientUnits="userSpaceOnUse" x1="1.9141" y1="237.3784" x2="530.1335" y2="-205.1831"> <stop offset="0" style="stop-color:#E65A49"></stop> <stop offset="1" style="stop-color:#F89C2B"></stop> </linearGradient> <path class="st73" d="M158.6,107.6c-0.1,0-0.2,0-0.3,0c-0.2-0.1-0.4-0.1-0.6-0.2c0,0,0,0,0,0l-0.3-0.1c-0.5-0.2-0.7-0.8-0.5-1.3 c0.2-0.5,0.8-0.7,1.3-0.5l0.2,0.1c0.1,0,0.3,0.1,0.4,0.1c0.5,0.1,0.8,0.5,0.8,1C159.6,107.1,159.1,107.5,158.6,107.6 C158.6,107.6,158.6,107.6,158.6,107.6z"></path> </g> <g> <linearGradient id="SVGID_57_" gradientUnits="userSpaceOnUse" x1="4.7847" y1="240.8003" x2="532.9986" y2="-201.7566"> <stop offset="0" style="stop-color:#E65A49"></stop> <stop offset="1" style="stop-color:#F89C2B"></stop> </linearGradient> <path class="st74" d="M165.5,107c-0.4,0-0.7-0.2-0.9-0.5c-0.2-0.5-0.1-1,0.4-1.3c0,0,0,0,0,0l0,0c0,0,0,0,0,0 c0,0,0.1-0.1,0.1-0.1c0,0,0,0,0.1,0c0,0,0,0,0.1,0l0.2-0.1c0.5-0.3,1-0.1,1.3,0.3c0.3,0.5,0.1,1-0.3,1.3 c-0.1,0.1-0.2,0.1-0.3,0.2c0,0,0,0,0,0h0c0,0,0,0,0,0l0,0c0,0,0,0,0,0c0,0-0.2,0.1-0.2,0.1c0,0,0,0,0,0c0,0-0.1,0-0.1,0l0,0 C165.7,107,165.6,107,165.5,107z"></path> </g> <g> <linearGradient id="SVGID_58_" gradientUnits="userSpaceOnUse" x1="1.2329" y1="236.5684" x2="529.4592" y2="-205.9988"> <stop offset="0" style="stop-color:#E65A49"></stop> <stop offset="1" style="stop-color:#F89C2B"></stop> </linearGradient> <path class="st75" d="M157.4,107.1C157.4,107.1,157.3,107.1,157.4,107.1c-0.2,0-0.3,0-0.5-0.1l-0.1,0v0l-0.2-0.1c0,0,0,0,0,0h0 l0,0c0,0,0,0,0,0c-0.1-0.1-0.2-0.1-0.3-0.2l0,0c0,0,0,0,0,0c-0.5-0.3-0.6-0.8-0.4-1.3c0.3-0.5,0.8-0.6,1.3-0.4l0.4,0.2 c0.4,0.1,0.7,0.5,0.7,0.9C158.3,106.7,157.9,107.1,157.4,107.1z"></path> </g> <g> <linearGradient id="SVGID_59_" gradientUnits="userSpaceOnUse" x1="4.2368" y1="240.2427" x2="532.6092" y2="-202.447"> <stop offset="0" style="stop-color:#E65A49"></stop> <stop offset="1" style="stop-color:#F89C2B"></stop> </linearGradient> <path class="st76" d="M163.1,107.9c-0.5,0-0.9-0.3-0.9-0.8c0-0.1,0-0.1,0-0.2c0-0.5,0.3-0.9,0.8-0.9c0.3-0.1,0.6-0.1,0.8-0.2 c0.5-0.2,1,0.1,1.2,0.7c0.1,0.5-0.1,1-0.7,1.2c-0.3,0.1-0.7,0.2-1,0.3c0,0,0,0,0,0C163.2,107.9,163.1,107.9,163.1,107.9z"></path> </g> <g> <linearGradient id="SVGID_60_" gradientUnits="userSpaceOnUse" x1="4.7207" y1="240.7329" x2="532.9497" y2="-201.8366"> <stop offset="0" style="stop-color:#E65A49"></stop> <stop offset="1" style="stop-color:#F89C2B"></stop> </linearGradient> <path class="st77" d="M181.9,132.5c-0.1,0-0.3,0-0.4-0.1c-0.3-0.2-0.6-0.5-0.6-0.9v-21.1h-12.5c-0.4,0-0.8-0.3-0.9-0.6l-1.5-4.2 c-0.1-0.4,0-0.8,0.3-1.1c0.2-0.1,0.4-0.3,0.5-0.4c1.8-1.6,2.9-3.9,2.9-6.3v-8.3H153v8.3c0,2.4,1.1,4.7,2.9,6.3 c0.2,0.1,0.3,0.3,0.5,0.4c0.3,0.3,0.5,0.7,0.3,1.1l-1.5,4.2c-0.1,0.4-0.5,0.6-0.9,0.6h-12.5v20.3c0,0.4-0.2,0.7-0.6,0.9 c-0.4,0.1-0.8,0.1-1-0.2c-6.1-5.9-9.5-13.8-9.5-22.3c0-17.1,13.9-31,31-31c17.1,0,31,13.9,31,31c0,8.8-3.7,17.2-10.3,23.1 C182.3,132.4,182.1,132.5,181.9,132.5z M169.1,108.5h12.8c0.5,0,1,0.4,1,1v19.8c5.1-5.4,8-12.6,8-20.1c0-16-13-29.1-29.1-29.1 c-16,0-29.1,13-29.1,29.1c0,7.2,2.6,13.9,7.3,19.2v-18.9c0-0.5,0.4-1,1-1h12.8l1-2.9c0,0-0.1,0-0.1-0.1c-2.3-2-3.6-4.8-3.6-7.8 v-9.2c0-0.5,0.4-1,1-1h18.7c0.5,0,1,0.4,1,1v9.2c0,3-1.3,5.8-3.6,7.8c0,0,0,0-0.1,0.1L169.1,108.5z"></path> </g> <g> <linearGradient id="SVGID_61_" gradientUnits="userSpaceOnUse" x1="2.7075" y1="238.3623" x2="530.9893" y2="-204.2514"> <stop offset="0" style="stop-color:#E65A49"></stop> <stop offset="1" style="stop-color:#F89C2B"></stop> </linearGradient> <path class="st78" d="M160.6,108C160.6,108,160.5,108,160.6,108c-0.7-0.1-1.4-0.2-2.1-0.4c-0.5-0.1-0.8-0.7-0.7-1.2 c0.2-0.5,0.7-0.8,1.2-0.7c0.3,0.1,0.6,0.2,0.9,0.2c0.3,0.1,0.5,0.1,0.8,0.1c0.5,0,0.9,0.5,0.9,1 C161.5,107.6,161.1,108,160.6,108z"></path> </g> <g> <linearGradient id="SVGID_62_" gradientUnits="userSpaceOnUse" x1="10.1475" y1="247.2104" x2="538.3779" y2="-195.3603"> <stop offset="0" style="stop-color:#E65A49"></stop> <stop offset="1" style="stop-color:#F89C2B"></stop> </linearGradient> <path class="st79" d="M161.8,140.2c-4.3,0-8.4-0.9-12.3-2.6h0c-3.4-1.5-6.5-3.5-9.2-6.2c-0.2-0.2-0.3-0.4-0.3-0.7v-21.3 c0-0.5,0.4-1,1-1h12.8l1.2-3.6c0.1-0.3,0.3-0.5,0.6-0.6c0.3-0.1,0.6,0,0.9,0.1c0.3,0.2,0.6,0.4,0.9,0.5c0.1,0.1,0.3,0.1,0.4,0.2 c0,0,0.2,0.1,0.2,0.1l0.2,0.1c0.2,0.1,0.5,0.2,0.7,0.3c0.8,0.2,1.3,0.3,1.8,0.4c0.5,0,0.9,0,1.4,0c0.3,0,0.5-0.1,0.8-0.1 c0.3-0.1,0.6-0.1,0.9-0.2c0.4-0.1,0.7-0.2,0.9-0.3l0.2-0.1c0,0,0.3-0.1,0.3-0.1c0.1-0.1,0.2-0.1,0.3-0.2 c0.3-0.2,0.6-0.4,0.9-0.6c0.2-0.2,0.6-0.2,0.9-0.1c0.3,0.1,0.5,0.3,0.6,0.6l1.2,3.6h12.8c0.5,0,1,0.4,1,1v22 c0,0.3-0.1,0.5-0.3,0.7c-2.7,2.4-5.7,4.3-9,5.7c-0.1,0.1-0.2,0.1-0.3,0.1C169.5,139.4,165.7,140.2,161.8,140.2z M150.8,136.1 c6.7,2.7,14.4,2.9,21.2,0.3v-15.5c0-0.5,0.4-1,1-1c0.5,0,1,0.4,1,1v14.7c2.5-1.2,4.9-2.7,7-4.5v-20.6h-12.5 c-0.4,0-0.8-0.3-0.9-0.6l-1.1-3.1c-0.1,0.1-0.3,0.2-0.5,0.2l-0.7-0.7l0.4,0.9l-0.3,0.2c-0.3,0.1-0.6,0.2-0.9,0.3 c0,0-0.2,0.1-0.2,0.1c-0.4,0.1-0.7,0.2-1.1,0.3c-0.3,0.1-0.6,0.1-1,0.2c-0.6,0-1.2,0-1.7,0c-0.6-0.1-1.3-0.2-2.1-0.4 c0,0-0.2-0.1-0.2-0.1c-0.3-0.1-0.6-0.2-0.9-0.3l-0.3-0.2l0.2-1l-0.4,0.9c-0.2-0.1-0.3-0.2-0.5-0.3l-1.1,3.1 c-0.1,0.4-0.5,0.6-0.9,0.6h-12.5v19.9c2.1,2,4.4,3.6,7,4.9v-14.3c0-0.5,0.4-1,1-1s1,0.4,1,1V136.1z"></path> </g> <g> <linearGradient id="SVGID_63_" gradientUnits="userSpaceOnUse" x1="-2.2695" y1="232.3901" x2="525.9614" y2="-210.181"> <stop offset="0" style="stop-color:#E65A49"></stop> <stop offset="1" style="stop-color:#F89C2B"></stop> </linearGradient> <path class="st80" d="M161.4,108c-0.3,0-0.6,0-0.9,0c-0.4,0-0.7-0.1-1-0.2c-0.3-0.1-0.7-0.1-1-0.2c0,0-0.2-0.1-0.2-0.1 c-0.3-0.1-0.6-0.2-0.9-0.3l-0.3-0.2c-0.3-0.2-0.5-0.3-0.7-0.4c-0.4-0.2-0.7-0.4-1.1-0.7c-0.2-0.2-0.4-0.3-0.6-0.5 c-2.3-2-3.6-4.8-3.6-7.8v-9.2c0-0.5,0.4-1,1-1h18.7c0.5,0,1,0.4,1,1v9.2c0,3-1.3,5.8-3.6,7.8c-0.2,0.2-0.4,0.3-0.6,0.5 c-0.3,0.3-0.7,0.5-1.1,0.7c-0.1,0.1-0.3,0.2-0.5,0.3l-0.6,0.3c-0.3,0.1-0.6,0.2-0.9,0.3c0,0-0.2,0.1-0.2,0.1 c-0.4,0.1-0.7,0.2-1.1,0.3c-0.4,0.1-0.7,0.1-1,0.2C161.9,108,161.7,108,161.4,108z M153,89.5v8.3c0,2.4,1.1,4.7,2.9,6.3 c0.2,0.1,0.3,0.3,0.5,0.4c0.3,0.2,0.6,0.4,0.9,0.5c0.2,0.1,0.3,0.2,0.5,0.3l0.4,0.2c0.2,0.1,0.5,0.2,0.7,0.2 c0.4,0.1,0.7,0.2,1,0.3c0.3,0.1,0.5,0.1,0.8,0.1c0.4,0,0.9,0,1.4,0c0.2,0,0.4-0.1,0.6-0.1c0.4-0.1,0.7-0.2,1-0.2 c0.4-0.1,0.7-0.2,0.9-0.3l0.3-0.2c0.3-0.1,0.4-0.2,0.5-0.3c0.3-0.2,0.6-0.4,0.9-0.6c0.2-0.1,0.4-0.3,0.5-0.4 c1.8-1.6,2.9-3.9,2.9-6.3v-8.3H153z"></path> </g> <g> <linearGradient id="SVGID_64_" gradientUnits="userSpaceOnUse" x1="4.8447" y1="240.9395" x2="533.1662" y2="-201.7076"> <stop offset="0" style="stop-color:#E65A49"></stop> <stop offset="1" style="stop-color:#F89C2B"></stop> </linearGradient> <path class="st81" d="M166,106.8c-0.3,0-0.7-0.2-0.8-0.5c-0.3-0.5-0.1-1,0.4-1.3c0.3-0.2,0.6-0.3,0.9-0.5c0.4-0.3,1-0.2,1.3,0.2 c0.1,0.2,0.2,0.4,0.2,0.6c0,0.3-0.1,0.6-0.4,0.8c-0.3,0.2-0.7,0.5-1.1,0.7C166.3,106.8,166.1,106.8,166,106.8z"></path> </g> <g> <linearGradient id="SVGID_65_" gradientUnits="userSpaceOnUse" x1="0.708" y1="235.9146" x2="528.8895" y2="-206.6151"> <stop offset="0" style="stop-color:#E65A49"></stop> <stop offset="1" style="stop-color:#F89C2B"></stop> </linearGradient> <path class="st82" d="M156.8,106.8c-0.2,0-0.3,0-0.5-0.1c-0.4-0.2-0.7-0.4-1-0.7c0,0,0,0,0,0c-0.3-0.2-0.4-0.5-0.4-0.8 c0-0.2,0.1-0.4,0.2-0.6c0.3-0.4,0.9-0.5,1.3-0.2c0.3,0.2,0.6,0.4,0.9,0.5c0.5,0.3,0.6,0.8,0.4,1.3 C157.5,106.6,157.1,106.8,156.8,106.8z"></path> </g> <g> <linearGradient id="SVGID_66_" gradientUnits="userSpaceOnUse" x1="4.6641" y1="240.7109" x2="532.9683" y2="-201.9216"> <stop offset="0" style="stop-color:#E65A49"></stop> <stop offset="1" style="stop-color:#F89C2B"></stop> </linearGradient> <path class="st83" d="M165,107.3c-0.4,0-0.7-0.2-0.9-0.6c-0.2-0.5,0-1,0.5-1.3l0.2-0.1c0,0,0,0,0.1,0l0,0l0,0c0,0,0.1,0,0.1,0 l0,0l0,0c0.4-0.1,0.9,0.1,1.1,0.5c0.2,0.4,0.1,0.9-0.3,1.2l0,0c0,0-0.2,0.1-0.2,0.1c0,0,0,0,0,0l0,0c0,0,0,0,0,0c0,0,0,0,0,0 l-0.2,0.1C165.2,107.3,165.1,107.3,165,107.3z"></path> </g> <g> <linearGradient id="SVGID_67_" gradientUnits="userSpaceOnUse" x1="2.1416" y1="237.7344" x2="530.5023" y2="-204.9454"> <stop offset="0" style="stop-color:#E65A49"></stop> <stop offset="1" style="stop-color:#F89C2B"></stop> </linearGradient> <path class="st84" d="M158.7,107.6c-0.1,0-0.2,0-0.3,0c0,0-0.2-0.1-0.2-0.1c-0.4-0.1-0.7-0.5-0.7-0.9c0-0.1,0-0.2,0-0.3 c0.2-0.5,0.7-0.8,1.2-0.6c0.4,0.1,0.8,0.6,0.8,1c0,0.1,0,0.2,0,0.2C159.4,107.3,159.1,107.6,158.7,107.6z"></path> </g> <g> <linearGradient id="SVGID_68_" gradientUnits="userSpaceOnUse" x1="4.4175" y1="240.4268" x2="532.7369" y2="-202.2185"> <stop offset="0" style="stop-color:#E65A49"></stop> <stop offset="1" style="stop-color:#F89C2B"></stop> </linearGradient> <path class="st85" d="M164,107.6c-0.4,0-0.8-0.3-0.9-0.7c0-0.1,0-0.2,0-0.3c0-0.4,0.3-0.8,0.7-0.9l0,0c0.5-0.1,1.1,0.1,1.3,0.6 c0,0.1,0.1,0.2,0.1,0.3c0,0.4-0.2,0.7-0.6,0.8c0,0-0.2,0.1-0.2,0.1C164.2,107.6,164.1,107.6,164,107.6z"></path> </g> <g> <linearGradient id="SVGID_69_" gradientUnits="userSpaceOnUse" x1="1.583" y1="236.9395" x2="529.7319" y2="-205.563"> <stop offset="0" style="stop-color:#E65A49"></stop> <stop offset="1" style="stop-color:#F89C2B"></stop> </linearGradient> <path class="st86" d="M157.8,107.3c-0.1,0-0.3,0-0.4-0.1l-0.3-0.2c0,0,0,0-0.1,0c-0.4-0.2-0.7-0.8-0.5-1.3 c0.2-0.5,0.7-0.7,1.2-0.5c0,0,0,0,0,0c0,0,0,0,0,0c0,0,0,0,0,0s0,0,0,0c0,0,0,0,0,0l0,0c0,0,0,0,0,0l0.4,0.2 c0.5,0.2,0.7,0.8,0.5,1.3C158.5,107.1,158.1,107.3,157.8,107.3z"></path> </g> <g> <linearGradient id="SVGID_70_" gradientUnits="userSpaceOnUse" x1="3.9902" y1="239.854" x2="532.2084" y2="-202.7064"> <stop offset="0" style="stop-color:#E65A49"></stop> <stop offset="1" style="stop-color:#F89C2B"></stop> </linearGradient> <path class="st87" d="M162.2,108c-0.5,0-0.9-0.4-1-0.9c0-0.5,0.3-1,0.9-1l0.2,0c0.2,0,0.3,0,0.5-0.1c0,0,0,0,0,0c0,0,0,0,0,0v0 c0,0,0,0,0,0l0,0c0,0,0,0,0,0v0c0,0,0,0,0,0c0,0,0,0,0,0l0,0c0.5,0,1,0.3,1.1,0.8c0.1,0.5-0.2,1-0.7,1.1c0,0,0,0,0,0 c-0.2,0-0.5,0.1-0.7,0.1c0,0,0,0,0,0L162.2,108C162.2,108,162.2,108,162.2,108z"></path> </g> </g> <g> <linearGradient id="SVGID_71_" gradientUnits="userSpaceOnUse" x1="13.8579" y1="251.6382" x2="542.0859" y2="-190.9305"> <stop offset="0" style="stop-color:#E65A49"></stop> <stop offset="1" style="stop-color:#F89C2B"></stop> </linearGradient> <path class="st88" d="M135.5,162.4h-12.8c-0.5,0-1-0.4-1-1v-12.8c0-0.5,0.4-1,1-1h12.8c0.5,0,1,0.4,1,1v12.8 C136.5,162,136.1,162.4,135.5,162.4z M123.7,160.5h10.9v-10.9h-10.9V160.5z"></path> </g> <g> <linearGradient id="SVGID_72_" gradientUnits="userSpaceOnUse" x1="23.8701" y1="263.5864" x2="552.0913" y2="-178.9765"> <stop offset="0" style="stop-color:#E65A49"></stop> <stop offset="1" style="stop-color:#F89C2B"></stop> </linearGradient> <path class="st89" d="M135.5,182.8h-12.8c-0.5,0-1-0.4-1-1V169c0-0.5,0.4-1,1-1h12.8c0.5,0,1,0.4,1,1v12.8 C136.5,182.3,136.1,182.8,135.5,182.8z M123.7,180.8h10.9v-10.9h-10.9V180.8z"></path> </g> <g> <linearGradient id="SVGID_73_" gradientUnits="userSpaceOnUse" x1="33.8779" y1="275.5352" x2="562.111" y2="-167.0378"> <stop offset="0" style="stop-color:#E65A49"></stop> <stop offset="1" style="stop-color:#F89C2B"></stop> </linearGradient> <path class="st90" d="M135.5,203.1h-12.8c-0.5,0-1-0.4-1-1v-12.8c0-0.5,0.4-1,1-1h12.8c0.5,0,1,0.4,1,1v12.8 C136.5,202.7,136.1,203.1,135.5,203.1z M123.7,201.2h10.9v-10.9h-10.9V201.2z"></path> </g> <g> <linearGradient id="SVGID_74_" gradientUnits="userSpaceOnUse" x1="30.437" y1="271.4277" x2="558.6671" y2="-171.1427"> <stop offset="0" style="stop-color:#E65A49"></stop> <stop offset="1" style="stop-color:#F89C2B"></stop> </linearGradient> <path class="st91" d="M197.9,158.9h-57.1c-0.5,0-1-0.4-1-1v-5.8c0-0.5,0.4-1,1-1h57.1c0.5,0,1,0.4,1,1v5.8 C198.8,158.5,198.4,158.9,197.9,158.9z M141.8,157h55.1v-3.9h-55.1V157z"></path> </g> <g> <linearGradient id="SVGID_75_" gradientUnits="userSpaceOnUse" x1="40.4478" y1="283.377" x2="568.6808" y2="-159.196"> <stop offset="0" style="stop-color:#E65A49"></stop> <stop offset="1" style="stop-color:#F89C2B"></stop> </linearGradient> <path class="st92" d="M197.9,179.3h-57.1c-0.5,0-1-0.4-1-1v-5.8c0-0.5,0.4-1,1-1h57.1c0.5,0,1,0.4,1,1v5.8 C198.8,178.8,198.4,179.3,197.9,179.3z M141.8,177.3h55.1v-3.9h-55.1V177.3z"></path> </g> <g> <linearGradient id="SVGID_76_" gradientUnits="userSpaceOnUse" x1="50.458" y1="295.3262" x2="578.6937" y2="-147.249"> <stop offset="0" style="stop-color:#E65A49"></stop> <stop offset="1" style="stop-color:#F89C2B"></stop> </linearGradient> <path class="st93" d="M197.9,199.6h-57.1c-0.5,0-1-0.4-1-1v-5.8c0-0.5,0.4-1,1-1h57.1c0.5,0,1,0.4,1,1v5.8 C198.8,199.2,198.4,199.6,197.9,199.6z M141.8,197.7h55.1v-3.9h-55.1V197.7z"></path> </g> <g> <linearGradient id="SVGID_77_" gradientUnits="userSpaceOnUse" x1="43.8906" y1="287.4834" x2="572.1154" y2="-155.0826"> <stop offset="0" style="stop-color:#E65A49"></stop> <stop offset="1" style="stop-color:#F89C2B"></stop> </linearGradient> <path class="st94" d="M135.5,223.4h-12.8c-0.5,0-1-0.4-1-1v-12.8c0-0.5,0.4-1,1-1h12.8c0.5,0,1,0.4,1,1v12.8 C136.5,223,136.1,223.4,135.5,223.4z M123.7,221.5h10.9v-10.9h-10.9V221.5z"></path> </g> <g> <linearGradient id="SVGID_78_" gradientUnits="userSpaceOnUse" x1="60.4697" y1="307.2734" x2="588.6998" y2="-135.297"> <stop offset="0" style="stop-color:#E65A49"></stop> <stop offset="1" style="stop-color:#F89C2B"></stop> </linearGradient> <path class="st95" d="M197.9,219.9h-57.1c-0.5,0-1-0.4-1-1v-5.8c0-0.5,0.4-1,1-1h57.1c0.5,0,1,0.4,1,1v5.8 C198.8,219.5,198.4,219.9,197.9,219.9z M141.8,218h55.1v-3.9h-55.1V218z"></path> </g> </g> <g> <path class="st26" d="M343.6,135l-0.7,8.6c3.8,1.7,7.7,3,11.7,3.8l4.6-7.3l7.9,1l7.9-1l4.5,7.4c4-0.8,7.9-2.1,11.7-3.8l-0.6-8.6 l7-3.8l5.8-5.4l8,3.3c2.8-3.1,5.2-6.4,7.3-9.9l-5.6-6.6l3.4-7.2l1.5-7.8l8.4-2c0.4-4.1,0.4-8.2,0-12.3l-8.4-2.1l-1.4-7.8l-3.4-7.2 l5.6-6.6c-1-1.8-2.1-3.5-3.3-5.2c-1.2-1.7-2.5-3.3-3.9-4.8l-8,3.2l-5.7-5.5l-7-3.8l0.7-8.6c-3.8-1.7-7.7-3-11.7-3.8l-4.6,7.3 l-7.9-1l-7.9,1L355,31c-4,0.8-7.9,2.1-11.7,3.8l0.6,8.6l-7,3.8l-5.8,5.4l-8-3.3c-2.8,3.1-5.2,6.4-7.3,9.9l5.6,6.6l-3.4,7.2 l-1.5,7.8l-8.4,2c-0.4,4.1-0.4,8.2,0,12.3l8.4,2.1l1.4,7.8l3.4,7.2l-5.6,6.6c1,1.8,2.1,3.5,3.3,5.2c1.2,1.7,2.5,3.3,3.9,4.8l8-3.2 l5.7,5.5L343.6,135z M341.6,107.8c-10.2-14.1-7-33.9,7.1-44.1c14.1-10.2,33.9-7,44.1,7.1c10.2,14.1,7,33.9-7.1,44.1 C371.6,125.1,351.8,121.9,341.6,107.8z"></path> </g> <g> <path class="st26" d="M275.9,195.2l-0.5,5.9c2.6,1.2,5.3,2,8,2.6l3.1-5l5.4,0.7l5.4-0.7l3.1,5c2.7-0.6,5.4-1.4,8-2.6l-0.4-5.9 l4.8-2.6l4-3.7l5.5,2.3c1.9-2.1,3.6-4.4,5-6.8l-3.8-4.5l2.3-4.9l1-5.3l5.8-1.4c0.3-2.8,0.3-5.6,0-8.4l-5.8-1.4l-1-5.4l-2.3-4.9 l3.8-4.5c-0.7-1.2-1.5-2.4-2.3-3.6c-0.8-1.2-1.7-2.3-2.6-3.3l-5.5,2.2l-3.9-3.7l-4.8-2.6l0.5-5.9c-2.6-1.2-5.3-2-8-2.6l-3.1,5 l-5.4-0.7l-5.4,0.7l-3.1-5.1c-2.7,0.6-5.4,1.4-8,2.6l0.4,5.9l-4.8,2.6l-4,3.7l-5.5-2.3c-1.9,2.1-3.6,4.4-5,6.8l3.8,4.5l-2.3,4.9 l-1,5.3l-5.8,1.4c-0.3,2.8-0.3,5.6,0,8.5l5.8,1.4l1,5.3l2.3,4.9l-3.8,4.5c0.7,1.2,1.5,2.4,2.3,3.5c0.8,1.2,1.7,2.3,2.7,3.3 l5.5-2.2l3.9,3.7L275.9,195.2z M274.5,176.6c-7-9.7-4.8-23.2,4.9-30.3c9.7-7,23.3-4.8,30.3,4.9c7,9.7,4.8,23.2-4.9,30.3 C295.1,188.4,281.5,186.3,274.5,176.6z"></path> </g> <g> <g> <linearGradient id="SVGID_79_" gradientUnits="userSpaceOnUse" x1="110.9683" y1="367.4092" x2="639.0994" y2="-75.0783"> <stop offset="0" style="stop-color:#E65A49"></stop> <stop offset="1" style="stop-color:#F89C2B"></stop> </linearGradient> <path class="st96" d="M472.6,81c-0.2,0-0.5-0.1-0.7-0.3l-17-17c-0.4-0.4-0.4-1,0-1.4c0.4-0.4,1-0.4,1.4,0l17,17 c0.4,0.4,0.4,1,0,1.4C473,80.9,472.8,81,472.6,81z"></path> </g> <g> <linearGradient id="SVGID_80_" gradientUnits="userSpaceOnUse" x1="110.9058" y1="367.4619" x2="639.1318" y2="-75.1052"> <stop offset="0" style="stop-color:#E65A49"></stop> <stop offset="1" style="stop-color:#F89C2B"></stop> </linearGradient> <path class="st97" d="M455.6,81c-0.2,0-0.5-0.1-0.7-0.3c-0.4-0.4-0.4-1,0-1.4l17-17c0.4-0.4,1-0.4,1.4,0c0.4,0.4,0.4,1,0,1.4 l-17,17C456.1,80.9,455.8,81,455.6,81z"></path> </g> </g> <g> <g> <linearGradient id="SVGID_81_" gradientUnits="userSpaceOnUse" x1="301.4004" y1="594.7588" x2="829.5036" y2="152.2947"> <stop offset="0" style="stop-color:#E65A49"></stop> <stop offset="1" style="stop-color:#F89C2B"></stop> </linearGradient> <path class="st98" d="M465.2,474.1c-0.2,0-0.5-0.1-0.7-0.3l-17-17c-0.4-0.4-0.4-1,0-1.4c0.4-0.4,1-0.4,1.4,0l17,17 c0.4,0.4,0.4,1,0,1.4C465.7,474,465.4,474.1,465.2,474.1z"></path> </g> <g> <linearGradient id="SVGID_82_" gradientUnits="userSpaceOnUse" x1="301.3667" y1="594.7871" x2="829.5827" y2="152.2285"> <stop offset="0" style="stop-color:#E65A49"></stop> <stop offset="1" style="stop-color:#F89C2B"></stop> </linearGradient> <path class="st99" d="M448.2,474.1c-0.2,0-0.5-0.1-0.7-0.3c-0.4-0.4-0.4-1,0-1.4l17-17c0.4-0.4,1-0.4,1.4,0s0.4,1,0,1.4l-17,17 C448.7,474,448.4,474.1,448.2,474.1z"></path> </g> </g> <g> <linearGradient id="SVGID_83_" gradientUnits="userSpaceOnUse" x1="126.4482" y1="386.0244" x2="654.6817" y2="-56.5488"> <stop offset="0" style="stop-color:#E65A49"></stop> <stop offset="1" style="stop-color:#F89C2B"></stop> </linearGradient> <path class="st100" d="M513.1,72.5h-22.8c-0.5,0-1-0.4-1-1c0-0.5,0.4-1,1-1h22.8c0.5,0,1,0.4,1,1 C514.1,72.1,513.7,72.5,513.1,72.5z"></path> </g> <g> <linearGradient id="SVGID_84_" gradientUnits="userSpaceOnUse" x1="132.8018" y1="393.6289" x2="661.0395" y2="-48.9479"> <stop offset="0" style="stop-color:#E65A49"></stop> <stop offset="1" style="stop-color:#F89C2B"></stop> </linearGradient> <path class="st101" d="M501.8,90.2h-11.4c-0.5,0-1-0.4-1-1c0-0.5,0.4-1,1-1h11.4c0.5,0,1,0.4,1,1 C502.7,89.8,502.3,90.2,501.8,90.2z"></path> </g> <g> <linearGradient id="SVGID_85_" gradientUnits="userSpaceOnUse" x1="210.1494" y1="485.9424" x2="738.3945" y2="43.3594"> <stop offset="0" style="stop-color:#E65A49"></stop> <stop offset="1" style="stop-color:#F89C2B"></stop> </linearGradient> <path class="st102" d="M550.7,206.3h-11.4c-0.5,0-1-0.4-1-1c0-0.5,0.4-1,1-1h11.4c0.5,0,1,0.4,1,1 C551.7,205.9,551.2,206.3,550.7,206.3z"></path> </g> <g> <linearGradient id="SVGID_86_" gradientUnits="userSpaceOnUse" x1="260.0239" y1="545.4521" x2="788.2617" y2="102.8753"> <stop offset="0" style="stop-color:#E65A49"></stop> <stop offset="1" style="stop-color:#F89C2B"></stop> </linearGradient> <path class="st103" d="M355.6,471.1h-11.4c-0.5,0-1-0.4-1-1s0.4-1,1-1h11.4c0.5,0,1,0.4,1,1S356.2,471.1,355.6,471.1z"></path> </g> <g> <linearGradient id="SVGID_87_" gradientUnits="userSpaceOnUse" x1="255.0176" y1="539.4873" x2="783.2789" y2="96.8907"> <stop offset="0" style="stop-color:#E65A49"></stop> <stop offset="1" style="stop-color:#F89C2B"></stop> </linearGradient> <path class="st104" d="M364.7,457.1h-20.4c-0.5,0-1-0.4-1-1c0-0.5,0.4-1,1-1h20.4c0.5,0,1,0.4,1,1 C365.6,456.7,365.2,457.1,364.7,457.1z"></path> </g> <g> <g> <linearGradient id="SVGID_88_" gradientUnits="userSpaceOnUse" x1="168.3999" y1="436.0938" x2="696.6286" y2="-6.4755"> <stop offset="0" style="stop-color:#E65A49"></stop> <stop offset="1" style="stop-color:#F89C2B"></stop> </linearGradient> <path class="st105" d="M121.4,492.2c-0.5,0-1-0.4-1-1v-31.5c0-0.5,0.4-1,1-1c0.5,0,1,0.4,1,1v31.5 C122.3,491.8,121.9,492.2,121.4,492.2z"></path> </g> <g> <linearGradient id="SVGID_89_" gradientUnits="userSpaceOnUse" x1="183.2051" y1="453.7646" x2="711.4377" y2="11.1921"> <stop offset="0" style="stop-color:#E65A49"></stop> <stop offset="1" style="stop-color:#F89C2B"></stop> </linearGradient> <path class="st106" d="M157.3,492.2c-0.5,0-1-0.4-1-1v-31.5c0-0.5,0.4-1,1-1s1,0.4,1,1v31.5C158.2,491.8,157.8,492.2,157.3,492.2 z"></path> </g> <g> <linearGradient id="SVGID_90_" gradientUnits="userSpaceOnUse" x1="157.7197" y1="423.3594" x2="685.7637" y2="-19.0551"> <stop offset="0" style="stop-color:#E65A49"></stop> <stop offset="1" style="stop-color:#F89C2B"></stop> </linearGradient> <path class="st107" d="M140.5,438.2c-0.4,0-0.8,0.1-1.2,0.1C139.7,438.3,140.1,438.3,140.5,438.2z"></path> </g> <g> <linearGradient id="SVGID_91_" gradientUnits="userSpaceOnUse" x1="157.2407" y1="422.748" x2="685.8435" y2="-20.1346"> <stop offset="0" style="stop-color:#E65A49"></stop> <stop offset="1" style="stop-color:#F89C2B"></stop> </linearGradient> <path class="st108" d="M139.3,438.3c-0.4,0-0.8,0-1.2-0.1C138.5,438.3,138.9,438.3,139.3,438.3z"></path> </g> <g> <linearGradient id="SVGID_92_" gradientUnits="userSpaceOnUse" x1="171.438" y1="439.7197" x2="699.6685" y2="-2.8511"> <stop offset="0" style="stop-color:#E65A49"></stop> <stop offset="1" style="stop-color:#F89C2B"></stop> </linearGradient> <path class="st109" d="M171.1,492.2h-63.6c-0.5,0-1-0.4-1-1V442c0-0.5,0.4-1,1-1h20.2l2.1-5.9c0.1-0.3,0.3-0.5,0.6-0.6 c0.3-0.1,0.6,0,0.9,0.1c2,1.5,4.4,2.4,6.9,2.6c0.8,0.1,1.5,0.1,2.2,0c2.5-0.2,4.9-1.1,6.9-2.6c0.2-0.2,0.6-0.2,0.9-0.1 c0.3,0.1,0.5,0.3,0.6,0.6l2.1,5.9h20.2c0.5,0,1,0.4,1,1v49.2C172.1,491.8,171.7,492.2,171.1,492.2z M108.5,490.3h61.7V443h-19.9 c-0.4,0-0.8-0.3-0.9-0.6l-1.9-5.4c-2.1,1.3-4.4,2.1-6.8,2.3c-0.8,0.1-1.7,0.1-2.6,0c-2.4-0.2-4.8-1-6.8-2.3l-1.9,5.4 c-0.1,0.4-0.5,0.6-0.9,0.6h-19.9V490.3z"></path> </g> <g> <linearGradient id="SVGID_93_" gradientUnits="userSpaceOnUse" x1="148.4717" y1="412.3076" x2="676.7158" y2="-30.2745"> <stop offset="0" style="stop-color:#E65A49"></stop> <stop offset="1" style="stop-color:#F89C2B"></stop> </linearGradient> <path class="st110" d="M139.3,439.2c-0.4,0-0.9,0-1.3-0.1c-0.5,0-1-0.1-1.5-0.2c-2.4-0.4-4.5-1.4-6.4-2.7c-0.3-0.2-0.7-0.5-1-0.8 c-3.4-2.9-5.3-7.2-5.3-11.7v-14.3c0-0.5,0.4-1,1-1h29.1c0.5,0,1,0.4,1,1v14.3c0,4.5-2,8.7-5.4,11.7c-0.3,0.3-0.6,0.5-1,0.8 c-1.9,1.4-4.1,2.3-6.4,2.8c-0.5,0.1-1,0.2-1.5,0.2C140.2,439.2,139.8,439.2,139.3,439.2z M125.8,410.4v13.4 c0,3.9,1.7,7.7,4.7,10.2c0.3,0.2,0.6,0.5,0.8,0.7c1.6,1.2,3.5,2,5.6,2.4c0.4,0.1,0.9,0.2,1.3,0.2c0.7,0.1,1.5,0.1,2.2,0 c0.4,0,0.8-0.1,1.3-0.2c2.1-0.4,4-1.2,5.6-2.4c0.3-0.2,0.6-0.4,0.8-0.7c3-2.6,4.7-6.3,4.7-10.2v-13.4H125.8z"></path> </g> <g> <linearGradient id="SVGID_94_" gradientUnits="userSpaceOnUse" x1="166.041" y1="433.2783" x2="694.2709" y2="-9.2919"> <stop offset="0" style="stop-color:#E65A49"></stop> <stop offset="1" style="stop-color:#F89C2B"></stop> </linearGradient> <path class="st111" d="M188.7,420h-11.4c-0.5,0-1-0.4-1-1c0-0.5,0.4-1,1-1h11.4c0.5,0,1,0.4,1,1C189.7,419.6,189.3,420,188.7,420 z"></path> </g> <g> <linearGradient id="SVGID_95_" gradientUnits="userSpaceOnUse" x1="159.103" y1="424.9951" x2="687.3173" y2="-17.562"> <stop offset="0" style="stop-color:#E65A49"></stop> <stop offset="1" style="stop-color:#F89C2B"></stop> </linearGradient> <path class="st112" d="M196.6,402.6h-19.3c-0.5,0-1-0.4-1-1c0-0.5,0.4-1,1-1h19.3c0.5,0,1,0.4,1,1 C197.6,402.2,197.2,402.6,196.6,402.6z"></path> </g> </g> <g> <linearGradient id="SVGID_96_" gradientUnits="userSpaceOnUse" x1="303.0688" y1="596.8301" x2="831.3029" y2="154.2564"> <stop offset="0" style="stop-color:#E65A49"></stop> <stop offset="1" style="stop-color:#F89C2B"></stop> </linearGradient> <path class="st113" d="M556.4,394.2h-20.6c-0.5,0-1-0.4-1-1s0.4-1,1-1h20.6c0.5,0,1,0.4,1,1S556.9,394.2,556.4,394.2z"></path> </g> <g> <g> <g> <linearGradient id="SVGID_97_" gradientUnits="userSpaceOnUse" x1="31.0801" y1="272.1963" x2="559.3116" y2="-170.3754"> <stop offset="0" style="stop-color:#E65A49"></stop> <stop offset="1" style="stop-color:#F89C2B"></stop> </linearGradient> <path class="st114" d="M258,100.8c-0.5,0-1-0.4-1-1V64.4c0-0.5,0.4-1,1-1c0.5,0,1,0.4,1,1v35.5 C258.9,100.4,258.5,100.8,258,100.8z"></path> </g> <g> <linearGradient id="SVGID_98_" gradientUnits="userSpaceOnUse" x1="36.6621" y1="278.8506" x2="564.8885" y2="-163.7167"> <stop offset="0" style="stop-color:#E65A49"></stop> <stop offset="1" style="stop-color:#F89C2B"></stop> </linearGradient> <path class="st115" d="M271.5,100.8c-0.5,0-1-0.4-1-1V64.4c0-0.5,0.4-1,1-1s1,0.4,1,1v35.5C272.5,100.4,272,100.8,271.5,100.8z"></path> </g> <g> <linearGradient id="SVGID_99_" gradientUnits="userSpaceOnUse" x1="30.541" y1="271.5547" x2="558.7756" y2="-171.0195"> <stop offset="0" style="stop-color:#E65A49"></stop> <stop offset="1" style="stop-color:#F89C2B"></stop> </linearGradient> <path class="st116" d="M282.5,76.3H247c-0.5,0-1-0.4-1-1s0.4-1,1-1h35.5c0.5,0,1,0.4,1,1S283,76.3,282.5,76.3z"></path> </g> <g> <linearGradient id="SVGID_100_" gradientUnits="userSpaceOnUse" x1="37.2041" y1="279.498" x2="565.4276" y2="-163.0669"> <stop offset="0" style="stop-color:#E65A49"></stop> <stop offset="1" style="stop-color:#F89C2B"></stop> </linearGradient> <path class="st0" d="M282.5,89.8H247c-0.5,0-1-0.4-1-1s0.4-1,1-1h35.5c0.5,0,1,0.4,1,1S283,89.8,282.5,89.8z"></path> </g> </g> <g> <linearGradient id="SVGID_101_" gradientUnits="userSpaceOnUse" x1="33.8721" y1="275.5244" x2="562.1003" y2="-167.0444"> <stop offset="0" style="stop-color:#E65A49"></stop> <stop offset="1" style="stop-color:#F89C2B"></stop> </linearGradient> <path class="st1" d="M264.7,110.4c-15.6,0-28.3-12.7-28.3-28.3c0-15.6,12.7-28.3,28.3-28.3c15.6,0,28.3,12.7,28.3,28.3 C293,97.7,280.3,110.4,264.7,110.4z M264.7,55.7c-14.5,0-26.4,11.8-26.4,26.4c0,14.5,11.8,26.4,26.4,26.4s26.4-11.8,26.4-26.4 C291.1,67.6,279.3,55.7,264.7,55.7z"></path> </g> </g> <g> <linearGradient id="SVGID_102_" gradientUnits="userSpaceOnUse" x1="124.5254" y1="383.7129" x2="652.7441" y2="-58.848"> <stop offset="0" style="stop-color:#E65A49"></stop> <stop offset="1" style="stop-color:#F89C2B"></stop> </linearGradient> <path class="st2" d="M368.5,189.3c-5.5,0-10-4.5-10-10c0-5.5,4.5-10,10-10c5.5,0,10,4.5,10,10C378.5,184.8,374,189.3,368.5,189.3z M368.5,171.2c-4.5,0-8.1,3.6-8.1,8.1s3.6,8.1,8.1,8.1c4.4,0,8.1-3.6,8.1-8.1S373,171.2,368.5,171.2z"></path> </g> <g> <linearGradient id="SVGID_103_" gradientUnits="userSpaceOnUse" x1="269.9556" y1="409.084" x2="529.3127" y2="228.2474"> <stop offset="0" style="stop-color:#E65A49"></stop> <stop offset="1" style="stop-color:#F89C2B"></stop> </linearGradient> <path class="st3" d="M492.1,383.3h-206c-0.5,0-0.9-0.4-0.9-0.9V269.6c0-0.5,0.4-0.9,0.9-0.9s0.9,0.4,0.9,0.9v111.9h205.1 c0.5,0,0.9,0.4,0.9,0.9C493,382.9,492.6,383.3,492.1,383.3z"></path> </g> <g> <linearGradient id="SVGID_104_" gradientUnits="userSpaceOnUse" x1="269.8193" y1="408.8887" x2="529.1763" y2="228.0522"> <stop offset="0" style="stop-color:#E65A49"></stop> <stop offset="1" style="stop-color:#F89C2B"></stop> </linearGradient> <path class="st4" d="M355.9,383.3h-35.1c-0.5,0-0.9-0.4-0.9-0.9v-42.5c0-0.5,0.4-0.9,0.9-0.9h35.1c0.5,0,0.9,0.4,0.9,0.9v42.5 C356.8,382.9,356.4,383.3,355.9,383.3z M321.7,381.5H355v-40.8h-33.3V381.5z"></path> </g> <g> <linearGradient id="SVGID_105_" gradientUnits="userSpaceOnUse" x1="283.0537" y1="427.8721" x2="542.4122" y2="247.0346"> <stop offset="0" style="stop-color:#E65A49"></stop> <stop offset="1" style="stop-color:#F89C2B"></stop> </linearGradient> <path class="st5" d="M405.2,383.3h-35.1c-0.5,0-0.9-0.4-0.9-0.9v-54.9c0-0.5,0.4-0.9,0.9-0.9h35.1c0.5,0,0.9,0.4,0.9,0.9v54.9 C406.1,382.9,405.7,383.3,405.2,383.3z M371,381.5h33.3v-53.1H371V381.5z"></path> </g> <g> <linearGradient id="SVGID_106_" gradientUnits="userSpaceOnUse" x1="296.0449" y1="446.498" x2="555.3992" y2="265.6635"> <stop offset="0" style="stop-color:#E65A49"></stop> <stop offset="1" style="stop-color:#F89C2B"></stop> </linearGradient> <path class="st6" d="M454.5,383.3h-35.1c-0.5,0-0.9-0.4-0.9-0.9v-68.2c0-0.5,0.4-0.9,0.9-0.9h35.1c0.5,0,0.9,0.4,0.9,0.9v68.2 C455.4,382.9,455,383.3,454.5,383.3z M420.2,381.5h33.3v-66.4h-33.3V381.5z"></path> </g> <linearGradient id="SVGID_107_" gradientUnits="userSpaceOnUse" x1="269.5649" y1="408.5234" x2="528.922" y2="227.687"> <stop offset="0" style="stop-color:#E65A49"></stop> <stop offset="1" style="stop-color:#F89C2B"></stop> </linearGradient> <path class="st7" d="M524,236.3h-49.3c0.5,0.6,0.9,1.2,1.4,1.8h47.1v178.7H248.8V238h149.8c0.4-0.6,0.9-1.2,1.4-1.8H247.9 c-0.5,0-0.9,0.4-0.9,0.9v180.5c0,0.5,0.4,0.9,0.9,0.9H524c0.5,0,0.9-0.4,0.9-0.9V237.1C524.9,236.7,524.5,236.3,524,236.3z"></path> <g> <linearGradient id="SVGID_108_" gradientUnits="userSpaceOnUse" x1="225.2969" y1="316.5566" x2="329.0957" y2="217.6015"> <stop offset="0" style="stop-color:#E65A49"></stop> <stop offset="1" style="stop-color:#F89C2B"></stop> </linearGradient> <path class="st8" d="M399.9,236.3H239.2c-4,0-7.2-3.2-7.2-7.2c0-4,3.2-7.2,7.2-7.2h164.2c0-0.6-0.1-1.2-0.1-1.8H239.2 c-5,0-9,4-9,9c0,5,4,9,9,9h159.3C399,237.4,399.5,236.8,399.9,236.3z"></path> <linearGradient id="SVGID_109_" gradientUnits="userSpaceOnUse" x1="465.8838" y1="264.7388" x2="509.3978" y2="223.2553"> <stop offset="0" style="stop-color:#E65A49"></stop> <stop offset="1" style="stop-color:#F89C2B"></stop> </linearGradient> <path class="st9" d="M532.6,220h-62.2c0,0.6-0.1,1.2-0.1,1.8h62.3c4,0,7.2,3.2,7.2,7.2c0,4-3.2,7.2-7.2,7.2h-58 c0.5,0.6,0.9,1.2,1.4,1.8h56.6c5,0,9-4,9-9C541.6,224.1,537.6,220,532.6,220z"></path> </g> <g> <linearGradient id="SVGID_110_" gradientUnits="userSpaceOnUse" x1="418.752" y1="195.6274" x2="455.0732" y2="195.6274"> <stop offset="0" style="stop-color:#E65A49"></stop> <stop offset="1" style="stop-color:#F89C2B"></stop> </linearGradient> <path class="st10" d="M436.9,177.5c-10,0-18.2,8.1-18.2,18.2s8.1,18.2,18.2,18.2s18.2-8.1,18.2-18.2S446.9,177.5,436.9,177.5z M436.9,211.5c-8.7,0-15.9-7.1-15.9-15.9c0-8.7,7.1-15.9,15.9-15.9c8.7,0,15.9,7.1,15.9,15.9C452.8,204.4,445.7,211.5,436.9,211.5 z"></path> <linearGradient id="SVGID_111_" gradientUnits="userSpaceOnUse" x1="423.4307" y1="284.3945" x2="431.9424" y2="284.3945"> <stop offset="0" style="stop-color:#E65A49"></stop> <stop offset="1" style="stop-color:#F89C2B"></stop> </linearGradient> <path class="st11" d="M427.7,273.2c-2.3,0-4.3,1.7-4.3,3.8c0,1.3,2.2,12.8,3.1,17.7c0.1,0.5,0.6,0.9,1.1,0.9c0.5,0,1-0.4,1.1-0.9 l0-0.1c1.2-6,3.1-16.3,3.1-17.6C431.9,274.9,430,273.2,427.7,273.2z M427.7,275.5c1.1,0,2,0.7,2,1.5c0,0.6-0.7,4.9-2,11.3 c-1.2-6.4-2-10.7-2-11.3C425.7,276.2,426.6,275.5,427.7,275.5z"></path> <linearGradient id="SVGID_112_" gradientUnits="userSpaceOnUse" x1="442.834" y1="284.7578" x2="451.3477" y2="284.7578"> <stop offset="0" style="stop-color:#E65A49"></stop> <stop offset="1" style="stop-color:#F89C2B"></stop> </linearGradient> <path class="st12" d="M447.1,273.6c-2.3,0-4.3,1.7-4.3,3.8c0,1.4,2.2,12.8,3.1,17.7c0.1,0.5,0.6,0.9,1.1,0.9c0.6,0,1-0.4,1.1-0.9 c0.7-3.8,3.1-16.3,3.1-17.7C451.3,275.3,449.4,273.6,447.1,273.6z M447.1,275.9c1.1,0,2,0.7,2,1.5c0,0.6-0.8,4.9-2,11.3 c-1.2-6.3-2-10.7-2-11.3C445.1,276.5,446,275.9,447.1,275.9z"></path> <linearGradient id="SVGID_113_" gradientUnits="userSpaceOnUse" x1="424.0098" y1="195.6265" x2="449.8164" y2="195.6265"> <stop offset="0" style="stop-color:#E65A49"></stop> <stop offset="1" style="stop-color:#F89C2B"></stop> </linearGradient> <path class="st13" d="M436.9,182.7c-7.1,0-12.9,5.8-12.9,12.9c0,7.1,5.8,12.9,12.9,12.9c7.1,0,12.9-5.8,12.9-12.9 C449.8,188.5,444,182.7,436.9,182.7z M436.9,206.2c-5.8,0-10.6-4.8-10.6-10.6c0-5.8,4.8-10.6,10.6-10.6c5.8,0,10.6,4.8,10.6,10.6 C447.5,201.5,442.8,206.2,436.9,206.2z"></path> <linearGradient id="SVGID_114_" gradientUnits="userSpaceOnUse" x1="432.9287" y1="298.0195" x2="441.4414" y2="298.0195"> <stop offset="0" style="stop-color:#E65A49"></stop> <stop offset="1" style="stop-color:#F89C2B"></stop> </linearGradient> <path class="st14" d="M437.2,286.8c-2.3,0-4.3,1.7-4.3,3.8c0,1.3,2.2,12.8,3.1,17.7c0.1,0.5,0.6,0.9,1.1,0.9s1-0.4,1.1-0.9 c0.3-1.6,3.1-16.2,3.1-17.7C441.4,288.5,439.5,286.8,437.2,286.8z M437.2,289.1c1.1,0,2,0.7,2,1.5c0,0.6-0.7,4.9-2,11.3 c-1.2-6.3-2-10.7-2-11.3C435.2,289.8,436.1,289.1,437.2,289.1z"></path> <linearGradient id="SVGID_115_" gradientUnits="userSpaceOnUse" x1="393.0933" y1="210.2847" x2="481.4922" y2="210.2847"> <stop offset="0" style="stop-color:#E65A49"></stop> <stop offset="1" style="stop-color:#F89C2B"></stop> </linearGradient> <path class="st15" d="M481.5,264.7l0-0.3c0-0.5-0.1-1.1-0.1-1.7l0-0.3c-0.1-0.6-0.1-1.2-0.2-1.7c-0.1-0.5-0.2-1.1-0.3-1.7l0-0.2 c-0.1-0.5-0.2-1.1-0.3-1.6l-0.1-0.2c-0.1-0.6-0.3-1.1-0.4-1.7c-0.1-0.5-0.3-1.1-0.5-1.7l0-0.1c-0.2-0.5-0.3-1.1-0.5-1.6l-0.1-0.2 c-0.4-1.1-0.8-2.2-1.3-3.3c-0.2-0.5-0.5-1-0.8-1.6l0-0.1c-2.8-5.7-6.9-10.7-11.8-14.7c4.6-25.8-0.7-46.9-5.7-59.6h0l-0.7-1.6 c0,0,0,0,0,0l-0.3-0.7h0c-8.4-20.3-19.5-33.3-19.9-33.8l-0.9-1.1l-0.9,1c-0.1,0.1-11.7,13.5-20.6,34h0l-0.3,0.7c0,0,0,0.1-0.1,0.1 l-0.6,1.5h0c-5.2,12.8-10.9,34.2-6.5,60.3c-9.9,8.4-15.5,20.6-15.5,33.6c0,5.5,1,10.9,3,16.1l1.1,2.7l1.1-2.7 c3-7.8,8.3-14.4,15.1-19.2c1.2-0.8,2.4-1.6,3.7-2.3c0.4,1,0.8,1.9,1.3,2.9l0.3,0.7l2.5,0l1.5,4.3l9.1,0c1,5.8,2.5,10.7,4.5,13.9 l1,1.7l1-1.7c1.9-3.2,3.4-8.1,4.5-14l7.5,0l1.6-4.3l2.5,0l0.3-0.7c0.6-1.1,1.1-2.3,1.6-3.4c6.1,3.1,11.4,7.7,15.4,13.3l0.1,0.2 c0.2,0.3,0.4,0.5,0.5,0.8c0.1,0.1,0.2,0.2,0.2,0.4c0.2,0.2,0.3,0.5,0.5,0.7l0.3,0.5c0.2,0.3,0.4,0.6,0.6,1l0.1,0.1 c0.1,0.2,0.3,0.5,0.4,0.7l0.3,0.6c0.1,0.2,0.2,0.5,0.4,0.7l0.3,0.5c0.1,0.3,0.3,0.6,0.4,0.8l0.2,0.4c0.2,0.4,0.4,0.9,0.5,1.3 l1.1,2.7l1.1-2.7c2-5.1,3-10.5,3-16.1C481.5,265.9,481.5,265.4,481.5,264.7z M477.3,279C477.3,278.9,477.3,278.9,477.3,279 l-0.3-0.6c-0.1-0.3-0.3-0.5-0.4-0.8l-0.3-0.6c-0.2-0.3-0.3-0.6-0.5-0.9c-0.2-0.3-0.4-0.7-0.6-1l-0.1-0.1c-0.1-0.1-0.2-0.3-0.2-0.4 c-0.2-0.3-0.3-0.5-0.5-0.8c-0.1-0.1-0.2-0.3-0.3-0.4c-0.2-0.3-0.4-0.6-0.6-0.8l-0.1-0.2c-4.2-6-9.8-10.8-16.3-14.1 c3.5-8.2,5.9-16.2,7.4-23.7c4.3,3.7,7.7,8.1,10.2,13.2l0,0.1c0.2,0.5,0.5,1,0.7,1.5c0.4,1,0.9,2,1.2,3.1l0.1,0.2 c0.2,0.5,0.3,1,0.5,1.5l0,0.1c0.2,0.6,0.3,1.1,0.4,1.6c0.1,0.5,0.2,1,0.4,1.6l0.1,0.2c0.1,0.5,0.2,1,0.3,1.5l0,0.2 c0.1,0.6,0.2,1.1,0.2,1.6c0.1,0.5,0.1,1,0.2,1.6l0,0.3c0,0.5,0.1,1.1,0.1,1.6l0,0.3c0,0.6,0,1.1,0,1.6 C479.2,270.7,478.5,274.9,477.3,279z M454.6,258.3c-0.1,0.1-0.1,0.3-0.2,0.4c-0.5,1.2-1,2.3-1.6,3.5l-9.2,0 c0.3-3.4,0.5-7,0.5-10.7c0-13.2-2.2-25.2-5.9-31.3l-1-1.7l-1,1.7c-3.6,6.1-5.9,18.1-5.9,31.3c0,3.7,0.2,7.3,0.5,10.7l-10.5,0l0,0 l-0.3,0c-0.5-1-0.9-2-1.3-3c-0.1-0.3-0.2-0.5-0.3-0.8l-0.1-0.3c-15.7-37.7-7.4-69.5-0.7-85.6l12.1,0l27.1,0 c6.4,16,14.2,47.6-2,85.2L454.6,258.3z M431.2,264.6c0.1,0.7,0.2,1.3,0.3,2l-7.1,0l-0.7-2L431.2,264.6z M432.7,251.5 c0-11.4,1.7-22,4.6-28.2c2.8,6.2,4.6,16.8,4.6,28.2c0,11.4-1.7,22-4.6,28.2C434.5,273.5,432.7,262.9,432.7,251.5z M443.4,264.5 l6,0l-0.7,2l-5.5,0C443.2,265.9,443.3,265.2,443.4,264.5z M416.2,258.9c-1.4,0.8-2.8,1.6-4.1,2.5c-6.4,4.5-11.5,10.5-14.8,17.5 c-1.3-4-1.9-8.2-1.9-12.5c0-11.9,5-23,13.7-31C410.6,243,412.8,250.8,416.2,258.9z M418.7,170.3c7.3-16.5,16.2-28.2,18.9-31.4 c2.6,3.2,11.3,14.8,18.4,31.4l-23.1,0L418.7,170.3z"></path> </g> </g> </svg> 