<?xml version="1.0" encoding="UTF-8"?> <!-- Generator: Adobe Illustrator 16.0.0, SVG Export Plug-In . SVG Version: 6.00 Build 0) --> <svg xmlns="http://www.w3.org/2000/svg" xmlns:xlink="http://www.w3.org/1999/xlink" id="Layer_1" x="0px" y="0px" width="800px" height="800px" viewBox="0 0 800 800" style="enable-background:new 0 0 800 800;" xml:space="preserve"> <style type="text/css"> <![CDATA[ .st0{fill:#F1A243;} .st1{fill:url(#SVGID_100_);} .st2{fill:url(#SVGID_101_);} .st3{fill:url(#SVGID_102_);} .st4{fill:url(#SVGID_103_);} .st5{fill:url(#SVGID_104_);} .st6{fill:url(#SVGID_105_);} .st7{fill:url(#SVGID_106_);} .st8{fill:url(#SVGID_107_);} .st9{fill:url(#SVGID_108_);} .st10{fill:url(#SVGID_109_);} .st11{fill:url(#SVGID_110_);} .st12{fill:url(#SVGID_111_);} .st13{fill:url(#SVGID_112_);} .st14{fill:url(#SVGID_113_);} .st15{fill:url(#SVGID_114_);} .st16{fill:url(#SVGID_115_);} .st17{fill:url(#SVGID_116_);} .st18{fill:url(#SVGID_117_);} .st19{fill:url(#SVGID_118_);} .st20{fill:url(#SVGID_119_);} .st21{fill:url(#SVGID_120_);} .st22{fill:url(#SVGID_121_);} .st23{fill:url(#SVGID_122_);} .st24{fill:url(#SVGID_123_);} .st25{fill:url(#SVGID_124_);} .st26{fill:url(#SVGID_125_);} .st27{fill:url(#SVGID_126_);} .st28{fill:url(#SVGID_127_);} .st29{fill:url(#SVGID_128_);} .st30{fill:url(#SVGID_129_);} .st31{fill:url(#SVGID_130_);} .st32{fill:url(#SVGID_131_);} .st33{fill:url(#SVGID_132_);} .st34{fill:url(#SVGID_133_);} .st35{fill:url(#SVGID_134_);} .st36{fill:url(#SVGID_135_);} .st37{fill:url(#SVGID_136_);} .st38{fill:url(#SVGID_137_);} .st39{fill:url(#SVGID_138_);} .st40{fill:url(#SVGID_139_);} .st41{fill:url(#SVGID_140_);} .st42{fill:url(#SVGID_141_);} .st43{fill:url(#SVGID_142_);} .st44{fill:url(#SVGID_143_);} .st45{fill:url(#SVGID_144_);} .st46{fill:url(#SVGID_145_);} .st47{fill:url(#SVGID_146_);} .st48{fill:url(#SVGID_147_);} .st49{fill:url(#SVGID_148_);} .st50{fill:url(#SVGID_149_);} .st51{fill:url(#SVGID_150_);} .st52{fill:url(#SVGID_151_);} .st53{fill:url(#SVGID_152_);} .st54{fill:url(#SVGID_153_);} .st55{fill:url(#SVGID_154_);} .st56{fill:url(#SVGID_155_);} .st57{fill:url(#SVGID_156_);} .st58{fill:url(#SVGID_157_);} .st59{fill:url(#SVGID_158_);} .st60{fill:url(#SVGID_159_);} .st61{fill:url(#SVGID_160_);} .st62{fill:url(#SVGID_161_);} .st63{fill:url(#SVGID_162_);} .st64{fill:url(#SVGID_163_);} .st65{fill:url(#SVGID_164_);} .st66{fill:url(#SVGID_165_);} .st67{fill:url(#SVGID_166_);} .st68{fill:url(#SVGID_167_);} .st69{fill:url(#SVGID_168_);} .st70{fill:url(#SVGID_169_);} .st71{fill:url(#SVGID_170_);} .st72{fill:url(#SVGID_171_);} .st73{fill:url(#SVGID_172_);} .st74{fill:url(#SVGID_1_);} .st75{fill:url(#SVGID_2_);} .st76{fill:url(#SVGID_3_);} .st77{fill:url(#SVGID_4_);} .st78{fill:url(#SVGID_5_);} .st79{fill:url(#SVGID_6_);} .st80{fill:url(#SVGID_7_);} .st81{fill:url(#SVGID_8_);} .st82{fill:url(#SVGID_9_);} .st83{fill:#FBB657;} .st84{fill:none;stroke:#F6921E;stroke-width:3;stroke-miterlimit:10;} .st85{fill:url(#SVGID_10_);} .st86{fill:url(#SVGID_11_);} .st87{fill:url(#SVGID_12_);} .st88{fill:url(#SVGID_13_);} .st89{fill:url(#SVGID_14_);} .st90{fill:url(#SVGID_15_);} .st91{fill:url(#SVGID_16_);} .st92{fill:url(#SVGID_17_);} .st93{fill:url(#SVGID_18_);} .st94{fill:url(#SVGID_19_);} .st95{fill:url(#SVGID_20_);} .st96{fill:url(#SVGID_21_);} .st97{fill:url(#SVGID_22_);} .st98{fill:url(#SVGID_23_);} .st99{fill:url(#SVGID_24_);} .st100{fill:url(#SVGID_25_);} .st101{fill:url(#SVGID_26_);} .st102{fill:url(#SVGID_27_);} .st103{fill:url(#SVGID_28_);} .st104{fill:url(#SVGID_29_);} .st105{fill:url(#SVGID_30_);} .st106{fill:url(#SVGID_31_);} .st107{fill:url(#SVGID_32_);} .st108{fill:url(#SVGID_33_);} .st109{fill:url(#SVGID_34_);} .st110{fill:url(#SVGID_35_);} .st111{fill:url(#SVGID_36_);} .st112{fill:url(#SVGID_37_);} .st113{fill:url(#SVGID_38_);} .st114{fill:url(#SVGID_39_);} .st115{fill:url(#SVGID_40_);} .st116{fill:url(#SVGID_41_);} .st117{fill:url(#SVGID_42_);} .st118{fill:url(#SVGID_43_);} .st119{fill:url(#SVGID_44_);} .st120{fill:url(#SVGID_45_);} .st121{fill:url(#SVGID_46_);} .st122{fill:url(#SVGID_47_);} .st123{fill:url(#SVGID_48_);} .st124{fill:url(#SVGID_49_);} .st125{fill:url(#SVGID_50_);} .st126{fill:url(#SVGID_51_);} .st127{fill:url(#SVGID_52_);} .st128{fill:url(#SVGID_53_);} .st129{fill:url(#SVGID_54_);} .st130{fill:url(#SVGID_55_);} .st131{fill:url(#SVGID_56_);} .st132{fill:url(#SVGID_57_);} .st133{fill:url(#SVGID_58_);} .st134{fill:url(#SVGID_59_);} .st135{fill:url(#SVGID_60_);} .st136{fill:url(#SVGID_61_);} .st137{fill:url(#SVGID_62_);} .st138{fill:url(#SVGID_63_);} .st139{fill:url(#SVGID_64_);} .st140{fill:url(#SVGID_65_);} .st141{fill:url(#SVGID_66_);} .st142{fill:url(#SVGID_67_);} .st143{fill:url(#SVGID_68_);} .st144{fill:url(#SVGID_69_);} .st145{fill:url(#SVGID_70_);} .st146{fill:url(#SVGID_71_);} .st147{fill:url(#SVGID_72_);} .st148{fill:url(#SVGID_73_);} .st149{fill:url(#SVGID_74_);} .st150{fill:url(#SVGID_75_);} .st151{fill:url(#SVGID_76_);} .st152{fill:url(#SVGID_77_);} .st153{fill:url(#SVGID_78_);} .st154{fill:url(#SVGID_79_);} .st155{fill:url(#SVGID_80_);} .st156{fill:url(#SVGID_81_);} .st157{fill:url(#SVGID_82_);} .st158{fill:url(#SVGID_83_);} .st159{fill:url(#SVGID_84_);} .st160{fill:url(#SVGID_85_);} .st161{fill:url(#SVGID_86_);} .st162{fill:url(#SVGID_87_);} .st163{fill:url(#SVGID_88_);} .st164{fill:url(#SVGID_89_);} .st165{fill:url(#SVGID_90_);} .st166{fill:url(#SVGID_91_);} .st167{fill:url(#SVGID_92_);} .st168{fill:url(#SVGID_93_);} .st169{fill:url(#SVGID_94_);} .st170{fill:url(#SVGID_95_);} .st171{fill:url(#SVGID_96_);} .st172{fill:url(#SVGID_97_);} .st173{fill:url(#SVGID_98_);} .st174{fill:url(#SVGID_99_);} ]]> </style> <g> <g> <linearGradient id="SVGID_1_" gradientUnits="userSpaceOnUse" x1="265.7485" y1="492.6172" x2="108.9061" y2="685.0553"> <stop offset="0" style="stop-color:#E55B49"></stop> <stop offset="1" style="stop-color:#F89C2C"></stop> </linearGradient> <path class="st74" d="M298,415.5l-148,88c-28.6,17-38.1,54.2-21.1,82.9c17,28.7,54.2,38.1,82.9,21.1l148-88l27.9,46.9l-148,88 c-54.5,32.4-125.2,14.4-157.6-40.1C49.6,559.8,67.6,489,122.1,456.6l148-88L298,415.5z"></path> <linearGradient id="SVGID_2_" gradientUnits="userSpaceOnUse" x1="73.8037" y1="532.8154" x2="395.5845" y2="532.8154"> <stop offset="0" style="stop-color:#E55B49"></stop> <stop offset="1" style="stop-color:#F89C2C"></stop> </linearGradient> <path class="st75" d="M305.9,428.8l-148,88c-28.6,17-38.1,54.2-21.1,82.9c17,28.6,54.2,38.1,82.8,21.1l148-88l27.9,46.9l-148,88 C193,700,122.3,682,89.9,627.5C57.5,573,75.5,502.3,130,469.9l148-88L305.9,428.8z"></path> <polygon class="st83" points="300.7,572.5 328.6,619.4 395.6,579.6 367.7,532.7 "></polygon> <polygon class="st0" points="292.8,559.2 300.7,572.5 367.7,532.7 359.8,519.4 "></polygon> <rect x="231.2" y="386.3" transform="matrix(-0.5111 -0.8595 0.8595 -0.5111 25.0996 864.7706)" class="st83" width="54.5" height="77.9"></rect> <rect x="232.9" y="356.2" transform="matrix(-0.511 -0.8596 0.8596 -0.511 23.9189 803.925)" class="st0" width="15.5" height="77.9"></rect> </g> <linearGradient id="SVGID_3_" gradientUnits="userSpaceOnUse" x1="303.2158" y1="94.6152" x2="536.4941" y2="725.1943"> <stop offset="0" style="stop-color:#E65A49"></stop> <stop offset="1" style="stop-color:#F89C2B"></stop> </linearGradient> <path class="st76" d="M478.3,646c-0.7,0-1.3-0.6-1.3-1.3v-33.4c0-0.7,0.6-1.3,1.3-1.3h5.3c0.1-0.7,0.6-1.2,1.3-1.2h4.6 c0.2,0,0.4,0.1,0.6,0.2c3-2.3,6.7-3.6,10.5-3.6c3.8,0,7.5,1.3,10.5,3.6c0.2-0.1,0.4-0.2,0.6-0.2h4.6c0.7,0,1.2,0.5,1.3,1.2h5.2 c0.7,0,1.3,0.6,1.3,1.3v33.4c0,0.7-0.6,1.3-1.3,1.3H478.3z M521.5,641.1v-11.8h-17.4v1c0,0.7-0.6,1.3-1.3,1.3h-4.7 c-0.7,0-1.3-0.6-1.3-1.3v-1h-17.4v11.8H521.5z M501.9,626.7l3.1-14.1h-8.8l3.1,14.1H501.9z M496,624.4c0.1,0,0.1,0,0.2,0l-2.6-11.8 h-14v11.8H496z M505,624.4c0.1,0,0.1,0,0.2,0h16.4v-11.8h-14L505,624.4z"></path> <g> <linearGradient id="SVGID_4_" gradientUnits="userSpaceOnUse" x1="532.8496" y1="9.6646" x2="766.1323" y2="640.2553"> <stop offset="0" style="stop-color:#E65A49"></stop> <stop offset="1" style="stop-color:#F89C2B"></stop> </linearGradient> <path class="st77" d="M577.3,213l-0.3-0.1c-0.3-0.1-0.6-0.4-0.7-0.7l-8.4-20.2c-0.3-0.7,0-1.5,0.7-1.8l3.1-1.3l-1-2.5 c-0.1-0.3-0.1-0.7,0-1c0.1-0.3,0.4-0.6,0.7-0.7l3.1-1.3l-1-2.5c-0.3-0.7,0-1.5,0.7-1.8l3.1-1.3l-1-2.5c-0.1-0.3-0.1-0.7,0-1 c0.1-0.3,0.4-0.6,0.7-0.7l40.5-16.8l0.4,0c0.2,0,0.3,0,0.4,0.1c0.3,0.1,0.5,0.2,0.6,0.3l0.1,0.1l0.2,0.3l8.4,20.2 c0.1,0.3,0.1,0.7,0,1c-0.1,0.3-0.4,0.6-0.7,0.7l-3.1,1.3l1,2.5c0.3,0.7,0,1.5-0.7,1.8l-3.1,1.3l1,2.5c0.1,0.3,0.1,0.7,0,1 c-0.1,0.3-0.4,0.6-0.7,0.7l-3.1,1.3l1,2.5c0.1,0.3,0.1,0.7,0,1c-0.1,0.3-0.4,0.6-0.7,0.7L577.8,213l-0.4,0H577.3z M578.2,209.9 l37.8-15.7l-0.5-1.3l-34.9,14.5l-0.3,0c-0.2,0-0.3,0-0.5-0.1l-0.1-0.1l-0.1-0.1c-0.2-0.2-0.4-0.4-0.5-0.6l-6.3-15.1l-1.9,0.8 L578.2,209.9z M581,204.3l37.9-15.7l-0.5-1.3l-34.9,14.5l-0.3,0c-0.2,0-0.5-0.1-0.7-0.2l-0.1,0l-0.1-0.1c-0.2-0.1-0.3-0.3-0.4-0.5 l-6.3-15.2l-1.9,0.8L581,204.3z M583.8,198.7l37.9-15.7l-0.5-1.3l-34.9,14.5l-0.3,0c-0.2,0-0.5-0.1-0.7-0.2l-0.1-0.1l-0.2-0.1 c-0.1-0.1-0.2-0.3-0.3-0.4l-6.3-15.2l-1.9,0.8L583.8,198.7z M586.6,193.1l3.2-1.3c-0.9-1.2-2.4-1.9-4-1.9c-0.2,0-0.4,0-0.6,0 L586.6,193.1z M585.8,187.2c2.6,0,5.1,1.4,6.5,3.6l26.3-10.9c-0.7-3.2,0.7-6.5,3.4-8.2l-2.5-6.1c-0.6,0.1-1.1,0.2-1.7,0.2 c-1,0-2-0.2-3-0.6c-1.5-0.6-2.7-1.7-3.6-3L585,173c0.7,3.2-0.7,6.5-3.4,8.2l2.5,6.1C584.7,187.2,585.3,187.2,585.8,187.2z M623.1,174.2c-1.4,1.1-2.1,2.8-1.9,4.6l3.2-1.3L623.1,174.2z M580.6,178.7c1.4-1.1,2.1-2.8,1.9-4.6l-3.2,1.3L580.6,178.7z M613.9,161.1c0.5,0.7,1.2,1.2,2,1.6c0.6,0.3,1.3,0.4,1.9,0.4c0.2,0,0.4,0,0.6,0l-1.3-3.2L613.9,161.1z"></path> <linearGradient id="SVGID_5_" gradientUnits="userSpaceOnUse" x1="539.252" y1="7.2832" x2="772.5515" y2="637.9197"> <stop offset="0" style="stop-color:#E65A49"></stop> <stop offset="1" style="stop-color:#F89C2B"></stop> </linearGradient> <path class="st78" d="M601.8,183.3c-0.9,0-1.8-0.2-2.6-0.5c-1.7-0.7-3-2-3.7-3.7c-0.7-1.7-0.7-3.5,0-5.2c0.7-1.7,2-3,3.7-3.7 c0.8-0.3,1.7-0.5,2.6-0.5c2.8,0,5.2,1.7,6.3,4.2c1.4,3.5-0.2,7.5-3.7,8.9C603.6,183.1,602.7,183.3,601.8,183.3z M601.8,172.3 c-0.5,0-1.1,0.1-1.6,0.3c-1,0.4-1.8,1.2-2.2,2.2c-0.4,1-0.4,2.1,0,3.1c0.4,1,1.2,1.8,2.2,2.2c0.5,0.2,1,0.3,1.6,0.3 c0.5,0,1.1-0.1,1.6-0.3c2.1-0.9,3.1-3.3,2.2-5.4C605,173.3,603.5,172.3,601.8,172.3z"></path> </g> <g> <linearGradient id="SVGID_6_" gradientUnits="userSpaceOnUse" x1="217.3188" y1="126.3999" x2="450.5955" y2="756.9745"> <stop offset="0" style="stop-color:#E65A49"></stop> <stop offset="1" style="stop-color:#F89C2B"></stop> </linearGradient> <path class="st79" d="M284,371.9l-0.3-0.1c-0.3-0.1-0.5-0.3-0.6-0.6l-6.6-15.8c-0.2-0.5,0-1.2,0.6-1.4l2.4-1l-0.8-2 c-0.1-0.3-0.1-0.5,0-0.8c0.1-0.3,0.3-0.5,0.6-0.6l2.4-1l-0.8-2c-0.2-0.5,0-1.2,0.6-1.4l2.4-1l-0.8-2c-0.1-0.3-0.1-0.6,0-0.8 c0.1-0.3,0.3-0.5,0.6-0.6l31.8-13.2l0.3,0c0.1,0,0.2,0,0.3,0c0.3,0.1,0.4,0.2,0.5,0.3l0.1,0.1l0.1,0.2l6.6,15.8 c0.1,0.3,0.1,0.6,0,0.8c-0.1,0.3-0.3,0.5-0.6,0.6l-2.4,1l0.8,2c0.2,0.5,0,1.2-0.6,1.4l-2.4,1l0.8,2c0.1,0.3,0.1,0.5,0,0.8 c-0.1,0.3-0.3,0.5-0.6,0.6l-2.4,1l0.8,2c0.1,0.3,0.1,0.5,0,0.8c-0.1,0.3-0.3,0.5-0.6,0.6l-31.8,13.2l-0.3,0H284z M284.7,369.4 l29.7-12.3l-0.4-1l-27.4,11.3l-0.3,0c-0.1,0-0.3,0-0.4-0.1l-0.1,0l-0.1-0.1c-0.2-0.1-0.3-0.3-0.4-0.5l-4.9-11.9l-1.5,0.6 L284.7,369.4z M286.9,365.1l29.7-12.3l-0.4-1l-27.4,11.3l-0.3,0c-0.2,0-0.4,0-0.5-0.1l-0.1,0l-0.1-0.1c-0.1-0.1-0.3-0.2-0.3-0.4 l-4.9-11.9l-1.5,0.6L286.9,365.1z M289.1,360.7l29.7-12.3l-0.4-1L291,358.7l-0.3,0c-0.2,0-0.4,0-0.5-0.1l-0.1,0l-0.1-0.1 c-0.1-0.1-0.2-0.2-0.2-0.3l-4.9-11.9l-1.5,0.6L289.1,360.7z M291.3,356.3l2.5-1.1c-0.7-0.9-1.9-1.5-3.1-1.5c-0.2,0-0.3,0-0.5,0 L291.3,356.3z M290.7,351.6c2.1,0,4,1.1,5.1,2.8l20.6-8.5c-0.5-2.5,0.5-5.1,2.7-6.4l-2-4.8c-0.4,0.1-0.9,0.1-1.3,0.1 c-0.8,0-1.6-0.2-2.3-0.5c-1.2-0.5-2.1-1.3-2.8-2.3l-20.6,8.5c0.5,2.5-0.5,5.1-2.7,6.4l2,4.8C289.8,351.7,290.2,351.6,290.7,351.6z M319.9,341.4c-1.1,0.9-1.7,2.2-1.5,3.6l2.5-1.1L319.9,341.4z M286.6,345c1.1-0.9,1.7-2.2,1.5-3.6l-2.5,1.1L286.6,345z M312.7,331.2c0.4,0.5,1,1,1.6,1.2c0.5,0.2,1,0.3,1.5,0.3c0.2,0,0.3,0,0.5,0l-1.1-2.5L312.7,331.2z"></path> <linearGradient id="SVGID_7_" gradientUnits="userSpaceOnUse" x1="222.3315" y1="124.5044" x2="455.6445" y2="755.1772"> <stop offset="0" style="stop-color:#E65A49"></stop> <stop offset="1" style="stop-color:#F89C2B"></stop> </linearGradient> <path class="st80" d="M303.2,348.6c-0.7,0-1.4-0.1-2-0.4c-1.3-0.5-2.3-1.6-2.9-2.9c-0.5-1.3-0.5-2.8,0-4.1 c0.5-1.3,1.6-2.3,2.9-2.9c0.7-0.3,1.3-0.4,2-0.4c2.2,0,4.1,1.3,4.9,3.3c1.1,2.7-0.2,5.9-2.9,7 C304.6,348.4,303.9,348.6,303.2,348.6z M303.2,340c-0.4,0-0.8,0.1-1.2,0.2c-0.8,0.3-1.4,0.9-1.7,1.7c-0.3,0.8-0.3,1.7,0,2.5 c0.3,0.8,1,1.4,1.7,1.7c0.4,0.2,0.8,0.2,1.2,0.2c0.4,0,0.8-0.1,1.2-0.2c1.6-0.7,2.4-2.6,1.7-4.2C305.7,340.8,304.5,340,303.2,340z "></path> </g> <g> <linearGradient id="SVGID_8_" gradientUnits="userSpaceOnUse" x1="475.5928" y1="30.7866" x2="708.8989" y2="661.4409"> <stop offset="0" style="stop-color:#E65A49"></stop> <stop offset="1" style="stop-color:#F89C2B"></stop> </linearGradient> <path class="st81" d="M647.9,504.6c-2.1,0-4.2-0.8-5.7-2.3c-3.1-3.1-3.1-8.2,0-11.3c1.5-1.5,3.5-2.3,5.7-2.3 c2.1,0,4.2,0.8,5.7,2.3c3.1,3.1,3.1,8.2,0,11.3C652.1,503.7,650,504.6,647.9,504.6z M647.9,491.6c-1.3,0-2.6,0.5-3.5,1.5 c-0.9,0.9-1.5,2.2-1.5,3.5c0,1.3,0.5,2.6,1.5,3.5c0.9,0.9,2.2,1.5,3.5,1.5c1.3,0,2.6-0.5,3.5-1.5c0.9-0.9,1.5-2.2,1.5-3.5 c0-1.3-0.5-2.6-1.5-3.5C650.5,492.1,649.2,491.6,647.9,491.6z"></path> <linearGradient id="SVGID_9_" gradientUnits="userSpaceOnUse" x1="469.9854" y1="32.9243" x2="703.2638" y2="663.5037"> <stop offset="0" style="stop-color:#E65A49"></stop> <stop offset="1" style="stop-color:#F89C2B"></stop> </linearGradient> <path class="st82" d="M639.7,544.6c-0.2,0-0.5-0.1-0.7-0.2l-0.1-0.1l-0.2-0.2c-0.3-0.3-0.5-0.8-0.4-1.3l2.2-12.8l-10.2-10.2 c-4,2.8-9,5.4-9,5.4c-0.2,0.1-0.4,0.2-0.7,0.2c-0.4,0-0.8-0.2-1.1-0.4c-0.5-0.5-0.6-1.2-0.3-1.7c0,0,2.7-5,5.4-9L614.5,504 l-12.9,2.2l-0.2,0c-0.4,0-0.8-0.2-1.1-0.4l-0.1-0.1l-0.2-0.3c-0.3-0.6-0.2-1.3,0.3-1.8c10.7-10.7,21.3-11.8,24.1-11.9 c7.4-6.2,15.1-11.2,22.7-15.1c0.1-0.1,0.2-0.2,0.3-0.2c16.1-8.1,26.8-8.2,27.3-8.2c0.8,0,1.5,0.7,1.5,1.5c0,0.4-0.1,11.2-8.2,27.3 c-0.1,0.1-0.1,0.2-0.2,0.3c-3.9,7.7-9,15.3-15.1,22.7c-0.1,2.8-1.2,13.4-11.9,24.1C640.5,544.4,640.1,544.6,639.7,544.6z M642.1,538.2c4.2-5.3,6-10.3,6.9-13.8c-1.8,2-3.6,3.9-5.5,5.9L642.1,538.2z M642,527.4l7.8-8.5c6.3-7.4,11.4-15.1,15.3-22.9 c-0.2-4.4-1.9-8.5-5-11.6c-3.1-3.1-7.2-4.9-11.6-5c-7.7,3.9-15.4,9.1-22.9,15.3l-8.5,7.8l9.3,9.3c0.1-0.1,0.4-0.4,0.4-0.4 c0.3-0.3,0.6-0.6,0.8-0.9c3.6-3.6,9.7-5.4,10-5.5l0.1,0l0.3,0c0.5,0,0.9,0.2,1.2,0.6c0.3,0.4,0.4,0.9,0.2,1.3 c-0.1,0.3-1.9,6.4-5.5,10c-0.3,0.3-0.6,0.5-0.9,0.8c0,0-0.4,0.3-0.5,0.4L642,527.4z M635.5,509c-1.8,0.8-4.1,2-5.7,3.6 c-0.6,0.6-1.2,1.4-1.9,2.4c-1.1,1.5-2.3,3.3-3.2,4.9c1.6-1,3.4-2.1,4.9-3.2c1-0.8,1.8-1.4,2.4-2 C633.4,513.1,634.7,510.8,635.5,509z M620.1,495.5c-3.5,0.9-8.5,2.7-13.8,6.9l7.9-1.4C616.2,499.1,618.1,497.3,620.1,495.5z M653.3,477c3.4,0.9,6.4,2.7,8.9,5.2c2.5,2.5,4.3,5.5,5.2,8.9c4.2-9.6,5.4-16.7,5.7-19.8C670,471.7,663,472.8,653.3,477z"></path> </g> <g> <linearGradient id="SVGID_10_" gradientUnits="userSpaceOnUse" x1="383.4658" y1="64.9326" x2="616.7477" y2="695.5212"> <stop offset="0" style="stop-color:#E65A49"></stop> <stop offset="1" style="stop-color:#F89C2B"></stop> </linearGradient> <path class="st85" d="M394.5,102.3c-2.1,0-4-0.8-5.4-2.2c-1.4-1.4-2.2-3.4-2.2-5.4c0-2.1,0.8-4,2.2-5.4c1.4-1.4,3.4-2.2,5.4-2.2 c2.1,0,4,0.8,5.4,2.2c3,3,3,7.9,0,10.9C398.4,101.5,396.5,102.3,394.5,102.3z M394.5,90.2c-1.2,0-2.3,0.5-3.1,1.3 c-1.7,1.7-1.7,4.5,0,6.3c0.8,0.8,2,1.3,3.1,1.3c1.2,0,2.3-0.5,3.1-1.3c0.8-0.8,1.3-2,1.3-3.1c0-1.2-0.5-2.3-1.3-3.1 C396.8,90.6,395.6,90.2,394.5,90.2z"></path> <linearGradient id="SVGID_11_" gradientUnits="userSpaceOnUse" x1="378.2275" y1="66.8721" x2="611.5012" y2="697.4385"> <stop offset="0" style="stop-color:#E65A49"></stop> <stop offset="1" style="stop-color:#F89C2B"></stop> </linearGradient> <path class="st86" d="M386.8,139.6c-0.3,0-0.5-0.1-0.7-0.2l-0.1-0.1l-0.3-0.2c-0.4-0.4-0.5-0.9-0.4-1.4l2-11.8l-9.3-9.3 c-3.7,2.6-8.2,5-8.3,5c-0.2,0.1-0.5,0.2-0.7,0.2c-0.4,0-0.8-0.2-1.1-0.5c-0.5-0.5-0.6-1.2-0.3-1.9c0,0,2.4-4.5,5-8.3l-9.3-9.3 l-11.9,2.1l-0.2,0c-0.4,0-0.8-0.2-1.1-0.5l-0.1-0.1l-0.2-0.3c-0.3-0.6-0.2-1.4,0.3-1.9c9.9-9.9,19.8-11,22.5-11.2 c6.9-5.7,14-10.4,21.1-14l0.3-0.2C409,68.1,419,68,419.4,68c0.9,0,1.6,0.7,1.6,1.6c0,0.4-0.1,10.5-7.7,25.5l-0.1,0.2l-0.1,0.1 c-3.6,7.1-8.3,14.2-14.1,21.1c-0.1,2.7-1.2,12.6-11.2,22.5C387.7,139.4,387.3,139.6,386.8,139.6z M389.4,132.5 c3.1-4.2,4.8-8.2,5.6-11.1c-1.4,1.6-3,3.2-4.5,4.7L389.4,132.5z M388.9,123l7.1-7.8c5.8-6.9,10.6-14,14.2-21.2 c-0.2-4-1.8-7.8-4.6-10.6c-2.8-2.8-6.6-4.5-10.6-4.6c-7.1,3.6-14.3,8.4-21.2,14.2l-7.8,7.1l8.4,8.4l0.2-0.2 c0.3-0.3,0.5-0.6,0.8-0.8c3.4-3.4,9.1-5.1,9.4-5.2l0.2,0l0.3,0c0.5,0,1,0.3,1.3,0.7c0.3,0.4,0.4,0.9,0.3,1.4 c-0.2,0.6-1.9,6.1-5.2,9.4c-0.3,0.2-0.5,0.5-0.8,0.8c0,0-0.2,0.2-0.2,0.2L388.9,123z M382.4,106.7c-1.6,0.7-3.4,1.8-4.7,3.1 c-0.5,0.5-1.1,1.2-1.8,2.2c-0.8,1.2-1.7,2.5-2.5,3.8c1.3-0.8,2.6-1.6,3.8-2.5c0.9-0.7,1.7-1.3,2.2-1.8 C380.6,110.1,381.7,108.2,382.4,106.7z M367.7,94.1c-3,0.8-6.9,2.5-11.1,5.6l6.4-1.1C364.5,97,366.1,95.5,367.7,94.1z M400.2,76.4 c2.9,0.9,5.6,2.5,7.8,4.7s3.8,4.9,4.7,7.8c3.6-8.4,4.7-14.6,5-17.5C414.8,71.7,408.5,72.8,400.2,76.4z"></path> </g> <linearGradient id="SVGID_12_" gradientUnits="userSpaceOnUse" x1="308.0801" y1="92.8135" x2="541.3612" y2="723.4003"> <stop offset="0" style="stop-color:#E65A49"></stop> <stop offset="1" style="stop-color:#F89C2B"></stop> </linearGradient> <path class="st87" d="M440.5,562.1c-3.7,0-6.8-3-6.8-6.8c0-0.8,0.7-1.5,1.5-1.5h4.3v-38.6c0-0.8,0.7-1.5,1.5-1.5H492l-3.4-2.8 c-0.5-0.4-0.7-1-0.5-1.6c0.2-0.6,0.7-1,1.3-1c0,0,16.5-1.7,16.5-1.7c0.9,0,1.5,0.6,1.6,1.3l1.7,16.5c0.1,0.6-0.2,1.2-0.8,1.4 c-0.2,0.1-0.5,0.2-0.7,0.2c-0.3,0-0.7-0.1-0.9-0.3l-3.4-2.7v30.8h4.3c0.8,0,1.5,0.7,1.5,1.5c0,3.7-3,6.8-6.8,6.8H440.5z M502.5,559.1c1.6,0,3-1,3.6-2.4h-27.8v1.2c0,0.5-0.2,0.9-0.6,1.2H502.5z M436.9,556.8c0.6,1.4,2,2.4,3.6,2.4h24.8 c-0.4-0.3-0.6-0.7-0.6-1.2v-1.2H436.9z M500.6,553.8v-30.2l-2,2.4V550c0,0.8-0.7,1.5-1.5,1.5h-51.5l-0.2,0c0,0,0,0,0,0 c0,0-0.1,0-0.3-0.1c-0.2-0.1-0.3-0.1-0.4-0.3l-0.1-0.1l-0.1-0.1c-0.1-0.1-0.2-0.2-0.2-0.3l0-0.1l0-0.2c0,0,0,0,0,0c0,0,0-0.1,0-0.2 v-29.9c0-0.8,0.7-1.5,1.5-1.5h44.7l1.6-2h-49.7v37.1H500.6z M495.7,548.5v-18.8l-10.6,13.1c-0.3,0.3-0.7,0.5-1.1,0.5h-0.2l-0.3-0.1 l-18.7-6.2l-11.5,11.5H495.7z M449.2,548.5l14.2-14.2c0.3-0.3,0.7-0.4,1-0.4h0.2l0.3,0.1l18.6,6.2l17.2-21.3 c0.1-0.2,0.3-0.3,0.5-0.4c0,0,0.1,0,0.2-0.1l0,0c0,0,0.3,0,0.3,0l0.1,0c0,0,0,0,0,0c0.4,0,0.7,0.1,1,0.3l3.2,2.6l-1.2-11.5 l-11.5,1.2l3.2,2.6c0.3,0.2,0.5,0.6,0.5,1c0,0.4-0.1,0.8-0.3,1.1l-14.3,17.7c-0.3,0.3-0.7,0.5-1.1,0.5h-0.2l-0.3-0.1l-18.1-6 l-15.3,15.3l0,5.4H449.2z M447.3,539l13.9-13.9c0.3-0.3,0.7-0.4,1-0.4h0.1l0.3,0.1l18,6l7.4-9.1h-40.8V539z"></path> <linearGradient id="SVGID_13_" gradientUnits="userSpaceOnUse" x1="267.0879" y1="107.9868" x2="500.3633" y2="738.558"> <stop offset="0" style="stop-color:#E65A49"></stop> <stop offset="1" style="stop-color:#F89C2B"></stop> </linearGradient> <path class="st88" d="M349.9,330.3c-0.8,0-1.5-0.7-1.5-1.5v-26.5h-0.2v1.7c0,2.6-2.1,4.6-4.6,4.6c-0.8,0-1.5-0.7-1.5-1.5v-4.8 c-17.4,0.3-27.3,5.6-32.6,10.1v0.6c0,2.9-2.4,5.3-5.3,5.3c-3,0-5.4-2.4-5.4-5.3v-54.3c0-2.9,2.4-5.3,5.4-5.3c2.9,0,5.3,2.3,5.3,5.2 c5.5,4.7,15.8,10.1,34.1,10.1h17.9c2.4,0,4.4,1.6,5,3.8c5.2,0.6,9.2,5.1,9.2,10.4v5.2c0,5.3-4,9.7-9.2,10.4c-0.6,2.2-2.7,3.8-5,3.8 h-1.1v17.5C360.3,325.6,355.6,330.3,349.9,330.3z M351.4,327.2c3.4-0.7,6-3.7,6-7.3v-17.5h-6V327.2z M304.1,256.4 c-1.3,0-2.4,1.1-2.4,2.4v54.3c0,1.3,1.1,2.4,2.4,2.4c1.3,0,2.4-1.1,2.4-2.4v-54.3C306.5,257.5,305.4,256.4,304.1,256.4z M309.5,308.6c5.9-4.3,16.1-9,32.6-9.3l0-27.7c-16.5-0.3-26.7-4.9-32.6-9.3V308.6z M361.5,299.3c1.2,0,2.3-1,2.3-2.3V274 c0-1.2-1-2.3-2.3-2.3h-5.6v27.7H361.5z M352.9,299.3v-27.7H345l0,27.7H352.9z M366.7,295.5c3.4-0.7,6-3.7,6-7.3v-5.2 c0-3.6-2.6-6.6-6-7.3V295.5z"></path> <g> <linearGradient id="SVGID_14_" gradientUnits="userSpaceOnUse" x1="128.9453" y1="159.0908" x2="362.2245" y2="789.6722"> <stop offset="0" style="stop-color:#E65A49"></stop> <stop offset="1" style="stop-color:#F89C2B"></stop> </linearGradient> <path class="st89" d="M198.9,290.2c-0.4,0-0.8-0.1-1.1-0.4l-17.9-15c-0.3-0.3-0.5-0.6-0.6-1.1c0-0.4,0.1-0.8,0.4-1.1l0.6-0.7 l-3.6-3c-5,3.8-10.9,6.1-17.2,6.7c-0.3,0-0.6,0.1-0.9,0.1c-8.5,0.5-16.9-2.2-23.4-7.7c-6.8-5.7-11-13.7-11.8-22.6 c-0.8-8.9,1.9-17.5,7.6-24.4c5.7-6.8,13.7-11,22.6-11.8c0.3,0,0.6-0.1,1-0.1c8.5-0.5,16.8,2.2,23.4,7.7c11.9,10,15.3,27,8.3,40.7 l3.6,3l0.6-0.7c0.3-0.3,0.7-0.5,1.1-0.6c0.4,0,0.8,0.1,1.1,0.4l17.9,15c0.3,0.3,0.5,0.6,0.6,1.1c0,0.4-0.1,0.8-0.4,1.1L200,289.7 C199.7,290,199.3,290.2,198.9,290.2L198.9,290.2z M198.6,286.5l8.6-10.3l-15.5-13l-8.6,10.3L198.6,286.5z M153.8,212.4 c-8,0.7-15.3,4.5-20.5,10.7c-5.2,6.2-7.6,14-6.9,22.1c0.7,8,4.5,15.3,10.7,20.5c5.9,5,13.5,7.4,21.2,7c6.4-0.4,12.4-2.8,17.4-6.8 c0.3-0.2,0.6-0.3,0.9-0.4c0.4,0,0.8,0.1,1.1,0.4l4.6,3.8l5.5-6.6l-4.6-3.8c-0.6-0.5-0.7-1.3-0.4-2c7.1-12.7,4.2-28.6-7-37.9 c-5.9-5-13.5-7.4-21.2-7C154.3,212.3,154,212.3,153.8,212.4z"></path> <linearGradient id="SVGID_15_" gradientUnits="userSpaceOnUse" x1="125.9932" y1="160.1826" x2="359.2696" y2="790.7565"> <stop offset="0" style="stop-color:#E65A49"></stop> <stop offset="1" style="stop-color:#F89C2B"></stop> </linearGradient> <path class="st90" d="M157.8,264.9c-5.8,0.3-11.4-1.5-15.8-5.2c-4.6-3.8-7.4-9.3-8-15.2c-0.5-6,1.3-11.8,5.1-16.4 c4-4.8,9.6-7.6,15.9-8c5.8-0.3,11.4,1.5,15.8,5.2c9.5,7.9,10.8,22.1,2.8,31.6c-3.8,4.6-9.3,7.4-15.2,8L157.8,264.9z M154.7,223.2 c-5.1,0.5-9.8,2.9-13.1,6.8c-3.3,4-4.9,9-4.4,14.1c0.5,5.1,2.9,9.8,6.9,13.1c3.8,3.2,8.6,4.8,13.6,4.5c5.4-0.3,10.2-2.8,13.7-6.9 c6.8-8.2,5.7-20.4-2.4-27.2c-3.8-3.2-8.6-4.8-13.6-4.5L154.7,223.2z"></path> </g> <g> <linearGradient id="SVGID_16_" gradientUnits="userSpaceOnUse" x1="464.8672" y1="34.8179" x2="698.1449" y2="665.3954"> <stop offset="0" style="stop-color:#E65A49"></stop> <stop offset="1" style="stop-color:#F89C2B"></stop> </linearGradient> <path class="st91" d="M615,402.6c-0.3,0-0.6-0.1-0.8-0.3l-12.5-11.8c-0.2-0.2-0.4-0.5-0.4-0.8c0-0.3,0.1-0.6,0.3-0.8l0.4-0.5 l-2.5-2.4c-3.8,2.6-8.3,4-12.9,4.1c-0.2,0-0.5,0-0.7,0c-6.3,0-12.3-2.4-16.8-6.7c-4.8-4.5-7.5-10.6-7.7-17.1 c-0.2-6.5,2.2-12.8,6.7-17.5c4.5-4.8,10.6-7.5,17.1-7.7c0.2,0,0.5,0,0.7,0c6.3,0,12.2,2.4,16.8,6.7c8.3,7.8,10,20.4,4.3,30.2 l2.5,2.4l0.4-0.5c0.2-0.2,0.5-0.4,0.8-0.4c0.3,0,0.6,0.1,0.8,0.3l12.5,11.8c0.2,0.2,0.4,0.5,0.4,0.8c0,0.3-0.1,0.6-0.3,0.8 l-8.4,8.9C615.6,402.5,615.3,402.6,615,402.6L615,402.6z M614.9,399.8l6.8-7.2l-10.8-10.2l-6.8,7.2L614.9,399.8z M585.4,343.5 c-5.9,0.2-11.4,2.6-15.5,6.9c-4.1,4.3-6.2,9.9-6.1,15.9c0.2,5.9,2.6,11.4,6.9,15.5c4.1,3.9,9.5,6.1,15.2,6.1c4.7,0,9.2-1.5,13-4.2 c0.2-0.1,0.4-0.2,0.7-0.2c0.3,0,0.6,0.1,0.8,0.3l3.2,3l4.3-4.6l-3.2-3c-0.4-0.4-0.5-1-0.2-1.5c5.8-9,4.3-20.8-3.4-28.1 c-4.1-3.9-9.5-6.1-15.2-6.1C585.8,343.5,585.6,343.5,585.4,343.5z"></path> <linearGradient id="SVGID_17_" gradientUnits="userSpaceOnUse" x1="463.7676" y1="35.2383" x2="697.0366" y2="665.7923"> <stop offset="0" style="stop-color:#E65A49"></stop> <stop offset="1" style="stop-color:#F89C2B"></stop> </linearGradient> <path class="st92" d="M586,382.2c-4.2,0-8.3-1.6-11.3-4.5c-3.2-3-5-7.1-5.2-11.5c-0.1-4.4,1.5-8.6,4.5-11.8 c3.1-3.3,7.4-5.2,12-5.2c4.2,0,8.3,1.6,11.3,4.5c6.6,6.2,6.9,16.7,0.7,23.3c-3,3.2-7.1,5-11.5,5.2L586,382.2z M585.6,351.5 c-3.8,0.1-7.3,1.7-9.9,4.4c-2.6,2.8-4,6.4-3.9,10.1c0.1,3.8,1.7,7.3,4.4,9.9c2.6,2.5,6.1,3.9,9.7,3.9c4,0,7.6-1.6,10.3-4.4 c5.4-5.7,5.1-14.7-0.6-20.1c-2.6-2.5-6.1-3.9-9.7-3.9L585.6,351.5z"></path> </g> <g> <linearGradient id="SVGID_18_" gradientUnits="userSpaceOnUse" x1="339.2412" y1="81.2944" x2="572.516" y2="711.864"> <stop offset="0" style="stop-color:#E65A49"></stop> <stop offset="1" style="stop-color:#F89C2B"></stop> </linearGradient> <path class="st93" d="M370.2,250.7c-0.2,0-0.4-0.1-0.6-0.2c-0.2-0.1-0.3-0.2-0.4-0.3l-0.2-0.2l0-0.2l0-0.3v-31.9 c0-0.2,0.1-0.4,0.2-0.6l0.1-0.1l0.1-0.1l0.1-0.1l7-5.2v-5.5c0-0.7,0.6-1.3,1.3-1.3h7.7l9.6-7.2c0.2-0.2,0.5-0.3,0.8-0.3 s0.6,0.1,0.8,0.3l9.6,7.2h7.7c0.7,0,1.3,0.6,1.3,1.3v5.5l6.9,5.2l0.2,0.3c0.1,0.2,0.2,0.4,0.2,0.6v32.1l-0.1,0.3l-0.1,0.2 l-0.1,0.1c-0.1,0.1-0.2,0.2-0.3,0.3c-0.3,0.2-0.6,0.3-0.8,0.3H370.2z M418,248.1l-14.7-15.7l-7,5.3c-0.2,0.2-0.5,0.3-0.8,0.3 c-0.3,0-0.6-0.1-0.8-0.3l-7.1-5.3l-14.6,15.8H418z M419.7,246.1v-26l-14.3,10.7L419.7,246.1z M371.5,246.1l14.1-15.3l-14.1-10.7 V246.1z M395.6,235l16.7-12.6v-15.3h-33.5v15.3L395.6,235z M376.3,220.5v-5.9l-3.9,2.9L376.3,220.5z M414.9,220.4l3.9-2.9 l-3.9-2.9V220.4z M401.6,204.5l-6-4.5l-6,4.5H401.6z"></path> <linearGradient id="SVGID_19_" gradientUnits="userSpaceOnUse" x1="345.8594" y1="78.855" x2="579.1217" y2="709.391"> <stop offset="0" style="stop-color:#E65A49"></stop> <stop offset="1" style="stop-color:#F89C2B"></stop> </linearGradient> <path class="st94" d="M382.9,214.6c-0.7,0-1.3-0.6-1.3-1.3c0-0.7,0.6-1.3,1.3-1.3h25.3c0.7,0,1.3,0.6,1.3,1.3 c0,0.7-0.6,1.3-1.3,1.3H382.9z"></path> <linearGradient id="SVGID_20_" gradientUnits="userSpaceOnUse" x1="344.4741" y1="79.3564" x2="577.7528" y2="709.9366"> <stop offset="0" style="stop-color:#E65A49"></stop> <stop offset="1" style="stop-color:#F89C2B"></stop> </linearGradient> <path class="st95" d="M382.9,218.8c-0.7,0-1.3-0.6-1.3-1.3c0-0.7,0.6-1.3,1.3-1.3h25.3c0.7,0,1.3,0.6,1.3,1.3 c0,0.7-0.6,1.3-1.3,1.3H382.9z"></path> <linearGradient id="SVGID_21_" gradientUnits="userSpaceOnUse" x1="343.0967" y1="79.8789" x2="576.3572" y2="710.41"> <stop offset="0" style="stop-color:#E65A49"></stop> <stop offset="1" style="stop-color:#F89C2B"></stop> </linearGradient> <path class="st96" d="M382.9,223.1c-0.7,0-1.3-0.6-1.3-1.3c0-0.7,0.6-1.3,1.3-1.3h25.3c0.7,0,1.3,0.6,1.3,1.3 c0,0.7-0.6,1.3-1.3,1.3H382.9z"></path> </g> <g> <linearGradient id="SVGID_22_" gradientUnits="userSpaceOnUse" x1="443.543" y1="42.7119" x2="676.8171" y2="673.2797"> <stop offset="0" style="stop-color:#E65A49"></stop> <stop offset="1" style="stop-color:#F89C2B"></stop> </linearGradient> <path class="st97" d="M534,261.3c-0.4,0-0.7-0.2-1-0.5l-6-9.5l-18.2,0.4c-0.6,0-1.1-0.5-1.1-1.1l-0.2-7.6l-2.9,0.1l-6.3,11.1 c-0.2,0.3-0.5,0.5-0.9,0.6l-0.1,0l-0.2,0c-0.5-0.1-0.8-0.5-0.8-1l-0.2-10.4l-6.3,0.1c-0.6,0-1.1-0.5-1.1-1.1l-0.5-24 c0-0.6,0.5-1.1,1.1-1.1l35.5-0.8c0.6,0,1.1,0.5,1.1,1.1l0.2,10.4l13.6-0.3c0.6,0,1.1,0.5,1.1,1.1l0.5,21.2c0,0.6-0.5,1.1-1.1,1.1 l-5.4,0.1l0.2,9c0,0.5-0.3,0.9-0.8,1.1l-0.1,0L534,261.3z M527.7,249.1c0.4,0,0.8,0.2,1,0.5l4.2,6.7l-0.1-6.2 c0-0.6,0.5-1.1,1.1-1.1l5.4-0.1l-0.4-19l-12.5,0.3l0.1,3.5l9-0.2c0.6,0,1.1,0.5,1.1,1.1c0,0.6-0.5,1.1-1.1,1.1l-9,0.2l0.1,3.3 l9-0.2c0.6,0,1.1,0.5,1.1,1.1c0,0.6-0.5,1.1-1.1,1.1l-9,0.2l0,0.2c0,0.6-0.5,1.1-1.1,1.1l-15.6,0.3l0.1,6.5L527.7,249.1z M497.2,241.1c0.6,0,1.1,0.5,1.1,1.1l0.2,7.5l4.7-8.2c0.2-0.3,0.5-0.5,0.9-0.6l20.2-0.4l-0.5-21.8l-33.3,0.7l0.5,21.8L497.2,241.1 z"></path> <linearGradient id="SVGID_23_" gradientUnits="userSpaceOnUse" x1="440.3711" y1="43.877" x2="673.6537" y2="674.4678"> <stop offset="0" style="stop-color:#E65A49"></stop> <stop offset="1" style="stop-color:#F89C2B"></stop> </linearGradient> <path class="st98" d="M494.7,225.8c-0.6,0-1.1-0.5-1.1-1.1c0-0.6,0.5-1.1,1.1-1.1l24.9-0.5c0.6,0,1.1,0.5,1.1,1.1 c0,0.6-0.5,1.1-1.1,1.1L494.7,225.8z"></path> <linearGradient id="SVGID_24_" gradientUnits="userSpaceOnUse" x1="438.6777" y1="44.501" x2="671.9623" y2="675.097"> <stop offset="0" style="stop-color:#E65A49"></stop> <stop offset="1" style="stop-color:#F89C2B"></stop> </linearGradient> <path class="st99" d="M494.9,231.3c-0.6,0-1.1-0.5-1.1-1.1c0-0.6,0.5-1.1,1.1-1.1l24.9-0.5c0.6,0,1.1,0.5,1.1,1.1 c0,0.6-0.5,1.1-1.1,1.1L494.9,231.3z"></path> <linearGradient id="SVGID_25_" gradientUnits="userSpaceOnUse" x1="437" y1="45.1602" x2="670.2425" y2="675.6424"> <stop offset="0" style="stop-color:#E65A49"></stop> <stop offset="1" style="stop-color:#F89C2B"></stop> </linearGradient> <path class="st100" d="M495,236.8c-0.6,0-1.1-0.5-1.1-1.1c0-0.6,0.5-1.1,1.1-1.1l24.9-0.5c0.6,0,1.1,0.5,1.1,1.1 c0,0.6-0.5,1.1-1.1,1.1L495,236.8z"></path> <linearGradient id="SVGID_26_" gradientUnits="userSpaceOnUse" x1="448.6162" y1="40.8623" x2="681.862" y2="671.3535"> <stop offset="0" style="stop-color:#E65A49"></stop> <stop offset="1" style="stop-color:#F89C2B"></stop> </linearGradient> <path class="st101" d="M513.3,247.1c-0.6,0-1.1-0.5-1.1-1.1c0-0.6,0.5-1.1,1.1-1.1l22.4-0.5c0.6,0,1.1,0.5,1.1,1.1 c0,0.6-0.5,1.1-1.1,1.1L513.3,247.1z"></path> </g> <g> <linearGradient id="SVGID_27_" gradientUnits="userSpaceOnUse" x1="59.9932" y1="184.6025" x2="293.2656" y2="815.1657"> <stop offset="0" style="stop-color:#E65A49"></stop> <stop offset="1" style="stop-color:#F89C2B"></stop> </linearGradient> <path class="st102" d="M142.2,383.4c-0.4,0-0.9-0.2-1.1-0.6l-5.6-9.3h-17.7c-0.7,0-1.3-0.6-1.3-1.3v-7.2H114l-6.4,10.6 c-0.2,0.4-0.7,0.6-1.1,0.6h-0.1l-0.2,0c-0.6-0.2-1-0.7-1-1.2v-10h-5.9c-0.7,0-1.3-0.6-1.3-1.3V340c0-0.7,0.6-1.3,1.3-1.3h34.9 c0.7,0,1.3,0.6,1.3,1.3v10h13.2c0.7,0,1.3,0.6,1.3,1.3v20.9c0,0.7-0.6,1.3-1.3,1.3h-5.1v8.7c0,0.6-0.4,1.1-0.9,1.2l-0.1,0 L142.2,383.4z M136.2,370.8c0.5,0,0.9,0.2,1.1,0.6l3.6,6v-5.3c0-0.7,0.6-1.3,1.3-1.3h5.1v-18.3h-11.9v3h8.6c0.7,0,1.3,0.6,1.3,1.3 c0,0.7-0.6,1.3-1.3,1.3h-8.6v2.8h8.6c0.7,0,1.3,0.6,1.3,1.3c0,0.7-0.6,1.3-1.3,1.3h-8.6v0c0,0.7-0.6,1.3-1.3,1.3h-15.1v6H136.2z M106.5,362.3c0.7,0,1.3,0.6,1.3,1.3v6.6l4.4-7.3c0.2-0.4,0.7-0.6,1.1-0.6h19.6v-21h-32.3v21H106.5z"></path> <linearGradient id="SVGID_28_" gradientUnits="userSpaceOnUse" x1="57.1377" y1="185.6553" x2="290.4137" y2="816.2281"> <stop offset="0" style="stop-color:#E65A49"></stop> <stop offset="1" style="stop-color:#F89C2B"></stop> </linearGradient> <path class="st103" d="M104.4,347.7c-0.7,0-1.3-0.6-1.3-1.3c0-0.7,0.6-1.3,1.3-1.3h24.5c0.7,0,1.3,0.6,1.3,1.3 c0,0.7-0.6,1.3-1.3,1.3H104.4z"></path> <linearGradient id="SVGID_29_" gradientUnits="userSpaceOnUse" x1="55.375" y1="186.3086" x2="288.651" y2="816.8815"> <stop offset="0" style="stop-color:#E65A49"></stop> <stop offset="1" style="stop-color:#F89C2B"></stop> </linearGradient> <path class="st104" d="M104.4,353.1c-0.7,0-1.3-0.6-1.3-1.3c0-0.7,0.6-1.3,1.3-1.3h24.5c0.7,0,1.3,0.6,1.3,1.3 c0,0.7-0.6,1.3-1.3,1.3H104.4z"></path> <linearGradient id="SVGID_30_" gradientUnits="userSpaceOnUse" x1="53.6064" y1="186.9463" x2="286.9013" y2="817.57"> <stop offset="0" style="stop-color:#E65A49"></stop> <stop offset="1" style="stop-color:#F89C2B"></stop> </linearGradient> <path class="st105" d="M104.4,358.5c-0.7,0-1.3-0.6-1.3-1.3c0-0.7,0.6-1.3,1.3-1.3h24.5c0.7,0,1.3,0.6,1.3,1.3 c0,0.7-0.6,1.3-1.3,1.3H104.4z"></path> <linearGradient id="SVGID_31_" gradientUnits="userSpaceOnUse" x1="64.7114" y1="182.8584" x2="297.9832" y2="813.4197"> <stop offset="0" style="stop-color:#E65A49"></stop> <stop offset="1" style="stop-color:#F89C2B"></stop> </linearGradient> <path class="st106" d="M122.1,369c-0.7,0-1.3-0.6-1.3-1.3c0-0.7,0.6-1.3,1.3-1.3h22c0.7,0,1.3,0.6,1.3,1.3c0,0.7-0.6,1.3-1.3,1.3 H122.1z"></path> </g> <g> <linearGradient id="SVGID_32_" gradientUnits="userSpaceOnUse" x1="340.5029" y1="80.8643" x2="573.7421" y2="711.3375"> <stop offset="0" style="stop-color:#E65A49"></stop> <stop offset="1" style="stop-color:#F89C2B"></stop> </linearGradient> <path class="st107" d="M421.9,282.5c0,1-0.8,1.8-1.8,1.8h-10.1c-1,0-1.8-0.8-1.8-1.8c0-1,0.8-1.8,1.8-1.8h10.1 C421.1,280.7,421.9,281.5,421.9,282.5z"></path> <linearGradient id="SVGID_33_" gradientUnits="userSpaceOnUse" x1="356.6055" y1="74.9072" x2="589.8446" y2="705.3804"> <stop offset="0" style="stop-color:#E65A49"></stop> <stop offset="1" style="stop-color:#F89C2B"></stop> </linearGradient> <path class="st108" d="M440.2,282.5c0,1-0.8,1.8-1.8,1.8h-10.1c-1,0-1.8-0.8-1.8-1.8c0-1,0.8-1.8,1.8-1.8h10.1 C439.4,280.7,440.2,281.5,440.2,282.5z"></path> <linearGradient id="SVGID_34_" gradientUnits="userSpaceOnUse" x1="351.5313" y1="76.7778" x2="584.7764" y2="707.2673"> <stop offset="0" style="stop-color:#E65A49"></stop> <stop offset="1" style="stop-color:#F89C2B"></stop> </linearGradient> <path class="st109" d="M426,278.4c0,1-0.8,1.8-1.8,1.8c-1,0-1.8-0.8-1.8-1.8v-10.1c0-1,0.8-1.8,1.8-1.8c1,0,1.8,0.8,1.8,1.8V278.4 z"></path> <linearGradient id="SVGID_35_" gradientUnits="userSpaceOnUse" x1="345.5576" y1="78.9355" x2="578.8553" y2="709.5671"> <stop offset="0" style="stop-color:#E65A49"></stop> <stop offset="1" style="stop-color:#F89C2B"></stop> </linearGradient> <path class="st110" d="M426,296.7c0,1-0.8,1.8-1.8,1.8c-1,0-1.8-0.8-1.8-1.8v-10.1c0-1,0.8-1.8,1.8-1.8c1,0,1.8,0.8,1.8,1.8V296.7 z"></path> <linearGradient id="SVGID_36_" gradientUnits="userSpaceOnUse" x1="382.478" y1="65.1348" x2="615.9235" y2="696.1656"> <stop offset="0" style="stop-color:#E65A49"></stop> <stop offset="1" style="stop-color:#F89C2B"></stop> </linearGradient> <path class="st111" d="M460.8,265.1c0,0.8-0.6,1.4-1.4,1.4h-5.8c-0.8,0-1.4-0.6-1.4-1.4c0-0.8,0.6-1.4,1.4-1.4h5.8 C460.2,263.7,460.8,264.3,460.8,265.1z"></path> <linearGradient id="SVGID_37_" gradientUnits="userSpaceOnUse" x1="391.8379" y1="61.7549" x2="625.1976" y2="692.554"> <stop offset="0" style="stop-color:#E65A49"></stop> <stop offset="1" style="stop-color:#F89C2B"></stop> </linearGradient> <path class="st112" d="M471.4,265.1c0,0.8-0.6,1.4-1.4,1.4h-5.8c-0.8,0-1.4-0.6-1.4-1.4c0-0.8,0.6-1.4,1.4-1.4h5.8 C470.8,263.7,471.4,264.3,471.4,265.1z"></path> <linearGradient id="SVGID_38_" gradientUnits="userSpaceOnUse" x1="388.9053" y1="62.8638" x2="622.2416" y2="693.5995"> <stop offset="0" style="stop-color:#E65A49"></stop> <stop offset="1" style="stop-color:#F89C2B"></stop> </linearGradient> <path class="st113" d="M463.2,262.7c0,0.8-0.6,1.4-1.4,1.4c-0.8,0-1.4-0.6-1.4-1.4v-5.8c0-0.8,0.6-1.4,1.4-1.4 c0.8,0,1.4,0.6,1.4,1.4V262.7z"></path> <linearGradient id="SVGID_39_" gradientUnits="userSpaceOnUse" x1="385.4609" y1="64.1626" x2="618.7698" y2="694.8242"> <stop offset="0" style="stop-color:#E65A49"></stop> <stop offset="1" style="stop-color:#F89C2B"></stop> </linearGradient> <path class="st114" d="M463.2,273.3c0,0.8-0.6,1.4-1.4,1.4c-0.8,0-1.4-0.6-1.4-1.4v-5.8c0-0.8,0.6-1.4,1.4-1.4 c0.8,0,1.4,0.6,1.4,1.4V273.3z"></path> </g> <g> <linearGradient id="SVGID_40_" gradientUnits="userSpaceOnUse" x1="576.6914" y1="-6.5586" x2="809.9751" y2="624.0351"> <stop offset="0" style="stop-color:#E65A49"></stop> <stop offset="1" style="stop-color:#F89C2B"></stop> </linearGradient> <path class="st115" d="M694.3,320.9c-1.2,0-2.2-1-2.2-2.2v-14.7c0-1.2,1-2.2,2.2-2.2c1.2,0,2.2,1,2.2,2.2v14.7 C696.5,319.9,695.5,320.9,694.3,320.9z"></path> <linearGradient id="SVGID_41_" gradientUnits="userSpaceOnUse" x1="568.0156" y1="-3.3501" x2="801.2993" y2="627.2436"> <stop offset="0" style="stop-color:#E65A49"></stop> <stop offset="1" style="stop-color:#F89C2B"></stop> </linearGradient> <path class="st116" d="M694.3,347.6c-1.2,0-2.2-1-2.2-2.2v-14.7c0-1.2,1-2.2,2.2-2.2c1.2,0,2.2,1,2.2,2.2v14.7 C696.5,346.6,695.5,347.6,694.3,347.6z"></path> <linearGradient id="SVGID_42_" gradientUnits="userSpaceOnUse" x1="584.1035" y1="-9.2329" x2="817.3451" y2="621.2469"> <stop offset="0" style="stop-color:#E65A49"></stop> <stop offset="1" style="stop-color:#F89C2B"></stop> </linearGradient> <path class="st117" d="M700.3,326.9c-1.2,0-2.2-1-2.2-2.2c0-1.2,1-2.2,2.2-2.2H715c1.2,0,2.2,1,2.2,2.2c0,1.2-1,2.2-2.2,2.2H700.3 z"></path> <linearGradient id="SVGID_43_" gradientUnits="userSpaceOnUse" x1="560.624" y1="-0.6245" x2="793.9139" y2="629.986"> <stop offset="0" style="stop-color:#E65A49"></stop> <stop offset="1" style="stop-color:#F89C2B"></stop> </linearGradient> <path class="st118" d="M673.6,326.9c-1.2,0-2.2-1-2.2-2.2c0-1.2,1-2.2,2.2-2.2h14.7c1.2,0,2.2,1,2.2,2.2c0,1.2-1,2.2-2.2,2.2 H673.6z"></path> <linearGradient id="SVGID_44_" gradientUnits="userSpaceOnUse" x1="542.6191" y1="6.0083" x2="775.9226" y2="636.6553"> <stop offset="0" style="stop-color:#E65A49"></stop> <stop offset="1" style="stop-color:#F89C2B"></stop> </linearGradient> <path class="st119" d="M677.1,375.7c-0.9,0-1.7-0.8-1.7-1.7v-8.9c0-0.9,0.8-1.7,1.7-1.7c0.9,0,1.7,0.8,1.7,1.7v8.9 C678.8,375,678,375.7,677.1,375.7z"></path> <linearGradient id="SVGID_45_" gradientUnits="userSpaceOnUse" x1="537.3555" y1="7.9902" x2="770.6395" y2="638.5847"> <stop offset="0" style="stop-color:#E65A49"></stop> <stop offset="1" style="stop-color:#F89C2B"></stop> </linearGradient> <path class="st120" d="M677.1,391.9c-0.9,0-1.7-0.8-1.7-1.7v-8.9c0-0.9,0.8-1.7,1.7-1.7c0.9,0,1.7,0.8,1.7,1.7v8.9 C678.8,391.2,678,391.9,677.1,391.9z"></path> <linearGradient id="SVGID_46_" gradientUnits="userSpaceOnUse" x1="547.1641" y1="4.4912" x2="780.3767" y2="634.8928"> <stop offset="0" style="stop-color:#E65A49"></stop> <stop offset="1" style="stop-color:#F89C2B"></stop> </linearGradient> <path class="st121" d="M680.8,379.4c-0.9,0-1.7-0.8-1.7-1.7c0-0.9,0.8-1.7,1.7-1.7h8.9c0.9,0,1.7,0.8,1.7,1.7 c0,0.9-0.8,1.7-1.7,1.7H680.8z"></path> <linearGradient id="SVGID_47_" gradientUnits="userSpaceOnUse" x1="532.8701" y1="9.6616" x2="766.1472" y2="640.2374"> <stop offset="0" style="stop-color:#E65A49"></stop> <stop offset="1" style="stop-color:#F89C2B"></stop> </linearGradient> <path class="st122" d="M664.6,379.4c-0.9,0-1.7-0.8-1.7-1.7c0-0.9,0.8-1.7,1.7-1.7h8.9c0.9,0,1.7,0.8,1.7,1.7 c0,0.9-0.8,1.7-1.7,1.7H664.6z"></path> <linearGradient id="SVGID_48_" gradientUnits="userSpaceOnUse" x1="524.623" y1="12.7158" x2="757.8973" y2="643.2841"> <stop offset="0" style="stop-color:#E65A49"></stop> <stop offset="1" style="stop-color:#F89C2B"></stop> </linearGradient> <path class="st123" d="M633.4,311.4c-0.8,0-1.5-0.7-1.5-1.5v-6.6c0-0.8,0.7-1.5,1.5-1.5c0.8,0,1.5,0.7,1.5,1.5v6.6 C634.8,310.8,634.2,311.4,633.4,311.4z"></path> <linearGradient id="SVGID_49_" gradientUnits="userSpaceOnUse" x1="520.7109" y1="14.1035" x2="754.0263" y2="644.7827"> <stop offset="0" style="stop-color:#E65A49"></stop> <stop offset="1" style="stop-color:#F89C2B"></stop> </linearGradient> <path class="st124" d="M633.4,323.4c-0.8,0-1.5-0.7-1.5-1.5v-6.6c0-0.8,0.7-1.5,1.5-1.5c0.8,0,1.5,0.7,1.5,1.5v6.6 C634.8,322.7,634.2,323.4,633.4,323.4z"></path> <linearGradient id="SVGID_50_" gradientUnits="userSpaceOnUse" x1="527.9297" y1="11.4717" x2="761.2191" y2="642.0806"> <stop offset="0" style="stop-color:#E65A49"></stop> <stop offset="1" style="stop-color:#F89C2B"></stop> </linearGradient> <path class="st125" d="M636.1,314.1c-0.8,0-1.5-0.7-1.5-1.5s0.7-1.5,1.5-1.5h6.6c0.8,0,1.5,0.7,1.5,1.5s-0.7,1.5-1.5,1.5H636.1z"></path> <linearGradient id="SVGID_51_" gradientUnits="userSpaceOnUse" x1="517.3701" y1="15.2637" x2="750.7389" y2="646.0872"> <stop offset="0" style="stop-color:#E65A49"></stop> <stop offset="1" style="stop-color:#F89C2B"></stop> </linearGradient> <path class="st126" d="M624.1,314.1c-0.8,0-1.5-0.7-1.5-1.5s0.7-1.5,1.5-1.5h6.6c0.8,0,1.5,0.7,1.5,1.5s-0.7,1.5-1.5,1.5H624.1z"></path> </g> <g> <linearGradient id="SVGID_52_" gradientUnits="userSpaceOnUse" x1="247.6025" y1="115.1934" x2="480.9002" y2="745.8248"> <stop offset="0" style="stop-color:#E65A49"></stop> <stop offset="1" style="stop-color:#F89C2B"></stop> </linearGradient> <path class="st127" d="M254.9,143.5c-1.1,0-2-0.9-2-2v-12.9c0-1.1,0.9-2,2-2s2,0.9,2,2v12.9C256.9,142.5,256,143.5,254.9,143.5z"></path> <linearGradient id="SVGID_53_" gradientUnits="userSpaceOnUse" x1="239.957" y1="118.0215" x2="473.2406" y2="748.6148"> <stop offset="0" style="stop-color:#E65A49"></stop> <stop offset="1" style="stop-color:#F89C2B"></stop> </linearGradient> <path class="st128" d="M254.9,166.9c-1.1,0-2-0.9-2-2V152c0-1.1,0.9-2,2-2s2,0.9,2,2v12.9C256.9,166,256,166.9,254.9,166.9z"></path> <linearGradient id="SVGID_54_" gradientUnits="userSpaceOnUse" x1="233.4443" y1="120.4268" x2="466.7551" y2="751.0937"> <stop offset="0" style="stop-color:#E65A49"></stop> <stop offset="1" style="stop-color:#F89C2B"></stop> </linearGradient> <path class="st129" d="M236.7,148.7c-1.1,0-2-0.9-2-2c0-1.1,0.9-2,2-2h12.9c1.1,0,2,0.9,2,2c0,1.1-0.9,2-2,2H236.7z"></path> <linearGradient id="SVGID_55_" gradientUnits="userSpaceOnUse" x1="254.1133" y1="112.7881" x2="487.3731" y2="743.3172"> <stop offset="0" style="stop-color:#E65A49"></stop> <stop offset="1" style="stop-color:#F89C2B"></stop> </linearGradient> <path class="st130" d="M260.2,148.7c-1.1,0-2-0.9-2-2c0-1.1,0.9-2,2-2h12.9c1.1,0,2,0.9,2,2c0,1.1-0.9,2-2,2H260.2z"></path> <linearGradient id="SVGID_56_" gradientUnits="userSpaceOnUse" x1="244.2476" y1="116.4209" x2="477.5664" y2="747.1095"> <stop offset="0" style="stop-color:#E65A49"></stop> <stop offset="1" style="stop-color:#F89C2B"></stop> </linearGradient> <path class="st131" d="M270.1,191.7c-0.9,0-1.6-0.7-1.6-1.6v-7.9c0-0.9,0.7-1.6,1.6-1.6c0.9,0,1.6,0.7,1.6,1.6v7.9 C271.7,191,270.9,191.7,270.1,191.7z"></path> <linearGradient id="SVGID_57_" gradientUnits="userSpaceOnUse" x1="239.5996" y1="118.1372" x2="472.9203" y2="748.8308"> <stop offset="0" style="stop-color:#E65A49"></stop> <stop offset="1" style="stop-color:#F89C2B"></stop> </linearGradient> <path class="st132" d="M270.1,206c-0.9,0-1.6-0.7-1.6-1.6v-7.9c0-0.9,0.7-1.6,1.6-1.6c0.9,0,1.6,0.7,1.6,1.6v7.9 C271.7,205.3,270.9,206,270.1,206z"></path> <linearGradient id="SVGID_58_" gradientUnits="userSpaceOnUse" x1="235.6426" y1="119.6035" x2="468.9674" y2="750.3083"> <stop offset="0" style="stop-color:#E65A49"></stop> <stop offset="1" style="stop-color:#F89C2B"></stop> </linearGradient> <path class="st133" d="M259,195c-0.9,0-1.6-0.7-1.6-1.6c0-0.9,0.7-1.6,1.6-1.6h7.9c0.9,0,1.6,0.7,1.6,1.6c0,0.9-0.7,1.6-1.6,1.6 H259z"></path> <linearGradient id="SVGID_59_" gradientUnits="userSpaceOnUse" x1="248.2041" y1="114.9551" x2="481.5255" y2="745.6506"> <stop offset="0" style="stop-color:#E65A49"></stop> <stop offset="1" style="stop-color:#F89C2B"></stop> </linearGradient> <path class="st134" d="M273.3,195c-0.9,0-1.6-0.7-1.6-1.6c0-0.9,0.7-1.6,1.6-1.6h7.9c0.9,0,1.6,0.7,1.6,1.6c0,0.9-0.7,1.6-1.6,1.6 H273.3z"></path> <linearGradient id="SVGID_60_" gradientUnits="userSpaceOnUse" x1="296.2065" y1="97.208" x2="529.5134" y2="727.8643"> <stop offset="0" style="stop-color:#E65A49"></stop> <stop offset="1" style="stop-color:#F89C2B"></stop> </linearGradient> <path class="st135" d="M308.6,135.1c-0.8,0-1.4-0.6-1.4-1.4v-5.8c0-0.8,0.6-1.4,1.4-1.4s1.4,0.6,1.4,1.4v5.8 C310,134.5,309.4,135.1,308.6,135.1z"></path> <linearGradient id="SVGID_61_" gradientUnits="userSpaceOnUse" x1="292.7783" y1="98.481" x2="526.0576" y2="729.0627"> <stop offset="0" style="stop-color:#E65A49"></stop> <stop offset="1" style="stop-color:#F89C2B"></stop> </linearGradient> <path class="st136" d="M308.6,145.6c-0.8,0-1.4-0.6-1.4-1.4v-5.8c0-0.8,0.6-1.4,1.4-1.4s1.4,0.6,1.4,1.4v5.8 C310,145,309.4,145.6,308.6,145.6z"></path> <linearGradient id="SVGID_62_" gradientUnits="userSpaceOnUse" x1="289.8604" y1="99.5703" x2="523.0812" y2="729.994"> <stop offset="0" style="stop-color:#E65A49"></stop> <stop offset="1" style="stop-color:#F89C2B"></stop> </linearGradient> <path class="st137" d="M300.5,137.5c-0.8,0-1.4-0.6-1.4-1.4s0.6-1.4,1.4-1.4h5.8c0.8,0,1.4,0.6,1.4,1.4s-0.6,1.4-1.4,1.4H300.5z"></path> <linearGradient id="SVGID_63_" gradientUnits="userSpaceOnUse" x1="299.1299" y1="96.1357" x2="532.3936" y2="726.6754"> <stop offset="0" style="stop-color:#E65A49"></stop> <stop offset="1" style="stop-color:#F89C2B"></stop> </linearGradient> <path class="st138" d="M311,137.5c-0.8,0-1.4-0.6-1.4-1.4s0.6-1.4,1.4-1.4h5.8c0.8,0,1.4,0.6,1.4,1.4s-0.6,1.4-1.4,1.4H311z"></path> </g> <g> <linearGradient id="SVGID_64_" gradientUnits="userSpaceOnUse" x1="417.9639" y1="52.0815" x2="651.2732" y2="682.7446"> <stop offset="0" style="stop-color:#E65A49"></stop> <stop offset="1" style="stop-color:#F89C2B"></stop> </linearGradient> <path class="st139" d="M624.2,619.7c-1.2,0-2.2-1-2.2-2.2v-15.7c0-1.2,1-2.3,2.2-2.3c1.2,0,2.3,1,2.3,2.3v15.7 C626.5,618.7,625.5,619.7,624.2,619.7z"></path> <linearGradient id="SVGID_65_" gradientUnits="userSpaceOnUse" x1="408.75" y1="55.6479" x2="642.0024" y2="686.1572"> <stop offset="0" style="stop-color:#E65A49"></stop> <stop offset="1" style="stop-color:#F89C2B"></stop> </linearGradient> <path class="st140" d="M624.2,648.2c-1.2,0-2.2-1-2.2-2.3v-15.7c0-1.2,1-2.2,2.2-2.2c1.2,0,2.3,1,2.3,2.2v15.7 C626.5,647.2,625.5,648.2,624.2,648.2z"></path> <linearGradient id="SVGID_66_" gradientUnits="userSpaceOnUse" x1="425.9219" y1="49.3442" x2="659.1575" y2="679.8078"> <stop offset="0" style="stop-color:#E65A49"></stop> <stop offset="1" style="stop-color:#F89C2B"></stop> </linearGradient> <path class="st141" d="M630.6,626.1c-1.2,0-2.3-1-2.3-2.3c0-1.2,1-2.3,2.3-2.3h15.7c1.2,0,2.3,1,2.3,2.3c0,1.2-1,2.3-2.3,2.3 H630.6z"></path> <linearGradient id="SVGID_67_" gradientUnits="userSpaceOnUse" x1="400.9111" y1="58.7075" x2="634.105" y2="689.0582"> <stop offset="0" style="stop-color:#E65A49"></stop> <stop offset="1" style="stop-color:#F89C2B"></stop> </linearGradient> <path class="st142" d="M602.1,626.1c-1.2,0-2.3-1-2.3-2.3c0-1.2,1-2.3,2.3-2.3h15.7c1.2,0,2.3,1,2.3,2.3c0,1.2-1,2.3-2.3,2.3 H602.1z"></path> <linearGradient id="SVGID_68_" gradientUnits="userSpaceOnUse" x1="456.7441" y1="37.873" x2="690.0034" y2="668.4006"> <stop offset="0" style="stop-color:#E65A49"></stop> <stop offset="1" style="stop-color:#F89C2B"></stop> </linearGradient> <path class="st143" d="M661.7,597c-0.8,0-1.5-0.7-1.5-1.5v-7c0-0.8,0.7-1.5,1.5-1.5c0.8,0,1.5,0.7,1.5,1.5v7 C663.2,596.3,662.6,597,661.7,597z"></path> <linearGradient id="SVGID_69_" gradientUnits="userSpaceOnUse" x1="452.5615" y1="39.3438" x2="685.8483" y2="669.9458"> <stop offset="0" style="stop-color:#E65A49"></stop> <stop offset="1" style="stop-color:#F89C2B"></stop> </linearGradient> <path class="st144" d="M661.7,609.8c-0.8,0-1.5-0.7-1.5-1.5v-7c0-0.8,0.7-1.5,1.5-1.5c0.8,0,1.5,0.7,1.5,1.5v7 C663.2,609.1,662.6,609.8,661.7,609.8z"></path> <linearGradient id="SVGID_70_" gradientUnits="userSpaceOnUse" x1="460.2852" y1="36.5684" x2="693.543" y2="667.092"> <stop offset="0" style="stop-color:#E65A49"></stop> <stop offset="1" style="stop-color:#F89C2B"></stop> </linearGradient> <path class="st145" d="M664.6,599.9c-0.8,0-1.5-0.7-1.5-1.5c0-0.8,0.7-1.5,1.5-1.5h7c0.8,0,1.5,0.7,1.5,1.5c0,0.8-0.7,1.5-1.5,1.5 H664.6z"></path> <linearGradient id="SVGID_71_" gradientUnits="userSpaceOnUse" x1="448.9814" y1="40.5435" x2="682.3151" y2="671.2722"> <stop offset="0" style="stop-color:#E65A49"></stop> <stop offset="1" style="stop-color:#F89C2B"></stop> </linearGradient> <path class="st146" d="M651.8,599.9c-0.8,0-1.5-0.7-1.5-1.5c0-0.8,0.7-1.5,1.5-1.5h7c0.8,0,1.5,0.7,1.5,1.5c0,0.8-0.7,1.5-1.5,1.5 H651.8z"></path> </g> <g> <linearGradient id="SVGID_72_" gradientUnits="userSpaceOnUse" x1="496.2041" y1="23.2271" x2="729.478" y2="653.7943"> <stop offset="0" style="stop-color:#E65A49"></stop> <stop offset="1" style="stop-color:#F89C2B"></stop> </linearGradient> <path class="st147" d="M533.6,134.5c-1.3,0-2.3-1-2.3-2.3v-16c0-1.3,1-2.3,2.3-2.3c1.3,0,2.3,1,2.3,2.3v16 C535.9,133.5,534.8,134.5,533.6,134.5z"></path> <linearGradient id="SVGID_73_" gradientUnits="userSpaceOnUse" x1="486.75" y1="26.7188" x2="720.0347" y2="657.3152"> <stop offset="0" style="stop-color:#E65A49"></stop> <stop offset="1" style="stop-color:#F89C2B"></stop> </linearGradient> <path class="st148" d="M533.6,163.6c-1.3,0-2.3-1-2.3-2.3v-16c0-1.3,1-2.3,2.3-2.3c1.3,0,2.3,1,2.3,2.3v16 C535.9,162.6,534.8,163.6,533.6,163.6z"></path> <linearGradient id="SVGID_74_" gradientUnits="userSpaceOnUse" x1="504.252" y1="20.2451" x2="737.5349" y2="650.8368"> <stop offset="0" style="stop-color:#E65A49"></stop> <stop offset="1" style="stop-color:#F89C2B"></stop> </linearGradient> <path class="st149" d="M540.1,141.1c-1.3,0-2.3-1-2.3-2.3c0-1.3,1-2.3,2.3-2.3h16c1.3,0,2.3,1,2.3,2.3c0,1.3-1,2.3-2.3,2.3H540.1z "></path> <linearGradient id="SVGID_75_" gradientUnits="userSpaceOnUse" x1="478.7031" y1="29.6958" x2="711.9879" y2="660.2925"> <stop offset="0" style="stop-color:#E65A49"></stop> <stop offset="1" style="stop-color:#F89C2B"></stop> </linearGradient> <path class="st150" d="M511.1,141.1c-1.3,0-2.3-1-2.3-2.3c0-1.3,1-2.3,2.3-2.3h16c1.3,0,2.3,1,2.3,2.3c0,1.3-1,2.3-2.3,2.3H511.1z "></path> <linearGradient id="SVGID_76_" gradientUnits="userSpaceOnUse" x1="541.9844" y1="6.272" x2="775.3026" y2="636.959"> <stop offset="0" style="stop-color:#E65A49"></stop> <stop offset="1" style="stop-color:#F89C2B"></stop> </linearGradient> <path class="st151" d="M574.2,98.3c-0.8,0-1.5-0.7-1.5-1.5v-7.2c0-0.8,0.7-1.5,1.5-1.5s1.5,0.7,1.5,1.5v7.2 C575.7,97.7,575,98.3,574.2,98.3z"></path> <linearGradient id="SVGID_77_" gradientUnits="userSpaceOnUse" x1="537.751" y1="7.8594" x2="771.0249" y2="638.4266"> <stop offset="0" style="stop-color:#E65A49"></stop> <stop offset="1" style="stop-color:#F89C2B"></stop> </linearGradient> <path class="st152" d="M574.2,111.4c-0.8,0-1.5-0.7-1.5-1.5v-7.2c0-0.8,0.7-1.5,1.5-1.5s1.5,0.7,1.5,1.5v7.2 C575.7,110.7,575,111.4,574.2,111.4z"></path> <linearGradient id="SVGID_78_" gradientUnits="userSpaceOnUse" x1="545.6055" y1="4.958" x2="778.8677" y2="635.4935"> <stop offset="0" style="stop-color:#E65A49"></stop> <stop offset="1" style="stop-color:#F89C2B"></stop> </linearGradient> <path class="st153" d="M577.1,101.3c-0.8,0-1.5-0.7-1.5-1.5c0-0.8,0.7-1.5,1.5-1.5h7.2c0.8,0,1.5,0.7,1.5,1.5 c0,0.8-0.7,1.5-1.5,1.5H577.1z"></path> <linearGradient id="SVGID_79_" gradientUnits="userSpaceOnUse" x1="534.1475" y1="9.2124" x2="767.3722" y2="639.6466"> <stop offset="0" style="stop-color:#E65A49"></stop> <stop offset="1" style="stop-color:#F89C2B"></stop> </linearGradient> <path class="st154" d="M564,101.3c-0.8,0-1.5-0.7-1.5-1.5c0-0.8,0.7-1.5,1.5-1.5h7.2c0.8,0,1.5,0.7,1.5,1.5c0,0.8-0.7,1.5-1.5,1.5 H564z"></path> <linearGradient id="SVGID_80_" gradientUnits="userSpaceOnUse" x1="449.9404" y1="40.3276" x2="683.2573" y2="671.0109"> <stop offset="0" style="stop-color:#E65A49"></stop> <stop offset="1" style="stop-color:#F89C2B"></stop> </linearGradient> <path class="st155" d="M477.4,118.2c-0.7,0-1.3-0.6-1.3-1.3v-4.6c0-0.7,0.6-1.3,1.3-1.3c0.7,0,1.3,0.6,1.3,1.3v4.6 C478.7,117.6,478.1,118.2,477.4,118.2z"></path> <linearGradient id="SVGID_81_" gradientUnits="userSpaceOnUse" x1="447.2402" y1="41.3232" x2="680.5571" y2="672.0065"> <stop offset="0" style="stop-color:#E65A49"></stop> <stop offset="1" style="stop-color:#F89C2B"></stop> </linearGradient> <path class="st156" d="M477.4,126.5c-0.7,0-1.3-0.6-1.3-1.3v-4.6c0-0.7,0.6-1.3,1.3-1.3c0.7,0,1.3,0.6,1.3,1.3v4.6 C478.7,125.9,478.1,126.5,477.4,126.5z"></path> <linearGradient id="SVGID_82_" gradientUnits="userSpaceOnUse" x1="452.249" y1="39.5078" x2="685.4709" y2="669.9344"> <stop offset="0" style="stop-color:#E65A49"></stop> <stop offset="1" style="stop-color:#F89C2B"></stop> </linearGradient> <path class="st157" d="M479.3,120.1c-0.7,0-1.3-0.6-1.3-1.3c0-0.7,0.6-1.3,1.3-1.3h4.6c0.7,0,1.3,0.6,1.3,1.3 c0,0.7-0.6,1.3-1.3,1.3H479.3z"></path> <linearGradient id="SVGID_83_" gradientUnits="userSpaceOnUse" x1="444.96" y1="42.2222" x2="678.1324" y2="672.5151"> <stop offset="0" style="stop-color:#E65A49"></stop> <stop offset="1" style="stop-color:#F89C2B"></stop> </linearGradient> <path class="st158" d="M471,120.1c-0.7,0-1.3-0.6-1.3-1.3c0-0.7,0.6-1.3,1.3-1.3h4.6c0.7,0,1.3,0.6,1.3,1.3c0,0.7-0.6,1.3-1.3,1.3 H471z"></path> </g> <g> <linearGradient id="SVGID_84_" gradientUnits="userSpaceOnUse" x1="158.4141" y1="148.3975" x2="391.6107" y2="778.7557"> <stop offset="0" style="stop-color:#E65A49"></stop> <stop offset="1" style="stop-color:#F89C2B"></stop> </linearGradient> <path class="st159" d="M350,682.4c-1,0-1.8-0.8-1.8-1.8c0-1,0.8-1.8,1.8-1.8h10.6c1,0,1.8,0.8,1.8,1.8c0,1-0.8,1.8-1.8,1.8H350z"></path> <linearGradient id="SVGID_85_" gradientUnits="userSpaceOnUse" x1="175.2979" y1="141.8574" x2="408.6076" y2="772.5216"> <stop offset="0" style="stop-color:#E65A49"></stop> <stop offset="1" style="stop-color:#F89C2B"></stop> </linearGradient> <path class="st160" d="M369.3,682.4c-1,0-1.8-0.8-1.8-1.8c0-1,0.8-1.8,1.8-1.8h10.6c1,0,1.8,0.8,1.8,1.8c0,1-0.8,1.8-1.8,1.8 H369.3z"></path> <linearGradient id="SVGID_86_" gradientUnits="userSpaceOnUse" x1="169.9761" y1="143.9072" x2="403.2545" y2="774.4867"> <stop offset="0" style="stop-color:#E65A49"></stop> <stop offset="1" style="stop-color:#F89C2B"></stop> </linearGradient> <path class="st161" d="M365,678.1c-1,0-1.8-0.8-1.8-1.8v-10.6c0-1,0.8-1.8,1.8-1.8s1.8,0.8,1.8,1.8v10.6 C366.8,677.3,366,678.1,365,678.1z"></path> <linearGradient id="SVGID_87_" gradientUnits="userSpaceOnUse" x1="163.6978" y1="146.2388" x2="396.973" y2="776.8095"> <stop offset="0" style="stop-color:#E65A49"></stop> <stop offset="1" style="stop-color:#F89C2B"></stop> </linearGradient> <path class="st162" d="M365,697.4c-1,0-1.8-0.8-1.8-1.8v-10.6c0-1,0.8-1.8,1.8-1.8s1.8,0.8,1.8,1.8v10.6 C366.8,696.6,366,697.4,365,697.4z"></path> <linearGradient id="SVGID_88_" gradientUnits="userSpaceOnUse" x1="191.2773" y1="135.8271" x2="424.6299" y2="766.6071"> <stop offset="0" style="stop-color:#E65A49"></stop> <stop offset="1" style="stop-color:#F89C2B"></stop> </linearGradient> <path class="st163" d="M394.2,694.5c-0.8,0-1.5-0.7-1.5-1.5c0-0.8,0.7-1.5,1.5-1.5h6.5c0.8,0,1.5,0.7,1.5,1.5 c0,0.8-0.7,1.5-1.5,1.5H394.2z"></path> <linearGradient id="SVGID_89_" gradientUnits="userSpaceOnUse" x1="201.6357" y1="132.1128" x2="434.9443" y2="762.7737"> <stop offset="0" style="stop-color:#E65A49"></stop> <stop offset="1" style="stop-color:#F89C2B"></stop> </linearGradient> <path class="st164" d="M405.9,694.5c-0.8,0-1.5-0.7-1.5-1.5c0-0.8,0.7-1.5,1.5-1.5h6.5c0.8,0,1.5,0.7,1.5,1.5 c0,0.8-0.7,1.5-1.5,1.5H405.9z"></path> <linearGradient id="SVGID_90_" gradientUnits="userSpaceOnUse" x1="198.4375" y1="133.4604" x2="431.6858" y2="763.9583"> <stop offset="0" style="stop-color:#E65A49"></stop> <stop offset="1" style="stop-color:#F89C2B"></stop> </linearGradient> <path class="st165" d="M403.3,691.9c-0.8,0-1.5-0.7-1.5-1.5V684c0-0.8,0.7-1.5,1.5-1.5c0.8,0,1.5,0.7,1.5,1.5v6.5 C404.8,691.2,404.1,691.9,403.3,691.9z"></path> <linearGradient id="SVGID_91_" gradientUnits="userSpaceOnUse" x1="194.5332" y1="134.6416" x2="427.8783" y2="765.4013"> <stop offset="0" style="stop-color:#E65A49"></stop> <stop offset="1" style="stop-color:#F89C2B"></stop> </linearGradient> <path class="st166" d="M403.3,703.6c-0.8,0-1.5-0.7-1.5-1.5v-6.5c0-0.8,0.7-1.5,1.5-1.5c0.8,0,1.5,0.7,1.5,1.5v6.5 C404.8,703,404.1,703.6,403.3,703.6z"></path> <linearGradient id="SVGID_92_" gradientUnits="userSpaceOnUse" x1="140.9092" y1="154.4883" x2="374.2496" y2="785.2352"> <stop offset="0" style="stop-color:#E65A49"></stop> <stop offset="1" style="stop-color:#F89C2B"></stop> </linearGradient> <path class="st167" d="M349.5,726.1c-0.7,0-1.3-0.6-1.3-1.3c0-0.7,0.6-1.3,1.3-1.3h4.8c0.7,0,1.3,0.6,1.3,1.3 c0,0.7-0.6,1.3-1.3,1.3H349.5z"></path> <linearGradient id="SVGID_93_" gradientUnits="userSpaceOnUse" x1="148.5664" y1="151.7769" x2="381.8632" y2="782.4058"> <stop offset="0" style="stop-color:#E65A49"></stop> <stop offset="1" style="stop-color:#F89C2B"></stop> </linearGradient> <path class="st168" d="M358.1,726.1c-0.7,0-1.3-0.6-1.3-1.3c0-0.7,0.6-1.3,1.3-1.3h4.8c0.7,0,1.3,0.6,1.3,1.3 c0,0.7-0.6,1.3-1.3,1.3H358.1z"></path> <linearGradient id="SVGID_94_" gradientUnits="userSpaceOnUse" x1="146.144" y1="152.604" x2="379.4659" y2="783.3007"> <stop offset="0" style="stop-color:#E65A49"></stop> <stop offset="1" style="stop-color:#F89C2B"></stop> </linearGradient> <path class="st169" d="M356.2,724.1c-0.7,0-1.3-0.6-1.3-1.3V718c0-0.7,0.6-1.3,1.3-1.3s1.3,0.6,1.3,1.3v4.8 C357.5,723.5,356.9,724.1,356.2,724.1z"></path> <linearGradient id="SVGID_95_" gradientUnits="userSpaceOnUse" x1="143.3789" y1="153.7891" x2="376.6422" y2="784.3276"> <stop offset="0" style="stop-color:#E65A49"></stop> <stop offset="1" style="stop-color:#F89C2B"></stop> </linearGradient> <path class="st170" d="M356.2,732.8c-0.7,0-1.3-0.6-1.3-1.3v-4.8c0-0.7,0.6-1.3,1.3-1.3s1.3,0.6,1.3,1.3v4.8 C357.5,732.2,356.9,732.8,356.2,732.8z"></path> </g> <g> <linearGradient id="SVGID_96_" gradientUnits="userSpaceOnUse" x1="398.0498" y1="59.5352" x2="631.3288" y2="690.1161"> <stop offset="0" style="stop-color:#E65A49"></stop> <stop offset="1" style="stop-color:#F89C2B"></stop> </linearGradient> <path class="st171" d="M553,496.6l-3.1-7.5c-5.6,1.1-11.4,1.1-17,0l-3.1,7.5l-15.2-6.3l3.1-7.5c-4.7-3.1-8.8-7.3-12-12l-7.5,3.1 l-6.3-15.3l7.5-3.1c-1.1-5.6-1.1-11.4,0-17l-7.5-3.1l6.3-15.2l7.5,3.1c3.1-4.7,7.3-8.8,12-12l-3.1-7.5l15.3-6.3l3.1,7.5 c5.6-1.1,11.4-1.1,17,0l3.1-7.5l15.2,6.3l-3.1,7.5c4.7,3.1,8.8,7.3,12,12l7.5-3.1l6.3,15.3l-7.5,3.1c1.1,5.6,1.1,11.4,0,17 l7.5,3.1l-6.3,15.2l-7.5-3.1c-3.1,4.7-7.3,8.8-12,12l3.1,7.5L553,496.6z M551.6,485.7l2.9,7.1l10-4.1l-2.9-7.1l1-0.6 c5.2-3.2,9.6-7.6,12.8-12.7l0.6-1l7.1,3l4.1-9.9l-7.1-3l0.3-1.2c1.4-5.9,1.4-12.1,0-18l-0.3-1.2l7.1-2.9l-4.1-10l-7.1,2.9l-0.6-1 c-3.2-5.2-7.6-9.6-12.7-12.8l-1-0.6l3-7.1l-9.9-4.1l-3,7.1l-1.2-0.3c-5.9-1.4-12.1-1.4-18,0l-1.2,0.3l-2.9-7.1l-10,4.1l2.9,7.1 l-1,0.6c-5.2,3.2-9.6,7.6-12.8,12.7l-0.6,1l-7.1-3l-4.1,9.9l7.1,3l-0.3,1.2c-1.4,5.9-1.4,12.1,0,18l0.3,1.2l-7.1,2.9l4.1,10 l7.1-2.9l0.6,1c3.2,5.1,7.6,9.6,12.7,12.8l1,0.6l-3,7.1l9.9,4.1l3-7.1l1.2,0.3c5.9,1.4,12.1,1.4,18,0L551.6,485.7z M541.4,479 c-4.2,0-8.3-0.8-12.2-2.5c-2.2-0.9-4.2-2-6.2-3.4l-1.4-1l16.7-16.7l0.8,0.2c1.5,0.4,3.1,0.4,4.6,0l0.8-0.2l16.7,16.7l-1.4,1 C554.4,477,548,479,541.4,479z M526.1,471.8c1.3,0.8,2.7,1.6,4.2,2.2c3.6,1.5,7.3,2.2,11.1,2.2c5.5,0,10.7-1.5,15.4-4.4 l-13.1-13.1c-1.5,0.3-3,0.3-4.5,0L526.1,471.8z M566.5,466.9l-16.7-16.7l0.2-0.8c0.4-1.5,0.4-3.1,0-4.6l-0.2-0.8l16.7-16.7l1,1.4 c6.4,9,7.6,20.5,3.4,30.7c-0.9,2.2-2,4.2-3.4,6.2L566.5,466.9z M553,449.3l13.1,13.1c0.8-1.3,1.6-2.7,2.2-4.2 c3.6-8.7,2.8-18.5-2.2-26.5L553,444.8C553.3,446.3,553.3,447.8,553,449.3z M516.3,466.9l-1-1.4c-6.4-9-7.6-20.5-3.4-30.7 c0.9-2.2,2-4.2,3.4-6.2l1-1.4l16.7,16.7l-0.2,0.8c-0.4,1.5-0.4,3.1,0,4.6l0.2,0.8L516.3,466.9z M516.7,431.7 c-0.8,1.3-1.5,2.7-2.1,4.2c-3.6,8.7-2.8,18.5,2.1,26.5l13.1-13.1c-0.3-1.5-0.3-3,0-4.5L516.7,431.7z M541.4,452.6 c-3.1,0-5.5-2.5-5.5-5.5s2.5-5.5,5.5-5.5s5.5,2.5,5.5,5.5S544.5,452.6,541.4,452.6z M541.4,444.4c-1.5,0-2.7,1.2-2.7,2.7 c0,1.5,1.2,2.7,2.7,2.7c1.5,0,2.7-1.2,2.7-2.7C544.1,445.6,542.9,444.4,541.4,444.4z M544.5,438.6l-0.8-0.2 c-1.5-0.4-3.1-0.4-4.6,0l-0.8,0.2l-16.7-16.7l1.4-1c5.4-3.8,11.8-5.8,18.4-5.8c4.2,0,8.3,0.8,12.2,2.4c2.2,0.9,4.2,2,6.2,3.4 l1.4,1L544.5,438.6z M541.4,435.2c0.8,0,1.5,0.1,2.2,0.2l13.1-13.1c-1.3-0.8-2.7-1.6-4.2-2.2c-3.6-1.5-7.3-2.2-11.1-2.2 c-5.5,0-10.7,1.5-15.4,4.4l13.1,13.1C539.9,435.3,540.7,435.2,541.4,435.2z"></path> </g> <g> <g> <g> <linearGradient id="SVGID_97_" gradientUnits="userSpaceOnUse" x1="272.1445" y1="106.1133" x2="505.424" y2="736.6954"> <stop offset="0" style="stop-color:#E65A49"></stop> <stop offset="1" style="stop-color:#F89C2B"></stop> </linearGradient> <rect x="393.6" y="415.9" class="st172" width="3.9" height="47.7"></rect> </g> <g> <linearGradient id="SVGID_98_" gradientUnits="userSpaceOnUse" x1="277.4805" y1="104.1416" x2="510.7584" y2="734.7195"> <stop offset="0" style="stop-color:#E65A49"></stop> <stop offset="1" style="stop-color:#F89C2B"></stop> </linearGradient> <polygon class="st173" points="390.8,467 319.4,423.4 347.1,384.2 395.6,354.6 444.1,384.2 471.7,423.4 400.3,467 398.3,463.7 466.2,422.2 441.4,387.1 395.6,359.1 349.8,387.1 325,422.2 392.9,463.7 "></polygon> </g> <g> <linearGradient id="SVGID_99_" gradientUnits="userSpaceOnUse" x1="288.8989" y1="99.9204" x2="522.1746" y2="730.4924"> <stop offset="0" style="stop-color:#E65A49"></stop> <stop offset="1" style="stop-color:#F89C2B"></stop> </linearGradient> <polygon class="st174" points="395.6,418.2 346.7,388.3 348.7,385 395.6,413.6 442.4,385 444.5,388.3 "></polygon> </g> <g> <g> <g> <linearGradient id="SVGID_100_" gradientUnits="userSpaceOnUse" x1="312.0488" y1="91.4688" x2="545.2213" y2="721.7616"> <stop offset="0" style="stop-color:#E65A49"></stop> <stop offset="1" style="stop-color:#F89C2B"></stop> </linearGradient> <rect x="393.6" y="316.1" class="st1" width="3.9" height="2.4"></rect> </g> <g> <linearGradient id="SVGID_101_" gradientUnits="userSpaceOnUse" x1="300.5562" y1="95.6035" x2="533.8345" y2="726.1828"> <stop offset="0" style="stop-color:#E65A49"></stop> <stop offset="1" style="stop-color:#F89C2B"></stop> </linearGradient> <path class="st2" d="M397.5,381.9h-3.9v-4.5h3.9V381.9z M397.5,372.9h-3.9v-4.5h3.9V372.9z M397.5,363.8h-3.9v-4.5h3.9V363.8z M397.5,354.7h-3.9v-4.5h3.9V354.7z M397.5,345.7h-3.9v-4.5h3.9V345.7z M397.5,336.6h-3.9v-4.5h3.9V336.6z M397.5,327.6h-3.9 V323h3.9V327.6z"></path> </g> <g> <linearGradient id="SVGID_102_" gradientUnits="userSpaceOnUse" x1="289.166" y1="100.0127" x2="522.3049" y2="730.2148"> <stop offset="0" style="stop-color:#E65A49"></stop> <stop offset="1" style="stop-color:#F89C2B"></stop> </linearGradient> <rect x="393.6" y="386.5" class="st3" width="3.9" height="2.4"></rect> </g> </g> <g> <g> <linearGradient id="SVGID_103_" gradientUnits="userSpaceOnUse" x1="327.2393" y1="85.7212" x2="560.5258" y2="716.3225"> <stop offset="0" style="stop-color:#E65A49"></stop> <stop offset="1" style="stop-color:#F89C2B"></stop> </linearGradient> <polygon class="st4" points="430.4,369.9 428.4,366.6 428.7,366.4 428.5,366.1 431.7,363.9 434.3,367.5 "></polygon> </g> <g> <linearGradient id="SVGID_104_" gradientUnits="userSpaceOnUse" x1="308.0547" y1="92.8271" x2="541.3336" y2="723.4078"> <stop offset="0" style="stop-color:#E65A49"></stop> <stop offset="1" style="stop-color:#F89C2B"></stop> </linearGradient> <path class="st5" d="M403.2,386.5l-2-3.3l4.5-2.8l2,3.3L403.2,386.5z M412.3,381l-2-3.3l4.5-2.8l2,3.3L412.3,381z M421.3,375.4l-2-3.3l4.5-2.8l2,3.3L421.3,375.4z"></path> </g> <g> <linearGradient id="SVGID_105_" gradientUnits="userSpaceOnUse" x1="288.5767" y1="100.0254" x2="521.861" y2="730.6208"> <stop offset="0" style="stop-color:#E65A49"></stop> <stop offset="1" style="stop-color:#F89C2B"></stop> </linearGradient> <polygon class="st6" points="395.6,391.2 392.5,389.3 394.5,386 395.6,386.6 396.6,386 398.7,389.3 "></polygon> </g> <g> <linearGradient id="SVGID_106_" gradientUnits="userSpaceOnUse" x1="276.5039" y1="104.5234" x2="509.764" y2="735.0533"> <stop offset="0" style="stop-color:#E65A49"></stop> <stop offset="1" style="stop-color:#F89C2B"></stop> </linearGradient> <path class="st7" d="M388,386.5l-4.5-2.8l2-3.3l4.5,2.8L388,386.5z M378.9,381l-4.5-2.8l2-3.3l4.5,2.8L378.9,381z M369.8,375.4l-4.5-2.8l2-3.3l4.5,2.8L369.8,375.4z"></path> </g> <g> <linearGradient id="SVGID_107_" gradientUnits="userSpaceOnUse" x1="264.4048" y1="108.9473" x2="497.7069" y2="739.5907"> <stop offset="0" style="stop-color:#E65A49"></stop> <stop offset="1" style="stop-color:#F89C2B"></stop> </linearGradient> <polygon class="st8" points="360.8,369.9 356.9,367.5 359.5,363.9 362.7,366.1 362.5,366.4 362.8,366.6 "></polygon> </g> <g> <linearGradient id="SVGID_108_" gradientUnits="userSpaceOnUse" x1="288.3467" y1="100.125" x2="521.6224" y2="730.697"> <stop offset="0" style="stop-color:#E65A49"></stop> <stop offset="1" style="stop-color:#F89C2B"></stop> </linearGradient> <path class="st9" d="M365.7,361.8l-3.2-2.2l3-4.3l3.2,2.2L365.7,361.8z M371.7,353.3l-3.2-2.2l3-4.3l3.2,2.2L371.7,353.3z M377.7,344.8l-3.2-2.2l3-4.3l3.2,2.2L377.7,344.8z M383.7,336.2l-3.2-2.2l3-4.3l3.2,2.2L383.7,336.2z M389.8,327.7l-3.2-2.2 l3-4.3l3.2,2.2L389.8,327.7z"></path> </g> <g> <linearGradient id="SVGID_109_" gradientUnits="userSpaceOnUse" x1="312.0894" y1="91.2383" x2="545.4578" y2="722.061"> <stop offset="0" style="stop-color:#E65A49"></stop> <stop offset="1" style="stop-color:#F89C2B"></stop> </linearGradient> <polygon class="st10" points="395.8,319.2 395.6,319 395.4,319.2 395,318.6 392.6,316.9 395.6,312.7 398.6,316.9 396.1,318.6 "></polygon> </g> <g> <linearGradient id="SVGID_110_" gradientUnits="userSpaceOnUse" x1="319.9063" y1="88.4443" x2="553.1848" y2="719.024"> <stop offset="0" style="stop-color:#E65A49"></stop> <stop offset="1" style="stop-color:#F89C2B"></stop> </linearGradient> <path class="st11" d="M425.5,361.8l-3-4.3l3.2-2.2l3,4.3L425.5,361.8z M419.5,353.3l-3-4.3l3.2-2.2l3,4.3L419.5,353.3z M413.4,344.8l-3-4.3l3.2-2.2l3,4.3L413.4,344.8z M407.4,336.2l-3-4.3l3.2-2.2l3,4.3L407.4,336.2z M401.4,327.7l-3-4.3 l3.2-2.2l3,4.3L401.4,327.7z"></path> </g> </g> </g> </g> <g> <g> <linearGradient id="SVGID_111_" gradientUnits="userSpaceOnUse" x1="286.4932" y1="100.8594" x2="519.7418" y2="731.3582"> <stop offset="0" style="stop-color:#E65A49"></stop> <stop offset="1" style="stop-color:#F89C2B"></stop> </linearGradient> <rect x="400.5" y="466.6" class="st12" width="44" height="3.9"></rect> </g> <g> <linearGradient id="SVGID_112_" gradientUnits="userSpaceOnUse" x1="239.0825" y1="118.3374" x2="472.3648" y2="748.9273"> <stop offset="0" style="stop-color:#E65A49"></stop> <stop offset="1" style="stop-color:#F89C2B"></stop> </linearGradient> <rect x="346.6" y="466.6" class="st13" width="44" height="3.9"></rect> </g> <g> <g> <linearGradient id="SVGID_113_" gradientUnits="userSpaceOnUse" x1="310.1963" y1="92.0991" x2="543.4395" y2="722.5834"> <stop offset="0" style="stop-color:#E65A49"></stop> <stop offset="1" style="stop-color:#F89C2B"></stop> </linearGradient> <path class="st14" d="M449.5,475.4c-3.8,0-6.9-3.1-6.9-6.9c0-3.8,3.1-6.9,6.9-6.9c3.8,0,6.9,3.1,6.9,6.9 C456.3,472.3,453.3,475.4,449.5,475.4z M449.5,465.6c-1.6,0-3,1.3-3,3s1.3,3,3,3c1.6,0,3-1.3,3-3S451.1,465.6,449.5,465.6z"></path> </g> <g> <linearGradient id="SVGID_114_" gradientUnits="userSpaceOnUse" x1="215.3901" y1="127.1157" x2="448.6639" y2="757.6824"> <stop offset="0" style="stop-color:#E65A49"></stop> <stop offset="1" style="stop-color:#F89C2B"></stop> </linearGradient> <path class="st15" d="M341.7,475.4c-3.8,0-6.9-3.1-6.9-6.9c0-3.8,3.1-6.9,6.9-6.9c3.8,0,6.9,3.1,6.9,6.9 C348.6,472.3,345.5,475.4,341.7,475.4z M341.7,465.6c-1.6,0-3,1.3-3,3s1.3,3,3,3c1.6,0,3-1.3,3-3S343.3,465.6,341.7,465.6z"></path> </g> </g> <g> <linearGradient id="SVGID_115_" gradientUnits="userSpaceOnUse" x1="262.7852" y1="109.582" x2="496.0589" y2="740.1487"> <stop offset="0" style="stop-color:#E65A49"></stop> <stop offset="1" style="stop-color:#F89C2B"></stop> </linearGradient> <path class="st16" d="M395.6,475.4c-3.8,0-6.9-3.1-6.9-6.9c0-3.8,3.1-6.9,6.9-6.9c3.8,0,6.9,3.1,6.9,6.9 C402.5,472.3,399.4,475.4,395.6,475.4z M395.6,465.6c-1.6,0-3,1.3-3,3s1.3,3,3,3c1.6,0,3-1.3,3-3S397.2,465.6,395.6,465.6z"></path> </g> </g> <g> <g> <g> <linearGradient id="SVGID_116_" gradientUnits="userSpaceOnUse" x1="254.1943" y1="112.7539" x2="487.4722" y2="743.3319"> <stop offset="0" style="stop-color:#E65A49"></stop> <stop offset="1" style="stop-color:#F89C2B"></stop> </linearGradient> <path class="st17" d="M432.2,503.4h-90.4v-16.5h90.4l20.3,8.2L432.2,503.4z M345.7,499.6h85.7l10.7-4.4l-10.7-4.4h-85.7V499.6z "></path> </g> <g> <linearGradient id="SVGID_117_" gradientUnits="userSpaceOnUse" x1="221.1069" y1="124.9341" x2="454.4184" y2="755.6027"> <stop offset="0" style="stop-color:#E65A49"></stop> <stop offset="1" style="stop-color:#F89C2B"></stop> </linearGradient> <rect x="356.1" y="488.9" class="st18" width="3.9" height="12.6"></rect> </g> <g> <linearGradient id="SVGID_118_" gradientUnits="userSpaceOnUse" x1="235.5342" y1="119.6533" x2="468.8141" y2="750.2368"> <stop offset="0" style="stop-color:#E65A49"></stop> <stop offset="1" style="stop-color:#F89C2B"></stop> </linearGradient> <rect x="372.5" y="488.9" class="st19" width="3.9" height="12.6"></rect> </g> <g> <linearGradient id="SVGID_119_" gradientUnits="userSpaceOnUse" x1="282.7568" y1="102.2104" x2="516.0226" y2="732.7556"> <stop offset="0" style="stop-color:#E65A49"></stop> <stop offset="1" style="stop-color:#F89C2B"></stop> </linearGradient> <rect x="426.2" y="488.9" class="st20" width="3.9" height="12.6"></rect> </g> </g> <g> <g> <linearGradient id="SVGID_120_" gradientUnits="userSpaceOnUse" x1="226.6963" y1="122.7744" x2="460.0593" y2="753.5824"> <stop offset="0" style="stop-color:#E65A49"></stop> <stop offset="1" style="stop-color:#F89C2B"></stop> </linearGradient> <rect x="362.9" y="492.8" class="st21" width="2.8" height="3.9"></rect> </g> </g> </g> </g> <g> <g> <g> <linearGradient id="SVGID_121_" gradientUnits="userSpaceOnUse" x1="472.4609" y1="31.9614" x2="705.7806" y2="662.6524"> <stop offset="0" style="stop-color:#E65A49"></stop> <stop offset="1" style="stop-color:#F89C2B"></stop> </linearGradient> <rect x="556.1" y="259.6" class="st22" width="3.9" height="7.4"></rect> </g> <g> <linearGradient id="SVGID_122_" gradientUnits="userSpaceOnUse" x1="465.998" y1="34.3481" x2="699.3177" y2="665.0391"> <stop offset="0" style="stop-color:#E65A49"></stop> <stop offset="1" style="stop-color:#F89C2B"></stop> </linearGradient> <rect x="556.1" y="279.5" class="st23" width="3.9" height="7.4"></rect> </g> <g> <linearGradient id="SVGID_123_" gradientUnits="userSpaceOnUse" x1="477.4492" y1="30.0908" x2="710.7874" y2="660.8318"> <stop offset="0" style="stop-color:#E65A49"></stop> <stop offset="1" style="stop-color:#F89C2B"></stop> </linearGradient> <rect x="564.3" y="271.3" class="st24" width="6.2" height="3.9"></rect> </g> <g> <linearGradient id="SVGID_124_" gradientUnits="userSpaceOnUse" x1="461.0078" y1="36.2148" x2="694.3138" y2="666.8688"> <stop offset="0" style="stop-color:#E65A49"></stop> <stop offset="1" style="stop-color:#F89C2B"></stop> </linearGradient> <rect x="545.6" y="271.3" class="st25" width="6.2" height="3.9"></rect> </g> </g> <g> <linearGradient id="SVGID_125_" gradientUnits="userSpaceOnUse" x1="488.8594" y1="25.9453" x2="722.1357" y2="656.5191"> <stop offset="0" style="stop-color:#E65A49"></stop> <stop offset="1" style="stop-color:#F89C2B"></stop> </linearGradient> <path class="st26" d="M601.8,328.5l-14.3-14.3l-6.4,10.7l-11.9-38.7l38.7,11.9l-10.7,6.4l14.3,14.3L601.8,328.5z M586.7,307.9 l15.1,15.1l4.2-4.2l-15.1-15.1l7.5-4.5l-23.3-7.2l7.2,23.3L586.7,307.9z"></path> </g> </g> <g> <g> <g> <linearGradient id="SVGID_126_" gradientUnits="userSpaceOnUse" x1="543.7617" y1="5.6309" x2="777.0409" y2="636.2122"> <stop offset="0" style="stop-color:#E65A49"></stop> <stop offset="1" style="stop-color:#F89C2B"></stop> </linearGradient> <path class="st27" d="M637.7,260.5h-10.4v-30h10.4V260.5z M631.2,256.7h2.6v-22.2h-2.6V256.7z"></path> </g> <g> <linearGradient id="SVGID_127_" gradientUnits="userSpaceOnUse" x1="553.584" y1="1.9888" x2="786.868" y2="632.5835"> <stop offset="0" style="stop-color:#E65A49"></stop> <stop offset="1" style="stop-color:#F89C2B"></stop> </linearGradient> <path class="st28" d="M650.3,260.5h-10.4V238h10.4V260.5z M643.8,256.7h2.6v-14.7h-2.6V256.7z"></path> </g> <g> <linearGradient id="SVGID_128_" gradientUnits="userSpaceOnUse" x1="567.1123" y1="-3" x2="800.3851" y2="627.5641"> <stop offset="0" style="stop-color:#E65A49"></stop> <stop offset="1" style="stop-color:#F89C2B"></stop> </linearGradient> <path class="st29" d="M662.8,260.5h-10.4v-37.7h10.4V260.5z M656.3,256.7h2.6v-29.9h-2.6V256.7z"></path> </g> <g> <linearGradient id="SVGID_129_" gradientUnits="userSpaceOnUse" x1="579.5781" y1="-7.6211" x2="812.8575" y2="622.9608"> <stop offset="0" style="stop-color:#E65A49"></stop> <stop offset="1" style="stop-color:#F89C2B"></stop> </linearGradient> <path class="st30" d="M675.4,260.5H665v-46.4h10.4V260.5z M668.9,256.7h2.6V218h-2.6V256.7z"></path> </g> </g> <g> <linearGradient id="SVGID_130_" gradientUnits="userSpaceOnUse" x1="559.5977" y1="-0.2178" x2="792.8685" y2="630.341"> <stop offset="0" style="stop-color:#E65A49"></stop> <stop offset="1" style="stop-color:#F89C2B"></stop> </linearGradient> <polygon class="st31" points="683.4,260.5 627.3,260.5 627.3,215.8 631.2,215.8 631.2,256.7 683.4,256.7 "></polygon> </g> </g> <g> <g> <g> <linearGradient id="SVGID_131_" gradientUnits="userSpaceOnUse" x1="226.4897" y1="122.9971" x2="459.7697" y2="753.5806"> <stop offset="0" style="stop-color:#E65A49"></stop> <stop offset="1" style="stop-color:#F89C2B"></stop> </linearGradient> <path class="st32" d="M447,666.5h-57.8v-51.3H447V666.5z M393,662.6h50.1v-43.6H393V662.6z"></path> </g> <g> <linearGradient id="SVGID_132_" gradientUnits="userSpaceOnUse" x1="233.2983" y1="120.5083" x2="466.5667" y2="751.0604"> <stop offset="0" style="stop-color:#E65A49"></stop> <stop offset="1" style="stop-color:#F89C2B"></stop> </linearGradient> <rect x="397.5" y="626.7" class="st33" width="47.5" height="3.9"></rect> </g> <g> <g> <linearGradient id="SVGID_133_" gradientUnits="userSpaceOnUse" x1="243.2314" y1="116.7603" x2="476.5293" y2="747.3922"> <stop offset="0" style="stop-color:#E65A49"></stop> <stop offset="1" style="stop-color:#F89C2B"></stop> </linearGradient> <path class="st34" d="M432.3,622.9c0,1-0.8,1.8-1.8,1.8c-1,0-1.8-0.8-1.8-1.8c0-1,0.8-1.8,1.8-1.8 C431.5,621.1,432.3,621.9,432.3,622.9z"></path> </g> <g> <linearGradient id="SVGID_134_" gradientUnits="userSpaceOnUse" x1="250.5122" y1="114.2227" x2="483.7473" y2="744.685"> <stop offset="0" style="stop-color:#E65A49"></stop> <stop offset="1" style="stop-color:#F89C2B"></stop> </linearGradient> <path class="st35" d="M440.5,622.9c0,1-0.8,1.8-1.8,1.8c-1,0-1.8-0.8-1.8-1.8c0-1,0.8-1.8,1.8-1.8 C439.7,621.1,440.5,621.9,440.5,622.9z"></path> </g> <g> <linearGradient id="SVGID_135_" gradientUnits="userSpaceOnUse" x1="235.9619" y1="119.3242" x2="469.3113" y2="750.0955"> <stop offset="0" style="stop-color:#E65A49"></stop> <stop offset="1" style="stop-color:#F89C2B"></stop> </linearGradient> <path class="st36" d="M424.1,622.9c0,1-0.8,1.8-1.8,1.8c-1,0-1.8-0.8-1.8-1.8c0-1,0.8-1.8,1.8-1.8 C423.3,621.1,424.1,621.9,424.1,622.9z"></path> </g> </g> </g> <g> <g> <g> <linearGradient id="SVGID_136_" gradientUnits="userSpaceOnUse" x1="211.082" y1="128.7461" x2="444.3422" y2="759.2761"> <stop offset="0" style="stop-color:#E65A49"></stop> <stop offset="1" style="stop-color:#F89C2B"></stop> </linearGradient> <polygon class="st37" points="406.4,654.3 393.9,645.6 406.4,636.8 408.6,640 400.7,645.6 408.6,651.2 "></polygon> </g> <g> <linearGradient id="SVGID_137_" gradientUnits="userSpaceOnUse" x1="238.8843" y1="118.3984" x2="472.17" y2="748.9976"> <stop offset="0" style="stop-color:#E65A49"></stop> <stop offset="1" style="stop-color:#F89C2B"></stop> </linearGradient> <polygon class="st38" points="429.8,654.3 427.6,651.2 435.5,645.6 427.6,640 429.8,636.8 442.3,645.6 "></polygon> </g> </g> <g> <linearGradient id="SVGID_138_" gradientUnits="userSpaceOnUse" x1="224.9727" y1="123.5459" x2="458.2583" y2="754.1449"> <stop offset="0" style="stop-color:#E65A49"></stop> <stop offset="1" style="stop-color:#F89C2B"></stop> </linearGradient> <polygon class="st39" points="416.3,653.8 412.8,652.1 419.9,637.4 423.4,639.1 "></polygon> </g> </g> </g> <g> <linearGradient id="SVGID_139_" gradientUnits="userSpaceOnUse" x1="145.9258" y1="152.7935" x2="379.2122" y2="783.3943"> <stop offset="0" style="stop-color:#E65A49"></stop> <stop offset="1" style="stop-color:#F89C2B"></stop> </linearGradient> <path class="st40" d="M298,522.9h-39.8c-7.2,0-13-5.8-13-13c0-7.2,5.8-13,13-13c0.1,0,0.2,0,0.3,0c2.5-8.7,10.4-14.8,19.6-14.8 c9.2,0,17.2,6.1,19.6,14.8c7.3-0.2,13.3,5.7,13.3,13C310.9,517.1,305.1,522.9,298,522.9z M258.1,500.8c-5,0-9.1,4.1-9.1,9.1 c0,5,4.1,9.1,9.1,9.1H298c5,0,9.1-4.1,9.1-9.1c0-5-4.1-9.1-9.1-9.1c-0.5,0-1,0-1.5,0.1l-1.9,0.3l-0.4-1.9 c-1.5-7.8-8.3-13.4-16.2-13.4s-14.7,5.6-16.2,13.4l-0.4,1.9l-1.9-0.3C259.1,500.9,258.6,500.8,258.1,500.8z"></path> </g> <g> <g> <linearGradient id="SVGID_140_" gradientUnits="userSpaceOnUse" x1="366.1797" y1="71.3174" x2="599.4639" y2="701.9123"> <stop offset="0" style="stop-color:#E65A49"></stop> <stop offset="1" style="stop-color:#F89C2B"></stop> </linearGradient> <path class="st41" d="M486.4,372.9h-25.4v-22.1h25.4V372.9z M464.8,369h17.6v-14.4h-17.6V369z"></path> </g> <g> <linearGradient id="SVGID_141_" gradientUnits="userSpaceOnUse" x1="350.6543" y1="77.0854" x2="583.9218" y2="707.6353"> <stop offset="0" style="stop-color:#E65A49"></stop> <stop offset="1" style="stop-color:#F89C2B"></stop> </linearGradient> <path class="st42" d="M462.9,371h-10.3c-2.8,0-5.1-2.3-5.1-5.1v-8.1c0-2.8,2.3-5.1,5.1-5.1h10.3v3.9h-10.3 c-0.6,0-1.2,0.5-1.2,1.2v8.1c0,0.6,0.5,1.2,1.2,1.2h10.3V371z"></path> </g> <g> <linearGradient id="SVGID_142_" gradientUnits="userSpaceOnUse" x1="393.5898" y1="61.2285" x2="626.8384" y2="691.7271"> <stop offset="0" style="stop-color:#E65A49"></stop> <stop offset="1" style="stop-color:#F89C2B"></stop> </linearGradient> <rect x="484.4" y="352.7" class="st43" width="35.4" height="3.9"></rect> </g> <g> <linearGradient id="SVGID_143_" gradientUnits="userSpaceOnUse" x1="388.8999" y1="62.9082" x2="622.1887" y2="693.5157"> <stop offset="0" style="stop-color:#E65A49"></stop> <stop offset="1" style="stop-color:#F89C2B"></stop> </linearGradient> <rect x="484.4" y="367.1" class="st44" width="35.4" height="3.9"></rect> </g> <g> <linearGradient id="SVGID_144_" gradientUnits="userSpaceOnUse" x1="415.7734" y1="53.0229" x2="649.0232" y2="683.5249"> <stop offset="0" style="stop-color:#E65A49"></stop> <stop offset="1" style="stop-color:#F89C2B"></stop> </linearGradient> <path class="st45" d="M517.9,371.3v-18.9l27.7,9.4L517.9,371.3z M521.8,357.8v8l11.7-4L521.8,357.8z"></path> </g> <g> <linearGradient id="SVGID_145_" gradientUnits="userSpaceOnUse" x1="391.2344" y1="62.042" x2="624.5232" y2="692.6495"> <stop offset="0" style="stop-color:#E65A49"></stop> <stop offset="1" style="stop-color:#F89C2B"></stop> </linearGradient> <rect x="484.4" y="359.9" class="st46" width="35.4" height="3.9"></rect> </g> </g> <g> <g> <g> <g> <linearGradient id="SVGID_146_" gradientUnits="userSpaceOnUse" x1="550.1182" y1="3.2783" x2="783.3972" y2="633.8594"> <stop offset="0" style="stop-color:#E65A49"></stop> <stop offset="1" style="stop-color:#F89C2B"></stop> </linearGradient> <path class="st47" d="M722,458.2h-28.8c-1.6,0-2.9-1.3-2.9-2.9V403c0-1.6,1.3-2.9,2.9-2.9H722c1.6,0,2.9,1.3,2.9,2.9v52.2 C725,456.9,723.7,458.2,722,458.2z M694.2,454.3h26.9v-50.3h-26.9V454.3z"></path> </g> </g> <g> <linearGradient id="SVGID_147_" gradientUnits="userSpaceOnUse" x1="543.9961" y1="5.5635" x2="777.2648" y2="636.1166"> <stop offset="0" style="stop-color:#E65A49"></stop> <stop offset="1" style="stop-color:#F89C2B"></stop> </linearGradient> <rect x="692.3" y="446" class="st48" width="30.7" height="3.9"></rect> </g> <g> <linearGradient id="SVGID_148_" gradientUnits="userSpaceOnUse" x1="556.2549" y1="1.0098" x2="789.5322" y2="631.5862"> <stop offset="0" style="stop-color:#E65A49"></stop> <stop offset="1" style="stop-color:#F89C2B"></stop> </linearGradient> <rect x="692.3" y="408.3" class="st49" width="30.7" height="3.9"></rect> </g> </g> <g> <linearGradient id="SVGID_149_" gradientUnits="userSpaceOnUse" x1="542.8262" y1="6.501" x2="775.8632" y2="636.4279"> <stop offset="0" style="stop-color:#E65A49"></stop> <stop offset="1" style="stop-color:#F89C2B"></stop> </linearGradient> <circle class="st50" cx="707.7" cy="452.1" r="1.3"></circle> </g> <g> <linearGradient id="SVGID_150_" gradientUnits="userSpaceOnUse" x1="557.5586" y1="0.5176" x2="790.8416" y2="631.1094"> <stop offset="0" style="stop-color:#E65A49"></stop> <stop offset="1" style="stop-color:#F89C2B"></stop> </linearGradient> <rect x="704.7" y="404.3" class="st51" width="5.9" height="3.9"></rect> </g> </g> <g> <g> <linearGradient id="SVGID_151_" gradientUnits="userSpaceOnUse" x1="402.9727" y1="57.7163" x2="636.2499" y2="688.2924"> <stop offset="0" style="stop-color:#E65A49"></stop> <stop offset="1" style="stop-color:#F89C2B"></stop> </linearGradient> <polygon class="st52" points="527.1,333.9 481.8,333.9 481.8,279.4 485.7,279.4 485.7,330 527.1,330 "></polygon> </g> <g> <g> <linearGradient id="SVGID_152_" gradientUnits="userSpaceOnUse" x1="394.7456" y1="60.7764" x2="628.0092" y2="691.3157"> <stop offset="0" style="stop-color:#E65A49"></stop> <stop offset="1" style="stop-color:#F89C2B"></stop> </linearGradient> <rect x="489.9" y="314.5" class="st53" width="3.9" height="17.5"></rect> </g> <g> <linearGradient id="SVGID_153_" gradientUnits="userSpaceOnUse" x1="402.5586" y1="57.8706" x2="635.8347" y2="688.4437"> <stop offset="0" style="stop-color:#E65A49"></stop> <stop offset="1" style="stop-color:#F89C2B"></stop> </linearGradient> <rect x="497.1" y="305.2" class="st54" width="3.9" height="26.7"></rect> </g> <g> <linearGradient id="SVGID_154_" gradientUnits="userSpaceOnUse" x1="407.6035" y1="56.0078" x2="640.8769" y2="686.5735"> <stop offset="0" style="stop-color:#E65A49"></stop> <stop offset="1" style="stop-color:#F89C2B"></stop> </linearGradient> <rect x="504.3" y="313.1" class="st55" width="3.9" height="18.9"></rect> </g> <g> <linearGradient id="SVGID_155_" gradientUnits="userSpaceOnUse" x1="416.6729" y1="52.6816" x2="649.9247" y2="683.1892"> <stop offset="0" style="stop-color:#E65A49"></stop> <stop offset="1" style="stop-color:#F89C2B"></stop> </linearGradient> <rect x="511.4" y="296.3" class="st56" width="3.9" height="35.7"></rect> </g> <g> <linearGradient id="SVGID_156_" gradientUnits="userSpaceOnUse" x1="425.1074" y1="49.54" x2="658.3746" y2="680.0892"> <stop offset="0" style="stop-color:#E65A49"></stop> <stop offset="1" style="stop-color:#F89C2B"></stop> </linearGradient> <rect x="518.6" y="283.2" class="st57" width="3.9" height="48.7"></rect> </g> </g> <g> <linearGradient id="SVGID_157_" gradientUnits="userSpaceOnUse" x1="408.3496" y1="55.7402" x2="641.6165" y2="686.2885"> <stop offset="0" style="stop-color:#E65A49"></stop> <stop offset="1" style="stop-color:#F89C2B"></stop> </linearGradient> <path class="st58" d="M498.9,307.2c-3.6,0-6.5-2.9-6.5-6.5c0-3.6,2.9-6.5,6.5-6.5c3.6,0,6.5,2.9,6.5,6.5 C505.5,304.3,502.6,307.2,498.9,307.2z M498.9,298c-1.5,0-2.7,1.2-2.7,2.7c0,1.5,1.2,2.7,2.7,2.7c1.5,0,2.7-1.2,2.7-2.7 C501.6,299.2,500.4,298,498.9,298z"></path> </g> </g> <g> <g> <g> <linearGradient id="SVGID_158_" gradientUnits="userSpaceOnUse" x1="114.4316" y1="164.4697" x2="347.697" y2="795.0139"> <stop offset="0" style="stop-color:#E65A49"></stop> <stop offset="1" style="stop-color:#F89C2B"></stop> </linearGradient> <rect x="158.5" y="336.8" class="st59" width="40.7" height="3.9"></rect> </g> <g> <g> <linearGradient id="SVGID_159_" gradientUnits="userSpaceOnUse" x1="129.1392" y1="159.0083" x2="362.4258" y2="789.6098"> <stop offset="0" style="stop-color:#E65A49"></stop> <stop offset="1" style="stop-color:#F89C2B"></stop> </linearGradient> <polygon class="st60" points="192.9,346.2 190.5,343.1 196.1,338.7 190.5,334.3 192.9,331.2 202.4,338.7 "></polygon> </g> <g> <linearGradient id="SVGID_160_" gradientUnits="userSpaceOnUse" x1="99.7119" y1="169.8979" x2="332.9985" y2="800.4995"> <stop offset="0" style="stop-color:#E65A49"></stop> <stop offset="1" style="stop-color:#F89C2B"></stop> </linearGradient> <polygon class="st61" points="164.9,346.2 155.4,338.7 164.9,331.2 167.3,334.3 161.7,338.7 167.3,343.1 "></polygon> </g> </g> </g> <g> <g> <linearGradient id="SVGID_161_" gradientUnits="userSpaceOnUse" x1="114.4268" y1="164.46" x2="347.7065" y2="795.043"> <stop offset="0" style="stop-color:#E65A49"></stop> <stop offset="1" style="stop-color:#F89C2B"></stop> </linearGradient> <rect x="176.9" y="318.3" class="st62" width="3.9" height="40.7"></rect> </g> <g> <g> <linearGradient id="SVGID_162_" gradientUnits="userSpaceOnUse" x1="109.8994" y1="166.2021" x2="343.1059" y2="796.5872"> <stop offset="0" style="stop-color:#E65A49"></stop> <stop offset="1" style="stop-color:#F89C2B"></stop> </linearGradient> <polygon class="st63" points="178.9,362.2 171.4,352.7 174.5,350.3 178.9,355.9 183.3,350.3 186.3,352.7 "></polygon> </g> <g> <linearGradient id="SVGID_163_" gradientUnits="userSpaceOnUse" x1="118.9736" y1="162.7686" x2="352.265" y2="793.3828"> <stop offset="0" style="stop-color:#E65A49"></stop> <stop offset="1" style="stop-color:#F89C2B"></stop> </linearGradient> <polygon class="st64" points="183.3,327.1 178.9,321.5 174.5,327.1 171.4,324.7 178.9,315.2 186.3,324.7 "></polygon> </g> </g> </g> </g> <g> <g> <linearGradient id="SVGID_164_" gradientUnits="userSpaceOnUse" x1="398.9189" y1="59.2148" x2="632.1976" y2="689.7949"> <stop offset="0" style="stop-color:#E65A49"></stop> <stop offset="1" style="stop-color:#F89C2B"></stop> </linearGradient> <path class="st65" d="M430.1,161.1c-9.7,0-17.6-7.9-17.6-17.6c0-9.7,7.9-17.6,17.6-17.6c9.7,0,17.6,7.9,17.6,17.6 C447.7,153.2,439.8,161.1,430.1,161.1z M430.1,129.7c-7.6,0-13.7,6.2-13.7,13.7c0,7.6,6.2,13.7,13.7,13.7 c7.6,0,13.7-6.2,13.7-13.7C443.8,135.9,437.6,129.7,430.1,129.7z"></path> </g> <g> <linearGradient id="SVGID_165_" gradientUnits="userSpaceOnUse" x1="398.9175" y1="59.2109" x2="632.2084" y2="689.824"> <stop offset="0" style="stop-color:#E65A49"></stop> <stop offset="1" style="stop-color:#F89C2B"></stop> </linearGradient> <rect x="428.1" y="135" class="st66" width="3.9" height="16.8"></rect> </g> <g> <linearGradient id="SVGID_166_" gradientUnits="userSpaceOnUse" x1="398.9224" y1="59.2271" x2="632.1696" y2="689.7219"> <stop offset="0" style="stop-color:#E65A49"></stop> <stop offset="1" style="stop-color:#F89C2B"></stop> </linearGradient> <rect x="421.7" y="141.5" class="st67" width="16.8" height="3.9"></rect> </g> </g> <g> <linearGradient id="SVGID_167_" gradientUnits="userSpaceOnUse" x1="193.1982" y1="135.3198" x2="426.4788" y2="765.905"> <stop offset="0" style="stop-color:#E65A49"></stop> <stop offset="1" style="stop-color:#F89C2B"></stop> </linearGradient> <path class="st68" d="M226.8,218.7c1.9,3.2,4.3,5.6,7.5,7.5c-3.2,1.9-5.6,4.3-7.5,7.5c-1.9-3.2-4.3-5.6-7.5-7.5 C222.5,224.3,224.9,221.9,226.8,218.7 M226.8,207.9c-2.9,11.3-6.9,15.3-18.2,18.2c11.3,2.9,15.3,6.9,18.2,18.2 c2.9-11.3,6.9-15.3,18.2-18.2C233.7,223.2,229.7,219.2,226.8,207.9L226.8,207.9z"></path> </g> <g> <g> <linearGradient id="SVGID_168_" gradientUnits="userSpaceOnUse" x1="293.0552" y1="98.3882" x2="526.3046" y2="728.8892"> <stop offset="0" style="stop-color:#E65A49"></stop> <stop offset="1" style="stop-color:#F89C2B"></stop> </linearGradient> <path class="st69" d="M318.4,173.1c-3.4,0-6.2-2.8-6.2-6.2c0-3.4,2.8-6.2,6.2-6.2c3.4,0,6.2,2.8,6.2,6.2 C324.6,170.4,321.8,173.1,318.4,173.1z M318.4,164.6c-1.3,0-2.3,1-2.3,2.3c0,1.3,1,2.3,2.3,2.3c1.3,0,2.3-1,2.3-2.3 C320.7,165.7,319.7,164.6,318.4,164.6z"></path> </g> <g> <linearGradient id="SVGID_169_" gradientUnits="userSpaceOnUse" x1="313.5352" y1="90.8076" x2="546.8013" y2="721.3539"> <stop offset="0" style="stop-color:#E65A49"></stop> <stop offset="1" style="stop-color:#F89C2B"></stop> </linearGradient> <path class="st70" d="M341.7,173.1c-3.4,0-6.2-2.8-6.2-6.2c0-3.4,2.8-6.2,6.2-6.2c3.4,0,6.2,2.8,6.2,6.2 C347.9,170.4,345.1,173.1,341.7,173.1z M341.7,164.6c-1.3,0-2.3,1-2.3,2.3c0,1.3,1,2.3,2.3,2.3c1.3,0,2.3-1,2.3-2.3 C344,165.7,343,164.6,341.7,164.6z"></path> </g> <g> <linearGradient id="SVGID_170_" gradientUnits="userSpaceOnUse" x1="334.0146" y1="83.231" x2="567.2808" y2="713.7772"> <stop offset="0" style="stop-color:#E65A49"></stop> <stop offset="1" style="stop-color:#F89C2B"></stop> </linearGradient> <path class="st71" d="M365,173.1c-3.4,0-6.2-2.8-6.2-6.2c0-3.4,2.8-6.2,6.2-6.2c3.4,0,6.2,2.8,6.2,6.2 C371.2,170.4,368.4,173.1,365,173.1z M365,164.6c-1.3,0-2.3,1-2.3,2.3c0,1.3,1,2.3,2.3,2.3c1.3,0,2.3-1,2.3-2.3 C367.3,165.7,366.3,164.6,365,164.6z"></path> </g> </g> <g> <linearGradient id="SVGID_171_" gradientUnits="userSpaceOnUse" x1="414.791" y1="53.2598" x2="648.1019" y2="683.9269"> <stop offset="0" style="stop-color:#E65A49"></stop> <stop offset="1" style="stop-color:#F89C2B"></stop> </linearGradient> <path class="st72" d="M638.2,574.6c-2.2,0-4.2-1.3-5.9-2.4c-1.5-0.9-3-1.9-3.8-1.6c-0.7,0.3-1.5,0.9-2.3,1.5c-1,0.7-2,1.5-3.2,2 c-2.2,0.9-4.8,0.3-7.4-1.6c-1.5-1.1-3.1-2.2-4.1-2.1c-0.9,0.1-1.9,0.9-2.9,1.7c-0.6,0.4-1.2,0.9-1.9,1.3c-2.3,1.5-5.2,1.4-7.6,0 c-0.7-0.4-1.2-0.9-1.8-1.3c-1.1-0.8-2.1-1.5-2.9-1.7c-1.1-0.1-2.6,0.8-4.1,1.8c-2.2,1.4-4.7,3-7.4,1.9c-1.2-0.5-2.2-1.3-3.2-2 c-0.8-0.6-1.6-1.2-2.3-1.5c-0.8-0.3-2.2,0.1-3.6,1.1c-2.1,1.5-4.3,3.2-6.9,2.8c-1.8-0.3-3.3-1.4-4.6-2.4c-0.5-0.4-1.1-0.8-1.6-1.1 l2.1-3.3c0.7,0.4,1.3,0.9,1.9,1.3c1.1,0.8,2,1.5,2.9,1.7c1,0.1,2.6-1,4-2.1c2.7-2,5.3-2.5,7.5-1.6c1.2,0.5,2.2,1.3,3.2,2 c0.8,0.6,1.6,1.2,2.3,1.5c0.8,0.3,2.3-0.6,3.8-1.6c2-1.3,4.2-2.7,6.7-2.4c1.8,0.3,3.3,1.3,4.7,2.4c0.5,0.4,1.1,0.8,1.6,1.1 c1.1,0.7,2.4,0.7,3.4,0c0.5-0.3,1-0.7,1.6-1.1c1.4-1,2.8-2.1,4.6-2.4c2.6-0.4,4.9,1.3,6.9,2.8c1.5,1.1,2.8,1.5,3.7,1.2 c0.8-0.3,1.5-0.9,2.3-1.5c1-0.7,2-1.5,3.2-2c2.7-1.1,5.2,0.5,7.4,1.9c1.5,1,3,1.9,4.1,1.8c0.8-0.1,1.8-0.9,2.9-1.7 c0.6-0.4,1.2-0.9,1.8-1.3c2.3-1.5,5.2-1.5,7.6,0l-2.1,3.3c-1.1-0.7-2.4-0.7-3.4,0c-0.5,0.3-1,0.7-1.6,1.1 c-1.4,1.1-2.9,2.1-4.7,2.4C638.7,574.6,638.5,574.6,638.2,574.6z"></path> </g> <g> <linearGradient id="SVGID_172_" gradientUnits="userSpaceOnUse" x1="358.6279" y1="74.1445" x2="591.8959" y2="704.6956"> <stop offset="0" style="stop-color:#E65A49"></stop> <stop offset="1" style="stop-color:#F89C2B"></stop> </linearGradient> <path class="st73" d="M560,611c1.9,3.2,4.3,5.6,7.5,7.5c-3.2,1.9-5.6,4.3-7.4,7.5c-1.9-3.2-4.3-5.6-7.5-7.5 C555.7,616.6,558.1,614.2,560,611 M560,600.2c-2.9,11.3-6.9,15.3-18.2,18.2c11.3,2.9,15.3,6.9,18.2,18.2 c2.9-11.3,6.9-15.3,18.2-18.2C566.9,615.6,562.9,611.6,560,600.2L560,600.2z"></path> </g> <g> <g> <path class="st84" d="M141.9,294c-2.3,7.3-4.4,14.8-6.1,22.2"></path> </g> <g> <path class="st84" d="M127.6,387.1c0,8.2,0.3,16.4,1,24.5c0.4,5.7,1.1,11.4,1.8,17"></path> </g> <g> <path class="st84" d="M292,659.4c14.1,7.4,28.9,13.8,43.9,18.9"></path> </g> <g> <path class="st84" d="M435.1,694.7c58.1,0,114.6-16.3,163.5-47"></path> </g> <g> <path class="st84" d="M678.6,575.1c42-54.2,64.1-119.2,64.1-188c0-107.8-54.9-205.9-147-262.4"></path> </g> <g> <path class="st84" d="M538.4,97.3c-33.1-11.8-67.8-17.7-103.2-17.7"></path> </g> <g> <path class="st84" d="M352.3,90.8c-23.2,6.5-45.7,15.7-66.8,27.5"></path> </g> <g> <path class="st84" d="M227.1,160.6c-14.3,13.2-27.5,27.8-39.1,43.4"></path> </g> <g> <path class="st84" d="M408.3,594.8c8.8,1.1,17.8,1.7,26.8,1.7c55.7,0,108.1-21.6,147.6-60.8"></path> </g> <g> <path class="st84" d="M636.2,446c5.6-19.1,8.4-38.9,8.4-58.9c0-12.6-1.1-25.3-3.4-37.6"></path> </g> <g> <path class="st84" d="M612.5,275.7c-38.6-61.4-105-98-177.4-98c-106.8,0-196.3,79.9-208.1,185.9"></path> </g> </g> </g> </svg> 