<?xml version="1.0" encoding="utf-8"?>
<!-- Generator: Adobe Illustrator 16.0.4, SVG Export Plug-In . SVG Version: 6.00 Build 0)  -->
<!DOCTYPE svg PUBLIC "-//W3C//DTD SVG 1.1//EN" "http://www.w3.org/Graphics/SVG/1.1/DTD/svg11.dtd">
<svg version="1.1" id="BACKGROUND_1" xmlns="http://www.w3.org/2000/svg" xmlns:xlink="http://www.w3.org/1999/xlink" x="0px"
	 y="0px" width="750px" height="500px" viewBox="0 0 750 500" style="enable-background:new 0 0 750 500;" xml:space="preserve">
<linearGradient id="SVGID_1_" gradientUnits="userSpaceOnUse" x1="249.082" y1="147.0645" x2="823.6823" y2="624.8611">
	<stop  offset="0" style="stop-color:#3A495E"/>
	<stop  offset="0.5392" style="stop-color:#3896D2"/>
	<stop  offset="1" style="stop-color:#74C0C1"/>
</linearGradient>
<rect x="-10.3" y="-7.9" style="fill:url(#SVGID_1_);" width="770" height="518.9"/>
<g>
	
		<image style="overflow:visible;opacity:0.3;" width="947" height="805" xlink:href="F102CE69ADF7CE5.png"  transform="matrix(1 0 0 1 -59.6968 -162)">
	</image>
	<g>
		<linearGradient id="SVGID_2_" gradientUnits="userSpaceOnUse" x1="230.0317" y1="22.5186" x2="532.8738" y2="417.7224">
			<stop  offset="0" style="stop-color:#3A495E"/>
			<stop  offset="0.5392" style="stop-color:#3896D2"/>
			<stop  offset="1" style="stop-color:#74C0C1"/>
		</linearGradient>
		<path style="fill:url(#SVGID_2_);" d="M844.3,86.1c-22.1,57.1-67.8,104.7-123.9,129.1s-122.1,25.2-178.9,2.2
			c-34.3-13.9-64.7-35.7-97.8-52.2c-28.8-14.3-59.6-24.6-91.3-30.4c-24.7-4.5-51.3-6-73.9,5.1c-27.4,13.5-43,42.5-63.4,65.3
			c-29.2,32.7-69.4,53.3-103.5,80.9c-9.9,8-20.1,18.1-20.6,30.8c-0.7,15.2,13.4,27.9,28.3,31c14.9,3.1,30.3-1,44.9-5.3
			c58.7-17.3,116.9-38.3,177.8-45c60.8-6.7,126.3,2.6,174.4,40.5c30,23.7,52.8,57.8,88.2,72.2c24.9,10.1,52.8,9,79.7,7.7
			c26.9-1.3,54.8-2.3,79.7,8c24.9,10.3,45.7,35.5,42,62.2c-3.6,25.4-27,43-49.8,54.7c-32.9,16.8-68.6,27.6-104.3,36.9
			c-173.1,45.3-358.8,59.2-530,6.9c-32.9-10-65.8-22.9-91.8-45.5c-21.8-19.1-37.6-44.2-49.5-70.7C-59,383-56.9,282.1-41,187.3
			C-29.3,118.2-9.9,48.6,31.4-8c45.1-61.6,113.8-103.4,187.1-124.9c73.2-21.5,151-23.8,227-17C581.2-137.7,719.6-93.4,814.8,4
			c24.9,25.5,47.3,56.3,50.1,91.8"/>
	</g>
</g>
<g>
	
		<image style="overflow:visible;opacity:0.3;" width="912" height="537" xlink:href="F102CE69ADF7CE7.png"  transform="matrix(1 0 0 1 -102.6968 -171)">
	</image>
	<g>
		<linearGradient id="SVGID_3_" gradientUnits="userSpaceOnUse" x1="317.1274" y1="-15.4209" x2="384.6227" y2="261.6662">
			<stop  offset="0" style="stop-color:#3A495E"/>
			<stop  offset="0.5392" style="stop-color:#3896D2"/>
			<stop  offset="1" style="stop-color:#74C0C1"/>
		</linearGradient>
		<path style="fill:url(#SVGID_3_);" d="M-71.4,264.6c-1.1,24.8-0.6,53.3,18.4,69.2c15,12.5,37.6,12.5,55.4,4.5
			c25.3-11.3,42.4-35.6,53.3-61.1c10.9-25.4,16.9-52.7,27.3-78.3c25-61.7,78.8-113.3,144-126.3c49-9.8,100,2,146,21.4
			c46,19.3,88.6,46,133.5,67.8c25.2,12.2,51.7,23.1,79.6,25.9c31.1,3.1,62.6-4,91.2-16.7c36.3-16.2,68.9-42.3,89-76.6
			S792.9,17,779.7-20.6c-12.8-36.6-42.6-65-75.5-85.7c-53.2-33.5-115.9-49.8-178.6-54.5c-62.7-4.6-125.7,2-187.8,11.6
			c-91.9,14.3-184.3,35.9-264.6,82.7C-7.1-19.6-74.6,55.7-94.1,146.6"/>
	</g>
</g>
<g>
	
		<image style="overflow:visible;opacity:0.3;" width="797" height="416" xlink:href="F102CE69ADF7CE2.png"  transform="matrix(1 0 0 1 -87.6968 299)">
	</image>
	<g>
		
			<linearGradient id="SVGID_4_" gradientUnits="userSpaceOnUse" x1="139.9883" y1="693.792" x2="362.9911" y2="352.9158" gradientTransform="matrix(0.9897 -0.1495 0.2293 1.518 -98.3422 -180.881)">
			<stop  offset="0" style="stop-color:#3A495E"/>
			<stop  offset="0.5392" style="stop-color:#3896D2"/>
			<stop  offset="1" style="stop-color:#74C0C1"/>
		</linearGradient>
		<path style="fill:url(#SVGID_4_);" d="M-79.1,307.1c26.1,58.6,70.3,100.1,114.8,107.4c47.5,7.8,90.7-20.8,133.5-42.9
			c50.2-25.9,103.1-43.7,157.9-47.3c51.8-3.5,107.1,6.7,155,48.5c34.6,30.2,63.2,75,96.1,109.8c23.2,24.5,48.5,44,74.8,57.5
			c7.7,4,15.7,7.6,22.5,14.9c6.8,7.3,12.2,19.5,11.3,31c-1.2,14.4-11.1,21.4-20,26c-57.8,29.8-119.7,44.3-181.6,56.5
			c-91.6,18.1-184.7,31.3-279.3,20.6c-41-4.6-82.8-14-121.9-40.3c-78.8-52.9-140-182-135.9-304.3"/>
	</g>
</g>
<g>
	
		<image style="overflow:visible;opacity:0.3;" width="791" height="360" xlink:href="F102CE69ADF7CE3.png"  transform="matrix(1 0 0 1 -80.6968 -47)">
	</image>
	<g>
		<linearGradient id="SVGID_5_" gradientUnits="userSpaceOnUse" x1="134.0518" y1="-43.8066" x2="479.0519" y2="313.1932">
			<stop  offset="0" style="stop-color:#3A495E"/>
			<stop  offset="0.5392" style="stop-color:#3896D2"/>
			<stop  offset="1" style="stop-color:#74C0C1"/>
		</linearGradient>
		<path style="fill:url(#SVGID_5_);" d="M-72.6,274.9c1.5,12.3,17.4,18.5,29.1,14.3C-31.8,285-24,274-18,263.2
			c10.9-19.6,18.5-41,22.5-63.1c4.4-24.1,4.4-48.9,10.4-72.7c6-23.8,19.5-47.4,42-57.1c30.4-13.1,65.9,3.1,98.3-3.5
			c18.8-3.8,35.2-15,52.3-23.6c43.6-21.7,96.1-26.7,141.8-9.8c45.1,16.6,80.2,52.1,119.5,79.7s90.4,48.1,134.8,29.7
			c23.6-9.8,48.7-27.1,63.1-48.3c16.6-24.3,22.5-55.1,20.3-84.5c-1-12.6-5.2-25.7-15-33.8c-10.3-8.5-24.7-9.9-38.1-10.7
			C423.2-47.2,211.5-24.2,0.7-36.9c-12.2-0.7-27-0.3-33.2,10.2c-2.4,4-3,8.7-3.5,13.3c-8.7,73-17.4,146.1-26,219.1"/>
	</g>
</g>
<g>
	
		<image style="overflow:visible;opacity:0.3;" width="495" height="258" xlink:href="F102CE69ADF7CED.png"  transform="matrix(1 0 0 1 -74.6968 355)">
	</image>
	<g>
		<linearGradient id="SVGID_6_" gradientUnits="userSpaceOnUse" x1="-136.9561" y1="582.8047" x2="236.9338" y2="435.38">
			<stop  offset="0" style="stop-color:#3A495E"/>
			<stop  offset="0.5392" style="stop-color:#3896D2"/>
			<stop  offset="1" style="stop-color:#74C0C1"/>
		</linearGradient>
		<path style="fill:url(#SVGID_6_);" d="M-65.9,397.7c12.8,32.2,46.1,52.1,79.8,60.4c46.5,11.4,97.3,4.5,139.1-18.9
			c25.1-14.1,46.7-33.6,70.7-49.5c24-15.9,51.9-28.6,80.6-26.1c38.7,3.3,70.9,34.4,85.3,70.5c11.5,28.5,12.9,63.4-5.6,87.8
			c-14.3,19-37.8,28.4-60.3,35.9c-62.1,20.7-127.4,33.5-192.8,32.3c-43.5-0.8-88.4-8.4-124.3-33c-26.1-18-46.2-44.6-56.3-74.7"/>
	</g>
</g>
<g>
	
		<image style="overflow:visible;opacity:0.3;" width="192" height="201" xlink:href="F102CE69ADF7CEF.png"  transform="matrix(1 0 0 1 475.3032 -88)">
	</image>
	<g>
		<linearGradient id="SVGID_7_" gradientUnits="userSpaceOnUse" x1="451.4912" y1="-160.0957" x2="586.4911" y2="18.9044">
			<stop  offset="0" style="stop-color:#3A495E"/>
			<stop  offset="0.5392" style="stop-color:#3896D2"/>
			<stop  offset="1" style="stop-color:#74C0C1"/>
		</linearGradient>
		<path style="fill:url(#SVGID_7_);" d="M490.6-33.9c-14.2,36.1-7.3,81.7,22.5,106.5c15.7,13,36.7,19.4,56.9,17.4
			c20.3-2,39.6-12.5,52.3-28.4c10.3-12.8,16.3-28.6,19.4-44.7c6.3-32.3,1.7-66.6-13.1-96"/>
	</g>
</g>
</svg>
